<svg width="21" height="20" viewBox="0 0 21 20" fill="none" xmlns="http://www.w3.org/2000/svg">
<path d="M10.25 0C4.73 0 0.25 4.48 0.25 10C0.25 15.52 4.73 20 10.25 20C15.77 20 20.25 15.52 20.25 10C20.25 4.48 15.77 0 10.25 0ZM14.25 11H11.25V14C11.25 14.55 10.8 15 10.25 15C9.7 15 9.25 14.55 9.25 14V11H6.25C5.7 11 5.25 10.55 5.25 10C5.25 9.45 5.7 9 6.25 9H9.25V6C9.25 5.45 9.7 5 10.25 5C10.8 5 11.25 5.45 11.25 6V9H14.25C14.8 9 15.25 9.45 15.25 10C15.25 10.55 14.8 11 14.25 11Z" fill="white"/>
</svg>
