<svg width="40" height="39" viewBox="0 0 40 39" fill="none" xmlns="http://www.w3.org/2000/svg">
<path d="M38.9484 35.8371C38.2318 36.961 37.2219 37.8568 36.0328 38.4595C35.984 38.4758 35.9514 38.5084 35.9025 38.5409C35.8536 38.5898 35.8048 38.6224 35.7722 38.6712C35.7071 38.6387 35.6419 38.6224 35.5767 38.5898C33.4755 37.7754 31.3092 37.1564 29.1103 36.7329C27.7909 36.4723 26.4715 36.2931 25.1522 36.1628C24.9078 36.1465 24.6798 36.114 24.4355 36.0977C21.5687 35.8696 18.6857 35.9185 15.8189 36.1954C15.6072 36.2117 15.3791 36.2443 15.1674 36.2606C11.3722 36.6678 7.60957 37.4496 3.94468 38.4758C3.94468 38.4758 3.94467 38.4758 3.92838 38.4758C3.7655 38.5084 3.60262 38.5572 3.45603 38.6387C2.42986 38.1174 1.53399 37.3356 0.915029 36.3583C0.377512 35.5113 -0.225155 34.2734 0.0843247 33.2472C0.0843247 33.2309 0.0843208 33.2309 0.100609 33.2146C0.458954 32.1396 1.71316 32.2536 2.57645 32.612C3.60262 33.0355 4.48219 33.7684 5.08487 34.6806C6.0133 33.8825 6.63226 32.8237 7.07204 31.6835C7.10462 31.5858 7.1372 31.5043 7.16978 31.4066C7.72358 29.7941 8.03307 28.0838 8.42399 26.4224C8.8312 24.7121 9.23841 23.0018 9.64562 21.2752C9.9551 19.9559 10.3134 18.6528 10.574 17.3172C10.5252 14.825 10.0528 12.3655 10.118 9.88965C10.1831 7.90246 10.6555 5.86641 11.9097 4.30272C11.6817 4.12355 11.4862 3.9118 11.3559 3.66748C10.851 3.08109 10.7206 2.21781 11.2256 1.48483C12.0726 0.263202 13.9295 0.57268 14.4181 1.94091C18.6205 -0.746681 24.0608 -0.63266 28.1492 2.21781C28.4913 1.06133 30.0224 0.735567 30.788 1.74545C31.6512 2.85306 30.7554 4.23757 29.55 4.43303C30.6251 6.61568 31.1463 9.04265 30.9997 11.4859C30.9346 12.675 30.7065 13.864 30.5273 15.0531C30.4133 21.5521 31.8956 28.0512 34.8438 33.8499C35.3487 33.0192 36.0817 32.3351 36.9613 31.8953C37.8245 31.4555 39.2905 31.146 39.7954 32.221C39.8117 32.2536 39.828 32.3025 39.8443 32.3351C40.2841 33.4427 39.5185 34.9412 38.9484 35.8371Z" fill="#A57359"/>
<path d="M23.5732 13.2288C23.4754 13.8966 23.0031 14.4504 22.433 14.7599C21.7163 15.1508 20.8856 15.1671 20.1037 15.0531C19.4033 14.939 18.6378 14.711 18.1817 14.1246C17.4976 13.2613 17.693 12.2515 18.1654 11.3556C18.1654 11.3393 18.1817 11.3393 18.1817 11.323C18.54 10.6226 19.0124 9.75934 19.6639 9.28697C20.234 8.86347 20.9344 8.86347 21.5371 9.18924C22.2375 9.54759 22.661 10.2317 22.9705 10.9321C23.28 11.6162 23.7035 12.4306 23.5732 13.2288Z" fill="#915C47"/>
<path d="M21.6507 14.6784C21.5042 14.6295 21.3576 14.6295 21.211 14.5969C21.097 14.5643 20.9992 14.5155 20.8852 14.4666C20.8852 14.4503 20.9015 14.434 20.9015 14.4178C20.8689 13.6685 20.8363 12.9355 20.8038 12.1862C21.1132 12.1374 21.3576 11.9256 21.553 11.665C21.9602 11.2904 22.2371 10.7203 21.7648 10.2805C21.439 9.98731 20.9829 9.9873 20.5757 9.9873C20.2174 10.0036 19.8102 10.0199 19.5007 10.2479C19.4844 10.2479 19.4681 10.2642 19.4518 10.2805C19.4355 10.2968 19.403 10.3294 19.3867 10.3457C19.3052 10.4108 19.2564 10.5085 19.2238 10.59C19.1586 10.7529 19.1423 10.932 19.2075 11.1112C19.2401 11.1764 19.2726 11.2415 19.3215 11.3067C19.5007 11.6487 19.8753 11.9582 20.2011 12.0885C20.3314 12.1374 20.4617 12.17 20.5757 12.1862C20.6083 12.9192 20.6409 13.6522 20.6734 14.3852C20.6572 14.3852 20.6409 14.3852 20.6246 14.4015C20.4454 14.5318 20.25 14.5969 20.0382 14.6132C19.9079 14.6132 19.9079 14.825 20.0382 14.825C20.2988 14.8087 20.5431 14.6947 20.7223 14.5155C20.7223 14.5155 20.7223 14.5155 20.7223 14.4992C20.7549 14.5155 20.7875 14.5155 20.82 14.5155C20.9178 14.5969 21.0318 14.6621 21.1621 14.7109C21.3087 14.7761 21.5042 14.8412 21.667 14.7924C21.7159 14.7924 21.7159 14.6947 21.6507 14.6784Z" fill="#382014"/>
<path opacity="0.2" d="M25.2826 34.697C25.25 35.1856 25.2011 35.6743 25.136 36.1629C24.8916 36.1466 24.6636 36.114 24.4193 36.0978C21.5525 35.8697 18.6695 35.9186 15.8027 36.1955C15.591 36.2118 15.3629 36.2444 15.1512 36.2606C15.1349 36.1955 15.1349 36.1303 15.1186 36.0652C14.8254 34.3223 14.5322 32.5469 14.5322 30.7715C14.5322 28.2305 15.5421 25.5429 17.9365 24.3375C19.0278 23.7837 20.3309 23.6209 21.5199 23.9303C22.709 24.2398 23.6537 25.0217 24.3053 26.0478C25.022 27.188 25.3151 28.5399 25.4129 29.8756C25.5269 31.4719 25.4129 33.1007 25.2826 34.697Z" fill="#A57359"/>
<path d="M18.0659 24.37C17.9031 25.445 16.828 26.1129 15.8181 26.1617C14.4988 26.2269 13.1794 25.5102 12.1695 24.7283C11.1597 23.9465 10.3615 22.9529 9.79143 21.8127C9.72628 21.6824 9.92174 21.5521 9.9869 21.6987C10.6059 22.9529 11.518 24.0442 12.6745 24.8424C13.7169 25.5591 15.1503 26.2594 16.4371 25.8359C17.0235 25.6405 17.5936 25.1844 17.7727 24.5818C17.9682 23.9139 17.675 23.2624 17.2189 22.7737C16.3394 21.829 15.0037 21.5847 13.9938 20.8354C13.212 20.2653 12.6093 19.288 12.9188 18.2944C12.9677 18.1478 13.1957 18.213 13.1468 18.3596C12.5768 20.2327 14.9223 21.0635 16.1765 21.7313C17.1701 22.2036 18.2451 23.1321 18.0659 24.37Z" fill="#915C47"/>
<path d="M30.8528 21.7964C30.299 22.9366 29.4846 23.9465 28.4747 24.712C27.4648 25.4939 26.1455 26.2106 24.8261 26.1454C23.8162 26.0965 22.7249 25.4287 22.5783 24.3537C22.3991 23.1158 23.4742 22.1873 24.4515 21.6661C25.7057 21.0146 28.0512 20.1676 27.4811 18.2944C27.4323 18.1478 27.6603 18.0826 27.7092 18.2292C28.0186 19.2228 27.416 20.1838 26.6341 20.7702C25.6242 21.5195 24.2886 21.7638 23.409 22.7086C22.953 23.1972 22.6598 23.8487 22.8552 24.5166C23.0344 25.1355 23.6045 25.5916 24.1909 25.7708C25.4777 26.1943 26.911 25.4939 27.9535 24.7772C29.11 23.979 30.0221 22.904 30.6411 21.6498C30.7225 21.5521 30.918 21.6661 30.8528 21.7964Z" fill="#915C47"/>
<path d="M4.18834 38.0687C4.12319 38.2153 4.04175 38.3619 3.94402 38.4759C3.78113 38.5084 3.61825 38.5573 3.47165 38.6388C2.44548 38.1175 1.54962 37.3357 0.930663 36.3584C0.393146 35.5114 -0.209531 34.2735 0.0999488 33.2473C0.0999488 33.231 0.0999548 33.231 0.116243 33.2147C1.38674 33.2147 2.60837 33.7359 3.42279 34.7458C4.13948 35.6254 4.66071 36.9773 4.18834 38.0687Z" fill="#915C47"/>
<path d="M38.9486 35.837C38.2319 36.9609 37.222 37.8568 36.033 38.4594C35.9841 38.4757 35.9515 38.5083 35.9026 38.5409C35.8538 38.5897 35.8049 38.6223 35.7723 38.6712C35.7072 38.6386 35.642 38.6223 35.5769 38.5897C35.3814 37.1889 35.6257 35.7718 36.3099 34.5339C36.8637 33.5078 37.8898 32.2373 39.1603 32.1395C39.4209 32.1232 39.649 32.1558 39.8444 32.221C39.8607 32.2535 39.877 32.3024 39.8933 32.335C40.2842 33.4426 39.5187 34.9411 38.9486 35.837Z" fill="#915C47"/>
<path d="M13.6201 2.49478C13.5712 2.91827 13.2455 3.22776 12.8545 3.34177C12.5939 3.40693 12.317 3.39064 12.089 3.24404C11.4374 2.83683 11.4537 1.8921 12.1053 1.51747C12.203 1.46861 12.2844 1.41974 12.3822 1.40346C13.0663 1.09398 13.7015 1.85953 13.6201 2.49478Z" fill="#915C47"/>
<path d="M30.6079 3.09739C30.4124 3.60233 29.7934 3.94439 29.2234 3.66748C28.6044 3.37429 28.5392 2.69018 28.8324 2.20153C28.8324 2.20153 28.8324 2.20153 28.8324 2.18524C28.8324 2.18524 28.8324 2.18524 28.8324 2.16895C28.979 1.92462 29.2234 1.74545 29.5166 1.6803C29.5491 1.6803 29.5817 1.6803 29.598 1.69659C29.9726 1.66401 30.3635 1.8269 30.5753 2.21782C30.7545 2.5273 30.7382 2.83678 30.6079 3.09739Z" fill="#915C47"/>
<path d="M14.9886 10.0036C14.9886 10.3457 14.5162 10.6226 13.9298 10.6226C13.3435 10.6226 12.8711 10.3457 12.8711 10.0036C12.8711 9.66154 13.3435 9.38464 13.9298 9.38464C14.5162 9.38464 14.9886 9.66154 14.9886 10.0036Z" fill="#E59787"/>
<path d="M28.1985 10.0036C28.1985 10.3457 27.7262 10.6226 27.1398 10.6226C26.5534 10.6226 26.0811 10.3457 26.0811 10.0036C26.0811 9.66154 26.5534 9.38464 27.1398 9.38464C27.7262 9.38464 28.1985 9.66154 28.1985 10.0036Z" fill="#E59787"/>
<path d="M16.3559 7.82104C15.6881 7.82104 15.2972 8.48887 15.4438 9.09154C15.4763 9.20556 15.6392 9.20556 15.6555 9.09154C15.737 8.73319 15.8021 8.26083 16.2582 8.19568C16.7631 8.11423 16.9423 8.60289 16.8934 9.0101C16.8772 9.15669 17.0889 9.18927 17.154 9.07525C17.4961 8.52145 16.9749 7.82104 16.3559 7.82104Z" fill="#2A2B29"/>
<path d="M25.1847 7.59302C25.8525 7.59302 26.2435 8.26084 26.0969 8.86351C26.0643 8.97753 25.9014 8.97753 25.8851 8.86351C25.8037 8.50517 25.7385 8.0328 25.2825 7.96765C24.7775 7.88621 24.5983 8.37486 24.6472 8.78207C24.6635 8.92866 24.4518 8.96124 24.3866 8.84722C24.0283 8.27713 24.5658 7.59302 25.1847 7.59302Z" fill="#2A2B29"/>
<path d="M17.9208 24.8262C17.7416 25.1682 17.5299 25.5266 17.3996 25.9012C17.3833 25.9501 17.4647 25.9827 17.4973 25.9338C17.7091 25.608 17.8557 25.2334 18.0185 24.875C18.0348 24.8099 17.9534 24.761 17.9208 24.8262Z" fill="#915C47"/>
<path d="M19.1257 24.8098C19.0931 25.1845 19.0605 25.5428 19.0605 25.9175C19.0605 25.9826 19.1583 25.9826 19.1583 25.9175C19.1909 25.5428 19.1908 25.1845 19.2071 24.8098C19.2071 24.761 19.1257 24.761 19.1257 24.8098Z" fill="#915C47"/>
<path d="M20.1843 24.7936C20.1843 24.761 20.1191 24.761 20.1191 24.7936C20.1354 25.2171 20.1028 25.7057 20.2169 26.1292C20.2332 26.1781 20.282 26.1618 20.2983 26.113C20.3472 25.7057 20.2494 25.2171 20.1843 24.7936Z" fill="#915C47"/>
<path d="M21.2273 24.7284C21.211 24.6958 21.1621 24.6958 21.1621 24.7447C21.1947 25.103 21.2273 25.4777 21.3413 25.8197C21.3576 25.8849 21.4716 25.8849 21.4716 25.8034C21.439 25.4451 21.325 25.0867 21.2273 24.7284Z" fill="#915C47"/>
<path d="M22.5302 24.8913C22.5139 24.8262 22.4162 24.8588 22.4325 24.9239C22.5139 25.3474 22.5628 25.7872 22.6931 26.1944C22.7094 26.2433 22.7908 26.2433 22.7908 26.1781C22.7582 25.7383 22.6279 25.3148 22.5302 24.8913Z" fill="#915C47"/>
<path d="M16.2106 26.5526C16.0315 26.9761 15.836 27.3996 15.7057 27.8394C15.6894 27.8883 15.7546 27.9209 15.7871 27.872C16.0152 27.4648 16.1618 27.025 16.3247 26.5852C16.3572 26.5364 16.2432 26.4875 16.2106 26.5526Z" fill="#915C47"/>
<path d="M17.6105 26.9111C17.5453 27.3509 17.4802 27.7907 17.4639 28.2468C17.4639 28.2956 17.5453 28.3119 17.5453 28.263C17.6268 27.8233 17.6593 27.3835 17.6919 26.9274C17.7082 26.8622 17.6105 26.846 17.6105 26.9111Z" fill="#915C47"/>
<path d="M19.3705 26.9598C19.3542 26.8947 19.2728 26.9272 19.2728 26.9761C19.2402 27.3019 19.2565 27.6277 19.3054 27.9371C19.3217 28.0186 19.4357 27.986 19.4357 27.9208C19.452 27.5951 19.4357 27.2693 19.3705 26.9598Z" fill="#915C47"/>
<path d="M21.0641 26.7644C21.0641 26.6993 20.9501 26.6993 20.9501 26.7644C20.9501 27.1391 20.9175 27.5137 20.9664 27.8721C20.9827 27.9372 21.0641 27.9372 21.0641 27.8721C21.113 27.4974 21.0804 27.1228 21.0641 26.7644Z" fill="#915C47"/>
<path d="M22.3506 26.8133C22.3506 26.7318 22.2203 26.7318 22.2203 26.8133C22.2203 27.1716 22.1877 27.53 22.2692 27.8883C22.2855 27.9372 22.3832 27.9535 22.3832 27.8883C22.4483 27.53 22.3832 27.1716 22.3506 26.8133Z" fill="#915C47"/>
<path d="M24.0284 26.7969C24.0121 26.7481 23.9307 26.748 23.9307 26.8132C23.947 27.3833 24.0121 27.9697 24.1587 28.5235C24.175 28.6049 24.3053 28.5886 24.3053 28.5072C24.289 27.9208 24.175 27.3344 24.0284 26.7969Z" fill="#915C47"/>
<path d="M15.3305 28.8331C15.1839 29.1751 15.0536 29.5334 14.9885 29.9081C14.9722 29.9569 15.0536 29.9895 15.0699 29.9407C15.2328 29.5986 15.3468 29.2403 15.412 28.8656C15.412 28.8331 15.3468 28.7842 15.3305 28.8331Z" fill="#915C47"/>
<path d="M16.5362 29.0285C16.5036 29.4683 16.4547 29.9081 16.4873 30.3478C16.4873 30.3967 16.5525 30.413 16.5687 30.3641C16.6502 29.9244 16.6502 29.4846 16.6502 29.0285C16.6665 28.947 16.5525 28.947 16.5362 29.0285Z" fill="#915C47"/>
<path d="M18.4736 28.8656C18.4736 28.7842 18.3596 28.7842 18.3596 28.8656C18.3433 29.2891 18.3271 29.7126 18.3596 30.1361C18.3596 30.2013 18.4574 30.2013 18.4736 30.1361C18.5225 29.7126 18.4899 29.2891 18.4736 28.8656Z" fill="#915C47"/>
<path d="M20.266 28.5887C20.2497 28.5398 20.1846 28.5561 20.1846 28.605C20.2171 28.9633 20.2497 29.3217 20.3475 29.6637C20.3637 29.6963 20.4126 29.6963 20.4126 29.6475C20.4126 29.3054 20.3312 28.9471 20.266 28.5887Z" fill="#915C47"/>
<path d="M21.7644 28.5562C21.7644 28.4748 21.6504 28.4748 21.6504 28.5562C21.6667 28.9797 21.6667 29.4032 21.7155 29.8267C21.7155 29.8756 21.7807 29.8756 21.7807 29.8267C21.797 29.4032 21.7807 28.9797 21.7644 28.5562Z" fill="#915C47"/>
<path d="M23.3934 28.9308C23.3934 28.8982 23.3445 28.8982 23.3445 28.9308C23.2794 29.2729 23.2468 29.6475 23.2794 29.9896C23.2794 30.0384 23.3608 30.0547 23.3608 30.0058C23.426 29.6475 23.4097 29.2729 23.3934 28.9308Z" fill="#915C47"/>
<path d="M24.7125 29.338C24.6311 29.6963 24.5334 30.0873 24.5496 30.4619C24.5496 30.527 24.6474 30.5433 24.68 30.4782C24.794 30.1198 24.8103 29.7289 24.8428 29.3543C24.8428 29.2891 24.7288 29.2728 24.7125 29.338Z" fill="#915C47"/>
<path d="M15.2807 31.2599C15.2644 31.1785 15.1504 31.1785 15.1504 31.2599C15.1993 31.8952 15.1993 32.5467 15.3621 33.182C15.3784 33.2308 15.4599 33.2308 15.4599 33.1657C15.4762 32.5141 15.3458 31.8789 15.2807 31.2599Z" fill="#915C47"/>
<path d="M16.8771 31.5043C16.8771 31.4229 16.763 31.4229 16.763 31.5043C16.7305 32.0255 16.649 32.5956 16.7467 33.1006C16.763 33.1494 16.8282 33.1494 16.8445 33.1006C16.9585 32.5956 16.8933 32.0255 16.8771 31.5043Z" fill="#915C47"/>
<path d="M18.7027 31.6673C18.7027 31.6184 18.6212 31.6021 18.6049 31.651C18.5398 32.0419 18.5235 32.4328 18.5724 32.8237C18.5724 32.8726 18.6538 32.8889 18.6701 32.84C18.7189 32.4491 18.7352 32.0582 18.7027 31.6673Z" fill="#915C47"/>
<path d="M20.3308 31.3089C20.3308 31.2274 20.2168 31.2274 20.2168 31.3089C20.2005 31.7324 20.2005 32.1559 20.233 32.5794C20.233 32.6445 20.3308 32.6445 20.3308 32.5794C20.3471 32.1396 20.3308 31.7324 20.3308 31.3089Z" fill="#915C47"/>
<path d="M21.878 31.6183C21.8617 31.5532 21.7803 31.5532 21.7803 31.6183C21.7314 32.0092 21.7151 32.3676 21.7803 32.7422C21.7803 32.7911 21.8943 32.7911 21.8943 32.7422C21.9432 32.3676 21.9269 31.993 21.878 31.6183Z" fill="#915C47"/>
<path d="M23.4101 31.6183C23.4101 31.5532 23.3124 31.5532 23.2961 31.6183C23.2635 32.0418 23.2472 32.4816 23.3124 32.9051C23.3124 32.954 23.4101 32.954 23.4101 32.9051C23.4753 32.4816 23.4427 32.0418 23.4101 31.6183Z" fill="#915C47"/>
<path d="M24.6797 31.488C24.6308 31.4229 24.5331 31.4881 24.5331 31.5532C24.5168 31.8464 24.6145 32.1233 24.6145 32.4165C24.6145 32.7097 24.5657 33.0029 24.5494 33.2961C24.5494 33.3938 24.6797 33.4264 24.7285 33.3449C25.0217 32.8563 25.0543 31.9767 24.6797 31.488Z" fill="#915C47"/>
<path d="M15.9331 34.1919C15.9168 34.1593 15.9005 34.1431 15.8679 34.1593C15.8027 34.1756 15.7865 34.2082 15.8028 34.2734C15.8028 34.2897 15.8353 34.3059 15.8516 34.3059C15.819 34.3548 15.819 34.4037 15.8516 34.4525C15.8516 34.5014 15.8679 34.5503 15.8679 34.5991C15.8842 34.7457 15.9168 34.876 15.9331 35.0226C15.9819 35.2832 16.0145 35.5439 16.1285 35.7882C16.1448 35.837 16.2262 35.8045 16.2262 35.7556C16.2425 35.2507 16.0959 34.648 15.9331 34.1919Z" fill="#915C47"/>
<path d="M17.9201 34.7784C17.9038 34.5992 17.9038 34.4038 17.8224 34.2409C17.8061 34.2083 17.7572 34.2246 17.7409 34.2572C17.6758 34.4526 17.7246 34.6807 17.7409 34.8761C17.7572 35.0879 17.7735 35.2834 17.8387 35.4951C17.855 35.5766 17.9527 35.544 17.969 35.4788C17.969 35.2345 17.9527 35.0065 17.9201 34.7784Z" fill="#915C47"/>
<path d="M19.598 34.0942C19.598 34.0127 19.4677 34.0127 19.4514 34.0942C19.4351 34.5014 19.4025 34.9086 19.4677 35.3321C19.484 35.381 19.5817 35.381 19.5817 35.3321C19.6469 34.9249 19.6143 34.5177 19.598 34.0942Z" fill="#915C47"/>
<path d="M21.2591 33.9965C21.2591 33.8988 21.1125 33.8988 21.0962 33.9965C21.0636 34.4689 21.0311 34.925 21.0962 35.381C21.1125 35.4462 21.2102 35.4462 21.2265 35.381C21.308 34.925 21.2754 34.4689 21.2591 33.9965Z" fill="#915C47"/>
<path d="M22.7082 34.1431C22.692 34.0942 22.6105 34.0942 22.6105 34.1431C22.5454 34.4852 22.5617 34.9412 22.6431 35.2833C22.6594 35.3484 22.7571 35.3484 22.7734 35.2833C22.8223 34.9412 22.806 34.4689 22.7082 34.1431Z" fill="#915C47"/>
<path d="M24.3693 34.2571C24.353 34.1757 24.2227 34.1431 24.2064 34.2408C24.1412 34.6317 24.1412 35.0552 24.1901 35.4461C24.2064 35.5113 24.3204 35.5113 24.3367 35.4461C24.4019 35.0552 24.4181 34.648 24.3693 34.2571Z" fill="#915C47"/>
</svg>
