<svg width="38" height="33" viewBox="0 0 38 33" fill="none" xmlns="http://www.w3.org/2000/svg">
<path d="M13.8569 28.8743C13.3854 29.048 12.8891 29.1473 12.4176 29.2217C11.9213 29.2962 11.425 29.3458 10.9287 29.321C10.8543 29.321 10.8046 29.2714 10.8046 29.1969C10.8046 29.1473 10.8294 29.0977 10.8791 29.0977C11.3506 28.924 11.8469 28.8247 12.3184 28.7502C12.8147 28.6758 13.311 28.6262 13.8073 28.651C13.8817 28.651 13.9313 28.7006 13.9313 28.7751C13.9313 28.8247 13.9065 28.8743 13.8569 28.8743Z" fill="#F48B56"/>
<path d="M11.9216 30.2389C12.2194 29.8915 12.5668 29.6434 12.9391 29.3952C13.3113 29.1471 13.6835 28.9237 14.1054 28.75C14.1798 28.7252 14.2294 28.75 14.2543 28.8245C14.2791 28.8741 14.2543 28.9237 14.2295 28.9486C13.9317 29.2711 13.5594 29.5441 13.212 29.7923C12.8398 30.0404 12.4676 30.2638 12.0457 30.4375C11.9713 30.4623 11.9216 30.4375 11.8968 30.363C11.872 30.3134 11.872 30.2638 11.9216 30.2389Z" fill="#F48B56"/>
<path d="M12.9634 30.9587C13.1371 30.4872 13.3853 30.0653 13.6334 29.6435C13.9064 29.2464 14.1794 28.8246 14.5268 28.4772C14.5764 28.4275 14.6509 28.4275 14.7005 28.4772C14.7253 28.502 14.7501 28.5516 14.7253 28.6012C14.5516 29.0727 14.3035 29.4946 14.0553 29.9164C13.7823 30.3383 13.5094 30.7353 13.162 31.0828C13.1123 31.1324 13.0379 31.1324 12.9883 31.0828C12.9634 31.0579 12.9634 31.0083 12.9634 30.9587Z" fill="#F48B56"/>
<path d="M23.6595 26.7901C21.2524 30.165 13.4108 30.165 9.61407 27.0135C4.57659 22.8445 5.84216 13.0177 5.84216 13.0177C5.84216 13.0177 6.78514 14.184 7.13256 13.4644C7.47997 12.7448 6.28884 11.3551 6.28884 11.3551C6.28884 11.3551 8.27405 12.571 9.29147 11.8762C10.3089 11.1814 9.58926 10.4369 9.58926 10.4369C9.58926 10.4369 10.7804 10.3625 11.2519 9.5436C11.7234 8.74952 10.7059 7.16135 10.6563 7.06208C10.7308 7.0869 12.2693 7.75691 12.5919 7.06208C12.8897 6.36726 11.7234 4.20834 11.7234 4.20834C11.7234 4.20834 12.443 4.33242 12.5919 4.20834C12.716 4.08426 12.5919 3.26536 12.5919 3.19092C12.5919 3.19092 13.4604 3.86093 13.9815 5.15132C15.0486 7.68246 14.6019 10.7099 14.6019 10.7099C14.6019 10.7099 26.265 19.1967 31.9229 22.1497C37.5808 25.1027 38.5237 25.7975 37.7793 26.542C37.1093 27.212 33.2381 25.4501 32.5929 25.1523C33.3126 25.4998 38.0522 27.882 37.7793 29.3461C37.2582 32.2991 29.5158 26.3683 30.0618 26.8398C31.8485 28.6265 34.3548 31.4058 33.7592 32.4232C32.9403 33.8873 27.5803 30.8598 23.6595 26.7901Z" fill="#8E8876"/>
<path d="M10.6561 7.08689C10.7058 7.16133 12.145 8.94802 11.5991 10.4369C11.2765 11.3303 10.0109 11.1566 10.0109 11.1566C10.0109 11.1566 10.0854 12.0995 9.06796 12.7944C8.05053 13.4892 7.182 12.3477 7.182 12.3477C7.182 12.3477 7.47979 12.7447 7.13238 13.4644C6.78496 14.184 5.84198 13.0177 5.84198 13.0177C4.77493 12.5959 3.93122 11.1814 3.93122 11.1814V11.1566C4.30345 10.9581 4.5516 10.6851 4.62604 10.3625C4.70049 9.96544 4.65086 9.41951 4.5516 8.87358C4.35308 8.02986 3.95603 7.18615 3.48454 7.01244C3.31084 6.93799 2.96343 6.98763 2.54157 7.1117L2.51675 7.06207C2.51675 7.06207 3.01306 2.32237 6.85941 1.35458C11.1772 0.262716 13.8077 2.64497 16.2892 1.77644C18.7707 0.907912 20.21 -0.580999 20.0859 0.237901C19.9866 1.0568 17.3314 4.23314 12.6413 3.19091C12.6413 3.24054 12.7654 4.08425 12.6413 4.20833C12.5173 4.3324 11.7728 4.20833 11.7728 4.20833C11.7728 4.20833 12.9391 6.34243 12.6413 7.06207C12.2691 7.78171 10.7306 7.1117 10.6561 7.08689Z" fill="#F8D931"/>
<path d="M4.50183 8.89844C4.62591 9.44437 4.65072 9.96549 4.57628 10.3873C4.52665 10.7099 4.25368 10.9829 3.88146 11.1814C3.06255 11.6033 1.6729 11.5537 0.754743 10.3129L0.60585 10.2881C0.878817 10.0648 1.20142 9.8166 1.54883 9.76697C2.24366 9.66771 3.78219 9.46919 4.50183 8.89844Z" fill="#D97B59"/>
<path d="M4.50189 8.89837C3.78225 9.46912 2.24371 9.69246 1.5737 9.7669C1.22629 9.81653 0.903689 10.0399 0.630722 10.288C0.308125 10.5858 0.0847927 10.9084 0.0847927 10.9084C0.0847927 10.9084 -0.113732 9.07208 0.407387 8.4517C0.928505 7.8065 1.79703 7.35983 2.46704 7.13649C2.8889 6.9876 3.23632 6.96279 3.41002 7.03723C3.90633 7.21094 4.30337 8.02984 4.50189 8.89837Z" fill="#F48B56"/>
<path d="M4.92369 8.4518C4.87406 8.69995 4.67553 8.92329 4.47701 9.07218C4.27849 9.22107 4.05515 9.32033 3.83181 9.41959C3.38514 9.61811 2.91365 9.71737 2.46698 9.81663C2.24364 9.86626 1.99549 9.89108 1.77216 9.9159L1.59845 9.94071C1.54882 9.94071 1.49919 9.96552 1.44956 9.96552C1.3503 9.99034 1.25104 10.04 1.15178 10.0896C0.77955 10.2881 0.432138 10.6107 0.159171 10.9581C0.134356 10.9829 0.0847255 11.0078 0.0350951 10.9581C0.01028 10.9333 -0.0145367 10.8837 0.0102785 10.8589C0.25843 10.437 0.581027 10.0896 1.00288 9.81663C1.10215 9.74219 1.22622 9.69256 1.3503 9.64293C1.42474 9.61811 1.47438 9.61811 1.54882 9.5933L1.72252 9.56848C1.94586 9.54367 2.1692 9.49404 2.39254 9.4444C2.83921 9.36996 3.28588 9.2707 3.70774 9.12181C3.93107 9.04736 4.1296 8.97292 4.30331 8.84884C4.50183 8.74958 4.65071 8.60069 4.72516 8.40217C4.74997 8.35254 4.7996 8.35254 4.82442 8.35254C4.89886 8.37735 4.92369 8.42698 4.92369 8.4518Z" fill="#AC5645"/>
<path d="M33.8083 32.4973C33.7339 32.6214 33.6346 32.7455 33.4857 32.7951C33.4113 32.8447 33.3368 32.8447 33.2872 32.8695C33.2127 32.8695 33.1383 32.8944 33.0639 32.8944C32.7661 32.9192 32.4931 32.8695 32.1953 32.8199C31.6246 32.6958 31.1035 32.4725 30.6072 32.2492C29.5897 31.7777 28.6219 31.1821 27.7038 30.5369C26.7856 29.8917 25.9171 29.1721 25.0982 28.4028C24.7011 28.0058 24.3041 27.6335 23.9071 27.2117C23.5348 26.7898 23.1626 26.368 22.8152 25.9461C22.8152 25.9213 22.8152 25.9213 22.8152 25.8965C22.84 25.8965 22.84 25.8965 22.8648 25.8965C23.6589 26.6906 24.453 27.4598 25.3215 28.1795C26.1652 28.8991 27.0338 29.5939 27.9519 30.2391C28.8453 30.8843 29.7882 31.4799 30.756 32.001C31.2523 32.2492 31.7486 32.4973 32.2698 32.6462C32.5179 32.7207 32.7909 32.7951 33.0639 32.7951C33.3368 32.7951 33.585 32.7207 33.7587 32.4973C33.7835 32.4725 33.8083 32.4725 33.8083 32.4973C33.8331 32.4725 33.8083 32.4477 33.8083 32.4973Z" fill="#686253"/>
<path d="M30.0859 26.8641C30.9793 27.5837 31.7982 28.4274 32.5426 29.3208C32.9148 29.7675 33.2622 30.2389 33.5352 30.7601C33.6841 31.033 33.8082 31.2812 33.8826 31.579C33.9323 31.7279 33.9323 31.8767 33.9323 32.0256C33.9323 32.1745 33.8826 32.3482 33.8082 32.4723C33.8082 32.4971 33.7834 32.4971 33.7586 32.4723C33.7337 32.4723 33.7337 32.4475 33.7586 32.4227C33.8578 32.1745 33.7834 31.8767 33.6841 31.6286C33.5848 31.3804 33.436 31.1323 33.2871 30.8841C32.9893 30.4127 32.6419 29.966 32.2696 29.5193C31.55 28.626 30.7807 27.7822 30.0611 26.8641C30.0363 26.8393 30.0611 26.8145 30.0611 26.8145C30.0611 26.8393 30.0859 26.8393 30.0859 26.8641Z" fill="#686253"/>
<path d="M32.5179 25.127C32.5179 25.127 32.5428 25.127 32.5428 25.1518L32.5179 25.127C32.5428 25.127 32.5676 25.1518 32.5676 25.1518C32.5428 25.1518 32.5179 25.127 32.5179 25.127C32.5428 25.127 32.5676 25.1518 32.5676 25.1518C32.5428 25.1518 32.5428 25.127 32.5179 25.127H32.5428H32.5676H32.5428C32.5428 25.127 32.5428 25.127 32.5676 25.127L32.5924 25.1518H32.6172H32.5924C32.6172 25.1518 32.6172 25.1518 32.642 25.1766H32.6172C33.1631 25.3751 33.6843 25.6233 34.1806 25.8962C34.7017 26.1692 35.198 26.467 35.6695 26.7896C36.141 27.1122 36.6125 27.4596 37.0343 27.8814C37.2328 28.08 37.4313 28.3033 37.6051 28.5763C37.7539 28.8244 37.878 29.1222 37.8284 29.4448C37.8284 29.4696 37.8036 29.4696 37.7788 29.4696C37.7539 29.4696 37.7539 29.4448 37.7539 29.4448C37.7291 29.1718 37.6051 28.9237 37.4065 28.7252C37.2328 28.5018 37.0343 28.3281 36.811 28.1544C36.3891 27.807 35.9176 27.4596 35.4461 27.1618C34.9747 26.8392 34.5032 26.5414 34.0069 26.2436L32.5428 25.3255H32.5179H32.5428H32.5179L32.4931 25.3007H32.5179H32.4931H32.4683H32.4931C32.4683 25.3007 32.4683 25.2758 32.4683 25.2758C32.4683 25.2758 32.4931 25.3007 32.4931 25.2758C32.4683 25.2758 32.4683 25.251 32.4683 25.251C32.4683 25.251 32.4931 25.2758 32.4931 25.251H32.4683H32.4931C32.4683 25.251 32.4435 25.2262 32.4435 25.2014C32.4435 25.1766 32.4931 25.127 32.5179 25.127Z" fill="#686253"/>
<path d="M6.85932 6.61518C6.85932 6.29259 6.61117 6.04443 6.28857 6.04443C5.96598 6.04443 5.71782 6.29259 5.71782 6.61518C5.71782 6.93778 5.96598 7.18593 6.28857 7.18593C6.58635 7.21075 6.85932 6.93778 6.85932 6.61518Z" fill="black"/>
<path d="M9.96587 10.6113C10.399 9.55948 9.89749 8.35562 8.84563 7.92245C7.79376 7.48928 6.58991 7.99084 6.15674 9.0427C5.72357 10.0946 6.22513 11.2984 7.27699 11.7316C8.32885 12.1648 9.53271 11.6632 9.96587 10.6113Z" fill="#D35B67"/>
<path d="M9.81212 17.7078C9.81212 17.7078 14.6014 24.7057 23.5101 25.2765C28.349 25.5742 24.056 22.249 24.056 22.249C24.056 22.249 28.8205 23.9861 30.1854 23.0183C31.5502 22.0753 28.4979 20.7353 28.4979 20.7353C28.4979 20.7353 32.9647 22.5716 35.8432 21.2316C36.7862 20.7849 32.9399 19.3953 30.0861 17.0875C25.4705 13.3652 17.6537 10.5611 12.6659 12.8441C7.6532 15.1271 9.63841 17.0875 9.81212 17.7078Z" fill="#AFA791"/>
<path d="M17.852 27.4845C18.1746 28.4027 18.4476 29.3457 18.6958 30.2886C18.7206 30.3631 18.6958 30.4127 18.6709 30.4871C18.4228 30.8842 18.1498 31.2812 17.8769 31.6535C17.6039 32.0257 17.3061 32.3979 16.9835 32.7453C16.9339 32.795 16.8594 32.795 16.8098 32.7453C16.7602 32.7205 16.7602 32.6461 16.785 32.5964C17.0083 32.1746 17.2317 31.7775 17.4798 31.3557C17.728 30.9586 18.0009 30.5616 18.2739 30.1894L18.2491 30.3879C18.0257 29.4449 17.8272 28.5019 17.6535 27.5341C17.6535 27.4597 17.6783 27.4101 17.7528 27.3853C17.7776 27.3853 17.852 27.4101 17.852 27.4845Z" fill="#F48B56"/>
<path d="M18.7205 32.9192C18.5468 32.4478 18.4723 31.9515 18.4227 31.48C18.3731 30.9837 18.3235 30.5122 18.3731 30.0159C18.3731 29.9414 18.4475 29.8918 18.4972 29.9166C18.5468 29.9166 18.5964 29.9662 18.5964 29.9911C18.7453 30.4625 18.8446 30.9588 18.8942 31.4303C18.9438 31.9266 18.9935 32.3981 18.9438 32.8944C18.9438 32.9689 18.8694 33.0185 18.8198 32.9937C18.7701 33.0185 18.7205 32.9689 18.7205 32.9192Z" fill="#F48B56"/>
<path d="M15.743 31.6784C16.1401 31.3062 16.5619 30.9836 17.0086 30.6858C17.4553 30.388 17.9019 30.1151 18.4231 29.9165C18.4727 29.8917 18.5471 29.9165 18.572 29.991C18.5968 30.0406 18.5719 30.0902 18.5471 30.1151C18.1501 30.4873 17.7282 30.8099 17.2816 31.1077C16.8349 31.4054 16.3882 31.6784 15.8671 31.8769C15.8175 31.9017 15.743 31.8769 15.7182 31.8025C15.6934 31.7529 15.6934 31.7032 15.743 31.6784Z" fill="#F48B56"/>
<path opacity="0.11" d="M19.192 22.5959C19.0183 22.1741 18.795 21.777 18.4475 21.5041C18.249 21.3552 18.0257 21.5785 18.1746 21.777C18.3483 21.9756 18.4972 22.1989 18.6212 22.4222C18.4724 22.3974 18.3235 22.3478 18.1746 22.2733C18.0505 22.1989 17.9264 22.1244 17.8272 22.05C17.7031 21.9507 17.6038 21.8018 17.4797 21.7522C17.4053 21.7274 17.3557 21.8018 17.3557 21.8515C17.3557 22.0252 17.5046 22.1741 17.6286 22.2733C17.7527 22.3974 17.8768 22.4967 18.0257 22.5959C18.3235 22.7696 18.6709 22.8689 19.0183 22.8689C19.1175 22.8689 19.2416 22.72 19.192 22.5959Z" fill="#4C2560"/>
<path opacity="0.11" d="M21.9962 21.5537C21.8721 21.2559 21.5992 21.107 21.4006 20.8836C21.2766 20.7596 21.0532 20.9333 21.1525 21.0822C21.2766 21.2807 21.4503 21.4296 21.5743 21.6281C21.624 21.7025 21.624 21.7522 21.624 21.8266C21.624 21.8763 21.5992 21.9507 21.5743 21.9755C21.5743 21.9755 21.5495 22.0003 21.5247 22.0003C21.4751 22.0003 21.4006 21.9755 21.351 21.9755C21.2517 21.9507 21.1277 21.9011 21.0284 21.8514C20.8051 21.7522 20.5817 21.6033 20.3832 21.4544C20.1599 21.2807 19.8869 21.5537 20.0606 21.777C20.2095 21.9755 20.3832 22.174 20.5321 22.3477C20.5321 22.3477 20.5321 22.3477 20.5569 22.3726C20.3832 22.3229 20.2343 22.2485 20.0854 22.1492C19.9117 22.05 19.7628 21.9011 19.5891 21.8018C19.5147 21.7522 19.4154 21.8266 19.4402 21.9259C19.5147 22.1988 19.7628 22.3974 19.9862 22.5463C20.2095 22.6952 20.4825 22.8192 20.7554 22.8689C20.9043 22.8937 21.078 22.8192 21.1277 22.6455C21.1525 22.5463 21.1277 22.4718 21.1029 22.3726C21.351 22.4718 21.6488 22.5463 21.8721 22.3229C22.0706 22.1244 22.0955 21.8018 21.9962 21.5537Z" fill="#4C2560"/>
<path opacity="0.11" d="M19.5894 19.1966C19.4405 18.9484 19.2171 18.6754 18.969 18.5266C18.8945 18.5017 18.8201 18.5017 18.7456 18.5514C18.696 18.601 18.6712 18.7003 18.7208 18.7747C18.7953 18.874 18.8945 18.9732 18.969 19.0725C19.0434 19.1717 19.1179 19.2958 19.1923 19.4199C19.242 19.5192 19.3164 19.6432 19.3412 19.7425C19.3412 19.7425 19.3412 19.7673 19.3412 19.7921C19.2171 19.7673 19.0931 19.7177 18.9938 19.668C18.8945 19.6184 18.7705 19.5688 18.6464 19.4943C18.3982 19.3703 18.1749 19.1966 17.9516 19.0229C17.8771 18.9732 17.7779 18.998 17.7282 19.0725C17.6786 19.1469 17.6786 19.2214 17.753 19.2958C17.9267 19.4943 18.1253 19.6681 18.3486 19.8169C18.5719 19.9658 18.8201 20.0899 19.0682 20.1644C19.2171 20.214 19.366 20.2636 19.5149 20.214C19.6638 20.1644 19.7631 20.0651 19.7879 19.9162C19.8375 19.668 19.7134 19.3951 19.5894 19.1966Z" fill="#4C2560"/>
<path opacity="0.11" d="M25.7928 19.8666C25.7184 19.7425 25.4454 19.7673 25.4703 19.9411C25.4951 20.1892 25.6688 20.3381 25.768 20.5614C25.7929 20.6111 25.8425 20.7103 25.7928 20.76C25.7432 20.8096 25.5695 20.76 25.4951 20.76C25.0236 20.6607 24.6017 20.3877 24.2543 20.0403C24.0806 19.8418 23.7828 20.1396 23.9565 20.3381C24.155 20.5366 24.3039 20.7848 24.4528 21.0329C23.7828 20.8592 23.2617 20.3133 22.6661 20.0155C22.5421 19.9659 22.4428 20.1148 22.5669 20.1892C23.2865 20.6359 23.8573 21.43 24.7754 21.4548C24.9243 21.4548 24.9988 21.3059 24.9243 21.1818C24.8995 21.1322 24.8747 21.1074 24.8747 21.0577C25.1228 21.1818 25.3958 21.2563 25.644 21.2563C25.9666 21.2563 26.2395 21.0329 26.2147 20.7103C26.2395 20.3381 25.9666 20.1396 25.7928 19.8666Z" fill="#4C2560"/>
<path opacity="0.11" d="M28.175 21.7029C28.0261 21.6284 27.8276 21.8021 27.9269 21.951V21.9758C27.9269 22.0006 27.9269 22.0006 27.902 22.0255C27.902 22.0255 27.902 22.0503 27.8772 22.0503L27.8524 22.0751C27.8028 22.0999 27.8276 22.0751 27.8524 22.0751C27.8276 22.0751 27.8276 22.0751 27.8028 22.0999H27.778C27.7531 22.0999 27.7283 22.0999 27.7035 22.0999C27.7283 22.0999 27.6787 22.0999 27.6787 22.0999C27.5298 22.0751 27.4057 21.9758 27.2568 21.9014C27.108 21.8269 26.9591 21.7277 26.7854 21.7525C26.7357 21.7525 26.7109 21.7773 26.6861 21.8269C26.6861 21.8766 26.6861 21.9262 26.7357 21.9262C26.8102 21.9758 26.9094 22.0006 26.9839 22.0751C27.0583 22.1247 27.1328 22.1992 27.2072 22.2488C27.3809 22.3729 27.6043 22.497 27.8276 22.497C28.0261 22.497 28.2246 22.3977 28.2991 22.1992C28.4232 22.0751 28.3983 21.8021 28.175 21.7029Z" fill="#4C2560"/>
<path opacity="0.11" d="M32.0709 19.9407C32.0213 19.8663 31.8972 19.8167 31.8228 19.8663C31.7731 19.9159 31.7235 19.9655 31.6739 19.9904C31.5994 20.04 31.5002 19.9904 31.4009 19.9904C31.2272 19.9655 31.0783 19.8911 30.9046 19.8415C30.582 19.7174 30.2842 19.5189 30.0361 19.2707C29.8127 19.0722 29.4901 19.3948 29.7135 19.5933C29.8127 19.6926 29.912 19.767 29.9864 19.8663C30.0361 19.9159 30.0609 19.9407 30.0857 19.9904C30.1105 20.0152 30.1105 20.04 30.1353 20.0648C30.0361 20.04 29.9368 20.0152 29.8376 19.9904C29.3661 19.8415 28.9938 19.5685 28.6216 19.2707C28.5472 19.1963 28.4479 19.3204 28.4975 19.3948C28.8201 19.9655 29.4901 20.3378 30.0857 20.4867C30.2346 20.5115 30.3835 20.5611 30.5324 20.5115C30.6565 20.4619 30.7309 20.3626 30.7557 20.2385C30.8302 20.2633 30.9046 20.313 31.0039 20.3378C31.2272 20.4122 31.525 20.5115 31.7731 20.437C31.9965 20.3874 32.195 20.1641 32.0709 19.9407Z" fill="#4C2560"/>
<path opacity="0.11" d="M16.1398 16.6409C16.0158 16.5169 15.8421 16.6658 15.9165 16.8147C15.991 16.9884 16.0902 17.1869 16.0902 17.3854C16.0902 17.3854 16.0902 17.4598 16.0654 17.4847C15.991 17.435 15.8917 17.4102 15.8173 17.3854C15.6435 17.311 15.4947 17.2117 15.3458 17.1124C15.1969 16.9884 15.0728 16.8643 14.9239 16.7402C14.775 16.5665 14.502 16.7898 14.6013 16.9884C14.7006 17.1621 14.8743 17.311 15.048 17.435C15.1472 17.5839 15.2217 17.7328 15.2713 17.8817C15.3209 18.0058 15.4202 18.2291 15.2713 18.3284C15.1721 18.4028 14.9487 18.2291 14.8495 18.1795C14.3035 17.8321 13.8817 17.2861 13.4598 16.7898C13.4102 16.7154 13.2861 16.8147 13.3357 16.8891C13.5591 17.2613 13.7576 17.6087 14.0554 17.9313C14.3283 18.2291 14.6758 18.5765 15.0728 18.6758C15.2713 18.7254 15.4698 18.651 15.5691 18.4773C15.6932 18.3036 15.6435 18.0802 15.5939 17.8817C15.5939 17.8569 15.5691 17.8321 15.5691 17.8073C15.6932 17.8817 15.8421 17.9313 15.9661 17.981C16.2887 18.0802 16.4873 17.8073 16.4873 17.5095C16.5369 17.1373 16.3384 16.8643 16.1398 16.6409Z" fill="#4C2560"/>
<path opacity="0.11" d="M15.6932 20.5612C15.6188 20.3627 15.4203 20.1889 15.2217 20.1145C15.048 20.0649 14.924 20.2882 15.048 20.4123C15.0728 20.4371 15.0977 20.4867 15.1473 20.5115C15.1721 20.5364 15.1721 20.5364 15.1969 20.5612L15.2217 20.586L15.2465 20.6108C15.2714 20.6356 15.2714 20.6604 15.2962 20.6604C15.2962 20.6852 15.321 20.6853 15.321 20.7101C15.321 20.7101 15.3458 20.7349 15.3458 20.7597C15.3458 20.7845 15.3706 20.8093 15.3706 20.8341C15.3706 20.8341 15.3706 20.8341 15.3458 20.8341C15.3458 20.8341 15.321 20.8341 15.321 20.8093C15.2962 20.8093 15.2714 20.7845 15.2465 20.7845C15.1969 20.7597 15.1721 20.7349 15.1225 20.7101C15.048 20.6604 14.9488 20.6108 14.8743 20.5612C14.7254 20.4619 14.5765 20.3378 14.4525 20.1889C14.4028 20.1393 14.3036 20.1393 14.2539 20.1889C14.2043 20.2386 14.1795 20.313 14.2043 20.3875C14.4277 20.6852 14.7254 20.9582 15.0728 21.1319C15.1473 21.1816 15.2466 21.2312 15.3458 21.256C15.4947 21.3056 15.6436 21.256 15.718 21.1319C15.8421 20.983 15.7925 20.7349 15.6932 20.5612Z" fill="#4C2560"/>
<g opacity="0.11">
<path d="M22.7414 23.912C22.7414 23.8861 22.7414 23.8861 22.7414 23.912C22.7155 23.912 22.7155 23.912 22.7414 23.912Z" fill="#4C2560"/>
<path d="M23.1877 23.6133C23.1877 23.5636 23.1628 23.514 23.138 23.4644C23.1132 23.3899 23.0636 23.3651 23.014 23.3155C22.9643 23.2907 22.9147 23.2907 22.8651 23.3155C22.8154 23.3403 22.7906 23.4147 22.8154 23.4644C22.8154 23.4892 22.8154 23.514 22.8402 23.5388C22.8402 23.5636 22.8651 23.5885 22.8651 23.6133V23.6381C22.8651 23.6381 22.8651 23.6381 22.8651 23.6629V23.6877C22.8651 23.6877 22.8651 23.6877 22.8651 23.7125C22.8651 23.7125 22.8651 23.7125 22.8651 23.6877C22.8651 23.6877 22.8651 23.6877 22.8651 23.7125C22.8651 23.7125 22.8651 23.7373 22.8651 23.7125C22.8651 23.7373 22.8402 23.787 22.8402 23.8118C22.8402 23.8118 22.8402 23.8118 22.8402 23.8366C22.8402 23.8614 22.8154 23.8862 22.7906 23.8862L22.7658 23.911C22.7658 23.911 22.7658 23.911 22.741 23.911C22.741 23.911 22.741 23.911 22.7162 23.911C22.6914 23.911 22.6914 23.9111 22.6665 23.9359C22.6417 23.9359 22.6417 23.9359 22.6169 23.9359H22.5921C22.5673 23.9359 22.5176 23.9359 22.4928 23.9359H22.468C22.4432 23.9359 22.4432 23.9359 22.4184 23.9359C22.3439 23.9111 22.2695 23.911 22.195 23.8862C22.1206 23.8614 22.0462 23.911 22.0213 23.9855C21.9965 24.0599 22.0462 24.1344 22.1206 24.1592C22.3688 24.2585 22.6417 24.3577 22.8899 24.2088C22.9891 24.1592 23.0636 24.0848 23.1132 23.9855C23.138 23.9359 23.1628 23.8862 23.1628 23.8366C23.2125 23.7373 23.1877 23.6877 23.1877 23.6133Z" fill="#4C2560"/>
<path d="M22.765 23.8621C22.7909 23.8362 22.7909 23.8621 22.765 23.8621V23.8621Z" fill="#4C2560"/>
</g>
<path opacity="0.11" d="M7.15659 18.0799C7.15659 17.9806 7.13177 17.8566 7.10695 17.7573C7.10695 17.7077 7.08214 17.6829 7.08214 17.6332C7.05732 17.5588 7.03251 17.5092 7.0077 17.4595C6.95807 17.3851 6.8588 17.3354 6.75954 17.3354C6.66028 17.3603 6.58583 17.4099 6.56102 17.5092C6.5362 17.5836 6.53621 17.6332 6.53621 17.7077C6.53621 17.7573 6.53621 17.7821 6.53621 17.8318C6.53621 17.9062 6.53621 18.0055 6.53621 18.0799C6.53621 18.1792 6.53621 18.2536 6.53621 18.3529C6.53621 18.4273 6.56102 18.5266 6.61065 18.601C6.6851 18.7003 6.78436 18.7747 6.90844 18.7499C7.10696 18.7251 7.20621 18.5018 7.20621 18.3281C7.1814 18.2536 7.15659 18.1792 7.15659 18.0799Z" fill="#4C2560"/>
<path opacity="0.11" d="M8.37303 18.5014C8.37303 18.4518 8.34822 18.4021 8.3234 18.3525C8.29859 18.3277 8.29859 18.2781 8.27378 18.2532C8.22415 18.1292 8.17452 18.0051 8.1497 17.8562C8.12488 17.7321 8.00081 17.6577 7.87673 17.6825C7.75266 17.7073 7.6534 17.8066 7.6534 17.9306C7.6534 18.0547 7.65339 18.1788 7.67821 18.3029C7.67821 18.3773 7.70302 18.4766 7.72784 18.551C7.72784 18.6007 7.75266 18.6503 7.77747 18.6999C7.77747 18.7247 7.80228 18.7247 7.80228 18.7495C7.85191 18.824 7.92636 18.8736 8.00081 18.8984C8.02562 18.8984 8.05043 18.8984 8.07525 18.8984C8.12488 18.8984 8.1497 18.8984 8.19933 18.8736C8.24896 18.8488 8.3234 18.7992 8.34822 18.7495C8.37303 18.6999 8.39785 18.6007 8.37303 18.5014Z" fill="#4C2560"/>
<path opacity="0.11" d="M8.9434 18.03C8.9434 17.9555 8.9434 17.8811 8.91858 17.8315C8.86895 17.7322 8.81933 17.6081 8.7697 17.5089C8.69525 17.4096 8.57117 17.36 8.4471 17.4096C8.34784 17.4592 8.27339 17.5833 8.29821 17.7074C8.32302 17.8066 8.34784 17.9059 8.37266 17.9804V18.0052C8.37266 18.0052 8.37266 18.03 8.39747 18.03C8.39747 18.0548 8.42228 18.0796 8.42228 18.1044V18.1292C8.4471 18.2037 8.47191 18.2533 8.54636 18.2781C8.57117 18.2781 8.57118 18.303 8.59599 18.303C8.62081 18.303 8.62081 18.3278 8.64562 18.3278C8.67044 18.3278 8.69525 18.3278 8.72007 18.3278C8.7697 18.3278 8.81933 18.303 8.84414 18.2781L8.86896 18.2533C8.91859 18.2037 8.9434 18.1292 8.9434 18.0548C8.9434 18.0548 8.9434 18.0548 8.9434 18.03Z" fill="#4C2560"/>
<path opacity="0.11" d="M8.17428 20.6605C8.14947 20.6109 8.12466 20.5861 8.09984 20.5364C8.07503 20.5116 8.07502 20.4868 8.05021 20.462C8.02539 20.3875 8.00058 20.3131 7.97576 20.2386C7.97576 20.189 7.90132 20.1146 7.85169 20.0898C7.80206 20.0649 7.75243 20.0649 7.7028 20.0649C7.65317 20.0649 7.60353 20.0898 7.5539 20.1394C7.50427 20.189 7.47946 20.2386 7.47946 20.3131C7.47946 20.4124 7.47946 20.5364 7.50428 20.6357C7.52909 20.735 7.55391 20.859 7.60354 20.9583C7.65317 21.0327 7.7028 21.0824 7.77725 21.1072C7.85169 21.132 7.95095 21.1072 8.00058 21.0824C8.07503 21.0327 8.12466 20.9831 8.14947 20.9087C8.14947 20.8838 8.14947 20.859 8.14947 20.8342C8.22392 20.7598 8.22391 20.7101 8.17428 20.6605Z" fill="#4C2560"/>
<path opacity="0.11" d="M9.19161 20.8092C9.16679 20.7596 9.14198 20.6851 9.11717 20.6355C9.09235 20.5859 9.09235 20.5114 9.06753 20.4618C9.04272 20.3873 9.01791 20.3377 8.99309 20.2633C8.94346 20.1144 8.79457 20.0151 8.64568 20.0399C8.49679 20.0647 8.37271 20.1888 8.37271 20.3377C8.37271 20.4866 8.39752 20.6603 8.42234 20.8092C8.47197 21.0077 8.54641 21.3055 8.79456 21.3551C8.86901 21.3551 8.91864 21.38 8.99309 21.3303C9.06754 21.3055 9.09235 21.2559 9.14198 21.2062C9.26606 21.0822 9.24124 20.9333 9.19161 20.8092Z" fill="#4C2560"/>
<path opacity="0.11" d="M10.2092 20.1643C10.1844 20.1147 10.1596 20.0402 10.1348 19.9906C10.11 19.9658 10.11 19.941 10.0852 19.8913C10.0107 19.7673 9.93627 19.6432 9.86183 19.5191C9.8122 19.4447 9.76256 19.395 9.68812 19.395C9.61367 19.3702 9.51441 19.395 9.46478 19.4199C9.39034 19.4695 9.34071 19.5191 9.34071 19.5936C9.31589 19.668 9.34071 19.7425 9.36552 19.8169C9.41515 19.941 9.4896 20.0899 9.53923 20.2139C9.56404 20.2388 9.56404 20.2884 9.58886 20.3132C9.61367 20.338 9.63849 20.3876 9.63849 20.4125L9.6633 20.4373C9.71293 20.4869 9.73775 20.5365 9.78738 20.5614C9.83701 20.5862 9.88664 20.611 9.93627 20.611C10.0603 20.6606 10.2092 20.5614 10.2341 20.4373C10.2589 20.3877 10.2589 20.338 10.2589 20.2884C10.2589 20.2636 10.2341 20.2139 10.2092 20.1643Z" fill="#4C2560"/>
<path opacity="0.11" d="M8.74512 23.936C8.7203 23.8119 8.67067 23.7126 8.64586 23.5885C8.57141 23.3404 8.44733 23.1171 8.32326 22.9185C8.27363 22.8193 8.14955 22.7696 8.02548 22.8193C7.92622 22.8689 7.85177 22.9682 7.9014 23.0922C7.95103 23.3156 8.00066 23.5389 8.02548 23.7622C8.02548 23.8119 8.05029 23.8615 8.05029 23.9111V23.936C8.05029 23.9608 8.05029 23.9856 8.05029 24.0104C8.05029 24.0848 8.07511 24.1593 8.09992 24.2337C8.12474 24.3082 8.14955 24.3578 8.19918 24.4323C8.22399 24.4571 8.27362 24.4819 8.29844 24.5067C8.3977 24.5563 8.54659 24.5563 8.62104 24.4571C8.64586 24.4323 8.67067 24.3826 8.69548 24.3578C8.7203 24.2834 8.74512 24.2089 8.74512 24.1345C8.76993 24.0848 8.74512 23.9856 8.74512 23.936Z" fill="#4C2560"/>
<path opacity="0.11" d="M10.1348 23.8121C10.1099 23.7376 10.0851 23.688 10.0603 23.6136C10.0603 23.5888 10.0355 23.5639 10.0355 23.5391C10.0355 23.5143 10.0107 23.5143 10.0107 23.4895C9.96106 23.3406 9.88661 23.2165 9.83698 23.0676C9.83698 23.0428 9.78735 22.9436 9.81216 23.018C9.78735 22.9932 9.78735 22.9436 9.76254 22.9187C9.73772 22.8443 9.7129 22.7947 9.68809 22.7202C9.63846 22.5713 9.48957 22.4721 9.31586 22.5217C9.16697 22.5713 9.06771 22.7202 9.11734 22.8939C9.16697 23.1669 9.24141 23.415 9.31586 23.688C9.36549 23.8121 9.39031 23.9362 9.43994 24.0602C9.51438 24.2836 9.68809 24.5565 9.98587 24.4821C10.3085 24.4325 10.234 24.0602 10.1348 23.8121Z" fill="#4C2560"/>
<path opacity="0.11" d="M11.3257 23.5141C11.3009 23.4396 11.276 23.3652 11.2264 23.3155C11.1768 23.2411 11.1271 23.1915 11.0775 23.1418C11.1023 23.1667 11.1023 23.1915 11.1272 23.2163C10.9783 23.0426 10.8542 22.8441 10.7549 22.6455C10.6805 22.5215 10.5316 22.4718 10.4075 22.5215C10.2834 22.5711 10.209 22.72 10.2338 22.8689C10.2834 23.0426 10.3579 23.2411 10.4323 23.4148C10.4571 23.4893 10.5068 23.5637 10.5316 23.6381C10.5564 23.663 10.5812 23.7126 10.606 23.7374C10.6308 23.787 10.6557 23.8118 10.7053 23.8367C10.7301 23.8615 10.7797 23.8863 10.8046 23.9111C10.8294 23.9111 10.8542 23.9359 10.879 23.9359C10.9038 23.9359 10.9286 23.9359 10.9783 23.9359C11.0527 23.9359 11.1271 23.9111 11.1768 23.8615C11.3009 23.787 11.3753 23.6381 11.3257 23.5141Z" fill="#4C2560"/>
<path opacity="0.11" d="M11.7481 22.4225C11.7481 22.3729 11.7481 22.3729 11.7233 22.3232C11.6984 22.2736 11.6736 22.2488 11.6488 22.1992C11.6488 22.1992 11.6488 22.1992 11.624 22.1744C11.5992 22.1495 11.5744 22.1247 11.5496 22.0999C11.4999 22.0503 11.4503 22.0255 11.4255 21.9758C11.351 21.9014 11.2518 21.8021 11.1773 21.7029C11.1277 21.6532 11.0533 21.6284 10.9788 21.6284C10.9044 21.6284 10.8547 21.6532 10.8051 21.678C10.7058 21.7525 10.681 21.9014 10.7307 22.0255C10.7803 22.1247 10.8547 22.2488 10.9292 22.3481C10.9788 22.4225 11.0284 22.4969 11.0781 22.5466C11.1029 22.5714 11.1277 22.5962 11.1277 22.621C11.1525 22.6458 11.1773 22.6707 11.227 22.6955C11.3014 22.7451 11.4007 22.7451 11.4999 22.7203C11.5992 22.6955 11.6984 22.5962 11.7233 22.4969C11.7481 22.4969 11.7481 22.4721 11.7481 22.4225Z" fill="#4C2560"/>
<path opacity="0.11" d="M12.2687 26.6407C12.2439 26.5911 12.1943 26.5663 12.1695 26.5167C12.1446 26.467 12.095 26.4422 12.0454 26.4174C11.9709 26.343 11.8965 26.2685 11.7972 26.2189C11.6483 26.0948 11.4995 25.9459 11.3506 25.7722C11.2513 25.673 11.0776 25.673 10.9783 25.7474C10.8543 25.8218 10.8294 25.9956 10.9039 26.1196C11.028 26.3181 11.1769 26.5167 11.3257 26.6904C11.4002 26.7648 11.4746 26.8393 11.5491 26.9137C11.5987 26.9633 11.6732 27.0378 11.7228 27.0626C11.7724 27.0874 11.8221 27.1122 11.8717 27.1371C12.0206 27.2115 12.1943 27.1867 12.3184 27.0378C12.3928 26.9385 12.368 26.7648 12.2687 26.6407Z" fill="#4C2560"/>
<path opacity="0.11" d="M13.1374 25.673C13.0878 25.6233 13.0382 25.5985 12.9885 25.5489C12.9637 25.5241 12.9389 25.5241 12.8893 25.4993C12.8396 25.4744 12.79 25.4496 12.7404 25.4C12.6411 25.3256 12.5418 25.2263 12.4426 25.1022L12.4674 25.127C12.4178 25.0526 12.3681 25.003 12.2937 25.003C12.2193 24.9781 12.12 25.003 12.0704 25.0278C11.9215 25.127 11.8967 25.2759 11.9711 25.4248C12.0455 25.5737 12.1696 25.7226 12.2689 25.8715C12.3185 25.9211 12.3681 25.9707 12.4426 26.0204C12.4922 26.07 12.5419 26.0948 12.5915 26.1445C12.6411 26.1941 12.7156 26.2189 12.7652 26.2189C12.8396 26.2437 12.9141 26.2437 12.9885 26.1941C13.063 26.1693 13.1126 26.1196 13.1622 26.0452C13.2615 25.9707 13.2615 25.797 13.1374 25.673Z" fill="#4C2560"/>
<path opacity="0.11" d="M14.3284 24.7301C14.3036 24.7053 14.2788 24.7053 14.254 24.6805C14.2044 24.6557 14.1547 24.6308 14.0803 24.606C14.1051 24.606 14.1299 24.6308 14.1547 24.6308C14.0306 24.5812 13.8818 24.5068 13.7825 24.4075C13.7577 24.3827 13.7081 24.3579 13.6832 24.3082C13.6336 24.2586 13.5592 24.209 13.4599 24.209C13.3855 24.209 13.311 24.2338 13.2366 24.3082C13.1869 24.3579 13.1373 24.4323 13.1373 24.5316C13.1373 24.5564 13.1373 24.5812 13.1373 24.606C13.1621 24.6557 13.1869 24.7053 13.2117 24.7301C13.311 24.8542 13.4103 24.9534 13.5095 25.0527C13.584 25.1023 13.6584 25.1768 13.7329 25.2264C13.8321 25.276 13.9066 25.3009 14.0058 25.3257C14.0803 25.3505 14.1547 25.3505 14.2292 25.3009C14.3036 25.276 14.3532 25.2264 14.3781 25.1768L14.4029 25.1023C14.5021 24.9534 14.4525 24.8045 14.3284 24.7301Z" fill="#4C2560"/>
<path opacity="0.11" d="M15.7679 26.7399C15.7431 26.6903 15.7183 26.6158 15.6686 26.591C15.619 26.5414 15.5694 26.5166 15.5445 26.4917C15.5197 26.4917 15.5197 26.4669 15.4949 26.4669C15.4701 26.4421 15.4205 26.4421 15.3708 26.4173C15.346 26.4173 15.2964 26.3925 15.2716 26.3925C15.1475 26.3429 15.0234 26.318 14.8994 26.2684C14.7753 26.2436 14.6264 26.2932 14.5768 26.4173C14.5271 26.5414 14.5768 26.6903 14.7008 26.7647C14.7753 26.8143 14.8745 26.864 14.949 26.9136C14.9986 26.9384 15.0234 26.9632 15.0731 26.988C15.0979 27.0129 15.1227 27.0129 15.1227 27.0377C15.1475 27.0377 15.1475 27.0625 15.1723 27.0625C15.1971 27.0625 15.1971 27.0873 15.222 27.0873C15.3212 27.1369 15.4453 27.1866 15.5694 27.1369C15.619 27.1121 15.6686 27.0873 15.7183 27.0377C15.7431 26.9881 15.7927 26.9384 15.7679 26.864C15.7679 26.7895 15.7679 26.7647 15.7679 26.7399Z" fill="#4C2560"/>
<path opacity="0.11" d="M16.6111 26.0452C16.6111 26.0203 16.6111 26.0203 16.5863 25.9955C16.5615 25.9459 16.5367 25.8963 16.5118 25.8714C16.487 25.8466 16.4622 25.8218 16.4126 25.797L16.3878 25.7722C16.363 25.7474 16.3133 25.7474 16.2885 25.7226C16.2885 25.7226 16.2637 25.7226 16.2637 25.6977C16.2141 25.6729 16.1892 25.6729 16.1396 25.6481C16.09 25.6233 16.0404 25.5985 15.9907 25.5985C15.9411 25.5737 15.8915 25.5737 15.8418 25.5489C15.7674 25.524 15.7178 25.5489 15.6433 25.5737C15.5937 25.5985 15.544 25.6481 15.4944 25.6977C15.4696 25.7474 15.4696 25.797 15.4448 25.8466C15.4448 25.9211 15.4696 25.9955 15.5192 26.0452L15.6185 26.1444C15.6681 26.194 15.7426 26.2437 15.7922 26.2685C15.8418 26.2933 15.8666 26.3181 15.9163 26.3429C15.9411 26.3678 15.9411 26.3678 15.9659 26.3926L15.9907 26.4174C16.0155 26.4422 16.0652 26.4422 16.1148 26.467H16.1396C16.1644 26.467 16.2141 26.4918 16.2389 26.4918C16.2389 26.4918 16.2389 26.4918 16.2637 26.4918C16.2885 26.4918 16.3381 26.4918 16.363 26.467C16.3878 26.467 16.4126 26.4422 16.4126 26.4422C16.4622 26.4174 16.487 26.3926 16.5367 26.3678C16.5863 26.3181 16.6111 26.2437 16.6359 26.1692C16.6359 26.1196 16.6359 26.07 16.6111 26.0452Z" fill="#4C2560"/>
<path opacity="0.11" d="M32.1458 31.6036C31.9969 31.3803 31.724 31.2562 31.5006 31.1321C31.3021 31.0081 31.0788 30.8592 30.8802 30.7103C30.4832 30.4125 30.0862 30.1395 29.6643 29.8417C29.5899 29.7921 29.4658 29.8169 29.4161 29.8914C29.3665 29.9658 29.3665 30.0651 29.441 30.1395C29.7636 30.5366 30.1358 30.884 30.5576 31.2066C30.7562 31.3555 30.9547 31.5044 31.178 31.6532C31.4014 31.8021 31.6495 32.0007 31.9225 32.0255C32.121 32.0255 32.2699 31.7525 32.1458 31.6036Z" fill="#4C2560"/>
<path opacity="0.11" d="M32.5173 30.9586C32.3933 30.8097 32.2444 30.6608 32.0955 30.5119C31.9466 30.363 31.7977 30.2141 31.6488 30.09C31.4999 29.9412 31.351 29.8171 31.2021 29.6682C31.1277 29.5937 31.0533 29.5193 30.9788 29.4449C30.9044 29.3704 30.8051 29.296 30.7307 29.2215C30.6562 29.1471 30.557 29.1471 30.4577 29.1967C30.3832 29.2463 30.3584 29.3704 30.4081 29.4697C30.5321 29.6682 30.6562 29.8419 30.8051 30.0156C30.954 30.1645 31.0781 30.3382 31.227 30.4871C31.3759 30.636 31.5247 30.7849 31.6985 30.9089C31.8722 31.0578 32.0459 31.2067 32.2444 31.306C32.3436 31.3556 32.4677 31.3308 32.5422 31.2564C32.6166 31.1819 32.5918 31.0578 32.5173 30.9586Z" fill="#4C2560"/>
<path opacity="0.11" d="M34.1061 28.477C34.0068 28.3281 33.8579 28.2288 33.709 28.1047C33.5849 28.0055 33.4609 27.931 33.3368 27.8318C33.0886 27.6581 32.8405 27.4596 32.5923 27.2858C32.4931 27.2114 32.3442 27.261 32.2697 27.3603C32.1953 27.4595 32.1953 27.6084 32.2946 27.6829C32.5179 27.8814 32.766 28.0799 32.9894 28.2785C33.1135 28.3777 33.2127 28.477 33.3368 28.5762C33.4857 28.6755 33.6346 28.7996 33.8083 28.874C34.0316 28.8988 34.2301 28.6507 34.1061 28.477Z" fill="#4C2560"/>
<path opacity="0.11" d="M35.8926 28.9981C35.7685 28.8244 35.6196 28.6507 35.4459 28.5266C35.297 28.3777 35.1481 28.2536 34.9744 28.1296C34.8007 28.0055 34.6518 27.8566 34.4533 27.7325C34.3789 27.6829 34.2796 27.6084 34.1803 27.5588C34.0811 27.5092 33.9818 27.5092 33.8577 27.4844C33.7833 27.4595 33.6592 27.5588 33.7088 27.6332C33.7585 27.7325 33.7585 27.807 33.8081 27.9062C33.8577 28.0055 33.957 28.0799 34.0314 28.1792C34.1555 28.3281 34.3292 28.477 34.4781 28.601C34.627 28.7499 34.7759 28.874 34.9248 28.9981C35.0985 29.147 35.2722 29.2959 35.4707 29.3951C35.57 29.4448 35.7189 29.4448 35.7933 29.3455C35.9174 29.2462 35.967 29.0973 35.8926 28.9981Z" fill="#4C2560"/>
<path opacity="0.11" d="M36.1408 28.0059C35.9919 27.8322 35.7933 27.7329 35.6196 27.6088C35.4459 27.4848 35.297 27.3855 35.1233 27.2614C35.0241 27.187 34.8752 27.2366 34.8256 27.3111C34.7511 27.3855 34.7511 27.5344 34.8504 27.6088L35.3219 28.0059C35.4956 28.1548 35.6445 28.3037 35.843 28.4029C35.9671 28.4526 36.0911 28.4526 36.1656 28.3285C36.24 28.2292 36.24 28.1052 36.1408 28.0059Z" fill="#4C2560"/>
<path opacity="0.11" d="M13.8572 7.50895C13.8324 7.43451 13.8075 7.36006 13.7827 7.28562C13.7083 7.13673 13.6338 6.96302 13.5346 6.83894C13.4849 6.78931 13.4601 6.73968 13.3857 6.71487C13.336 6.69005 13.2368 6.71487 13.1872 6.73968C13.0631 6.81413 13.0383 6.96302 13.0879 7.0871C13.1127 7.11191 13.1127 7.13673 13.1375 7.16154C13.1872 7.31043 13.2368 7.45932 13.2616 7.60822C13.2616 7.65785 13.2616 7.70748 13.2864 7.73229C13.3112 7.80674 13.3361 7.85637 13.3609 7.906C13.3857 7.95563 13.4353 7.98044 13.4601 8.00526C13.5098 8.03007 13.5842 8.05489 13.6338 8.03007C13.7331 8.00526 13.8324 7.93081 13.8572 7.83155C13.882 7.75711 13.882 7.63303 13.8572 7.50895Z" fill="#4C2560"/>
<path opacity="0.11" d="M13.1624 8.0549C13.1624 8.00527 13.1376 7.98045 13.1376 7.93082C13.1128 7.85638 13.088 7.78193 13.0632 7.70748C13.0383 7.65785 13.0135 7.60822 12.9639 7.58341C12.9143 7.55859 12.8646 7.55859 12.815 7.55859C12.7654 7.55859 12.7157 7.58341 12.6909 7.60822C12.6909 7.63304 12.6661 7.63304 12.6661 7.65785C12.6413 7.68267 12.6413 7.7323 12.6413 7.75711C12.6413 7.83156 12.6165 7.93082 12.6165 8.00526C12.6165 8.05489 12.6165 8.07971 12.6165 8.12934C12.6165 8.17897 12.6165 8.20379 12.6165 8.25342V8.27823C12.6413 8.32786 12.6661 8.37749 12.6909 8.40231C12.7157 8.42712 12.7406 8.42712 12.7654 8.45194C12.7902 8.45194 12.815 8.47675 12.8398 8.47675C12.8895 8.47675 12.9143 8.50157 12.9639 8.47675C13.0135 8.47675 13.088 8.45194 13.1376 8.40231C13.1624 8.37749 13.1624 8.35268 13.1872 8.32786C13.212 8.30305 13.212 8.25342 13.212 8.2286C13.212 8.20379 13.212 8.17897 13.212 8.15416C13.1872 8.12934 13.1872 8.10453 13.1624 8.0549Z" fill="#4C2560"/>
<path opacity="0.11" d="M13.6586 9.22095C13.6586 9.19613 13.6586 9.19614 13.6586 9.17132C13.6338 9.12169 13.6338 9.07206 13.609 9.02243C13.609 8.99761 13.5842 8.9728 13.5593 8.94798C13.5345 8.92317 13.5097 8.89835 13.4849 8.89835C13.4601 8.89835 13.4353 8.87354 13.4353 8.87354C13.4105 8.87354 13.3608 8.87354 13.336 8.87354C13.3112 8.87354 13.2864 8.87354 13.2864 8.89835C13.2616 8.89835 13.2367 8.92317 13.2119 8.94798C13.1623 8.99761 13.1375 9.04724 13.1375 9.12169C13.1375 9.17132 13.1375 9.22095 13.1375 9.24576C13.1375 9.27058 13.1375 9.29539 13.1375 9.32021C13.1375 9.36984 13.1375 9.41947 13.1623 9.44428C13.1871 9.49392 13.1871 9.51873 13.2367 9.56836C13.2616 9.59318 13.3112 9.61799 13.3608 9.64281C13.4601 9.66762 13.609 9.61799 13.6586 9.51873C13.6834 9.4691 13.7082 9.41947 13.6834 9.34503C13.6586 9.2954 13.6586 9.27058 13.6586 9.22095Z" fill="#4C2560"/>
<path d="M14.5772 2.81875C14.329 2.76912 14.0809 2.76912 13.8327 2.76912C13.5846 2.76912 13.3364 2.71949 13.0883 2.69467C12.989 2.66986 12.9642 2.81875 13.0386 2.84356C13.2868 2.91801 13.5349 2.99246 13.7831 3.01727C14.0313 3.0669 14.3042 3.09172 14.5524 3.04209C14.6764 3.01727 14.6764 2.84356 14.5772 2.81875Z" fill="#FBE79F"/>
<path d="M16.5126 2.32231C16.4629 2.34713 16.3885 2.34713 16.3389 2.37194C16.2644 2.39676 16.2644 2.39676 16.19 2.42157C16.0907 2.47121 15.9666 2.49602 15.8426 2.52084C15.7185 2.54565 15.644 2.57047 15.4952 2.57047C15.3959 2.59528 15.2718 2.59528 15.1477 2.6201C15.0237 2.64491 14.9988 2.84343 15.1229 2.89306C15.1726 2.91788 15.247 2.94269 15.2966 2.96751C15.3711 2.99232 15.4455 2.99232 15.52 2.99232C15.644 2.99232 15.7929 2.96751 15.917 2.94269C16.0411 2.91788 16.1652 2.89306 16.2892 2.81862C16.3389 2.7938 16.4133 2.76899 16.4629 2.74417C16.5126 2.69454 16.587 2.64491 16.6367 2.59528C16.8104 2.49602 16.6863 2.24787 16.5126 2.32231Z" fill="#FBE79F"/>
<path d="M6.93389 13.1417C6.90908 13.0921 6.90908 13.0424 6.85945 12.9928C6.83464 12.968 6.83463 12.9432 6.80982 12.9184C6.80982 12.9432 6.83463 12.9432 6.83463 12.968C6.80982 12.9184 6.78501 12.8935 6.73538 12.8687C6.71056 12.8439 6.68575 12.8191 6.66093 12.7943C6.6113 12.7447 6.58649 12.7198 6.53686 12.6702C6.51204 12.6206 6.46241 12.5958 6.43759 12.5461L6.41278 12.5213L6.38796 12.4965C6.36315 12.4717 6.36315 12.4469 6.33833 12.4221C6.2887 12.3476 6.16462 12.298 6.09018 12.3476C5.99092 12.3972 5.96611 12.5213 6.01574 12.5958C6.09018 12.7198 6.16463 12.8687 6.26389 12.968C6.31352 13.0424 6.36314 13.1169 6.43759 13.1665C6.46241 13.2161 6.51204 13.241 6.56167 13.2658C6.58648 13.2906 6.6113 13.2906 6.66093 13.3154C6.68575 13.3154 6.73538 13.3154 6.76019 13.3402C6.80982 13.3402 6.85945 13.3154 6.90908 13.2658C6.95871 13.241 6.95871 13.1913 6.93389 13.1417Z" fill="#FCEAB1"/>
<path d="M8.59649 12.6209C8.57168 12.5961 8.57168 12.5713 8.54686 12.5217C8.52205 12.4968 8.49723 12.472 8.4476 12.4472C8.42279 12.4224 8.39797 12.4224 8.34834 12.3976C8.32353 12.3976 8.29871 12.3976 8.29871 12.3728C8.27389 12.3728 8.22427 12.3479 8.19945 12.3479C8.14982 12.3479 8.10019 12.3231 8.05056 12.3479C8.02574 12.3479 8.02575 12.3479 8.00093 12.3479C7.92649 12.3728 7.87686 12.4472 7.90167 12.5217C7.90167 12.5465 7.90167 12.5465 7.92648 12.5713C7.9513 12.5961 7.9513 12.6457 7.97612 12.6705L8.00093 12.6954C8.02575 12.7202 8.05056 12.745 8.07537 12.7698C8.10019 12.7698 8.10019 12.7946 8.12501 12.7946C8.14982 12.8194 8.17464 12.8442 8.22427 12.8442C8.2739 12.8691 8.32353 12.8939 8.37316 12.8939C8.39797 12.8939 8.4476 12.8939 8.47242 12.8691C8.52205 12.8691 8.57168 12.7946 8.59649 12.745C8.62131 12.7202 8.62131 12.6954 8.62131 12.6705C8.62131 12.6705 8.62131 12.6457 8.59649 12.6209Z" fill="#FCEAB1"/>
<path d="M9.14237 12.2731C9.14237 12.2482 9.14237 12.2234 9.11755 12.1986C9.11755 12.1738 9.09273 12.1738 9.09273 12.149C9.06792 12.1242 9.04311 12.1242 9.01829 12.0993C8.99348 12.0745 8.96866 12.0745 8.94384 12.0745H8.91902C8.89421 12.0745 8.8694 12.0745 8.8694 12.0497C8.84458 12.0497 8.81976 12.0497 8.79495 12.0249C8.77013 12.0249 8.74532 12.0249 8.72051 12.0249C8.69569 12.0249 8.67088 12.0249 8.64606 12.0497C8.62125 12.0497 8.62125 12.0745 8.59643 12.0745C8.57162 12.0993 8.57161 12.1242 8.5468 12.149C8.5468 12.1738 8.52199 12.1738 8.52199 12.1986C8.52199 12.2234 8.52199 12.2482 8.52199 12.2731C8.5468 12.3227 8.57162 12.3723 8.62125 12.3971C8.67088 12.4219 8.7205 12.4468 8.79495 12.4716C8.81976 12.4716 8.84458 12.4964 8.8694 12.4964H8.89422H8.91902C8.91902 12.4964 8.91903 12.4964 8.94384 12.4964C8.96866 12.4964 8.99348 12.4964 9.01829 12.4964C9.04311 12.4964 9.0431 12.4716 9.06792 12.4716C9.09273 12.4716 9.09274 12.4468 9.11755 12.4468C9.14237 12.4219 9.14236 12.3971 9.16718 12.3723C9.19199 12.3475 9.19199 12.3227 9.19199 12.2979C9.14236 12.2979 9.14237 12.2731 9.14237 12.2731Z" fill="#FCEAB1"/>
<path d="M11.078 10.3129C11.078 10.2881 11.0532 10.2633 11.0532 10.2385C11.0283 10.2137 11.0284 10.1889 11.0035 10.164C10.9787 10.1392 10.9539 10.1392 10.9539 10.1144C10.9291 10.0896 10.9043 10.0648 10.8795 10.0152C10.8298 9.96553 10.805 9.89108 10.7554 9.84145C10.7306 9.79182 10.6809 9.767 10.6313 9.74219C10.5817 9.74219 10.5569 9.74219 10.5072 9.74219C10.408 9.79182 10.3832 9.86627 10.408 9.96553C10.4328 10.0648 10.4824 10.164 10.5072 10.2633C10.5569 10.3874 10.6561 10.5363 10.805 10.5859C10.8795 10.6107 10.9787 10.5859 11.0283 10.5363C11.078 10.4866 11.1028 10.3874 11.078 10.3129Z" fill="#FCEAB1"/>
<path d="M11.4501 9.6923C11.4501 9.6923 11.4501 9.66749 11.4252 9.66749C11.4004 9.64268 11.4004 9.61786 11.3756 9.59304C11.3508 9.56823 11.3508 9.56823 11.326 9.54342C11.3012 9.5186 11.2764 9.49378 11.2515 9.44415C11.1771 9.36971 11.1026 9.32008 11.0034 9.27045C10.9538 9.24563 10.8793 9.22081 10.8297 9.24563C10.8049 9.24563 10.8049 9.27045 10.78 9.27045C10.7552 9.29526 10.7304 9.29526 10.7304 9.32008C10.7056 9.36971 10.6808 9.39452 10.6808 9.44415C10.6808 9.49378 10.7056 9.56823 10.7552 9.59304C10.8049 9.64267 10.8297 9.66749 10.8545 9.71712C10.8297 9.69231 10.8297 9.69231 10.8049 9.66749C10.8297 9.69231 10.8545 9.74193 10.8793 9.76675L10.9041 9.79157C10.9289 9.81638 10.9289 9.81638 10.9538 9.8412C10.9786 9.89083 11.0034 9.91564 11.053 9.96527C11.0778 9.99009 11.1026 10.0149 11.1275 10.0149C11.1523 10.0397 11.2019 10.0397 11.2267 10.0397C11.2515 10.0397 11.2764 10.0397 11.3012 10.0397C11.326 10.0397 11.3756 10.0149 11.4004 9.99009C11.4252 9.99009 11.4252 9.96527 11.4501 9.94046C11.4749 9.91564 11.4997 9.89083 11.4997 9.8412C11.4997 9.81638 11.4997 9.79157 11.4997 9.76675C11.4997 9.79157 11.4749 9.74193 11.4501 9.6923Z" fill="#FCEAB1"/>
<path d="M11.3012 8.79885C11.3012 8.77403 11.2763 8.77403 11.2763 8.74921C11.2515 8.7244 11.2515 8.69958 11.2019 8.69958C11.1275 8.64995 11.053 8.60033 10.9538 8.5507C10.9289 8.52588 10.9041 8.52588 10.8793 8.52588C10.8545 8.52588 10.8297 8.52588 10.78 8.52588C10.7552 8.52588 10.7304 8.55069 10.7056 8.57551C10.6808 8.60032 10.656 8.60032 10.656 8.62514C10.6312 8.67477 10.6063 8.74922 10.6312 8.79885C10.6312 8.82366 10.656 8.82366 10.656 8.84848C10.6808 8.87329 10.7056 8.89811 10.7304 8.92292C10.8049 8.97255 10.8793 9.047 10.9538 9.09663C10.9786 9.12144 11.0282 9.12144 11.0778 9.12144C11.1275 9.12144 11.1523 9.12144 11.2019 9.09663C11.2267 9.07181 11.2515 9.07181 11.2763 9.047C11.3012 9.02218 11.3012 8.99737 11.326 8.97255C11.326 8.94774 11.326 8.92292 11.326 8.92292C11.326 8.84848 11.3012 8.82366 11.3012 8.79885Z" fill="#FCEAB1"/>
<path d="M11.9216 6.66486C11.8968 6.61523 11.872 6.59041 11.8223 6.5656C11.7727 6.54078 11.6983 6.49115 11.6486 6.44152C11.5742 6.36708 11.4997 6.31744 11.4253 6.243C11.3508 6.16855 11.2268 6.16855 11.1275 6.21818C11.1027 6.243 11.0531 6.29263 11.0531 6.34226C11.0531 6.39189 11.0282 6.46633 11.0779 6.51596C11.202 6.68967 11.3508 6.83856 11.4997 6.96264C11.5246 6.98745 11.5742 7.01227 11.6238 7.03708C11.6486 7.03708 11.6734 7.03708 11.6983 7.03708C11.7727 7.03708 11.8471 6.98745 11.8968 6.93782C11.9216 6.91301 11.9464 6.88819 11.9464 6.83856C11.9464 6.81375 11.9464 6.76412 11.9464 6.7393C11.9712 6.7393 11.9464 6.68967 11.9216 6.66486Z" fill="#FCEAB1"/>
<path d="M12.1203 6.06941C12.0955 6.04459 12.0458 6.01978 12.021 5.99496L11.9714 5.94533C11.9217 5.92051 11.8969 5.8957 11.8473 5.87089C11.7729 5.82126 11.6736 5.77162 11.5991 5.69718C11.4999 5.64755 11.3758 5.67236 11.3262 5.77162C11.3014 5.82125 11.3014 5.87088 11.3014 5.92052C11.3262 5.97015 11.351 5.99496 11.4006 6.04459C11.4751 6.09422 11.5743 6.16867 11.6488 6.2183C11.6984 6.24311 11.7232 6.26793 11.7728 6.31756C11.8225 6.36719 11.8721 6.392 11.9466 6.41682C12.021 6.44163 12.1451 6.392 12.1947 6.31756C12.2195 6.29274 12.2195 6.24311 12.2195 6.2183C12.1699 6.16867 12.1451 6.11904 12.1203 6.06941Z" fill="#FCEAB1"/>
<path d="M11.8221 5.30014C11.8221 5.27532 11.7973 5.25051 11.7973 5.22569C11.7973 5.22569 11.7973 5.22569 11.7973 5.20088C11.7973 5.17606 11.7725 5.17606 11.7725 5.15125L11.7477 5.12643C11.698 5.0768 11.6484 5.02717 11.574 5.00236C11.5492 4.97754 11.5243 4.97754 11.4995 4.97754C11.4747 4.97754 11.4499 4.97754 11.4003 4.97754C11.3754 4.97754 11.3506 5.00236 11.3258 5.02717C11.301 5.05199 11.2762 5.05198 11.2762 5.0768C11.2762 5.10162 11.2514 5.10162 11.2514 5.12643C11.2514 5.17606 11.2514 5.20088 11.2514 5.25051C11.2514 5.27532 11.2762 5.27532 11.2762 5.30014C11.301 5.32495 11.3258 5.34977 11.3506 5.37458C11.3506 5.37458 11.3754 5.37458 11.3754 5.3994C11.4003 5.42421 11.4251 5.44903 11.4499 5.47384C11.4747 5.49866 11.4747 5.49866 11.4995 5.52347C11.5243 5.54829 11.5243 5.54829 11.5492 5.5731C11.574 5.59792 11.5988 5.59792 11.6236 5.62273C11.6484 5.64755 11.6732 5.64755 11.698 5.64755H11.7477C11.7725 5.64755 11.7973 5.62273 11.8221 5.59792C11.8469 5.59792 11.8469 5.5731 11.8718 5.54829C11.8966 5.52347 11.8966 5.49866 11.9214 5.47384V5.42421C11.8469 5.37458 11.8469 5.32495 11.8221 5.30014Z" fill="#FCEAB1"/>
</svg>
