<svg width="35" height="39" viewBox="0 0 35 39" fill="none" xmlns="http://www.w3.org/2000/svg">
<path d="M27.6254 0C28.3989 0 28.7746 4.8621 28.4431 6.09972C28.0895 5.59141 27.6696 5.06101 27.1613 4.50849C26.4099 3.66868 25.548 3.22666 24.8187 3.00566C24.8187 3.00566 26.8519 0 27.6254 0Z" fill="#DB7F2C"/>
<path d="M30.3659 8.79614C29.8134 8.22153 29.2608 7.227 28.4431 6.09988C28.0895 5.59157 27.6696 5.06116 27.1613 4.50865C26.4099 3.66883 25.548 3.22682 24.8186 3.00581C23.9125 2.71851 23.2053 2.74061 23.2053 2.74061L23.1169 2.80691C22.8296 2.56381 22.3213 2.43121 21.5257 2.54171C19.8018 2.78482 18.2106 4.48655 18.2106 4.48655C18.2106 4.48655 15.0502 1.50298 14.3651 2.0334C13.68 2.56381 14.0999 7.1386 15.2049 8.90664C15.2049 8.90664 14.5198 11.8239 13.5695 13.2825C12.8844 14.3434 12.8181 14.8959 13.8126 15.1832C14.0336 15.2495 14.2988 15.2495 14.5419 15.2053C14.4535 15.581 14.5198 15.9346 14.8955 16.1556C15.9785 16.7523 17.5034 15.6252 17.5034 15.6252C17.5034 15.6252 17.5476 15.6473 17.636 15.6915C18.3432 16.0451 21.6141 17.6363 23.6473 17.2606C25.5038 16.907 27.7801 15.0285 28.5536 14.3213C28.7304 14.1666 28.8409 14.056 28.8409 14.056C28.8409 14.056 30.5648 14.1887 31.0068 13.1499C31.1836 12.7079 31.1173 12.3543 30.9184 12.067C31.3383 11.9565 31.7582 11.6913 32.0676 11.0946C32.377 10.52 31.6698 10.1664 30.3659 8.79614Z" fill="#EF973F"/>
<path d="M29.7029 19.6918C29.725 19.2277 29.4156 18.9846 29.062 18.8741C29.5482 17.9901 28.2664 16.1558 28.2664 16.1558C27.6255 16.8409 25.99 18.0785 23.5369 18.4763C20.929 18.8962 17.7466 17.2829 17.5035 16.8851C17.5035 16.8851 13.3486 19.1614 11.1827 25.9684C10.0114 29.6592 9.65779 32.046 9.81249 33.6593H9.76829C9.76829 33.6593 3.91167 34.3887 3.82326 31.9355C3.73486 29.4823 8.02235 25.8358 7.69085 22.6312C7.35934 19.3161 1.0165 16.9072 0.0882844 19.0288C-0.817835 21.0621 5.5692 21.6809 4.72938 23.7141C3.88956 25.7474 -0.663131 29.6812 1.03861 32.9742C2.74034 36.2893 8.22126 36.3998 10.1882 35.118C10.4313 35.6484 10.7628 36.0241 11.1827 36.3335C12.7519 37.5048 15.8901 37.2175 16.8183 37.7921C17.7466 38.3667 18.6527 38.8529 19.0063 38.6098C19.0505 38.5877 19.0726 38.5435 19.1168 38.5214C19.1168 38.5214 19.5367 38.6319 19.7798 38.3225C19.7798 38.3225 20.4207 38.2341 20.3986 37.4164V37.3943H20.4649C20.487 37.6153 20.5312 37.7921 20.6417 37.9468C20.8185 38.1678 21.3931 38.0352 21.3931 38.0352C21.813 38.3667 22.6529 37.9468 22.6529 37.9468C23.2938 38.2562 24.664 37.6153 24.7966 37.0407C24.7745 37.4827 25.6806 37.4827 26.1668 37.5932C26.5204 37.6816 27.1835 37.9026 27.4266 37.5711L27.5371 37.5932C27.5371 37.5932 28.62 37.7037 28.8189 37.1954L28.841 37.2175C30.167 36.7755 28.5316 35.1622 28.178 34.6318C27.8244 34.1013 28.3106 23.471 28.3106 23.471C28.3106 23.471 28.62 23.0732 28.9957 22.366C29.3493 21.6588 28.5537 21.1505 28.5537 21.1505C28.5537 21.1505 29.6587 20.7969 29.7029 19.6918Z" fill="#EF973F"/>
<path d="M28.5537 14.2988C28.5537 14.2988 28.62 15.4039 28.5537 15.7354C28.5316 15.8017 28.4432 15.9564 28.2443 16.1553C27.6034 16.8404 25.9679 18.078 23.5148 18.4758C20.9069 18.8957 17.7245 17.2824 17.4814 16.8846C17.2383 16.5089 17.5919 15.7133 17.5919 15.7133L17.614 15.6691C18.3212 16.0227 21.5699 17.3487 23.6253 16.973C25.5038 16.6194 27.7802 15.006 28.5537 14.2988Z" fill="#BB233E"/>
<path d="M24.3546 9.17181C24.3325 8.8624 24.3767 8.55299 24.4872 8.26569C24.5535 8.11098 24.6419 7.97838 24.7303 7.84578C24.8408 7.71318 24.9734 7.60267 25.1281 7.53637C25.4375 7.38166 25.769 7.35956 26.0784 7.42587C26.3878 7.49217 26.6751 7.60267 26.9182 7.77947C26.9624 7.82368 26.9845 7.88998 26.9403 7.93418C26.9182 7.97838 26.874 7.97838 26.8298 7.97838C26.5646 7.88998 26.2994 7.84578 26.0563 7.82368C25.7911 7.80158 25.548 7.84578 25.3491 7.93418C25.1502 8.04468 24.9734 8.22148 24.8629 8.44249C24.7524 8.66349 24.6419 8.9287 24.5756 9.1939C24.5535 9.2602 24.5093 9.28231 24.443 9.28231C24.3988 9.26021 24.3546 9.21601 24.3546 9.17181Z" fill="black"/>
<path d="M26.2772 8.48654C26.3435 9.01695 26.0783 9.48106 25.6805 9.54736C25.2827 9.59156 24.907 9.21585 24.8186 8.68544C24.7523 8.15503 25.0175 7.69092 25.4153 7.62462C25.8131 7.58042 26.1888 7.95613 26.2772 8.48654Z" fill="black"/>
<path d="M20.9511 9.85698C20.7964 9.63598 20.6196 9.41498 20.4428 9.23817C20.2439 9.06137 20.045 8.95087 19.824 8.92877C19.603 8.90667 19.3599 8.95087 19.1168 9.06137C18.8737 9.17187 18.6527 9.30448 18.4317 9.48128C18.3875 9.52548 18.3212 9.50338 18.277 9.45918C18.2549 9.41498 18.2549 9.37078 18.277 9.32657C18.4538 9.08347 18.6748 8.86247 18.94 8.70776C19.2052 8.55306 19.5367 8.46466 19.8903 8.48676C20.0671 8.50886 20.2218 8.57516 20.3765 8.64146C20.5091 8.72986 20.6417 8.84037 20.7522 8.95087C20.9511 9.19398 21.1058 9.45918 21.1721 9.76858C21.1942 9.83488 21.15 9.87909 21.1058 9.90119C21.0174 9.92329 20.9732 9.90118 20.9511 9.85698Z" fill="black"/>
<path d="M19.2717 9.72466C19.3601 10.2551 19.7358 10.6308 20.1336 10.5645C20.5314 10.4982 20.7966 10.0341 20.7082 9.50366C20.6198 8.97325 20.2441 8.59753 19.8463 8.66383C19.4485 8.73014 19.1833 9.19425 19.2717 9.72466Z" fill="black"/>
<path d="M23.2938 12.3321C23.2275 12.3321 23.1833 12.2879 23.1833 12.2216L23.0728 10.6525C23.0728 10.5862 23.117 10.542 23.1833 10.542C23.2496 10.542 23.2938 10.5862 23.2938 10.6525L23.4043 12.2216C23.4043 12.2658 23.3601 12.3321 23.2938 12.3321Z" fill="#542B00"/>
<path d="M21.5479 11.5805C21.8131 11.7573 22.1446 11.8899 22.4761 11.9562C22.8076 12.0225 23.1391 12.0446 23.4706 12.0004C23.8021 11.9562 24.1115 11.8457 24.3767 11.6689C24.6419 11.4921 24.9071 11.249 25.0839 10.9617C25.106 10.9175 25.1723 10.8954 25.2386 10.9396C25.2828 10.9617 25.3049 11.028 25.2828 11.0722C25.1502 11.4479 24.9292 11.7573 24.6198 12.0004C24.3104 12.2435 23.9347 12.3983 23.5369 12.4425C23.338 12.4646 23.1612 12.4646 22.9623 12.4646C22.7634 12.4425 22.5866 12.4204 22.3877 12.3541C22.012 12.2435 21.6805 12.0446 21.4153 11.7352C21.3711 11.691 21.3932 11.6247 21.4374 11.5805C21.4595 11.5363 21.5037 11.5363 21.5479 11.5805Z" fill="#542B00"/>
<path d="M23.7137 16.907C23.8684 17.0175 23.9568 17.1501 24.001 17.2827C24.0673 17.4374 24.0894 17.5921 24.0894 17.7468C24.0894 17.9015 24.0673 18.0562 24.0231 18.1888C23.9789 18.3214 23.9126 18.4761 23.8463 18.5866C23.8021 18.6308 23.7358 18.6529 23.6915 18.6087C23.6694 18.5866 23.6473 18.5645 23.6473 18.5203C23.6473 18.3877 23.6473 18.2551 23.6473 18.1225C23.6473 17.9899 23.6473 17.8794 23.6473 17.7468C23.6473 17.6363 23.6474 17.5037 23.6253 17.3932C23.6032 17.2827 23.581 17.1501 23.5589 17.0396V16.9954C23.5368 16.9291 23.581 16.8849 23.6253 16.8628C23.6695 16.8849 23.6916 16.8849 23.7137 16.907Z" fill="#EEF5E9"/>
<path d="M25.084 19.5368C24.9956 18.8738 24.3767 18.4097 23.7137 18.5202C23.0507 18.6086 22.5866 19.2274 22.6971 19.8904C22.7855 20.5534 23.4043 21.0175 24.0673 20.907C24.7083 20.7965 25.1724 20.1998 25.084 19.5368Z" fill="#FBE36C"/>
<path d="M24.2222 19.6033C24.2001 19.4044 24.0233 19.2718 23.8243 19.2939C23.6254 19.316 23.4928 19.4928 23.5149 19.6917C23.537 19.8906 23.7138 20.0232 23.9127 20.0011C24.1117 19.9569 24.2443 19.7801 24.2222 19.6033Z" fill="#2B1209"/>
<path d="M23.8907 19.5808L24.178 19.5366C24.2664 19.5145 24.3769 19.4924 24.4653 19.4703C24.5537 19.4482 24.6421 19.4261 24.7305 19.404C24.8189 19.3819 24.9073 19.3377 24.9958 19.2935C25.0179 19.2935 25.0621 19.2935 25.0621 19.3156C25.0621 19.3377 25.0621 19.3598 25.0621 19.3819C24.9073 19.5366 24.7084 19.6471 24.5095 19.6913C24.399 19.7134 24.3106 19.7355 24.2001 19.7355C24.0896 19.7355 24.0012 19.7355 23.8907 19.6913C23.8686 19.6913 23.8465 19.6471 23.8465 19.625C23.8686 19.6029 23.8686 19.5808 23.8907 19.5808Z" fill="#2B1209"/>
<path d="M18.1664 4.41987C18.8957 3.66845 19.7355 3.00544 20.7301 2.60763C21.2384 2.40872 21.7688 2.34242 22.3213 2.38662C22.5865 2.40872 22.8738 2.49713 23.0948 2.65183C23.3379 2.80654 23.5147 3.07174 23.5147 3.38114C23.5147 3.53585 23.4926 3.69055 23.4042 3.82315C23.3158 3.95576 23.2053 4.04416 23.0948 4.13256C22.8738 4.28726 22.6086 4.39776 22.3213 4.44196C22.255 4.44196 22.1666 4.44196 22.1003 4.44196C22.0561 4.44196 22.0119 4.41987 21.9898 4.39777C21.9456 4.37567 21.9014 4.35357 21.8793 4.30937C21.8572 4.28727 21.8572 4.26516 21.8351 4.24306C21.8351 4.22096 21.813 4.19886 21.813 4.17676C21.7909 4.13256 21.7909 4.06626 21.813 4.02206C21.8351 3.93365 21.8793 3.86735 21.9456 3.80105C22.1666 3.60215 22.4318 3.51374 22.697 3.44744C22.9622 3.40324 23.2495 3.40325 23.5147 3.51375C23.6473 3.55795 23.7578 3.64635 23.8683 3.77895C23.9567 3.88945 24.0009 4.02206 24.0451 4.15466C24.0672 4.28726 24.0893 4.44197 24.0451 4.57457C24.0009 4.70717 23.9346 4.83978 23.8462 4.95028C23.6694 5.17128 23.4484 5.32598 23.2053 5.43649C23.1832 5.45859 23.139 5.43649 23.139 5.41439C23.1169 5.39229 23.139 5.34808 23.1611 5.34808C23.3821 5.23758 23.6031 5.08288 23.7357 4.88397C23.8904 4.68507 23.9346 4.44197 23.8683 4.19886C23.802 3.95576 23.6473 3.77895 23.4263 3.69055C23.2053 3.60215 22.9401 3.60215 22.7191 3.64635C22.476 3.69055 22.2329 3.80105 22.0782 3.95576C22.034 3.99996 22.0119 4.04416 22.0119 4.06626C22.0119 4.08836 22.0119 4.08836 22.0119 4.11046V4.13256C22.0119 4.13256 22.0119 4.15466 22.034 4.15466C22.0782 4.19886 22.1887 4.22097 22.2992 4.19886C22.5423 4.17676 22.7633 4.06626 22.9622 3.93366C23.1611 3.80105 23.2937 3.60215 23.2937 3.38114C23.2937 3.16014 23.1611 2.93913 22.9622 2.80653C22.7633 2.67393 22.5202 2.60763 22.2771 2.58553C22.034 2.56343 21.7688 2.58553 21.5257 2.60763C21.2826 2.65183 21.0395 2.69603 20.7964 2.78443C20.3102 2.96123 19.8682 3.20434 19.4261 3.49165C19.0062 3.77895 18.5863 4.11046 18.2327 4.46407C18.2106 4.48617 18.1885 4.48617 18.1664 4.46407C18.1664 4.48617 18.1664 4.44197 18.1664 4.41987Z" fill="#C96D2F"/>
<path d="M17.5256 15.647C17.1941 15.8901 16.8405 16.089 16.4648 16.2216C16.0891 16.3542 15.6692 16.4426 15.2492 16.3542L15.0945 16.31C15.0503 16.2879 15.0061 16.2658 14.9398 16.2437C14.8514 16.1995 14.7409 16.1553 14.6525 16.0669C14.5641 15.9785 14.4978 15.8901 14.4536 15.7796C14.4094 15.6691 14.3873 15.5586 14.3873 15.4481C14.3873 15.006 14.5862 14.6082 14.8735 14.2988C15.0061 14.1441 15.1608 13.9894 15.4039 13.9231C15.5145 13.8789 15.6692 13.8789 15.7797 13.9894C15.8902 14.0778 15.9344 14.2325 15.9123 14.343C15.8902 14.4756 15.8239 14.564 15.7576 14.6524C15.6913 14.7408 15.6029 14.8071 15.5145 14.8734C15.3376 15.006 15.1608 15.0944 14.9619 15.1607C14.5641 15.2933 14.1442 15.3376 13.7243 15.2049C13.5254 15.1386 13.3265 15.0502 13.1718 14.8955C13.0171 14.7408 12.9729 14.4977 13.0171 14.2988C13.0171 14.2767 13.0613 14.2546 13.0834 14.2546C13.1055 14.2546 13.1276 14.2767 13.1276 14.3209C13.1055 14.4977 13.1497 14.6966 13.2823 14.8071C13.4149 14.9397 13.5917 15.006 13.7906 15.0502C14.1442 15.1607 14.542 15.1165 14.8956 14.9839C15.0724 14.9176 15.2492 14.8292 15.4039 14.7187C15.5587 14.6082 15.6913 14.4756 15.7134 14.3209C15.7355 14.2546 15.6913 14.1883 15.6471 14.1441C15.6029 14.0999 15.5366 14.0999 15.4703 14.122C15.3155 14.1662 15.1608 14.2988 15.0503 14.4535C14.8072 14.7408 14.6083 15.0944 14.6083 15.4481C14.6083 15.6249 14.6746 15.8017 14.8072 15.9122C14.8735 15.9785 14.9398 16.0227 15.0282 16.0448C15.0724 16.0669 15.1166 16.089 15.1608 16.1111L15.2934 16.1553C15.6471 16.2437 16.0449 16.1774 16.4206 16.0669C16.7963 15.9564 17.1499 15.7796 17.4814 15.5586C17.5035 15.5365 17.5477 15.5586 17.5477 15.5807C17.5698 15.6028 17.5477 15.6249 17.5256 15.647Z" fill="#C96D2F"/>
<path d="M32.1781 10.6743C32.2223 10.7627 32.2223 10.8732 32.2002 10.9837C32.1781 11.0942 32.1339 11.1605 32.0897 11.249C32.0013 11.4258 31.8908 11.5805 31.7582 11.7131C31.493 11.9783 31.1173 12.1772 30.7195 12.1993C30.5206 12.2214 30.3217 12.1993 30.1449 12.1551C29.946 12.1109 29.7692 12.0446 29.5924 11.912C29.5482 11.8678 29.504 11.8457 29.4819 11.7794C29.4598 11.7352 29.4156 11.6468 29.4377 11.5584C29.4819 11.47 29.5482 11.4258 29.5924 11.4037C29.6366 11.3816 29.7029 11.3595 29.7471 11.3595C29.9681 11.3374 30.167 11.3816 30.3438 11.4479C30.5206 11.5142 30.6974 11.6247 30.8521 11.7573C31.0068 11.8899 31.1173 12.0667 31.1836 12.2435C31.2499 12.4424 31.272 12.6413 31.2278 12.8402C31.2278 12.9507 31.1615 13.0391 31.1394 13.1275C31.0952 13.2159 31.051 13.3043 30.9847 13.3927C30.7416 13.7242 30.3659 13.8789 29.9902 13.9894C29.6145 14.0778 29.2388 14.0999 28.8631 14.0557C28.841 14.0557 28.8189 14.0336 28.8189 13.9894C28.8189 13.9673 28.841 13.9452 28.8631 13.9452C29.2167 13.9673 29.5924 13.9231 29.946 13.8126C30.2996 13.7242 30.6311 13.5474 30.83 13.2601C30.8963 13.1938 30.9184 13.1054 30.9626 13.0391C30.9847 12.9507 31.0289 12.8844 31.0289 12.796C31.0731 12.6192 31.051 12.4645 30.9847 12.3098C30.8742 12.0004 30.5648 11.7573 30.2554 11.6247C30.1007 11.5584 29.9239 11.5142 29.7692 11.5363C29.5703 11.5805 29.5924 11.5584 29.725 11.691C29.9902 11.8899 30.3659 11.9783 30.6974 11.9562C31.051 11.9341 31.3825 11.7794 31.6477 11.5363C31.7803 11.4258 31.8908 11.2711 31.9792 11.1163C32.0234 11.0279 32.0676 10.9616 32.0897 10.8953C32.1118 10.8069 32.1118 10.7406 32.0897 10.6522C32.0897 10.6301 32.0897 10.5859 32.1339 10.5859C32.1339 10.6301 32.156 10.6522 32.1781 10.6743Z" fill="#C96D2F"/>
<path d="M10.4534 35.4932C10.6965 35.8468 11.028 36.1562 11.3816 36.3772C11.7573 36.5982 12.1551 36.7529 12.575 36.8855C13.4148 37.1065 14.2988 37.1949 15.1829 37.3054C15.6249 37.3717 16.0669 37.4159 16.5089 37.5485C16.5531 37.5706 16.6194 37.5927 16.6636 37.6148L16.8183 37.7032C16.9288 37.7474 17.0172 37.8137 17.1056 37.88C17.3045 37.9905 17.4813 38.101 17.6802 38.2115C17.8791 38.322 18.078 38.4104 18.2769 38.4988C18.4758 38.5651 18.6968 38.6535 18.8736 38.6093C19.0504 38.5872 19.1609 38.3662 19.1388 38.1673C19.1167 37.9684 18.9841 37.7695 18.7852 37.7253C18.7631 37.7253 18.741 37.6811 18.741 37.659C18.741 37.6369 18.7852 37.6148 18.8073 37.6148C19.0504 37.6811 19.2051 37.9021 19.2493 38.1452C19.2935 38.3883 19.1609 38.6756 18.8957 38.7419C18.7631 38.764 18.6526 38.764 18.52 38.7419C18.4095 38.7198 18.299 38.6756 18.1885 38.6535C17.9675 38.5651 17.7686 38.4767 17.5697 38.3662C17.3708 38.2557 17.1719 38.1452 16.9951 38.0347C16.9067 37.9905 16.7962 37.9242 16.7078 37.8579L16.5752 37.7916C16.531 37.7695 16.4647 37.7474 16.4205 37.7474C16.0227 37.6148 15.5807 37.5706 15.1386 37.5264C14.2546 37.4159 13.3706 37.3275 12.5087 37.0623C12.0888 36.9297 11.6468 36.7529 11.2711 36.5098C10.8954 36.2667 10.5639 35.9352 10.3428 35.5374C10.3207 35.5153 10.3428 35.4711 10.3649 35.4711C10.4091 35.449 10.4534 35.4711 10.4534 35.4932Z" fill="#C96D2F"/>
<path d="M19.1389 38.4549C19.3157 38.477 19.5146 38.4328 19.6251 38.3223C19.6914 38.2559 19.7356 38.2117 19.7577 38.1233C19.7798 38.0349 19.824 37.9686 19.8019 37.8802C19.8019 37.7255 19.7135 37.5708 19.5809 37.4161C19.4483 37.2835 19.3157 37.1509 19.1389 37.0625C19.1168 37.0404 19.1168 37.0183 19.1168 36.9962C19.1389 36.9741 19.161 36.9741 19.1831 36.9741C19.382 37.0404 19.5588 37.1509 19.7135 37.3056C19.8682 37.4382 20.0008 37.6371 20.0008 37.8802C20.0008 38.0128 19.9566 38.1233 19.9124 38.2117C19.8682 38.3223 19.7798 38.4106 19.6914 38.477C19.4925 38.6096 19.2494 38.6317 19.0505 38.5654C19.0284 38.5654 19.0063 38.5212 19.0284 38.4991C19.0947 38.4549 19.1168 38.4549 19.1389 38.4549Z" fill="#C96D2F"/>
<path d="M19.7797 38.2558C20.0008 38.2116 20.1776 38.0348 20.266 37.8359C20.3102 37.7254 20.3323 37.6149 20.3323 37.5044C20.3323 37.3939 20.3323 37.2834 20.266 37.1729C20.1776 36.974 20.0008 36.7972 19.8239 36.6646C19.6471 36.532 19.4261 36.4214 19.2051 36.4214C19.1609 36.4214 19.1167 36.3772 19.1167 36.3109V36.2888C19.2714 35.6037 19.3377 34.8744 19.3156 34.1672C19.3156 33.8136 19.2714 33.46 19.2272 33.1064C19.183 32.9296 19.1609 32.7528 19.1167 32.5981C19.0946 32.5097 19.0725 32.4213 19.0504 32.355L18.962 32.1119C18.8957 31.9351 18.8073 31.8024 18.741 31.6477C18.6526 31.493 18.5642 31.3383 18.4537 31.2057C18.2548 30.9184 18.0117 30.6532 17.7686 30.388C17.2603 29.9018 16.6636 29.4598 16.0006 29.2167C15.9785 29.2167 15.9564 29.1725 15.9785 29.1504C15.9785 29.1283 16.0227 29.1062 16.0448 29.1283C16.752 29.3714 17.3708 29.7692 17.9012 30.2775C18.1664 30.5206 18.4095 30.8079 18.6305 31.0952C18.741 31.2499 18.8294 31.4046 18.9399 31.5593C19.0283 31.7361 19.1167 31.8909 19.183 32.0677C19.4703 32.7528 19.5808 33.4821 19.6029 34.2114C19.6029 34.9407 19.5366 35.67 19.3598 36.3772L19.2714 36.2446C19.5587 36.2667 19.7797 36.3993 20.0008 36.5541C20.1997 36.7088 20.3765 36.9077 20.487 37.1508C20.5312 37.2613 20.5533 37.416 20.5312 37.5486C20.5091 37.6812 20.487 37.8138 20.4428 37.9243C20.3323 38.1674 20.1113 38.3442 19.8461 38.4105C19.8239 38.4105 19.7797 38.3884 19.7797 38.3663C19.7355 38.3 19.7355 38.2779 19.7797 38.2558Z" fill="#C96D2F"/>
<path d="M18.2548 22.5645C18.5642 23.9126 18.8736 25.2386 19.183 26.5867L20.0671 30.6311C20.3544 31.9793 20.6417 33.3274 20.8848 34.6976L20.9732 35.2059C20.9953 35.2943 20.9953 35.3827 21.0174 35.4711C21.0174 35.4932 21.0174 35.5153 21.0174 35.5374C21.0174 35.5595 21.0174 35.6037 21.0174 35.6258L20.9732 35.7584C20.8406 36.0678 20.7301 36.3993 20.6638 36.7309C20.5975 37.0624 20.5312 37.3939 20.6417 37.7033C20.708 38.0569 21.1279 38.0348 21.4373 37.9906C21.4594 37.9906 21.5036 38.0127 21.5036 38.0348C21.5036 38.0569 21.4815 38.079 21.4594 38.1011C21.2826 38.1453 21.1058 38.1453 20.929 38.1232C20.8406 38.1011 20.7301 38.079 20.6638 38.0127C20.5975 37.9243 20.5533 37.858 20.5091 37.7696C20.3765 37.416 20.4207 37.0403 20.487 36.7088C20.5533 36.3551 20.6859 36.0236 20.7964 35.7142L20.8406 35.6037C20.8406 35.5816 20.8406 35.5816 20.8406 35.5595C20.8406 35.5595 20.8406 35.5153 20.8406 35.4932C20.8406 35.4048 20.8185 35.3164 20.7964 35.2501L20.708 34.7418C20.4428 33.3937 20.1555 32.0456 19.8682 30.6974L19.0062 26.653L18.1664 22.6087C18.1664 22.5866 18.1885 22.5424 18.2106 22.5424C18.2327 22.5203 18.2548 22.5424 18.2548 22.5645Z" fill="#C96D2F"/>
<path d="M21.7467 36.6869C21.592 36.8416 21.4373 37.0405 21.3489 37.2394C21.3047 37.3499 21.2826 37.4383 21.3047 37.5488C21.3268 37.6593 21.3489 37.7477 21.4152 37.8361C21.5257 37.9908 21.7467 38.035 21.9677 38.035C22.1887 38.0129 22.4318 37.9466 22.6528 37.8803C22.6749 37.8803 22.7191 37.8803 22.7191 37.9024C22.7191 37.9245 22.7191 37.9466 22.697 37.9687C22.476 38.1013 22.2329 38.1897 21.9898 38.2339C21.8572 38.256 21.7246 38.256 21.592 38.2118C21.4594 38.1676 21.3268 38.0792 21.2384 37.9687C21.15 37.8582 21.1058 37.7256 21.0837 37.5709C21.0837 37.4383 21.1058 37.2836 21.1721 37.1731C21.2826 36.93 21.4594 36.7532 21.6804 36.5985C21.7025 36.5764 21.7467 36.5985 21.7467 36.6206C21.7688 36.6427 21.7688 36.6648 21.7467 36.6869Z" fill="#C96D2F"/>
<path d="M22.6528 36.6867C22.5644 36.8414 22.4981 36.9961 22.476 37.1508C22.4318 37.3055 22.4318 37.4823 22.476 37.6149C22.5202 37.7475 22.6528 37.858 22.8075 37.9022C22.9622 37.9464 23.1169 37.9464 23.2937 37.9243C23.6252 37.8801 23.9346 37.7475 24.222 37.5707C24.3546 37.4823 24.4872 37.3718 24.5977 37.2613C24.6419 37.195 24.6861 37.1287 24.7082 37.0624L24.7303 37.0182V36.9519V36.8414C24.7082 35.4711 24.6198 34.0788 24.5314 32.7086L24.023 24.4209C24.023 24.3988 24.023 24.3767 24.0452 24.3546C24.4209 23.9126 24.7745 23.4927 25.1281 23.0286C25.3049 22.8076 25.4817 22.5866 25.6364 22.3434C25.8132 22.1224 25.9679 21.8793 26.1005 21.6362C26.1226 21.6141 26.1447 21.592 26.1668 21.6141C26.1889 21.6362 26.211 21.6583 26.1889 21.6804C26.0563 21.9456 25.9016 22.1666 25.7248 22.4098C25.5701 22.6529 25.3933 22.8739 25.2165 23.0949C24.8629 23.559 24.5093 24.001 24.1557 24.443L24.1778 24.3767L24.4651 28.5316C24.5535 29.9239 24.6419 31.2941 24.7082 32.6865C24.7745 34.0788 24.8629 35.449 24.8629 36.8414V36.974V37.0403L24.8408 37.1066C24.7966 37.195 24.7524 37.2834 24.6861 37.3497C24.5756 37.4823 24.4209 37.6149 24.2662 37.7033C23.9567 37.8801 23.6252 38.0127 23.2716 38.079C23.0948 38.1011 22.918 38.1011 22.7191 38.0569C22.5423 38.0127 22.3655 37.8801 22.2992 37.6812C22.2329 37.5044 22.255 37.3055 22.2992 37.1287C22.3434 36.9519 22.4097 36.7972 22.4981 36.6425C22.5202 36.6204 22.5423 36.5982 22.5644 36.6203C22.6528 36.6203 22.6749 36.6425 22.6528 36.6867Z" fill="#C96D2F"/>
<path d="M28.3106 16.1335C28.5095 16.4429 28.7084 16.7523 28.8631 17.0617C29.0178 17.3932 29.1725 17.7247 29.2167 18.1005C29.2167 18.1889 29.2388 18.2773 29.2388 18.3878V18.5204L29.2167 18.653C29.2167 18.6972 29.1946 18.7414 29.1725 18.7856C29.1504 18.8298 29.1283 18.874 29.1062 18.9182C29.062 19.0066 29.0178 19.0729 28.9515 19.1613C28.841 19.316 28.7084 19.4486 28.4874 19.5149C28.3769 19.537 28.2664 19.537 28.1559 19.4928C28.0454 19.4486 27.9791 19.3381 27.957 19.2497C27.9349 19.2055 27.9349 19.1392 27.9349 19.095C27.9349 19.0287 27.9791 18.9624 28.0233 18.9182C28.1117 18.8298 28.2001 18.8077 28.3106 18.7856C28.5095 18.7414 28.6863 18.7414 28.8852 18.7635C29.062 18.7856 29.2609 18.8519 29.4156 18.9624C29.5703 19.0729 29.7029 19.2497 29.7471 19.4486C29.7913 19.6475 29.7692 19.8464 29.725 20.0232C29.6808 20.2 29.6145 20.3989 29.504 20.5536C29.283 20.863 28.9736 21.084 28.5979 21.2166L28.62 21.0398C28.8189 21.1724 28.9957 21.3492 29.1062 21.5923C29.1504 21.7028 29.1946 21.8354 29.1946 21.968C29.1946 22.1006 29.1725 22.2332 29.1283 22.3437C29.0399 22.5647 28.9294 22.7637 28.7968 22.9626C28.6863 23.1615 28.5537 23.3604 28.4211 23.5372L28.4432 23.4709C28.3548 25.8577 28.2443 28.2667 28.178 30.6535C28.1559 31.2502 28.1559 31.8469 28.1559 32.4437C28.1559 33.0404 28.1559 33.6371 28.2001 34.2338C28.2222 34.3664 28.2222 34.5432 28.2885 34.6316C28.3769 34.7421 28.4653 34.8747 28.5537 34.9852C28.7305 35.2283 28.9294 35.4714 29.0841 35.7145C29.2388 35.9797 29.3935 36.2449 29.4156 36.5764C29.4377 36.7311 29.3714 36.9079 29.2609 37.0406C29.1504 37.1732 28.9957 37.2395 28.8631 37.2837C28.841 37.2837 28.7968 37.2837 28.7968 37.2616C28.7968 37.2395 28.7968 37.1953 28.8189 37.1953C28.9515 37.1511 29.0841 37.0848 29.1725 36.9743C29.2609 36.8638 29.3051 36.7311 29.283 36.5985C29.2609 36.3112 29.1062 36.046 28.9515 35.8029C28.7968 35.5598 28.5979 35.3167 28.4211 35.0957C28.3327 34.9852 28.2222 34.8747 28.1338 34.7421C28.1117 34.72 28.0896 34.6758 28.0675 34.6316C28.0454 34.5874 28.0454 34.5432 28.0454 34.5211C28.0233 34.4327 28.0233 34.3664 28.0233 34.3001C27.9791 33.7034 27.9791 33.1067 27.957 32.4879C27.957 31.8911 27.957 31.2944 27.9791 30.6977C28.0233 28.3109 28.0896 25.9019 28.2222 23.5151C28.2222 23.493 28.2222 23.4709 28.2443 23.4488C28.3769 23.272 28.5095 23.0952 28.62 22.8963C28.7305 22.6973 28.841 22.4984 28.9294 22.3216C29.0178 22.1448 28.9957 21.9238 28.9073 21.747C28.8189 21.5702 28.6642 21.3934 28.5095 21.2829C28.4653 21.2608 28.4432 21.1945 28.4874 21.1503C28.5095 21.1282 28.5095 21.1282 28.5316 21.1061C28.841 20.9956 29.1504 20.7967 29.3272 20.5315C29.4156 20.3989 29.4819 20.2442 29.5261 20.0674C29.5703 19.9127 29.5703 19.7359 29.5482 19.5812C29.4819 19.2718 29.1504 19.0729 28.8189 19.0287C28.6421 19.0066 28.4874 19.0066 28.3106 19.0508C28.2222 19.0729 28.1559 19.095 28.1117 19.1392C28.0896 19.1613 28.0675 19.1834 28.0896 19.2055C28.0896 19.2497 28.0896 19.2718 28.1117 19.316C28.1559 19.4486 28.2885 19.537 28.4432 19.4928C28.5979 19.4486 28.7084 19.3381 28.8189 19.2055C28.8631 19.1392 28.9073 19.0729 28.9736 18.9845C28.9957 18.9403 28.9957 18.9182 29.0178 18.874C29.0399 18.8298 29.062 18.8077 29.062 18.7635L29.0841 18.6309V18.4983C29.0841 18.4099 29.062 18.3215 29.062 18.2331C29.0178 17.8795 28.8852 17.5479 28.7305 17.2385C28.5758 16.907 28.399 16.5976 28.2001 16.3103C28.178 16.2882 28.2001 16.244 28.2222 16.244C28.2443 16.1114 28.2885 16.1114 28.3106 16.1335Z" fill="#C96D2F"/>
<path d="M27.7581 35.7587C28.0233 35.8692 28.2664 36.0239 28.4874 36.2007C28.5979 36.2891 28.7084 36.3996 28.7968 36.5101C28.8852 36.6206 28.9736 36.7753 28.9957 36.93C29.0178 37.0847 28.9515 37.2615 28.841 37.3941C28.7305 37.5046 28.5758 37.5709 28.4432 37.6151C28.1559 37.6814 27.8686 37.6814 27.5813 37.6372C27.5592 37.6372 27.5371 37.6151 27.5371 37.5709C27.5371 37.5488 27.5592 37.5267 27.5813 37.5267C27.8465 37.5267 28.1338 37.5046 28.3769 37.4383C28.4874 37.3941 28.62 37.3499 28.6863 37.2615C28.7526 37.1731 28.7968 37.0847 28.7747 36.9521C28.7526 36.7311 28.5537 36.5322 28.3769 36.3554C28.178 36.1786 27.957 36.0239 27.736 35.8692C27.7139 35.8471 27.7139 35.825 27.7139 35.8029C27.7139 35.7587 27.736 35.7366 27.7581 35.7587Z" fill="#C96D2F"/>
<path d="M26.8077 36.2225C26.9845 36.2888 27.1614 36.3993 27.3161 36.5319C27.4708 36.6645 27.6034 36.8413 27.6476 37.0624C27.6697 37.1729 27.6697 37.2834 27.6476 37.3939C27.6255 37.5044 27.5813 37.6149 27.4929 37.7033C27.3161 37.8801 27.0729 37.8801 26.874 37.858C26.6751 37.8359 26.4762 37.7917 26.2994 37.7475C26.1226 37.7033 25.9458 37.6812 25.7469 37.637C25.5701 37.5928 25.3712 37.5707 25.1723 37.5044C25.0839 37.4602 24.9734 37.416 24.9071 37.3497C24.8187 37.2834 24.7524 37.1729 24.7745 37.0624C24.7745 37.0403 24.7966 37.0182 24.8408 37.0182C24.8629 37.0182 24.885 37.0403 24.885 37.0624C24.885 37.2171 25.0618 37.3055 25.2386 37.3497C25.4154 37.3939 25.5922 37.416 25.7911 37.4381C25.9679 37.4602 26.1668 37.4823 26.3657 37.5265C26.5425 37.5707 26.7414 37.6149 26.9182 37.637C27.095 37.6591 27.2719 37.637 27.3824 37.5486C27.4929 37.4602 27.515 37.2613 27.4929 37.1066C27.4708 36.9519 27.3603 36.7972 27.2498 36.6645C27.1171 36.5319 26.9845 36.4214 26.8077 36.333C26.7856 36.3109 26.7635 36.2888 26.7856 36.2667C26.7635 36.2225 26.7856 36.2004 26.8077 36.2225Z" fill="#C96D2F"/>
<path d="M22.2329 9.87902C22.1003 10.2105 22.8296 10.8956 23.2274 10.7851C23.5368 10.6967 23.9125 10.0116 23.7799 9.70222C23.6473 9.41492 22.3434 9.56962 22.2329 9.87902Z" fill="#F9CFC7"/>
<path d="M24.8187 10.2988C25.5922 10.1662 26.3879 10.0778 27.1835 10.0115C27.9791 9.94522 28.7747 9.94522 29.5703 9.96732C30.3659 9.98942 31.1616 10.0557 31.9572 10.1883C32.7528 10.3209 33.5263 10.5198 34.2777 10.785C34.2998 10.785 34.2998 10.8071 34.2998 10.8292C34.2998 10.8513 34.2777 10.8513 34.2556 10.8513C33.5042 10.6082 32.7307 10.4535 31.9572 10.3209C31.1837 10.2104 30.3881 10.1441 29.5924 10.122C28.7968 10.0999 28.0012 10.122 27.2277 10.1662C26.4321 10.2104 25.6585 10.2767 24.8629 10.3872C24.8408 10.3872 24.8187 10.3872 24.8187 10.3651C24.7745 10.3209 24.7966 10.2988 24.8187 10.2988Z" fill="black"/>
<path d="M24.8187 10.6304C25.5923 10.6304 26.3658 10.6746 27.1393 10.7409C27.9128 10.8072 28.6863 10.8956 29.4598 11.0061C30.2334 11.1387 30.9848 11.2713 31.7362 11.4702L32.2887 11.6249C32.4655 11.6691 32.6644 11.7354 32.8412 11.8017C33.018 11.868 33.2169 11.9343 33.3937 12.0006L33.6589 12.1111C33.7473 12.1553 33.8357 12.1553 33.9462 12.1995C33.9683 12.1995 33.9683 12.2216 33.9683 12.2437C33.9683 12.2658 33.9462 12.2658 33.9241 12.2658C33.8578 12.2437 33.7473 12.2437 33.6368 12.1995L33.3716 12.1111C33.1948 12.0448 33.018 11.9785 32.8191 11.9343C32.6423 11.8901 32.4434 11.8238 32.2666 11.7796L31.7141 11.647C30.9627 11.4702 30.2112 11.3155 29.4377 11.205C28.6642 11.0945 27.9128 10.984 27.1393 10.9177C26.3658 10.8293 25.5923 10.7851 24.8187 10.7409C24.7966 10.7409 24.7745 10.7188 24.7745 10.6967C24.7745 10.6304 24.7966 10.6304 24.8187 10.6304Z" fill="black"/>
<path d="M21.8351 10.8293C21.4152 10.9177 21.0174 11.0061 20.6196 11.1387C20.2218 11.2492 19.8019 11.3818 19.4041 11.5144C18.6085 11.7796 17.8349 12.1111 17.0614 12.4426C16.2879 12.7962 15.5365 13.1498 14.8072 13.5697C14.0779 13.9896 13.3486 14.4316 12.6413 14.8736C12.6192 14.8957 12.5971 14.8736 12.5971 14.8515C12.575 14.8294 12.5971 14.8073 12.6192 14.8073C12.9728 14.5642 13.3044 14.3211 13.6801 14.1001C14.0337 13.8791 14.3873 13.6581 14.763 13.4371C15.4923 13.0172 16.2658 12.6415 17.0172 12.2658C17.7907 11.9122 18.5864 11.6249 19.382 11.3376C20.1776 11.0724 20.9953 10.8514 21.8572 10.7188C21.8793 10.7188 21.9014 10.7408 21.9014 10.7408C21.8793 10.8071 21.8572 10.8293 21.8351 10.8293Z" fill="black"/>
<path d="M21.7247 11.1605C20.9954 11.5363 20.2661 11.912 19.5368 12.3319C18.8295 12.7297 18.1002 13.1717 17.4151 13.6137C16.73 14.0557 16.0449 14.5419 15.3819 15.0281C14.741 15.5364 14.1 16.0668 13.5254 16.6636C13.5033 16.6857 13.4812 16.6857 13.4591 16.6636C13.437 16.6415 13.437 16.6194 13.4591 16.5973C14.0337 15.9784 14.6526 15.4259 15.2935 14.9176C15.9565 14.4093 16.6195 13.9231 17.3267 13.459C18.0339 13.017 18.7411 12.5971 19.4705 12.1993C20.1998 11.8015 20.9291 11.4257 21.7026 11.0942C21.7247 11.0942 21.7468 11.0942 21.7468 11.1163C21.7468 11.1384 21.7468 11.1605 21.7247 11.1605Z" fill="black"/>
<path d="M14.1663 22.7416C14.0779 22.8963 13.9895 23.051 13.879 23.2278C13.7906 23.3825 13.7022 23.5593 13.6359 23.7361C13.6138 23.7803 13.658 23.8466 13.7022 23.8687C13.7464 23.8908 13.8127 23.8687 13.8348 23.8245C13.9453 23.6698 14.0116 23.5151 14.1 23.3383L14.3431 22.8521C14.3873 22.7416 14.2326 22.6311 14.1663 22.7416Z" fill="#C96D2F"/>
<path d="M14.3431 23.4486C14.2989 23.4265 14.2547 23.4486 14.2326 23.4707C14.1663 23.5812 14.1 23.6917 14.0557 23.8022C14.0336 23.8464 13.9894 23.9127 13.9673 23.9569C13.9452 23.979 13.9452 24.0232 13.9231 24.0674C13.901 24.1116 13.901 24.1337 13.9231 24.1779C13.9231 24.2442 13.9894 24.2884 14.0557 24.2442C14.1 24.2221 14.122 24.2 14.1442 24.1558C14.1663 24.1337 14.1663 24.1116 14.1884 24.0674C14.2105 24.0011 14.2326 23.9348 14.2547 23.8685C14.2989 23.758 14.3431 23.6254 14.3873 23.5149C14.4094 23.5149 14.3873 23.4707 14.3431 23.4486Z" fill="#C96D2F"/>
<path d="M14.6967 23.5809C14.6304 23.5588 14.5641 23.603 14.5641 23.6693C14.542 23.7577 14.5199 23.824 14.4978 23.9125C14.4978 23.9567 14.4757 23.9788 14.4757 24.023C14.4536 24.0672 14.4536 24.1114 14.4536 24.1556C14.4536 24.1998 14.4757 24.244 14.5199 24.244C14.5641 24.244 14.6083 24.244 14.6304 24.1998C14.6525 24.1556 14.6746 24.1114 14.6746 24.0672C14.6746 24.023 14.6967 23.9788 14.6967 23.9567C14.7188 23.8683 14.7409 23.802 14.763 23.7135C14.7851 23.6472 14.763 23.5809 14.6967 23.5809Z" fill="#C96D2F"/>
<path d="M17.8792 33.7035C17.835 33.4382 17.7687 33.1509 17.7024 32.8857C17.6803 32.8194 17.5698 32.8415 17.5919 32.9078C17.6361 33.173 17.6803 33.4603 17.7024 33.7256C17.7245 33.9908 17.7245 34.2781 17.7687 34.5433C17.7908 34.6538 17.9455 34.6096 17.9455 34.5212C17.9897 34.256 17.9234 33.9908 17.8792 33.7035Z" fill="#C96D2F"/>
<path d="M17.4813 34.2998C17.4813 34.2556 17.4813 34.1893 17.4592 34.1451C17.4592 34.0346 17.4371 33.9462 17.4371 33.8357C17.4371 33.7694 17.3708 33.7031 17.3045 33.7031C17.2382 33.7031 17.1719 33.7694 17.1719 33.8357C17.1719 33.9462 17.1719 34.0567 17.1719 34.1451C17.1719 34.1893 17.1719 34.2556 17.1719 34.2998C17.1719 34.3661 17.194 34.4324 17.194 34.4766C17.2161 34.5429 17.2824 34.5871 17.3487 34.5871C17.415 34.5871 17.4592 34.5208 17.4813 34.4545C17.4813 34.4324 17.4813 34.4103 17.4813 34.3661C17.5034 34.344 17.5034 34.3219 17.4813 34.2998Z" fill="#C96D2F"/>
<path d="M16.7963 33.9905C16.7742 33.9684 16.7521 33.9463 16.7079 33.9463C16.6416 33.9463 16.5974 33.9905 16.5974 34.0568V34.1894V34.2115C16.5974 34.2336 16.5974 34.2557 16.6195 34.2778C16.6195 34.2999 16.6416 34.322 16.6416 34.3441C16.6637 34.3883 16.6858 34.4104 16.73 34.4104C16.7742 34.4104 16.7963 34.3883 16.8184 34.3441C16.8184 34.322 16.8405 34.2999 16.8405 34.2778C16.8405 34.2557 16.8405 34.2336 16.8626 34.2115C16.8626 34.1894 16.8626 34.1894 16.8626 34.1673V34.0347C16.8405 34.0347 16.8184 34.0126 16.7963 33.9905Z" fill="#C96D2F"/>
<path d="M20.5754 30.1449C20.5754 30.0565 20.5754 29.9681 20.5533 29.8797C20.5533 29.8134 20.487 29.7471 20.4207 29.7471C20.3323 29.7471 20.2881 29.8134 20.2881 29.8797C20.2881 29.9681 20.2881 30.0565 20.266 30.1449C20.266 30.1891 20.266 30.2333 20.266 30.2775C20.266 30.2996 20.266 30.3438 20.266 30.3659C20.266 30.388 20.2881 30.4101 20.2881 30.4322C20.3102 30.4764 20.3544 30.5206 20.3986 30.5206C20.4649 30.5206 20.487 30.4764 20.5091 30.4322C20.5091 30.4101 20.5312 30.388 20.5312 30.3659C20.5312 30.3438 20.5312 30.2996 20.5312 30.2554C20.5975 30.2333 20.5754 30.1891 20.5754 30.1449Z" fill="#C96D2F"/>
<path d="M21.1058 31.1177C21.1058 31.0735 21.0837 31.0293 21.0837 30.9851C21.0837 30.9851 21.0837 30.9851 21.0837 30.963C21.0837 30.963 21.0837 30.963 21.0837 30.9409C21.0837 30.9188 21.0837 30.8967 21.0837 30.8525C21.0616 30.6757 21.0174 30.521 20.9953 30.3441C20.9953 30.2778 20.9069 30.2336 20.8406 30.2557C20.7743 30.2557 20.7301 30.3221 20.7301 30.3884C20.7301 30.5652 20.708 30.742 20.7301 30.8967C20.7301 30.9851 20.7522 31.0514 20.7522 31.1398C20.7522 31.184 20.7743 31.2503 20.7964 31.2945C20.8185 31.3387 20.8627 31.3829 20.8848 31.4271C20.9511 31.5155 21.0616 31.4492 21.0837 31.3829C21.1058 31.3387 21.1279 31.2945 21.1279 31.2282C21.1279 31.2061 21.1279 31.1619 21.1058 31.1177Z" fill="#C96D2F"/>
<path d="M28.1117 25.3933C28.0896 25.2165 28.0675 25.0397 28.0454 24.885C28.0233 24.7524 27.8244 24.7966 27.8244 24.9071C27.8244 25.0618 27.8465 25.2386 27.8244 25.3933C27.8244 25.4817 27.8244 25.548 27.8244 25.6364C27.8244 25.6806 27.8244 25.7027 27.8244 25.7469C27.8244 25.7911 27.8465 25.8353 27.8465 25.9016C27.8686 25.9458 27.9128 25.99 27.957 25.99C28.0233 25.99 28.0454 25.9458 28.0675 25.9016C28.0896 25.8574 28.1117 25.8132 28.1117 25.7469C28.1117 25.7027 28.1117 25.6806 28.1117 25.6364C28.1117 25.5701 28.1117 25.4817 28.1117 25.3933Z" fill="#C96D2F"/>
<path d="M27.736 26.0563C27.736 26.0121 27.736 25.9679 27.736 25.9016C27.736 25.8132 27.7139 25.7027 27.7139 25.6143C27.7139 25.5701 27.6697 25.5259 27.6255 25.5259C27.5813 25.5259 27.5371 25.5701 27.5371 25.6143C27.5371 25.7027 27.515 25.8132 27.515 25.9016C27.515 25.9458 27.515 25.99 27.515 26.0563C27.515 26.0784 27.515 26.1005 27.515 26.1226C27.515 26.1447 27.515 26.1889 27.5371 26.211C27.5371 26.2552 27.6034 26.2994 27.6476 26.2994C27.6918 26.2994 27.736 26.2773 27.7581 26.211C27.7581 26.1889 27.7802 26.1447 27.7802 26.1226C27.736 26.1005 27.736 26.0784 27.736 26.0563Z" fill="#C96D2F"/>
<path d="M27.2718 26.5207C27.2718 26.4544 27.2718 26.4102 27.2718 26.3439C27.2718 26.2776 27.2276 26.2334 27.1613 26.2334C27.095 26.2334 27.0508 26.2776 27.0508 26.3439C27.0508 26.4102 27.0508 26.4544 27.0508 26.5207C27.0508 26.5428 27.0508 26.587 27.0508 26.6091C27.0508 26.6312 27.0508 26.6533 27.0508 26.6754C27.0508 26.6975 27.0729 26.7196 27.095 26.7417C27.1392 26.808 27.2276 26.808 27.2939 26.7417C27.316 26.7196 27.316 26.6975 27.3381 26.6754C27.3381 26.6533 27.3381 26.6312 27.3381 26.6091C27.2718 26.587 27.2718 26.5649 27.2718 26.5207Z" fill="#C96D2F"/>
<path d="M6.36481 21.6587C6.36481 21.6366 6.34271 21.6144 6.34271 21.5923C6.32061 21.526 6.27641 21.4818 6.25431 21.4155C6.18801 21.3271 6.12171 21.2387 6.0554 21.1503C6.0112 21.1061 5.967 21.1061 5.9228 21.1503C5.8786 21.1724 5.8786 21.2387 5.9007 21.2829C5.9228 21.3271 5.9449 21.3713 5.967 21.4155C5.9891 21.4376 5.9891 21.4597 5.9891 21.4818C5.9891 21.4818 5.9891 21.5039 6.0112 21.5039V21.526C6.0333 21.5702 6.0554 21.6365 6.0775 21.7028C6.0775 21.725 6.07751 21.725 6.09961 21.7471V21.7692C6.12171 21.7913 6.12171 21.8134 6.14381 21.8355L6.16591 21.8576C6.18801 21.9018 6.25431 21.9018 6.29851 21.8797C6.34271 21.8576 6.36481 21.8134 6.36481 21.7692C6.38691 21.725 6.38691 21.6808 6.36481 21.6587Z" fill="#C96D2F"/>
<path d="M6.01122 21.7913C6.01122 21.7692 5.98912 21.7471 5.96702 21.725C5.94492 21.6808 5.92282 21.6587 5.90072 21.6366C5.87862 21.5924 5.83441 21.5703 5.81231 21.5261C5.79021 21.4819 5.74601 21.4598 5.72391 21.4156C5.70181 21.3935 5.67971 21.3714 5.65761 21.3714C5.63551 21.3493 5.59131 21.3272 5.54711 21.3051C5.50291 21.283 5.41451 21.3272 5.41451 21.3935C5.41451 21.4377 5.41451 21.4819 5.41451 21.504C5.41451 21.5261 5.43661 21.5482 5.43661 21.5703C5.45871 21.6366 5.48081 21.6808 5.50291 21.7471C5.52501 21.7913 5.54711 21.8355 5.56921 21.8797C5.59131 21.9239 5.61341 21.946 5.63551 21.9902L5.65761 22.0123C5.67971 22.0344 5.70181 22.0344 5.72391 22.0565C5.79021 22.1007 5.85651 22.1007 5.92282 22.0565C5.96702 22.0344 6.03332 21.946 6.01122 21.9018C6.01122 21.8576 6.01122 21.8134 6.01122 21.7913Z" fill="#C96D2F"/>
<path d="M5.25981 21.791C5.25981 21.791 5.25981 21.7689 5.23771 21.7689C5.21561 21.7247 5.1714 21.7026 5.1493 21.6584C5.1051 21.6142 5.0609 21.5479 4.9946 21.5037C4.9725 21.4816 4.9283 21.4595 4.8841 21.4595C4.8399 21.4595 4.8178 21.4816 4.7957 21.4816C4.7736 21.5037 4.7515 21.5258 4.7515 21.5479C4.7515 21.5921 4.7515 21.6363 4.7736 21.6584C4.8178 21.7247 4.862 21.7689 4.9062 21.8352C4.9062 21.8573 4.9283 21.8573 4.9283 21.8794L4.9504 21.9015C4.9725 21.9236 4.9725 21.9457 4.9946 21.9457L5.0167 21.9678C5.0388 21.9678 5.0388 21.9899 5.0609 21.9899C5.083 22.012 5.1051 22.012 5.1493 22.012C5.1714 22.012 5.1714 22.012 5.1935 22.012C5.23771 22.012 5.28191 21.9899 5.30401 21.9236V21.9015C5.30401 21.8573 5.28191 21.8131 5.25981 21.791Z" fill="#C96D2F"/>
<path d="M5.45871 26.6971C5.43661 26.675 5.41451 26.6529 5.39241 26.6308C5.32611 26.6087 5.23771 26.6308 5.19351 26.6971C5.12721 26.8076 5.08301 26.896 5.0167 27.0066L4.9283 27.1613C4.9062 27.2055 4.8841 27.2276 4.8841 27.2718C4.862 27.316 4.862 27.3602 4.862 27.4044C4.862 27.4265 4.862 27.4707 4.8841 27.4928C4.9062 27.5149 4.9283 27.537 4.9725 27.5591C5.0388 27.5812 5.10511 27.5812 5.14931 27.5149C5.17141 27.4928 5.21561 27.4486 5.23771 27.4265C5.25981 27.3823 5.28191 27.3602 5.30401 27.316C5.32611 27.2718 5.34821 27.2055 5.37031 27.1613C5.41451 27.0508 5.45871 26.9403 5.50291 26.8297C5.50291 26.7855 5.48081 26.7192 5.45871 26.6971Z" fill="#C96D2F"/>
<path d="M4.70725 26.6309C4.64095 26.6309 4.57465 26.653 4.55255 26.7414C4.55255 26.7635 4.53045 26.7856 4.53045 26.8077C4.50835 26.8519 4.48625 26.8961 4.46415 26.9182C4.44205 26.9403 4.41995 26.9624 4.39785 26.9845C4.37575 27.0066 4.33154 27.0508 4.30944 27.0729C4.28734 27.095 4.26524 27.1613 4.26524 27.2055C4.26524 27.2497 4.28734 27.2718 4.30944 27.316C4.35364 27.3823 4.46415 27.4044 4.53045 27.3602C4.55255 27.3381 4.57465 27.3381 4.59675 27.316C4.61885 27.2939 4.64095 27.2939 4.66305 27.2718C4.68515 27.2497 4.68515 27.2276 4.70725 27.2055C4.72935 27.1613 4.75145 27.1392 4.77355 27.095C4.81776 26.9845 4.83985 26.874 4.86196 26.7635C4.83985 26.6972 4.77355 26.653 4.70725 26.6309Z" fill="#C96D2F"/>
<path d="M4.00007 26.4102C3.97797 26.366 3.93377 26.3439 3.88956 26.3218C3.84536 26.3218 3.80116 26.3218 3.75696 26.3439C3.73486 26.3439 3.73486 26.366 3.71276 26.366C3.69066 26.3881 3.66856 26.4102 3.66856 26.4323V26.4102C3.64646 26.4765 3.62436 26.5207 3.58016 26.5649C3.53596 26.6312 3.46965 26.6754 3.40335 26.7196C3.38125 26.7417 3.35915 26.7638 3.33705 26.7859C3.33705 26.808 3.31495 26.808 3.31495 26.8301C3.24865 26.9406 3.33705 27.0953 3.46965 27.0953C3.51386 27.0953 3.58016 27.0953 3.62436 27.0511C3.64646 27.029 3.69066 27.0069 3.71276 26.9848C3.75696 26.9406 3.80116 26.8964 3.84536 26.8301C3.91166 26.7417 3.95586 26.6312 3.97796 26.5207C4.02217 26.4986 4.02217 26.4544 4.00007 26.4102Z" fill="#C96D2F"/>
<path d="M3.71275 34.366C3.66855 34.3439 3.64645 34.3218 3.60225 34.3218C3.58015 34.2997 3.53595 34.2776 3.51385 34.2776C3.49175 34.2555 3.46965 34.2334 3.44755 34.2113C3.44755 34.2113 3.44755 34.1892 3.42545 34.1892C3.42545 34.1892 3.42545 34.1671 3.40335 34.1671C3.40335 34.1671 3.40335 34.1671 3.42545 34.1892C3.42545 34.1671 3.40335 34.1671 3.40335 34.145C3.40335 34.1229 3.38125 34.1229 3.38125 34.1008C3.38125 34.1008 3.38125 34.0787 3.35915 34.0787C3.33704 34.0345 3.33704 34.0124 3.33704 33.9682C3.31494 33.9019 3.24864 33.8577 3.18234 33.8798C3.11604 33.8798 3.07184 33.9461 3.07184 34.0124C3.07184 34.1671 3.13814 34.3218 3.22654 34.4323C3.27074 34.4986 3.31494 34.5428 3.38125 34.6091C3.42545 34.6312 3.44755 34.6533 3.49175 34.6754C3.53595 34.6975 3.58015 34.7196 3.62435 34.7196C3.71275 34.7417 3.82325 34.6975 3.84535 34.587C3.86746 34.4765 3.80115 34.4102 3.71275 34.366Z" fill="#C96D2F"/>
<path d="M4.1106 33.9686C4.0885 33.9465 4.0664 33.9244 4.0443 33.9023C4.0222 33.9023 4.0222 33.8802 4.0001 33.8802C3.978 33.8581 3.9559 33.8581 3.9117 33.836C3.86749 33.8139 3.80119 33.7697 3.75699 33.7476C3.73489 33.7255 3.71279 33.7255 3.71279 33.7034C3.69069 33.6813 3.64649 33.6592 3.60229 33.6592C3.55809 33.6592 3.51389 33.6813 3.49179 33.7034C3.46969 33.7255 3.44759 33.7697 3.44759 33.8139C3.44759 33.836 3.44759 33.836 3.44759 33.8581C3.44759 33.8802 3.46969 33.9023 3.49179 33.9244C3.53599 33.9907 3.60229 34.057 3.66859 34.1012C3.71279 34.1233 3.75699 34.1675 3.80119 34.1896C3.82329 34.2117 3.86749 34.2117 3.8896 34.2338C3.9117 34.2559 3.9559 34.2559 3.978 34.2559C4.0001 34.2559 4.0222 34.2559 4.0443 34.2338C4.0664 34.2117 4.0885 34.1896 4.1106 34.1675C4.1769 34.0791 4.1548 34.0128 4.1106 33.9686Z" fill="#C96D2F"/>
<path d="M4.66308 33.5485L4.64098 33.5264C4.61888 33.5043 4.59678 33.5043 4.57468 33.4822C4.55258 33.4601 4.53048 33.4601 4.48628 33.438C4.44208 33.4159 4.37578 33.3938 4.33158 33.3717C4.28738 33.3496 4.24317 33.3496 4.19897 33.3496C4.15477 33.3496 4.11057 33.3938 4.11057 33.4159C4.08847 33.4601 4.08847 33.5043 4.08847 33.5485C4.11057 33.5927 4.13267 33.6369 4.15477 33.6369C4.19897 33.659 4.26527 33.6811 4.30948 33.7253C4.33158 33.7474 4.35368 33.7474 4.37578 33.7695C4.39788 33.7695 4.41998 33.7916 4.44208 33.7916C4.46418 33.7916 4.48628 33.8137 4.50838 33.8137H4.55258C4.57468 33.8137 4.59678 33.8137 4.61888 33.7916C4.64098 33.7695 4.68518 33.7474 4.68518 33.7253C4.72939 33.659 4.70728 33.5927 4.66308 33.5485Z" fill="#C96D2F"/>
<path d="M15.3376 10.9839C15.2934 10.9839 15.2492 11.006 15.2492 11.0502C15.2271 11.1386 15.205 11.227 15.1829 11.3154V11.3375V11.3596C15.1829 11.3817 15.1608 11.4038 15.1608 11.4259C15.1387 11.448 15.1387 11.4701 15.1166 11.5143C15.1166 11.5364 15.1166 11.5585 15.1166 11.6027C15.1166 11.669 15.1829 11.6911 15.2271 11.669C15.2713 11.6469 15.2934 11.6469 15.3155 11.6027C15.3376 11.5806 15.3376 11.5585 15.3597 11.5143C15.3818 11.4701 15.3818 11.4259 15.4039 11.3817C15.426 11.2933 15.4481 11.1828 15.426 11.0944C15.4039 11.006 15.3818 10.9839 15.3376 10.9839Z" fill="#C96D2F"/>
<path d="M15.7575 11.3153C15.7133 11.2932 15.647 11.3153 15.6249 11.3595C15.6028 11.4037 15.5807 11.47 15.5586 11.5142C15.5365 11.5363 15.5365 11.5805 15.5144 11.6247C15.5144 11.6468 15.5144 11.6468 15.4923 11.6689C15.4923 11.691 15.4923 11.7352 15.4923 11.7573C15.5144 11.8236 15.5807 11.8678 15.647 11.8236C15.6691 11.8236 15.6691 11.8015 15.6912 11.8015C15.7133 11.7794 15.7133 11.7573 15.7354 11.7573C15.7354 11.7352 15.7354 11.7352 15.7575 11.7131C15.7796 11.691 15.7796 11.6689 15.7796 11.6247C15.8017 11.5584 15.8017 11.5142 15.8238 11.4479C15.8238 11.3816 15.8017 11.3374 15.7575 11.3153Z" fill="#C96D2F"/>
<path d="M16.4205 4.28762C16.1332 3.88981 15.7796 3.55831 15.3597 3.271C15.2713 3.2047 15.1829 3.3373 15.2492 3.4036C15.5807 3.71301 15.868 4.08872 16.1111 4.46442C16.3542 4.86223 16.4868 5.30424 16.7078 5.70205C16.7741 5.83465 16.9951 5.76835 16.9951 5.63575C16.973 5.14954 16.7078 4.68543 16.4205 4.28762Z" fill="#C96D2F"/>
<path d="M27.294 1.43644C26.8741 1.98895 26.6089 2.67406 26.5647 3.35917C26.5426 3.55808 26.8741 3.60228 26.8962 3.40338C27.0288 2.76246 27.2277 2.16575 27.5371 1.59114C27.6255 1.41433 27.4045 1.30383 27.294 1.43644Z" fill="#C96D2F"/>
<path d="M29.1946 8.24364C29.1946 8.22154 29.1725 8.19944 29.1725 8.15524C29.1725 8.13314 29.1504 8.11103 29.1283 8.08893C29.1283 8.06683 29.1062 8.06684 29.1062 8.04474C29.062 8.00053 29.0399 7.95633 28.9957 7.89003C28.9736 7.86793 28.9515 7.84583 28.9294 7.82373C28.9073 7.82373 28.8631 7.82373 28.841 7.82373C28.7747 7.84583 28.7526 7.91213 28.7747 7.97843C28.7968 8.02263 28.8189 8.08893 28.8189 8.13314C28.841 8.17734 28.841 8.22154 28.8631 8.24364C28.8852 8.26574 28.8852 8.28784 28.9073 8.30994C28.9515 8.37624 29.0399 8.39834 29.1062 8.37624C29.1283 8.35414 29.1725 8.33204 29.1725 8.30994C29.1946 8.30994 29.1946 8.26574 29.1946 8.24364Z" fill="#C96D2F"/>
</svg>
