<svg width="10" height="17" viewBox="0 0 10 17" fill="none" xmlns="http://www.w3.org/2000/svg">
<path d="M0.348633 8.6543C0.348633 8.96191 0.462891 9.22559 0.708984 9.4541L7.54687 16.1514C7.74023 16.3447 7.98633 16.4502 8.27637 16.4502C8.85644 16.4502 9.32226 15.9932 9.32226 15.4043C9.32226 15.1143 9.19922 14.8594 9.00586 14.6572L2.84473 8.6543L9.00586 2.65137C9.19922 2.44922 9.32226 2.18555 9.32226 1.9043C9.32226 1.31543 8.85644 0.858398 8.27637 0.858398C7.98633 0.858398 7.74023 0.963867 7.54687 1.15723L0.708984 7.8457C0.462891 8.08301 0.348633 8.34668 0.348633 8.6543Z" fill="#E5E7EF"/>
</svg>
