<svg width="34" height="39" viewBox="0 0 34 39" fill="none" xmlns="http://www.w3.org/2000/svg">
<path d="M17.0489 15.0014C16.5798 15.6509 14.8297 17.7618 12.358 18.3933C10.4636 18.8804 8.87597 18.5015 8.19039 18.1948C7.97389 18.1046 7.84759 18.0144 7.82955 17.9422C7.70326 17.6716 7.82955 16.3726 7.82955 16.3726C8.40689 16.4448 8.98422 16.4809 9.52547 16.4267C12.6828 16.2102 14.8297 13.9189 14.8297 13.9189C15.3169 14.37 16.1287 14.7308 17.0489 15.0014Z" fill="#2CB3DD"/>
<path d="M5.62878 1.84903C7.30666 0.20724 8.82215 0.946948 8.82215 0.946948C6.04373 2.71503 5.79115 6.88266 5.2499 8.39816C4.31174 11.1225 3.24727 11.6457 3.31944 13.0168C3.35552 13.6122 3.59007 14.1354 3.96894 14.5865C2.77819 14.6045 1.1364 13.6483 0.793609 12.205C0.468859 10.7436 2.03849 8.99354 2.83232 8.05537C3.66224 7.1172 4.3839 3.07587 5.62878 1.84903Z" fill="#C48D3D"/>
<path d="M21.7396 9.98556C22.0103 11.4469 23.5979 13.7021 22.0644 14.8207C21.1262 15.5063 19.1958 15.5063 17.4818 15.1094C17.3375 15.0733 17.1931 15.0372 17.0308 15.0011C16.1106 14.7486 15.2988 14.3697 14.8116 13.9186C13.6931 12.9083 14.523 9.01131 15.0642 7.36952C16.0746 4.32047 15.2086 1.18122 15.2086 1.18122C15.2086 1.18122 16.2911 0.676052 18.2937 1.6503C20.6932 2.82301 21.2164 7.13497 21.7396 9.98556Z" fill="#C48D3D"/>
<path d="M3.98677 14.5864C3.6079 14.1353 3.37336 13.6121 3.33727 13.0167C3.24706 11.6456 4.31153 11.1224 5.26773 8.39806C5.79094 6.88256 6.04352 2.69689 8.83998 0.946849C11.1313 -0.514527 15.2448 1.19943 15.2448 1.19943C15.2448 1.19943 16.1108 4.32064 15.1004 7.38773C14.5592 9.02952 13.7293 12.9265 14.8479 13.9369C14.8479 13.9369 12.6829 16.2281 9.54361 16.4446C9.00236 16.4807 8.42503 16.4627 7.84769 16.3905C6.31415 16.156 4.81669 15.5606 3.98677 14.5864Z" fill="#F4C77F"/>
<path d="M31.4645 25.5918C31.5186 25.5737 32.5831 25.0866 32.4568 26.6021C32.3305 28.1537 31.1217 29.2362 31.1217 29.2362C31.1217 29.2362 32.4568 29.0558 31.681 30.8239C30.5263 33.494 27.8381 33.494 27.8381 33.494C27.9103 32.9347 27.8922 32.3394 27.802 31.726H27.8381C27.8381 31.726 29.2273 28.7491 28.4155 26.2052C27.6036 23.6613 26.0881 19.9989 27.5855 17.9421C29.0289 15.9395 30.3279 19.5478 29.7686 21.1896C29.7505 21.2437 29.7325 21.2798 29.7325 21.2979C29.7505 21.2618 29.7686 21.2257 29.7686 21.1896C29.9129 20.8468 30.3459 19.9808 30.9413 20.486C31.681 21.0994 30.6526 23.2644 30.6526 23.2644C30.6526 23.2644 31.6269 22.2721 31.8434 23.3546C32.0599 24.4191 31.5006 25.5377 31.4645 25.5918Z" fill="#EAB568"/>
<path d="M17.5725 36.7774C17.6627 36.2 17.8431 33.0427 17.9333 30.0298H18.0055C17.9153 32.8082 19.7736 34.9732 19.5931 34.9912C18.0596 35.2438 17.6446 36.3805 17.5725 36.7774Z" fill="#F4C77F"/>
<path d="M18.0051 30.0302H17.9329C17.8427 33.0612 17.6442 36.2004 17.5721 36.7777C17.6442 36.3808 18.0772 35.2442 19.6108 34.9916C19.7732 34.9736 17.9149 32.8086 18.0051 30.0302ZM7.86565 37.1025L7.77545 37.1566C7.77545 37.1566 6.99966 37.3731 6.53057 37.1386C6.47645 37.1386 5.48415 37.2649 5.1594 36.6334C4.78053 35.8937 5.86303 34.9375 6.3682 33.7287C6.72903 32.8807 8.1904 18.1768 8.1904 18.1768C8.87599 18.5015 10.4637 18.8624 12.358 18.3752C14.8297 17.7438 16.5617 15.6329 17.0489 14.9834C17.1932 15.0195 17.3375 15.0556 17.4999 15.0916C17.4999 15.0916 21.9021 21.6047 24.446 25.0687C26.214 27.4682 27.477 29.7054 27.8197 31.7261C27.928 32.3395 27.946 32.9168 27.8558 33.4942C27.8197 33.7467 27.7656 33.9993 27.6935 34.2519C27.4048 35.1901 25.5645 36.3808 24.3016 35.5329C24.8248 36.9942 24.446 37.0845 24.049 37.2288C22.3531 37.8602 20.4407 38.1128 20.0257 37.6979L20.0077 37.7159C20.0077 37.7159 19.1056 38.1128 18.7448 37.6257C18.6907 37.6437 17.4097 37.8422 17.554 36.8138C17.4097 37.5896 15.804 38.185 14.9741 37.77C14.9741 37.77 13.9277 38.167 13.4947 37.77L13.4225 37.8061C13.4225 37.8061 11.907 38.0226 11.9611 36.9221C11.9972 36.1643 12.8993 35.6592 13.224 34.9014C12.2859 33.8189 11.4559 32.2312 10.7704 30.5714C10.7704 31.5637 10.7704 35.4607 10.3915 36.2004C10.0667 36.8499 8.26257 37.6257 7.90174 37.1205C7.8837 37.1566 7.86565 37.1205 7.86565 37.1025Z" fill="#F4C77F"/>
<path d="M10.9333 8.95721C10.9333 9.28196 10.7349 9.53455 10.5003 9.53455C10.2658 9.53455 10.0673 9.28196 10.0673 8.95721C10.0673 8.63246 10.2658 8.37988 10.5003 8.37988C10.7349 8.37988 10.9333 8.6505 10.9333 8.95721Z" fill="black"/>
<path d="M6.80163 8.66864C6.80163 8.99339 6.60317 9.24597 6.36863 9.24597C6.13409 9.24597 5.93562 8.99339 5.93562 8.66864C5.93562 8.34389 6.13409 8.09131 6.36863 8.09131C6.60317 8.09131 6.80163 8.34389 6.80163 8.66864Z" fill="black"/>
<path d="M5.93548 14.9469C5.84527 14.9469 5.75506 14.8747 5.75506 14.7665C5.73702 14.2794 5.75506 13.4675 5.75506 13.4314C5.75506 13.3231 5.84527 13.251 5.93548 13.251C6.04373 13.251 6.11589 13.3412 6.11589 13.4314C6.11589 13.4314 6.09785 14.2613 6.11589 14.7304C6.11589 14.8567 6.04373 14.9469 5.93548 14.9469Z" fill="#542B00"/>
<path d="M7.86599 14.5322C7.05411 15.7771 8.02836 19.3133 5.91749 18.8081C4.51024 18.4653 4.78086 15.6147 5.2319 14.5864C5.2319 14.5864 6.0979 14.875 6.80153 14.7668C7.50515 14.6585 7.86599 14.5322 7.86599 14.5322Z" fill="#E09BAC"/>
<path d="M6.16983 14.6944C6.13375 14.8207 6.09766 14.947 6.06158 15.0733C6.0255 15.1996 6.00746 15.3259 5.98941 15.4521C5.95333 15.7047 5.91725 15.9573 5.89921 16.2279C5.88116 16.4805 5.86312 16.7511 5.86312 17.0037C5.86312 17.2563 5.88116 17.5269 5.88116 17.7976C5.88116 17.8336 5.84508 17.8697 5.809 17.8697C5.77291 17.8697 5.75487 17.8517 5.73683 17.8156C5.70075 17.6893 5.68271 17.545 5.64662 17.4187C5.62858 17.2924 5.61054 17.1481 5.5925 17.0218C5.57445 16.7511 5.57445 16.4805 5.5925 16.2099C5.61054 15.9393 5.64662 15.6686 5.71879 15.4161C5.79096 15.1454 5.88117 14.8929 6.00746 14.6583C6.0255 14.6222 6.06158 14.6222 6.09767 14.6403C6.16983 14.6222 6.18787 14.6583 6.16983 14.6944Z" fill="#AB657F"/>
<path d="M10.5901 6.08879C10.4097 6.46767 11.7448 7.04501 11.9974 6.66613C12.25 6.28726 10.9149 5.36713 10.5901 6.08879Z" fill="#C48D3D"/>
<path d="M7.55871 5.81826C7.54067 5.49351 6.27775 5.42134 6.18754 6.01672C6.07929 6.59405 7.57675 6.41364 7.55871 5.81826Z" fill="#C48D3D"/>
<path d="M10.8069 16.2462C10.7348 16.6431 10.6987 17.04 10.6987 17.437C10.6987 17.6354 10.7167 17.8339 10.7528 18.0323C10.7889 18.2308 10.843 18.4112 10.8971 18.6097C10.8971 18.6277 10.8971 18.6638 10.8611 18.6638C10.843 18.6638 10.825 18.6638 10.8069 18.6458C10.7167 18.4653 10.6265 18.2669 10.5904 18.0684C10.5363 17.87 10.5183 17.6535 10.5183 17.455C10.5183 17.2385 10.5363 17.0401 10.5724 16.8416C10.6085 16.6431 10.6626 16.4447 10.7348 16.2462C10.7348 16.2282 10.7708 16.2101 10.7889 16.2282C10.8069 16.2101 10.825 16.2282 10.8069 16.2462Z" fill="#3E6FA7"/>
<path d="M10.8426 19.4758C10.7885 19.4758 10.7524 19.4397 10.7524 19.3856V18.6278C10.7524 18.5737 10.7885 18.5376 10.8426 18.5376C10.8967 18.5376 10.9328 18.5737 10.9328 18.6278V19.3856C10.9328 19.4216 10.8967 19.4758 10.8426 19.4758Z" fill="#3E6FA7"/>
<path d="M9.77857 19.169C9.41773 19.3855 9.83269 19.8004 9.83269 19.8004C9.83269 19.8004 9.56206 20.1252 9.72444 20.3417C9.88681 20.5582 10.2296 20.2154 10.2296 20.2154L11.8894 20.1793C11.8894 20.1793 12.2503 20.4319 12.4127 20.1974C12.575 19.9267 12.2322 19.7644 12.2322 19.7644C12.2322 19.7644 12.575 19.3674 12.3585 19.187C12.0518 18.9344 11.6729 19.3674 11.6729 19.3674L10.3198 19.4396C10.3198 19.4216 10.0312 19.0066 9.77857 19.169Z" fill="white"/>
<path d="M32.2766 19.7281C31.9338 18.8982 31.4466 18.1585 30.7791 17.5631C30.6528 17.4548 30.4724 17.6172 30.5806 17.7616C31.1399 18.375 31.609 19.0966 31.8977 19.8724C32.042 20.2513 32.1503 20.6302 32.2044 21.0271C32.2766 21.442 32.2766 21.8751 32.3307 22.3081C32.3487 22.4704 32.6194 22.5426 32.6554 22.3441C32.8178 21.4781 32.5833 20.5219 32.2766 19.7281Z" fill="black"/>
<path d="M33.2505 18.4471C32.9799 17.8698 32.601 17.3466 32.1499 16.8955C32.0056 16.7512 31.7711 16.9677 31.9154 17.1301C32.3304 17.5631 32.6731 18.0682 32.9257 18.6095C33.1783 19.1507 33.3046 19.7461 33.467 20.3234C33.5031 20.4497 33.6654 20.4136 33.6835 20.2874C33.7376 19.6559 33.5211 19.0244 33.2505 18.4471Z" fill="black"/>
<path d="M5.97149 34.6309C5.82716 34.9195 5.66479 35.1901 5.52045 35.4608C5.37612 35.7314 5.23178 36.0201 5.21374 36.2907C5.21374 36.435 5.24983 36.5613 5.32199 36.6696C5.39416 36.7778 5.52045 36.868 5.64675 36.9222C5.91737 37.0484 6.22408 37.0845 6.53079 37.0845C6.56687 37.0845 6.58491 37.1026 6.58491 37.1387C6.58491 37.1747 6.56687 37.1928 6.53079 37.1928C6.20604 37.2469 5.86325 37.2469 5.55654 37.1206C5.39416 37.0665 5.24983 36.9582 5.14158 36.7959C5.03333 36.6515 4.9792 36.4531 4.9792 36.2726C4.99724 35.9118 5.15962 35.6051 5.34004 35.3345C5.50241 35.0639 5.70087 34.8113 5.88129 34.5407C5.89933 34.5226 5.93541 34.5046 5.95345 34.5226C5.97149 34.5767 5.97149 34.6128 5.97149 34.6309Z" fill="#B78A48"/>
<path d="M7.03625 35.623C6.81975 35.7854 6.60325 35.9658 6.45892 36.1643C6.31458 36.3627 6.24241 36.6153 6.35066 36.8137C6.40479 36.922 6.47695 36.9942 6.5852 37.0483C6.69345 37.1024 6.81975 37.1205 6.94604 37.1385C7.07233 37.1565 7.21666 37.1565 7.34296 37.1385C7.46925 37.1385 7.61358 37.1205 7.73987 37.1024C7.77595 37.1024 7.794 37.1205 7.81204 37.1565C7.81204 37.1926 7.794 37.2107 7.77596 37.2107C7.50533 37.3009 7.21666 37.355 6.92799 37.337C6.78366 37.337 6.63933 37.3009 6.47695 37.2287C6.33262 37.1565 6.20633 37.0483 6.13416 36.8859C6.06199 36.7416 6.04396 36.5612 6.08004 36.4168C6.11612 36.2545 6.18829 36.1101 6.29654 36.0019C6.49499 35.7673 6.72954 35.605 6.98212 35.4787C7.01821 35.4606 7.03625 35.4787 7.05429 35.4967C7.07233 35.5689 7.07233 35.605 7.03625 35.623Z" fill="#B78A48"/>
<path d="M8.44348 35.695C8.33523 35.8394 8.24502 36.0018 8.13677 36.1461C8.04656 36.3085 7.95635 36.4528 7.92027 36.6152C7.86614 36.7775 7.86614 36.9219 7.95635 37.0301C8.04656 37.1384 8.22698 37.1925 8.40739 37.2466C8.44348 37.2466 8.46152 37.2827 8.44348 37.3188C8.44348 37.3368 8.40739 37.3549 8.38935 37.3549C8.19089 37.3549 7.99244 37.3368 7.81202 37.1745C7.72181 37.1023 7.66768 36.976 7.64964 36.8678C7.6316 36.7595 7.64964 36.6513 7.68573 36.543C7.73985 36.3445 7.8481 36.1822 7.95635 36.0198C8.0646 35.8574 8.20894 35.7311 8.35327 35.6048C8.37131 35.5868 8.40739 35.5868 8.42544 35.6048C8.44348 35.6409 8.44348 35.677 8.44348 35.695Z" fill="#B78A48"/>
<path d="M12.1602 24.1125L12.4669 26.0069L12.7375 27.9013C12.9179 29.1642 13.0803 30.4271 13.2066 31.69C13.2787 32.3215 13.3329 32.953 13.369 33.6025C13.387 33.9272 13.405 34.2339 13.405 34.5767C13.405 34.6669 13.405 34.7391 13.387 34.8293C13.387 34.8654 13.369 34.9195 13.3509 34.9736C13.3329 35.0278 13.3148 35.0458 13.2968 35.0999C13.2246 35.2443 13.1164 35.3886 13.0262 35.5149C12.8277 35.7675 12.5932 36.002 12.4128 36.2365C12.2143 36.4711 12.07 36.7417 12.07 37.0304V37.1386L12.088 37.2469C12.088 37.283 12.106 37.319 12.1241 37.3371C12.1421 37.3732 12.1421 37.4093 12.1782 37.4273C12.2504 37.5355 12.3767 37.6258 12.521 37.6799C12.7916 37.7881 13.1164 37.8062 13.4231 37.7881C13.4592 37.7881 13.4953 37.8062 13.4953 37.8423C13.4953 37.8783 13.4772 37.9144 13.4411 37.9144C13.1164 37.9505 12.7736 37.9505 12.4488 37.8423C12.2865 37.7881 12.1241 37.6979 12.0158 37.5355C11.9076 37.3912 11.8535 37.2108 11.8535 37.0304C11.8354 36.85 11.8895 36.6695 11.9617 36.5252C12.0339 36.3628 12.1241 36.2185 12.2323 36.0922C12.4308 35.8216 12.6473 35.6051 12.8277 35.3525C12.9179 35.2262 13.0081 35.0999 13.0622 34.9736C13.0803 34.9375 13.0983 34.9015 13.0983 34.8834C13.0983 34.8473 13.1164 34.8293 13.1164 34.7932C13.1164 34.721 13.1344 34.6489 13.1344 34.5767C13.1344 34.27 13.1164 33.9453 13.0983 33.6385C13.0442 33.0071 12.9901 32.3756 12.9179 31.7442C12.7916 30.4813 12.6292 29.2183 12.4849 27.9554L12.0158 24.1667C12.0158 24.1306 12.0339 24.0945 12.07 24.0945C12.1241 24.0404 12.1421 24.0765 12.1602 24.1125Z" fill="#B78A48"/>
<path d="M14.0183 35.8755C13.9822 35.9115 13.928 35.9657 13.8739 36.0198C13.8198 36.0739 13.7837 36.1461 13.7476 36.2002C13.6574 36.3265 13.6033 36.4528 13.5492 36.5971C13.4409 36.8678 13.4048 37.1745 13.459 37.4631C13.477 37.5894 13.5492 37.6977 13.6574 37.7518C13.7657 37.824 13.91 37.842 14.0543 37.842C14.343 37.842 14.6678 37.7879 14.9564 37.7157C14.9925 37.7157 15.0106 37.7338 15.0286 37.7518C15.0286 37.7698 15.0286 37.8059 14.9925 37.824C14.7038 37.9503 14.3791 38.0405 14.0543 38.0405C13.892 38.0405 13.7115 38.0224 13.5492 37.9322C13.3868 37.842 13.2425 37.6796 13.2244 37.4992C13.1523 37.1564 13.2244 36.8136 13.3507 36.5069C13.4229 36.3626 13.5131 36.2183 13.6033 36.092C13.6574 36.0198 13.7115 35.9657 13.7657 35.9115C13.8378 35.8574 13.8739 35.8033 13.9822 35.7492C14.0002 35.7311 14.0363 35.7492 14.0543 35.7672C14.0724 35.7853 14.0543 35.8213 14.0363 35.8394L14.0183 35.8755Z" fill="#B78A48"/>
<path d="M15.3895 35.9117C15.173 36.2004 14.9926 36.5251 14.8663 36.8679C14.8121 37.0303 14.758 37.2107 14.7761 37.3731C14.7941 37.5354 14.8843 37.6617 15.0286 37.7159C15.3354 37.8421 15.7142 37.8421 16.057 37.77C16.3998 37.6978 16.7426 37.5535 17.0313 37.355C17.1756 37.2468 17.2839 37.1205 17.356 36.9942L17.3921 36.9401C17.3921 36.922 17.4101 36.904 17.4101 36.8859C17.4282 36.8499 17.4282 36.8138 17.4282 36.7596C17.4462 36.6694 17.4462 36.5792 17.4643 36.489C17.5004 36.1282 17.5184 35.7493 17.5364 35.3885C17.5906 34.6488 17.6266 33.9091 17.6627 33.1694C17.7349 31.6899 17.789 30.1925 17.8431 28.7131C17.8612 27.9733 17.8792 27.2336 17.8792 26.4939V25.9346L17.8612 25.3753C17.8431 25.0145 17.8251 24.6356 17.7529 24.2748C17.7529 24.2387 17.771 24.2026 17.8071 24.2026C17.8431 24.2026 17.8792 24.2207 17.8792 24.2568C17.9694 24.6356 18.0055 24.9965 18.0236 25.3753L18.0596 25.9346L18.0777 26.4939C18.0957 27.2336 18.0957 27.9914 18.0957 28.7311C18.0777 30.2286 18.0236 31.708 17.9514 33.1874C17.9153 33.9271 17.8792 34.6668 17.8251 35.4246C17.8071 35.8034 17.771 36.1643 17.7349 36.5431C17.7349 36.6334 17.7168 36.7416 17.6988 36.8318C17.6988 36.8859 17.6808 36.9401 17.6627 36.9761C17.6627 36.9942 17.6447 37.0303 17.6447 37.0483L17.6086 37.1205C17.5003 37.3009 17.356 37.4633 17.1936 37.5715C16.8689 37.8061 16.5081 37.9324 16.1292 38.0226C15.7503 38.0947 15.3353 38.0947 14.9745 37.9324C14.8843 37.8963 14.7761 37.8241 14.7219 37.7339C14.6498 37.6437 14.6317 37.5354 14.6137 37.4272C14.5956 37.2107 14.6498 37.0303 14.7219 36.8499C14.8663 36.489 15.0828 36.1823 15.2993 35.8756C15.3173 35.8395 15.3714 35.8395 15.3895 35.8576C15.4075 35.8395 15.4256 35.8756 15.3895 35.9117Z" fill="#B78A48"/>
<path d="M20.0265 37.8059C19.7378 37.9503 19.413 38.0585 19.0522 37.9863C18.8718 37.9503 18.6914 37.824 18.6012 37.6616L18.547 37.5353C18.529 37.4812 18.511 37.427 18.511 37.391C18.511 37.3368 18.511 37.2827 18.511 37.2466C18.511 37.1925 18.529 37.1564 18.547 37.1023C18.6012 36.9219 18.6914 36.7775 18.7816 36.6513C18.8898 36.525 18.9981 36.3987 19.1244 36.2904C19.377 36.0739 19.6656 35.8935 20.0084 35.8574C20.0445 35.8574 20.0806 35.8755 20.0806 35.9115C20.0806 35.9476 20.0625 35.9837 20.0265 35.9837C19.8821 36.0198 19.7558 36.092 19.6295 36.1822C19.5033 36.2724 19.395 36.3626 19.2867 36.4708C19.1785 36.5791 19.0883 36.6873 18.9981 36.8136C18.9259 36.9399 18.8357 37.0662 18.8177 37.1925C18.8177 37.2286 18.7996 37.2466 18.7996 37.2827C18.7996 37.3188 18.7996 37.3368 18.7996 37.3729C18.7996 37.391 18.8177 37.427 18.8177 37.4451C18.8357 37.4812 18.8537 37.4992 18.8537 37.5353C18.9079 37.6435 18.9981 37.7157 19.1244 37.7518C19.2507 37.7879 19.395 37.7879 19.5393 37.7698C19.6837 37.7518 19.828 37.7157 19.9723 37.6796C20.0084 37.6616 20.0445 37.6977 20.0625 37.7338C20.0806 37.7698 20.0625 37.7879 20.0265 37.8059Z" fill="#B78A48"/>
<path d="M18.7632 37.7159C18.5828 37.752 18.3843 37.752 18.2039 37.7339C18.0235 37.7159 17.825 37.6437 17.6626 37.4994C17.5003 37.355 17.4462 37.1385 17.4642 36.9401C17.4642 36.7416 17.5183 36.5612 17.5905 36.3808C17.7348 36.038 17.9513 35.7133 18.24 35.4607C18.5286 35.2081 18.8714 35.0457 19.2323 34.9375C19.3225 34.9014 19.4127 34.9014 19.5029 34.8653L19.5751 34.8473H19.6112C19.6112 34.8473 19.557 34.8653 19.557 34.8833C19.539 34.9014 19.5209 34.9194 19.5209 34.9375C19.5209 34.9555 19.5209 34.9555 19.5209 34.9555V34.9735C19.5209 34.9735 19.5209 34.9555 19.5029 34.9375L19.4668 34.8833C19.3766 34.739 19.2864 34.5766 19.1962 34.4323C19.0158 34.1256 18.8354 33.8008 18.691 33.4761C18.3843 32.8266 18.1317 32.123 18.0054 31.4013C17.8792 30.6796 17.8611 29.9399 17.9874 29.2183C18.0956 28.4966 18.3663 27.7749 18.8173 27.1976C19.0519 26.9089 19.3225 26.6383 19.6292 26.4398C19.9359 26.2233 20.3148 26.1151 20.6756 26.079C21.4153 26.0068 22.155 26.2414 22.7865 26.5842C22.8226 26.6022 22.8406 26.6383 22.8226 26.6744C22.8045 26.7105 22.7684 26.7285 22.7324 26.7105C22.1009 26.3857 21.3973 26.2053 20.7117 26.2955C20.3689 26.3496 20.0441 26.4579 19.7555 26.6563C19.4668 26.8367 19.2142 27.0893 19.0158 27.36C18.6189 27.9192 18.3663 28.5868 18.258 29.2724C18.1498 29.958 18.1678 30.6796 18.2941 31.3652C18.4204 32.0508 18.6549 32.7364 18.9436 33.3678C19.0879 33.6926 19.2503 33.9993 19.4307 34.306C19.5209 34.4684 19.6112 34.6127 19.7014 34.7751L19.7374 34.8473C19.7555 34.8653 19.7555 34.8833 19.7735 34.9375C19.7735 34.9375 19.7735 34.9555 19.7735 34.9735C19.7735 34.9916 19.7735 34.9916 19.7735 35.0096C19.7735 35.0457 19.7555 35.0638 19.7374 35.0818C19.7194 35.0998 19.6653 35.1179 19.6653 35.1179H19.6292L19.557 35.1359C19.4668 35.154 19.3946 35.172 19.3044 35.19C18.9797 35.2803 18.6549 35.4246 18.4024 35.6411C18.1498 35.8576 17.9333 36.1463 17.807 36.453C17.7348 36.6153 17.6807 36.7777 17.6807 36.9401C17.6807 37.1025 17.7168 37.2648 17.825 37.3731C17.9333 37.4813 18.0956 37.5355 18.258 37.5715C18.4204 37.5896 18.6008 37.5896 18.7632 37.5715C18.7993 37.5715 18.8354 37.5896 18.8354 37.6257C18.8173 37.6798 18.7993 37.7159 18.7632 37.7159Z" fill="#B78A48"/>
<path d="M23.7429 34.0895C23.9233 34.4683 24.1038 34.8292 24.2661 35.2261C24.4285 35.623 24.5728 36.0019 24.645 36.4349C24.6631 36.489 24.6631 36.5431 24.6631 36.5973C24.6631 36.6514 24.6631 36.7055 24.6631 36.7777C24.6631 36.8859 24.6089 37.0303 24.5187 37.1385C24.4285 37.2468 24.3022 37.3009 24.212 37.337C24.1038 37.3731 24.0136 37.4091 23.9233 37.4452C23.5264 37.5895 23.1295 37.7158 22.7145 37.806C22.2996 37.8963 21.8846 37.9865 21.4697 38.0226C21.2532 38.0406 21.0547 38.0586 20.8382 38.0586C20.6217 38.0586 20.4052 38.0406 20.1887 37.9684C20.0805 37.9323 19.9542 37.8602 19.882 37.7339C19.8459 37.6798 19.8279 37.5895 19.8279 37.5354C19.8279 37.4813 19.8279 37.4091 19.8459 37.355C19.882 37.1205 20.0263 36.922 20.1887 36.7777C20.5135 36.471 20.9104 36.2906 21.3073 36.1643C21.3434 36.1462 21.3795 36.1823 21.3975 36.2184C21.4156 36.2545 21.3975 36.2906 21.3614 36.3086C20.9825 36.4529 20.6217 36.6514 20.3511 36.9401C20.2248 37.0844 20.1166 37.2468 20.0805 37.4091C20.0624 37.4452 20.0805 37.4993 20.0805 37.5354C20.0805 37.5895 20.0985 37.5895 20.0985 37.6256C20.1346 37.6798 20.2068 37.7158 20.297 37.7519C20.4774 37.8061 20.6758 37.8241 20.8743 37.8241C21.0728 37.8241 21.2712 37.8061 21.4877 37.788C21.8846 37.7339 22.2996 37.6617 22.6965 37.5535C23.0934 37.4633 23.4903 37.337 23.8692 37.2107C24.0496 37.1385 24.2842 37.0844 24.3563 36.9761C24.4466 36.8679 24.4466 36.6694 24.4285 36.489C24.3744 36.0921 24.2481 35.7132 24.1038 35.3163C23.9594 34.9194 23.7971 34.5405 23.6527 34.1616C23.6347 34.1256 23.6527 34.0895 23.6888 34.0714C23.6888 34.0353 23.7249 34.0534 23.7429 34.0895Z" fill="#B78A48"/>
<path d="M8.55153 23.2102C8.67782 23.7153 8.82216 24.2385 8.96649 24.7437C9.11082 25.2489 9.25516 25.7721 9.41753 26.2772C9.57991 26.7824 9.72424 27.2876 9.88662 27.7927C10.067 28.2979 10.2294 28.8031 10.4098 29.2902C10.7707 30.2825 11.1676 31.2567 11.6367 32.2129L11.799 32.5738L11.9794 32.9166C12.1057 33.1511 12.214 33.3857 12.3764 33.6022C12.5207 33.8187 12.647 34.0532 12.7913 34.2697L13.2604 34.9012C13.2784 34.9372 13.2784 34.9733 13.2424 34.9914C13.2063 35.0094 13.1702 35.0094 13.1522 34.9914C12.4305 34.1975 11.8712 33.2594 11.3841 32.3212C10.8969 31.383 10.482 30.3907 10.1212 29.3804C9.76032 28.3881 9.43557 27.3597 9.14691 26.3494C8.85824 25.321 8.60565 24.2927 8.4072 23.2462C8.4072 23.2102 8.42524 23.1741 8.46132 23.1741C8.4974 23.156 8.53349 23.1741 8.55153 23.2102Z" fill="#B78A48"/>
<path d="M15.6238 5.25871C15.5336 5.85409 15.4253 6.44946 15.299 7.04484C15.2269 7.3335 15.1547 7.64022 15.0645 7.92888C14.9743 8.21755 14.9021 8.50622 14.8299 8.79488C14.7037 9.37222 14.5774 9.96759 14.5052 10.563C14.433 11.1583 14.3789 11.7537 14.433 12.3311C14.4511 12.6197 14.4872 12.9084 14.5954 13.161C14.6134 13.2151 14.6495 13.2692 14.6856 13.3414L14.8119 13.5218L14.9382 13.6842L15.0825 13.8466C15.4794 14.2615 16.0027 14.5321 16.5619 14.7486C17.1212 14.9651 17.6986 15.0914 18.2939 15.1816C18.8893 15.2718 19.4847 15.3079 20.0981 15.344C20.1162 15.344 20.1342 15.3621 20.1342 15.3801C20.1342 15.3981 20.1162 15.4162 20.0981 15.4162C19.4847 15.4523 18.8893 15.4342 18.2759 15.3801C17.6625 15.326 17.0671 15.2177 16.4717 15.0193C15.8764 14.8208 15.3171 14.5321 14.848 14.0811L14.6856 13.9007L14.5413 13.7203L14.3969 13.5218C14.3609 13.4496 14.3067 13.3775 14.2887 13.2873C14.1624 12.9806 14.1263 12.6558 14.1083 12.3491C14.0722 11.7176 14.1083 11.1042 14.1985 10.5088C14.2887 9.89542 14.415 9.30005 14.5774 8.72272C14.6495 8.43405 14.7578 8.14538 14.848 7.85671C14.9562 7.56805 15.0464 7.27938 15.1186 6.99071C15.299 6.41338 15.4434 5.83605 15.5877 5.24067C15.5877 5.22263 15.6057 5.20459 15.6418 5.20459C15.6057 5.22263 15.6238 5.24067 15.6238 5.25871Z" fill="#A76E33"/>
<path d="M4.095 13.4134C4.20325 13.648 4.38366 13.8645 4.58212 14.0269C4.78058 14.2073 5.01512 14.3336 5.26771 14.4238C5.77287 14.5861 6.33217 14.6403 6.87342 14.5861C7.41467 14.532 7.93787 14.3516 8.37087 14.0449C8.82191 13.7382 9.16471 13.3052 9.41729 12.8181C9.43534 12.782 9.48946 12.7639 9.52554 12.782C9.56163 12.8 9.57967 12.8541 9.56162 12.8902C9.47142 13.1609 9.32709 13.4315 9.16471 13.666C8.98429 13.9006 8.78583 14.1171 8.55129 14.2975C8.08221 14.6583 7.48684 14.8748 6.9095 14.947C6.31413 15.0011 5.71875 14.947 5.15946 14.7124C4.60016 14.4779 4.13108 14.0449 3.93262 13.4495C3.91458 13.4134 3.95066 13.3593 3.98675 13.3413C4.02283 13.3593 4.07696 13.3774 4.095 13.4134Z" fill="#542B00"/>
<path d="M4.32997 12.1328C4.02326 12.8004 4.96143 13.5762 6.02589 13.5762C6.94601 13.5762 7.75789 13.089 7.75789 12.4576C7.77593 11.5735 4.85318 10.9962 4.32997 12.1328Z" fill="black"/>
<path d="M14.2524 29.5068C14.2524 29.4346 14.2524 29.3444 14.2344 29.2723C14.2344 29.2001 14.1803 29.1279 14.09 29.1279C14.0179 29.1279 13.9457 29.1821 13.9457 29.2723C13.9457 29.3444 13.9457 29.4346 13.9277 29.5068C13.9277 29.5429 13.9277 29.579 13.9277 29.6151C13.9277 29.6511 13.9277 29.6692 13.9457 29.7053C13.9457 29.7233 13.9457 29.7413 13.9638 29.7594C13.9818 29.8135 14.0359 29.8676 14.09 29.8676C14.1442 29.8676 14.1983 29.8316 14.2163 29.7594C14.2163 29.7413 14.2163 29.7233 14.2344 29.7053C14.2344 29.6692 14.2524 29.6511 14.2524 29.6151C14.2524 29.597 14.2524 29.5429 14.2524 29.5068Z" fill="#DDA85B"/>
<path d="M14.6855 29.3083C14.6133 29.2903 14.5412 29.3264 14.5231 29.3985C14.5051 29.4887 14.487 29.5789 14.487 29.6691C14.487 29.7052 14.487 29.7413 14.487 29.7954C14.487 29.8315 14.487 29.8496 14.487 29.8856C14.487 29.9037 14.5051 29.9217 14.5051 29.9398C14.5231 29.9759 14.5592 30.03 14.6133 30.03C14.6674 30.03 14.7035 29.9939 14.7216 29.9398C14.7216 29.9037 14.7396 29.8856 14.7396 29.8496C14.7396 29.8315 14.7396 29.7954 14.7396 29.7774C14.7396 29.7413 14.7396 29.6872 14.7577 29.6511C14.7577 29.597 14.7757 29.5429 14.7937 29.4887C14.7937 29.4166 14.7577 29.3264 14.6855 29.3083Z" fill="#DDA85B"/>
<path d="M19.8455 30.8237C19.8455 30.7876 19.8275 30.7515 19.8275 30.7154V30.6793C19.8275 30.6613 19.8275 30.6432 19.8275 30.6252C19.8094 30.4628 19.8275 30.3185 19.8636 30.1742C19.8816 30.102 19.8455 30.0118 19.7553 29.9757C19.6651 29.9577 19.5929 29.9937 19.5569 30.084C19.5027 30.2644 19.4847 30.4448 19.4847 30.6252C19.4847 30.7154 19.5027 30.8237 19.5208 30.9139C19.5208 30.95 19.5388 30.986 19.5569 31.0402C19.5749 31.0943 19.611 31.1484 19.6471 31.2025C19.6832 31.2567 19.7553 31.2567 19.8094 31.2386C19.8636 31.2206 19.8997 31.1665 19.8997 31.1123C19.8816 31.0041 19.8636 30.9139 19.8455 30.8237Z" fill="#DDA85B"/>
<path d="M20.4413 31.2569C20.4413 31.2208 20.4233 31.1847 20.4233 31.1306C20.4052 31.0404 20.3872 30.9682 20.3691 30.878C20.3511 30.8058 20.2789 30.7698 20.2068 30.7878C20.1346 30.8058 20.1165 30.878 20.1165 30.9502C20.1346 31.0404 20.1526 31.1126 20.1526 31.2028C20.1526 31.2388 20.1707 31.293 20.1707 31.3291C20.1707 31.3651 20.1887 31.3832 20.2068 31.4193C20.2248 31.4553 20.2609 31.4734 20.297 31.4914C20.333 31.5095 20.3691 31.4914 20.3872 31.4734C20.4233 31.4373 20.4413 31.4193 20.4413 31.3651C20.4413 31.311 20.4413 31.2749 20.4413 31.2569Z" fill="#DDA85B"/>
<path d="M20.8737 31.0942C20.8737 31.0762 20.8737 31.0581 20.8556 31.0401C20.8556 31.022 20.8376 30.9859 20.8376 30.9679C20.8195 30.9138 20.8015 30.8777 20.7835 30.8236C20.7654 30.7875 20.7293 30.7514 20.6752 30.7694C20.6211 30.7875 20.603 30.8236 20.6211 30.8777C20.6391 30.9318 20.6391 30.986 20.6572 31.022C20.6572 31.0401 20.6752 31.0762 20.6752 31.0942C20.6752 31.1303 20.6933 31.1483 20.7113 31.1844C20.7113 31.2025 20.7293 31.2205 20.7474 31.2205C20.7654 31.2205 20.7835 31.2385 20.8015 31.2205C20.8195 31.2205 20.8376 31.2025 20.8376 31.2025C20.8556 31.1844 20.8737 31.1664 20.8556 31.1303C20.8737 31.1122 20.8737 31.0942 20.8737 31.0942Z" fill="#DDA85B"/>
<path d="M7.43282 32.4477C7.43282 32.3575 7.43282 32.2673 7.43282 32.1771C7.43282 32.1049 7.37869 32.0327 7.28848 32.0327C7.21631 32.0327 7.16219 32.0868 7.14415 32.1771C7.14415 32.2673 7.14415 32.3575 7.14415 32.4477C7.14415 32.4838 7.14415 32.5379 7.14415 32.574C7.14415 32.6281 7.16219 32.6822 7.19827 32.7363C7.23436 32.8085 7.36065 32.8085 7.37869 32.7363C7.39673 32.6822 7.41478 32.6281 7.43282 32.574C7.43282 32.5379 7.43282 32.4838 7.43282 32.4477Z" fill="#DDA85B"/>
<path d="M7.79364 32.4833C7.77559 32.4653 7.73951 32.4473 7.72147 32.4473C7.70343 32.4473 7.66734 32.4653 7.6493 32.4833C7.63126 32.5014 7.63126 32.5194 7.61322 32.5555L7.59518 32.7359C7.59518 32.772 7.59517 32.7901 7.57713 32.8261C7.57713 32.8442 7.57713 32.8622 7.57713 32.8803C7.57713 32.8983 7.57713 32.9164 7.59518 32.9164C7.59518 32.9524 7.63126 32.9705 7.66734 32.9705C7.70342 32.9705 7.73951 32.9524 7.75755 32.9344C7.75755 32.9163 7.77559 32.9163 7.77559 32.8983C7.79363 32.8803 7.79364 32.8622 7.79364 32.8442V32.8261C7.79364 32.7901 7.79364 32.772 7.81168 32.7359C7.81168 32.6818 7.82972 32.6277 7.82972 32.5555C7.82972 32.5375 7.81168 32.5014 7.79364 32.4833Z" fill="#DDA85B"/>
<path d="M19.3408 18.8079C19.3408 18.7899 19.3227 18.7538 19.3227 18.7357C19.3047 18.7177 19.3047 18.6996 19.2867 18.6996C19.2686 18.6816 19.2506 18.6636 19.2506 18.6455C19.2325 18.6094 19.1965 18.5734 19.1604 18.5553C19.1063 18.4832 19.0341 18.429 18.98 18.3569C18.9439 18.3208 18.9078 18.3027 18.8537 18.3027C18.8176 18.3027 18.7635 18.3208 18.7274 18.3569C18.6913 18.3929 18.6732 18.429 18.6732 18.4832C18.6732 18.5012 18.6732 18.5192 18.6732 18.5373C18.6732 18.5734 18.6913 18.5914 18.7274 18.6094C18.7815 18.6816 18.8356 18.7357 18.8898 18.8079C18.9078 18.844 18.9439 18.8801 18.98 18.8981C18.998 18.9161 19.016 18.9342 19.0341 18.9342C19.0521 18.9522 19.0702 18.9703 19.0882 18.9703C19.1063 18.9883 19.1243 18.9883 19.1604 18.9883C19.2145 19.0064 19.2686 18.9883 19.3047 18.9522C19.3408 18.9161 19.3769 18.8801 19.3769 18.8259C19.3408 18.844 19.3408 18.8259 19.3408 18.8079Z" fill="#DDA85B"/>
<path d="M18.9431 19.0426C18.925 19.0245 18.907 18.9884 18.889 18.9704C18.8709 18.9524 18.8709 18.9524 18.8529 18.9343L18.8348 18.9163C18.8168 18.8802 18.7987 18.8441 18.7807 18.8261C18.7627 18.808 18.7627 18.79 18.7446 18.79C18.7266 18.7719 18.7085 18.7719 18.6905 18.7539C18.6725 18.7539 18.6544 18.7539 18.6544 18.7539C18.6364 18.7539 18.6183 18.7539 18.6003 18.7719C18.5642 18.79 18.5462 18.808 18.5281 18.8441C18.5101 18.8802 18.492 18.9343 18.5101 18.9704C18.5281 19.0065 18.5462 19.0426 18.5642 19.0787C18.5822 19.1147 18.6003 19.1328 18.6183 19.1689C18.6364 19.1869 18.6364 19.2049 18.6544 19.223C18.6725 19.241 18.6905 19.2591 18.7266 19.2771C18.7627 19.2952 18.7987 19.3132 18.8348 19.3132C18.8529 19.3132 18.8529 19.3132 18.8709 19.3132C18.907 19.3132 18.9431 19.2952 18.9792 19.2591C18.9972 19.241 18.9972 19.223 18.9972 19.223C18.9972 19.2049 18.9972 19.1689 18.9972 19.1508C18.9611 19.0787 18.9611 19.0606 18.9431 19.0426Z" fill="#DDA85B"/>
<path d="M18.3485 19.6559C18.3485 19.6379 18.3305 19.6198 18.3124 19.6018C18.2763 19.5477 18.2403 19.5116 18.2042 19.4574C18.1861 19.4394 18.1681 19.4394 18.1501 19.4214C18.132 19.4033 18.114 19.4033 18.0959 19.4033C18.0779 19.4033 18.0598 19.4033 18.0418 19.4214C18.0238 19.4214 18.0057 19.4394 17.9877 19.4574C17.9877 19.4755 17.9696 19.4755 17.9696 19.4935C17.9516 19.5116 17.9516 19.5477 17.9516 19.5657C17.9516 19.5837 17.9516 19.6018 17.9516 19.6018C17.9516 19.6198 17.9696 19.6559 17.9877 19.6739C18.0418 19.71 18.0779 19.7461 18.132 19.7822C18.1501 19.8002 18.1681 19.8002 18.1861 19.8183C18.2042 19.8183 18.2222 19.8363 18.2403 19.8363C18.2583 19.8363 18.2763 19.8363 18.2944 19.8183C18.3124 19.8183 18.3305 19.8002 18.3485 19.7822C18.3485 19.7642 18.3666 19.7642 18.3666 19.7461C18.3846 19.7281 18.3846 19.692 18.3846 19.6739C18.3666 19.6739 18.3666 19.6739 18.3485 19.6559Z" fill="#DDA85B"/>
<path d="M9.81451 21.8391C9.81451 21.803 9.79647 21.7489 9.76038 21.7128C9.7243 21.6767 9.68822 21.6587 9.63409 21.6587C9.54388 21.6587 9.47172 21.7309 9.47172 21.8211C9.47172 21.8572 9.47172 21.8932 9.45367 21.9293C9.45367 21.9654 9.43564 22.0015 9.43564 22.0195C9.4176 22.0736 9.41759 22.1278 9.41759 22.1819C9.41759 22.1639 9.41759 22.1458 9.41759 22.1278C9.41759 22.1639 9.39955 22.1999 9.39955 22.218C9.39955 22.2541 9.39955 22.3082 9.39955 22.3443C9.39955 22.4164 9.45368 22.4706 9.5078 22.4886C9.57997 22.5067 9.63409 22.4706 9.68822 22.4164C9.70626 22.3984 9.70626 22.3804 9.7243 22.3623C9.74234 22.3262 9.76038 22.2902 9.76038 22.2721C9.77843 22.218 9.79647 22.1639 9.79647 22.0917C9.81451 22.0195 9.81451 21.9293 9.81451 21.8391Z" fill="#DDA85B"/>
<path d="M10.121 23.2465C10.103 23.2285 10.0489 23.2104 10.0128 23.2104C9.9767 23.2104 9.94062 23.2285 9.90453 23.2465C9.88649 23.2826 9.86845 23.3007 9.86845 23.3548C9.86845 23.3909 9.86845 23.445 9.86845 23.4811C9.86845 23.5172 9.86845 23.5532 9.86845 23.5713C9.86845 23.5893 9.8865 23.6074 9.8865 23.6254C9.90454 23.6795 9.94062 23.7156 9.99474 23.7156C10.0489 23.7156 10.085 23.6795 10.103 23.6254C10.103 23.6074 10.121 23.5893 10.121 23.5713C10.121 23.5352 10.121 23.4991 10.121 23.4811C10.121 23.445 10.121 23.3909 10.121 23.3548C10.1571 23.3187 10.1391 23.2826 10.121 23.2465Z" fill="#DDA85B"/>
<path d="M29.7143 22.2539C29.6962 22.1456 29.6782 22.0373 29.6421 21.9291C29.6241 21.875 29.588 21.8569 29.5339 21.8569C29.4797 21.8569 29.4436 21.9111 29.4436 21.9471C29.4436 22.0554 29.4617 22.1636 29.4436 22.2539C29.4436 22.308 29.4256 22.3621 29.4256 22.4162C29.4256 22.4884 29.4076 22.5786 29.4797 22.6147C29.5158 22.6508 29.5699 22.6508 29.6241 22.6327C29.7143 22.5966 29.7143 22.5064 29.7143 22.4162C29.7143 22.3801 29.7143 22.326 29.7143 22.2539Z" fill="#E2A656"/>
<path d="M30.2193 22.6507C30.2193 22.5966 30.2013 22.5244 30.2013 22.4703C30.1833 22.3801 30.1652 22.2718 30.1291 22.1816C30.1111 22.1275 30.057 22.0734 29.9848 22.0914C29.9307 22.0914 29.8585 22.1456 29.8766 22.2177C29.8946 22.3621 29.8946 22.5064 29.8766 22.6688C29.8766 22.6507 29.8766 22.6327 29.8766 22.6146C29.8766 22.6507 29.8585 22.6868 29.8585 22.7229C29.8585 22.7409 29.8585 22.759 29.8585 22.7951C29.8766 22.8492 29.8946 22.8672 29.9487 22.9033C30.0028 22.9394 30.057 22.9213 30.1111 22.9033C30.2013 22.8492 30.2193 22.7409 30.2193 22.6507Z" fill="#E2A656"/>
<path d="M29.2451 20.6845C29.209 20.5762 29.1188 20.486 29.0105 20.486C28.9925 20.3056 28.9383 20.1072 28.8662 19.9448C28.8121 19.8365 28.6677 19.8365 28.5956 19.9087C28.5053 19.9989 28.4332 20.1252 28.3971 20.2515C28.361 20.3958 28.5595 20.486 28.6497 20.3778C28.6677 20.5041 28.6858 20.6484 28.6677 20.7747C28.6497 20.8649 28.6858 20.9551 28.776 20.9912C28.8121 21.0092 28.8662 21.0092 28.9203 20.9912C28.9203 21.0453 28.9203 21.0994 28.9203 21.1536C28.9203 21.2618 28.9203 21.3701 29.0286 21.4242C29.0646 21.4603 29.1368 21.4422 29.1729 21.4242C29.3172 21.334 29.2811 21.1716 29.2811 21.0273C29.2631 20.901 29.2631 20.7927 29.2451 20.6845Z" fill="#E2A656"/>
<path d="M31.2838 24.2389C31.2658 24.1668 31.1756 24.0946 31.0854 24.1307C30.9952 24.1487 30.941 24.2389 30.9771 24.3292C30.9952 24.3652 30.9952 24.4013 30.9952 24.4374V24.4554V24.4915C30.9952 24.5637 30.9952 24.6178 30.9952 24.69V24.708C30.9952 24.7261 30.9952 24.7261 30.9952 24.7441C30.9952 24.7802 30.9771 24.8163 30.9591 24.8524C30.941 24.9245 30.923 24.9787 30.9049 25.0508C30.8869 25.1049 30.923 25.1771 30.9771 25.2132C31.0312 25.2493 31.1034 25.2312 31.1575 25.1951C31.1936 25.1591 31.2117 25.123 31.2297 25.0869C31.2658 25.0508 31.2658 24.9967 31.2838 24.9606C31.3199 24.8884 31.3199 24.7982 31.3379 24.708C31.356 24.5457 31.3199 24.3833 31.2838 24.2389Z" fill="#E2A656"/>
<path d="M31.176 27.6307C31.158 27.6307 31.1399 27.6488 31.1219 27.6668C31.1579 27.5946 31.176 27.5225 31.2121 27.4323C31.3203 27.1436 31.3564 26.8369 31.3023 26.5302C31.2842 26.44 31.1399 26.3858 31.0677 26.476C30.8152 26.7828 30.5626 27.0895 30.3461 27.4323C30.2739 27.5405 30.4543 27.6488 30.5265 27.5405C30.6889 27.324 30.8512 27.1255 31.0317 26.9271C31.0136 27.0714 30.9775 27.2338 30.9234 27.3781C30.8693 27.5044 30.8152 27.6307 30.761 27.757C30.7069 27.8833 30.6167 28.0096 30.5806 28.1359C30.5445 28.2802 30.7069 28.3343 30.7971 28.2622C30.8512 28.208 30.8873 28.1359 30.9414 28.0637C30.9595 28.0457 30.9956 28.0096 31.0136 27.9915C31.0317 27.9915 31.0317 27.9735 31.0497 27.9735C31.0317 28.0457 31.0136 28.1178 30.9956 28.172C30.9415 28.3163 30.8512 28.4426 30.7791 28.5869C30.7069 28.7313 30.8873 28.8756 30.9956 28.7673C31.2482 28.5148 31.3564 28.1178 31.3564 27.757C31.3384 27.6848 31.2482 27.5946 31.176 27.6307Z" fill="#E2A656"/>
<path d="M30.3638 30.373C30.2917 30.3369 30.2195 30.355 30.1654 30.4271C30.1293 30.4993 30.0932 30.5534 30.0571 30.6256C30.0391 30.6617 30.021 30.6797 30.003 30.7158C29.985 30.7339 29.985 30.7699 29.9669 30.788C29.9669 30.806 29.9669 30.8241 29.9669 30.8421C29.9669 30.8601 29.9669 30.8962 29.9669 30.9143C29.985 30.9323 29.985 30.9504 30.021 30.9684C30.0752 30.9864 30.1113 30.9864 30.1654 30.9504C30.1834 30.9323 30.2015 30.9323 30.2015 30.9143C30.2195 30.8962 30.2375 30.8601 30.2556 30.8421C30.2736 30.806 30.2917 30.788 30.3097 30.7519C30.3458 30.6797 30.3819 30.6256 30.418 30.5534C30.436 30.4993 30.436 30.4091 30.3638 30.373Z" fill="#E2A656"/>
<path d="M15.6062 11.916C15.6062 11.898 15.6062 11.8799 15.6062 11.8799C15.6062 11.8619 15.6242 11.8258 15.6242 11.8078C15.6422 11.6995 15.5881 11.5732 15.4799 11.5552C15.3716 11.5371 15.2634 11.5913 15.2273 11.6995C15.1731 11.898 15.1371 12.0964 15.119 12.3129C15.101 12.5294 15.0829 12.8181 15.2814 12.9624C15.3716 13.0346 15.5159 13.0346 15.5701 12.9263C15.6422 12.8001 15.6422 12.6738 15.6242 12.5475C15.6242 12.5294 15.6242 12.5114 15.6062 12.4933C15.6062 12.5655 15.6062 12.4753 15.6062 12.4573C15.6062 12.4212 15.6061 12.3671 15.5881 12.331C15.5881 12.2408 15.5881 12.1506 15.5881 12.0603C15.6061 12.0062 15.6062 11.9521 15.6062 11.916Z" fill="#BC7F2E"/>
<path d="M16.2555 12.5655C16.2374 12.4933 16.2194 12.4392 16.1833 12.367C16.1653 12.3309 16.1653 12.3129 16.1472 12.2768C16.1292 12.2227 16.1112 12.2046 16.0751 12.1505C16.057 12.1325 16.057 12.1325 16.039 12.1144C15.9849 12.0603 15.8947 12.0423 15.8225 12.0783C15.7503 12.1144 15.7142 12.1866 15.6962 12.2588C15.6962 12.2768 15.6962 12.3129 15.6962 12.3309C15.6962 12.367 15.7142 12.4031 15.7142 12.4392C15.7142 12.4933 15.7323 12.5294 15.7323 12.5835C15.7323 12.5655 15.7323 12.5474 15.7323 12.5113C15.7503 12.6196 15.7684 12.7278 15.7864 12.8361C15.7864 12.818 15.7864 12.782 15.7684 12.7639C15.7864 12.8541 15.7864 12.9263 15.8225 12.9985C15.8405 13.0526 15.8766 13.0887 15.9307 13.1248C16.021 13.215 16.1472 13.1789 16.2014 13.0887C16.2555 12.9985 16.2916 12.9263 16.2916 12.818C16.2916 12.7459 16.2735 12.6557 16.2555 12.5655Z" fill="#BC7F2E"/>
<path d="M17.1035 12.8545C17.0854 12.8004 17.0674 12.7463 17.0494 12.7102L17.0674 12.7643C17.0494 12.7102 17.0313 12.656 17.0133 12.6019C17.0133 12.5478 17.0133 12.5117 17.0133 12.4576C17.0133 12.4035 16.9952 12.3493 16.9591 12.3133C16.9231 12.2772 16.887 12.2591 16.8509 12.2591C16.7607 12.2411 16.6524 12.3133 16.6344 12.4035C16.5983 12.5478 16.5983 12.6741 16.6164 12.8184C16.6344 12.8906 16.6524 12.9447 16.6705 13.0169C16.6885 13.0349 16.6885 13.071 16.7066 13.089C16.7426 13.1432 16.7787 13.1612 16.8329 13.1973C16.8689 13.2153 16.905 13.2153 16.9231 13.2153C16.9592 13.2153 17.0133 13.1973 17.0313 13.1793C17.0674 13.1432 17.0854 13.1251 17.1035 13.071C17.1035 13.089 17.0854 13.1071 17.0854 13.1071C17.0854 13.089 17.1035 13.071 17.1035 13.053C17.1035 13.0169 17.1035 12.9988 17.1035 12.9628C17.1215 12.9086 17.1035 12.8725 17.1035 12.8545Z" fill="#BC7F2E"/>
<path d="M2.76041 9.80547C2.74237 9.71526 2.65216 9.66113 2.56195 9.66113C2.47174 9.66113 2.38153 9.71526 2.36349 9.80547C2.34545 9.89568 2.30937 10.0039 2.27328 10.0941C2.25524 10.1122 2.25524 10.1302 2.2372 10.1663C2.2372 10.1483 2.25524 10.1302 2.25524 10.1122C2.21916 10.2024 2.16503 10.2926 2.09287 10.3828C2.03874 10.455 1.98462 10.5271 1.96657 10.6173C1.94853 10.6895 1.96658 10.7797 2.0207 10.8338C2.07483 10.888 2.14699 10.906 2.2372 10.888C2.36349 10.8699 2.47174 10.7617 2.54391 10.6534C2.59803 10.5813 2.63412 10.5091 2.6702 10.4369C2.70629 10.3467 2.74237 10.2565 2.76041 10.1483C2.76041 10.0941 2.77845 10.04 2.77845 9.98589C2.77845 9.91372 2.77845 9.85959 2.76041 9.80547Z" fill="#BC7F2E"/>
<path d="M2.79619 10.4731C2.68794 10.6535 2.59774 10.8159 2.48949 10.9963C2.43536 11.0866 2.38123 11.1587 2.32711 11.2489C2.29102 11.3031 2.27298 11.3572 2.25494 11.4293C2.2369 11.5015 2.2369 11.5556 2.25494 11.6278C2.27298 11.718 2.38123 11.7721 2.4534 11.736C2.52557 11.718 2.57969 11.6819 2.63382 11.6458C2.6699 11.6098 2.72403 11.5556 2.74207 11.5015C2.79619 11.4113 2.85032 11.303 2.8864 11.1948C2.97661 10.9963 3.03073 10.7979 3.08486 10.5994C3.12094 10.419 2.8864 10.3108 2.79619 10.4731Z" fill="#BC7F2E"/>
<path d="M5.82723 3.29214C5.77311 3.2741 5.71898 3.29214 5.68289 3.31018C5.62877 3.34627 5.61073 3.38235 5.59269 3.43647C5.5566 3.54472 5.50248 3.65298 5.4664 3.76123C5.44836 3.81535 5.43031 3.86947 5.41227 3.9236C5.39423 3.95968 5.39423 3.99577 5.39423 4.04989C5.39423 4.08598 5.39423 4.10402 5.39423 4.1401C5.39423 4.19423 5.43031 4.24835 5.48443 4.28443C5.53856 4.30247 5.61073 4.30247 5.64681 4.24835C5.66486 4.23031 5.6829 4.21227 5.70094 4.19422C5.73702 4.15814 5.75506 4.12206 5.7731 4.08597C5.80919 4.01381 5.82723 3.95968 5.86331 3.88751C5.89939 3.77926 5.93548 3.67102 5.9896 3.56277C5.9896 3.43647 5.91744 3.31018 5.82723 3.29214Z" fill="#BC7F2E"/>
<path d="M19.1965 6.68428C19.1784 6.63015 19.1604 6.57603 19.1423 6.52191C19.1062 6.41366 19.0702 6.30541 19.0341 6.2152C19.016 6.12499 18.9258 6.07086 18.8356 6.08891C18.7635 6.10695 18.6732 6.17911 18.6732 6.26932C18.6913 6.37757 18.6913 6.48582 18.7093 6.59407C18.7093 6.66624 18.7274 6.73841 18.7454 6.79253C18.7454 6.82861 18.7635 6.84666 18.7635 6.88274C18.7635 6.90078 18.7815 6.93686 18.7995 6.9549C18.8176 6.99099 18.8537 7.02707 18.8898 7.04511C18.9258 7.0812 18.998 7.0812 19.0521 7.06316C19.1062 7.04511 19.1423 7.00903 19.1784 6.97295C19.2325 6.88274 19.2145 6.79253 19.1965 6.68428Z" fill="#BC7F2E"/>
<path d="M19.7011 6.41366C19.665 6.30541 19.6109 6.17912 19.5748 6.07087C19.4846 5.83633 19.3944 5.58375 19.25 5.36725C19.214 5.29508 19.1237 5.27704 19.0516 5.29508C18.9794 5.33116 18.9433 5.40333 18.9614 5.4755C18.9975 5.72808 19.0696 5.96262 19.1598 6.19717C19.1959 6.30542 19.232 6.43171 19.2681 6.53996C19.3222 6.68429 19.3763 6.84666 19.5387 6.88275C19.6109 6.90079 19.665 6.86471 19.7011 6.81058C19.8093 6.70233 19.7552 6.53995 19.7011 6.41366Z" fill="#BC7F2E"/>
<path d="M20.1347 5.7821C20.1166 5.74601 20.0986 5.70993 20.0986 5.67385C20.0986 5.65581 20.0805 5.63776 20.0805 5.61972C20.0625 5.58364 20.0444 5.54756 20.0264 5.52951C19.9903 5.47539 19.9542 5.43931 19.9182 5.38518C19.9001 5.36714 19.8821 5.36714 19.8821 5.3491C19.864 5.33106 19.828 5.33105 19.8099 5.33105C19.7738 5.33105 19.7197 5.33106 19.6836 5.3491C19.6475 5.36714 19.6295 5.38518 19.6115 5.42126C19.5754 5.47539 19.5754 5.52952 19.5934 5.58364C19.5934 5.61973 19.6115 5.67385 19.6295 5.70993C19.6475 5.76406 19.6656 5.81818 19.7017 5.87231C19.7197 5.90839 19.7377 5.94447 19.7558 5.98056C19.7738 6.01664 19.7919 6.03468 19.8279 6.05272C19.846 6.07076 19.864 6.08881 19.8821 6.08881C19.9001 6.10685 19.9362 6.12489 19.9542 6.14293C19.9903 6.16097 20.0264 6.14293 20.0625 6.14293C20.1347 6.10685 20.1707 6.05272 20.1707 5.98056C20.1347 5.89035 20.1527 5.83622 20.1347 5.7821Z" fill="#BC7F2E"/>
</svg>
