<svg width="39" height="37" viewBox="0 0 39 37" fill="none" xmlns="http://www.w3.org/2000/svg">
<path d="M33.0628 1.1673C33.0628 1.20046 33.0628 1.20046 33.0628 1.1673C33.0628 1.86371 28.1548 3.15704 18.5709 3.09072C6.56608 2.99123 4.0789 1.99636 4.0789 1.99636C4.41053 -0.225525 32.7644 -0.72296 33.0628 1.1673Z" fill="#99C0C6"/>
<path d="M32.2338 4.81534C36.1802 8.09842 38.6673 12.907 38.6673 18.2129C38.6673 28.1617 30.012 36.2201 19.3337 36.2201C8.65538 36.2201 0 28.1617 0 18.2129C0 13.3712 2.05607 8.9938 5.37231 5.74389C5.37231 5.74389 3.81368 4.18526 4.11214 1.96338C4.11214 1.96338 6.59932 2.95825 18.6041 3.05774C28.188 3.12406 33.0961 1.83073 33.0961 1.16748C33.3614 3.0909 32.2338 4.81534 32.2338 4.81534ZM36.346 19.5063C36.8434 15.2615 35.5501 10.5193 31.9685 8.69534C29.6472 7.5015 29.2492 10.3203 28.3538 10.5856C27.4253 10.8177 25.1371 9.02696 22.882 9.42491C20.428 9.85602 20.4944 11.8789 19.3337 12.509C18.173 13.1059 15.8185 11.5805 13.3976 11.2157C11.0099 10.8509 10.4462 12.8738 9.38496 13.0065C8.32376 13.1391 5.73709 10.0882 4.07897 12.2769C2.61983 14.2335 2.28821 16.6875 2.28821 19.241C2.28821 27.6311 10.1809 34.761 19.4995 34.761C28.8181 34.761 35.3843 27.8632 36.346 19.5063Z" fill="#B0E2ED"/>
<path d="M31.9685 8.69504C35.5501 10.519 36.8434 15.2612 36.346 19.506C35.3843 27.8297 28.8181 34.6943 19.5326 34.6943C10.2472 34.6943 2.32137 27.5976 2.32137 19.1744C2.32137 16.6209 2.65299 14.1668 4.11214 12.2103C5.77026 10.0215 8.35692 13.0725 9.41812 12.9398C10.4462 12.8072 11.0099 10.7843 13.4308 11.1491C15.8185 11.5138 18.2062 13.0725 19.3668 12.4424C20.5275 11.8123 20.4612 9.7894 22.9152 9.35829C25.1703 8.96034 27.4585 10.7843 28.387 10.519C29.2492 10.3532 29.6472 7.53436 31.9685 8.69504Z" fill="#5CC1E5"/>
<path d="M21.5554 26.7686C19.7647 26.8018 18.007 26.3375 17.0785 26.0391C17.0785 26.0391 16.2163 25.5748 16.2163 24.7457C16.2163 23.9498 16.9127 22.9218 16.9127 22.9218C16.9127 22.9218 15.951 22.9218 15.553 22.0264C15.2214 21.2637 15.4535 20.7994 15.4535 20.7994C15.4535 20.7994 15.8515 18.9755 17.5096 17.2842C17.4765 17.3505 17.1117 18.3122 17.9739 18.7102C17.9739 18.7102 17.178 19.6719 17.5096 20.5009C17.8412 21.33 19.0682 21.1973 19.0682 21.1973C19.0682 21.1973 18.0402 22.9218 18.7698 23.8503C19.4662 24.7789 20.66 24.7457 20.66 24.7457C20.66 24.7457 20.3947 26.0391 21.5554 26.7686Z" fill="#D45F2B"/>
<path d="M20.3616 19.3403C20.3616 19.3403 19.7647 20.2357 20.1294 21.1643C20.3947 21.8607 21.8539 22.126 21.8539 22.126C21.8539 22.126 21.1575 23.6183 21.7544 24.381C22.484 25.3427 24.0426 25.1437 24.0426 25.1437C24.0426 25.1437 23.91 25.8733 24.1753 26.2713C23.3794 26.6361 22.4508 26.8019 21.5554 26.8019C20.4279 26.0723 20.6932 24.779 20.6932 24.779C20.6932 24.779 19.5325 24.8121 18.803 23.8836C18.1065 22.955 19.1014 21.2306 19.1014 21.2306C19.1014 21.2306 17.8744 21.3632 17.5428 20.5342C17.2112 19.7051 18.0071 18.7434 18.0071 18.7434C17.1448 18.3455 17.5428 17.3837 17.5428 17.3174C17.9407 16.8863 18.4382 16.4884 19.0351 16.0904C19.5325 15.7588 20.0963 15.5267 20.66 15.3608V15.394C20.66 15.394 19.1014 16.3557 19.1014 17.7817C19.1014 19.0087 20.3616 19.3403 20.3616 19.3403Z" fill="#E28223"/>
<path d="M15.5531 22.0261C15.951 22.9546 16.9127 22.9214 16.9127 22.9214C16.9127 22.9214 16.2163 23.9495 16.2163 24.7454C16.2163 25.5744 17.0785 26.0387 17.0785 26.0387C16.6806 25.9061 16.4153 25.8066 16.4153 25.8066C15.3541 27.2325 13.8286 29.1228 12.9001 27.929C11.9715 26.7351 13.0327 23.5515 13.0327 23.5515C10.7445 22.8551 10.1476 20.6001 10.844 19.5057C11.5404 18.4114 15.4867 20.8322 15.4867 20.8322C15.4867 20.8322 15.2214 21.2633 15.5531 22.0261Z" fill="#F2C831"/>
<path d="M27.6242 17.3173C29.0502 19.3402 28.0884 24.1819 24.4406 26.1053C24.3411 26.1385 24.2748 26.2048 24.1753 26.238C23.9432 25.84 24.0426 25.1104 24.0426 25.1104C24.0426 25.1104 22.484 25.3426 21.7544 24.3477C21.1907 23.585 21.8539 22.0927 21.8539 22.0927C21.8539 22.0927 20.4279 21.8605 20.1295 21.131C19.7647 20.2024 20.3616 19.307 20.3616 19.307C20.3616 19.307 19.1014 18.9754 19.1014 17.7816C19.1014 16.3224 20.6601 15.3939 20.6601 15.3939V15.3607C23.3462 14.598 26.4303 15.6592 27.6242 17.3173Z" fill="#EDA337"/>
<path d="M24.9048 17.9139C25.0043 18.2124 24.8716 18.5109 24.6063 18.5772C24.3742 18.6435 24.0757 18.4777 24.0094 18.1792C23.9099 17.8808 24.0426 17.5823 24.3079 17.516C24.54 17.4497 24.8053 17.6155 24.9048 17.9139Z" fill="black"/>
<path d="M24.6064 19.7049C24.6064 18.9421 24.0094 18.3452 23.2467 18.3452C22.484 18.3452 21.8871 18.9421 21.8871 19.7049C21.8871 20.4676 22.484 21.0645 23.2467 21.0645C23.9763 21.0645 24.6064 20.4344 24.6064 19.7049Z" fill="#D05098"/>
<path d="M22.0528 23.7174C21.5886 23.6842 20.3947 24.049 19.9636 25.2097C19.5325 26.3704 19.831 27.3984 20.1626 27.6305C20.461 27.8627 21.887 27.2989 22.3845 25.7734C22.6498 24.9775 22.4176 23.7505 22.0528 23.7174Z" fill="#F2C831"/>
<path d="M28.0221 17.8808C27.989 18.3782 27.79 18.8425 27.5247 19.2404C27.2594 19.6384 26.8615 20.0032 26.3972 20.169C25.9329 20.368 25.4023 20.4343 24.938 20.3348C24.4406 20.2353 24.0095 20.0032 23.6447 19.6715C23.6115 19.6384 23.6115 19.6052 23.6447 19.5721C23.6779 19.5389 23.711 19.5389 23.7442 19.5721C24.109 19.8374 24.5401 20.0032 24.9712 20.1027C25.2033 20.1358 25.4023 20.1358 25.6344 20.1027C25.8334 20.0695 26.0656 20.0032 26.2645 19.9037C26.4635 19.8042 26.6625 19.7047 26.8283 19.5721C26.9941 19.4394 27.1599 19.2736 27.2926 19.1078C27.5579 18.743 27.7568 18.3451 27.8895 17.8808C27.8895 17.8476 27.9558 17.8145 27.989 17.8145C27.989 17.8145 28.0221 17.8476 28.0221 17.8808Z" fill="#5F3500"/>
<path opacity="0.63" d="M18.1065 19.6719C18.1065 19.6056 18.0733 19.5392 18.007 19.5061C17.9738 19.4729 17.9407 19.4397 17.9075 19.4066C17.8412 19.3734 17.808 19.3403 17.7417 19.3071C17.7085 19.3071 17.6422 19.3071 17.609 19.2739C17.5096 19.2739 17.4432 19.3071 17.3437 19.3403C17.3437 19.3403 17.3106 19.3403 17.3106 19.3734C17.2774 19.4066 17.2443 19.4397 17.2111 19.4397C17.1779 19.4729 17.1448 19.5061 17.1448 19.5392L17.1116 19.5724C17.1116 19.6056 17.0784 19.6056 17.0784 19.6387C17.0784 19.6719 17.0453 19.705 17.0453 19.7382C17.0453 19.7714 17.0453 19.8377 17.0121 19.8708C17.0121 19.904 17.0121 19.9703 17.0453 20.0035C17.0453 20.0367 17.0453 20.0035 17.0784 20.0698C17.0784 20.103 17.1116 20.1362 17.1448 20.1693C17.1779 20.2025 17.2111 20.2688 17.2774 20.2688C17.3106 20.2688 17.3437 20.302 17.3769 20.302C17.4101 20.302 17.4764 20.302 17.5096 20.3351C17.5427 20.3351 17.609 20.3351 17.6422 20.302C17.6754 20.302 17.6754 20.2688 17.7085 20.2688H17.7417C17.7748 20.2688 17.7748 20.2356 17.808 20.2356C17.8412 20.2356 17.9075 20.2025 17.9407 20.1693C17.9738 20.1362 18.007 20.1361 18.007 20.103L18.0402 20.0698C18.1065 20.0367 18.1396 19.9703 18.1396 19.904C18.1728 19.8377 18.1728 19.7714 18.1728 19.705C18.1065 19.7714 18.1065 19.7382 18.1065 19.6719Z" fill="white"/>
<path opacity="0.63" d="M19.2009 19.6052C19.2009 19.5721 19.1677 19.5389 19.1677 19.5389C19.1677 19.5057 19.1346 19.5057 19.1014 19.4726C19.0683 19.4394 19.0683 19.4394 19.0351 19.4394C19.0019 19.4062 18.9688 19.4063 18.9024 19.4063C18.8693 19.4063 18.8361 19.4063 18.803 19.4063C18.7698 19.4063 18.7366 19.4394 18.7366 19.4394C18.7035 19.4726 18.7035 19.4726 18.6703 19.5057C18.6371 19.5389 18.6371 19.5389 18.604 19.5721C18.604 19.6052 18.5708 19.6384 18.5708 19.6384C18.5708 19.6715 18.5708 19.7379 18.5708 19.771C18.5708 19.8042 18.5708 19.8374 18.604 19.8705C18.604 19.9037 18.6371 19.9368 18.6703 19.97C18.7035 20.0032 18.7366 20.0363 18.7698 20.0363C18.803 20.0695 18.8361 20.0695 18.9024 20.0695C18.9356 20.0695 18.9688 20.0695 18.9688 20.0695C19.0351 20.0695 19.0683 20.0363 19.1014 20.0032C19.1346 19.97 19.1346 19.97 19.1677 19.9368L19.2009 19.8705C19.2009 19.8374 19.2009 19.771 19.2009 19.7379C19.2009 19.6715 19.2009 19.6384 19.2009 19.6052Z" fill="white"/>
<path opacity="0.63" d="M19.201 18.4778C19.1678 18.4115 19.1346 18.3783 19.0683 18.3452C19.002 18.312 18.9688 18.312 18.9025 18.312C18.8693 18.312 18.8362 18.312 18.803 18.312C18.7699 18.312 18.7367 18.3452 18.7035 18.3452C18.6704 18.3783 18.6372 18.4115 18.604 18.4447C18.5709 18.4778 18.5709 18.511 18.5377 18.511C18.5377 18.5442 18.5046 18.5441 18.5046 18.5773C18.4714 18.6105 18.4714 18.6436 18.4714 18.71C18.4714 18.7431 18.4714 18.7763 18.4714 18.8094C18.4714 18.8426 18.4714 18.8758 18.5046 18.9421C18.5046 18.9753 18.5377 18.9753 18.5377 19.0084C18.5709 19.0084 18.5709 19.0416 18.604 19.0416C18.6372 19.0747 18.6704 19.0747 18.7367 19.0747C18.7699 19.0747 18.8362 19.0747 18.8693 19.0747C18.9025 19.0747 18.9357 19.0416 18.9688 19.0416H19.002C19.0683 19.0416 19.0683 19.0084 19.1015 19.0084C19.1346 18.9753 19.1678 18.9753 19.201 18.9421C19.2341 18.9089 19.2341 18.9089 19.2673 18.8758C19.2673 18.7431 19.2673 18.5773 19.201 18.4778Z" fill="white"/>
<path opacity="0.63" d="M21.3565 16.5212C21.3565 16.4548 21.3233 16.4217 21.257 16.3885C21.1907 16.3222 21.1575 16.289 21.0912 16.289C21.0249 16.2559 20.9254 16.2559 20.859 16.289C20.8259 16.289 20.7596 16.3222 20.7264 16.3554C20.6932 16.3554 20.6932 16.3885 20.6601 16.3885C20.6269 16.4217 20.5606 16.4217 20.5274 16.4548C20.4943 16.488 20.4279 16.488 20.3948 16.5212C20.3284 16.5543 20.2621 16.6207 20.1958 16.687C20.1626 16.7201 20.1626 16.7201 20.1295 16.7533C20.1295 16.7865 20.0963 16.8196 20.0963 16.8528C20.0963 16.886 20.0963 16.9191 20.0963 16.9523C20.0963 16.9854 20.0963 17.0518 20.1295 17.0849C20.1295 17.1181 20.1626 17.1513 20.1626 17.1513C20.1626 17.1844 20.1958 17.1844 20.229 17.2176C20.2953 17.2507 20.3616 17.2839 20.4279 17.2839C20.4943 17.2839 20.5937 17.2839 20.6601 17.2507C20.6932 17.2176 20.7596 17.2176 20.7927 17.1844C20.8259 17.1513 20.8922 17.1513 20.9254 17.1181C20.9585 17.1181 20.9585 17.0849 20.9917 17.0849C21.0249 17.0849 21.0912 17.0518 21.1243 17.0186C21.1907 16.9854 21.257 16.9191 21.2902 16.8528C21.3233 16.7865 21.3565 16.7201 21.3565 16.6538C21.3896 16.6207 21.3896 16.5543 21.3565 16.5212Z" fill="white"/>
<path opacity="0.63" d="M20.3616 19.5393C20.3616 19.473 20.3284 19.4398 20.2953 19.4067C20.2621 19.4067 20.2621 19.3735 20.2289 19.3735C20.1958 19.3403 20.1295 19.3403 20.0631 19.3403C20.03 19.3403 19.9968 19.3403 19.9305 19.3735C19.8973 19.3735 19.8642 19.4067 19.831 19.4398C19.7978 19.473 19.7647 19.5061 19.7647 19.5393C19.7315 19.5725 19.7315 19.6056 19.7315 19.672V19.7383C19.7315 19.8046 19.7647 19.8378 19.7978 19.8709C19.831 19.8709 19.831 19.9041 19.8642 19.9041C19.8973 19.9373 19.9636 19.9373 20.03 19.9373C20.0631 19.9373 20.0963 19.9373 20.1626 19.9041C20.1958 19.9041 20.2289 19.8709 20.2621 19.8378C20.2953 19.8046 20.3284 19.7714 20.3284 19.7383C20.3616 19.7051 20.3616 19.672 20.3616 19.6056C20.3948 19.5725 20.3616 19.5725 20.3616 19.5393Z" fill="white"/>
<path opacity="0.63" d="M19.5656 20.9649C19.5656 20.9318 19.5325 20.8654 19.4993 20.8323C19.433 20.766 19.3998 20.7328 19.3335 20.6665C19.3003 20.6333 19.234 20.6333 19.2008 20.6333C19.1345 20.6333 19.1013 20.6333 19.035 20.6333C19.0019 20.6333 18.9687 20.6665 18.9355 20.6665L18.9024 20.6996C18.836 20.6996 18.7697 20.6996 18.7034 20.6996C18.5707 20.7328 18.4381 20.8323 18.4049 20.9318C18.3718 21.0312 18.3386 21.1307 18.3386 21.2302C18.3386 21.3297 18.3718 21.4292 18.4049 21.5287C18.4713 21.6282 18.5707 21.7277 18.7034 21.7608C18.7366 21.7608 18.7366 21.7608 18.7697 21.7608C18.8029 21.7608 18.8029 21.7608 18.836 21.7608C18.8692 21.7608 18.9355 21.7608 18.9687 21.7608H19.0019C19.035 21.7277 19.1013 21.7277 19.1345 21.6945C19.1677 21.6945 19.2008 21.6613 19.2008 21.6282C19.2672 21.595 19.3003 21.5618 19.3666 21.4955C19.3998 21.4624 19.4661 21.396 19.4993 21.3297C19.5656 21.2302 19.5656 21.1639 19.5656 21.0644C19.5988 21.0976 19.5656 21.0312 19.5656 20.9649Z" fill="white"/>
<path opacity="0.63" d="M17.3106 21.2305C16.9459 21.2305 16.9459 21.7611 17.3106 21.7611C17.6423 21.7942 17.6423 21.2305 17.3106 21.2305Z" fill="white"/>
<path opacity="0.63" d="M18.9356 23.2534C18.9356 23.2203 18.9356 23.1539 18.9024 23.1208C18.9024 23.0876 18.8693 23.0544 18.8361 23.0213C18.803 22.9881 18.803 22.9881 18.7698 22.955C18.7035 22.9218 18.6703 22.9218 18.604 22.9218C18.5377 22.8886 18.4713 22.8886 18.405 22.8555C18.3718 22.8555 18.3718 22.8555 18.3387 22.8555C18.3055 22.8555 18.2392 22.8555 18.206 22.8886C18.1729 22.8886 18.1065 22.9218 18.0734 22.955C18.0402 22.9881 18.0071 23.0213 17.9407 23.0544L17.9076 23.0876C17.8744 23.1208 17.8412 23.1539 17.8081 23.2203C17.7418 23.3197 17.7418 23.4524 17.7418 23.585C17.7749 23.6514 17.8081 23.7177 17.8744 23.784C17.8744 23.8172 17.9076 23.8172 17.9407 23.8172C17.9739 23.8503 18.0071 23.8503 18.0402 23.8835C18.1065 23.9167 18.1397 23.9167 18.2392 23.9167C18.3055 23.9167 18.3387 23.9167 18.405 23.8835C18.4713 23.8835 18.5377 23.8503 18.604 23.784C18.6703 23.7509 18.7366 23.7177 18.7698 23.6514C18.8361 23.6182 18.8693 23.5519 18.9356 23.4856C18.9688 23.4192 18.9688 23.3861 19.0019 23.3197C18.9356 23.3197 18.9356 23.3197 18.9356 23.2534C18.9356 23.2866 18.9356 23.2534 18.9356 23.2534Z" fill="white"/>
<path opacity="0.63" d="M18.8361 24.6462C18.8361 24.5799 18.803 24.5468 18.7698 24.5136C18.7367 24.5136 18.7367 24.4804 18.7035 24.4804C18.6703 24.4473 18.604 24.4473 18.5708 24.4473C18.5377 24.4473 18.5045 24.4473 18.4714 24.4804C18.4382 24.4804 18.405 24.5136 18.3719 24.5468C18.3387 24.5799 18.3387 24.6131 18.3055 24.6462C18.2724 24.6794 18.2724 24.7126 18.2724 24.7457C18.2724 24.7789 18.2724 24.8121 18.2724 24.8121C18.2724 24.8784 18.3055 24.9115 18.3387 24.9447C18.3719 24.9447 18.3719 24.9779 18.405 24.9779C18.4382 25.011 18.5045 25.011 18.5377 25.011C18.5708 25.011 18.604 25.011 18.6372 24.9779C18.6703 24.9779 18.7035 24.9447 18.7367 24.9115C18.7698 24.8784 18.7698 24.8452 18.803 24.8121C18.8361 24.7789 18.8361 24.7457 18.8361 24.7126C18.8361 24.6794 18.8361 24.6462 18.8361 24.6462Z" fill="white"/>
<g opacity="0.63">
<path d="M20.3617 23.3858C20.3617 23.3195 20.3617 23.2863 20.3285 23.2531C20.3285 23.22 20.2953 23.1536 20.2622 23.1205C20.229 23.0873 20.1958 23.0542 20.1295 23.0542C20.0963 23.021 20.03 23.021 19.9969 23.021C19.9637 23.021 19.9305 23.021 19.8974 23.021C19.8642 23.021 19.8311 23.021 19.7979 23.021C19.7647 23.021 19.7316 23.0542 19.6984 23.0542C19.6321 23.0873 19.5989 23.1205 19.5658 23.1868C19.5658 23.22 19.5326 23.2531 19.5326 23.2863C19.4994 23.3526 19.4994 23.4189 19.5326 23.4853C19.5658 23.5848 19.5658 23.5848 19.6321 23.6511L19.6984 23.7174C19.6984 23.7174 19.7316 23.7506 19.7647 23.7506C19.7647 23.7506 19.7979 23.7837 19.8311 23.7837C19.8642 23.7837 19.8974 23.7837 19.9305 23.7837C19.9637 23.7837 19.9969 23.7837 20.03 23.7837C20.0632 23.7837 20.0963 23.7506 20.1295 23.7506L20.1627 23.7174L20.1958 23.6842C20.2622 23.6179 20.2622 23.5848 20.2953 23.5184C20.3616 23.4853 20.3617 23.4189 20.3617 23.3858C20.3617 23.4189 20.3617 23.4189 20.3617 23.3858Z" fill="white"/>
</g>
<path opacity="0.63" d="M20.5606 22.3249C20.5606 22.2586 20.5274 22.2254 20.4942 22.1923C20.4942 22.1923 20.4942 22.1923 20.4611 22.1923C20.4279 22.1591 20.4279 22.1591 20.3947 22.1259C20.3616 22.1259 20.3284 22.0928 20.3284 22.0928C20.2953 22.0928 20.2289 22.0928 20.1958 22.0928C20.1626 22.0928 20.1294 22.0928 20.0963 22.1259C20.0631 22.1259 20.03 22.1591 20.03 22.1591C19.9968 22.1591 19.9968 22.1923 19.9636 22.2254C19.9305 22.2586 19.9305 22.2586 19.9305 22.2917C19.8973 22.3249 19.8973 22.3581 19.8973 22.4244C19.8973 22.4576 19.8973 22.4907 19.8973 22.5239C19.8973 22.557 19.9305 22.5902 19.9305 22.5902C19.9636 22.6234 19.9636 22.6234 19.9968 22.6565C20.03 22.6897 20.03 22.6897 20.0631 22.7229C20.0963 22.7229 20.1294 22.756 20.1294 22.756C20.1626 22.756 20.2289 22.756 20.2621 22.756C20.2953 22.756 20.3284 22.756 20.3616 22.7229C20.3947 22.7229 20.4279 22.6897 20.4611 22.6565C20.4611 22.6565 20.4611 22.6565 20.4942 22.6565C20.5274 22.6234 20.5606 22.5902 20.5606 22.557C20.5937 22.5239 20.5937 22.4907 20.5937 22.4244L20.5606 22.3249Z" fill="white"/>
<path opacity="0.63" d="M21.8208 22.4907C21.456 22.4907 21.456 23.0545 21.8208 23.0545C22.1855 23.0545 22.1855 22.4907 21.8208 22.4907Z" fill="white"/>
<g opacity="0.63">
<path d="M19.1676 25.7072C19.1676 25.674 19.1676 25.7072 19.1676 25.7072C19.1676 25.674 19.1676 25.6408 19.1676 25.6077C19.1676 25.5745 19.1345 25.5413 19.1013 25.5082L19.0681 25.475L19.035 25.4419C19.0018 25.4087 18.9686 25.4087 18.9355 25.4087H18.9023C18.8692 25.4087 18.836 25.4087 18.8028 25.4087C18.7697 25.4087 18.7365 25.4087 18.7033 25.4087C18.6702 25.4087 18.637 25.4419 18.6039 25.4419C18.5375 25.475 18.5044 25.5082 18.4712 25.5745C18.438 25.6408 18.438 25.674 18.438 25.7403C18.438 25.873 18.5044 25.9725 18.6039 26.0388C18.637 26.0388 18.637 26.0719 18.6702 26.0719C18.7033 26.0719 18.7033 26.1051 18.7365 26.1051H18.7697C18.8028 26.1051 18.8692 26.1051 18.9023 26.1051C18.9023 26.1051 18.9023 26.1051 18.9355 26.1051C18.9686 26.1051 19.0018 26.0719 19.035 26.0388C19.0681 26.0388 19.1013 26.0056 19.1013 25.9725C19.1345 25.9061 19.1676 25.9061 19.1676 25.8398C19.1676 25.7403 19.1676 25.7072 19.1676 25.7072Z" fill="white"/>
</g>
<path opacity="0.63" d="M17.178 24.3809C16.8132 24.3809 16.8132 24.9446 17.178 24.9446C17.5428 24.9778 17.5428 24.3809 17.178 24.3809Z" fill="white"/>
<path opacity="0.63" d="M16.78 21.5289C16.78 21.4958 16.7468 21.4626 16.7468 21.4294C16.7137 21.3963 16.7137 21.3631 16.6805 21.33C16.6805 21.33 16.6142 21.2636 16.581 21.2636C16.5479 21.2636 16.5147 21.2305 16.4815 21.2305C16.4484 21.2305 16.4152 21.2305 16.3489 21.2305C16.3157 21.2305 16.2826 21.2305 16.2163 21.2305C16.1168 21.2636 16.0836 21.2636 16.0173 21.33C15.9841 21.3631 15.9841 21.3963 15.951 21.4294C15.9178 21.4626 15.8846 21.5621 15.9178 21.5289C15.9178 21.5621 15.9178 21.5953 15.9178 21.6616C15.9178 21.7279 15.9178 21.7611 15.951 21.8274C15.9841 21.8937 15.9841 21.9269 16.0504 21.96C16.0836 21.9932 16.1499 22.0264 16.1831 22.0595C16.2494 22.0927 16.2826 22.0927 16.3489 22.0927C16.3821 22.0927 16.4152 22.0927 16.4484 22.0927C16.4816 22.0927 16.5147 22.0595 16.5479 22.0595C16.581 22.0595 16.581 22.0595 16.6142 22.0264C16.581 22.0264 16.581 22.0595 16.5479 22.0595C16.581 22.0595 16.6142 22.0264 16.6474 21.9932L16.6805 21.96L16.7468 21.8937C16.78 21.8606 16.78 21.8274 16.78 21.7942C16.78 21.7611 16.78 21.7279 16.78 21.6947C16.78 21.5953 16.78 21.5621 16.78 21.5289Z" fill="white"/>
<path opacity="0.63" d="M19.5657 17.052C19.5657 17.0188 19.5325 16.9856 19.4993 16.9525C19.4662 16.9193 19.433 16.8862 19.3998 16.853C19.3667 16.8198 19.3335 16.8198 19.2672 16.8198C19.234 16.8198 19.1677 16.8198 19.1345 16.8198C19.1014 16.8198 19.0682 16.853 19.0682 16.853C19.0351 16.8862 18.9687 16.9193 18.9687 16.9525V16.9856L18.9356 17.0188C18.9356 17.0188 18.9024 17.052 18.9024 17.0851C18.8692 17.1183 18.8692 17.1515 18.8692 17.1846C18.8692 17.2178 18.8692 17.2509 18.8692 17.2841C18.8692 17.2841 18.8692 17.2841 18.8692 17.3173V17.3836C18.8692 17.4167 18.9024 17.4499 18.9356 17.4831C18.9356 17.5162 18.9687 17.5162 19.0019 17.5494C19.0351 17.5826 19.0682 17.5826 19.1014 17.6157C19.1345 17.6157 19.1345 17.6157 19.1677 17.6157C19.234 17.6157 19.234 17.6157 19.3004 17.6157C19.3335 17.6157 19.3667 17.5826 19.3998 17.5826C19.433 17.5494 19.4662 17.5494 19.4662 17.5162L19.4993 17.4831C19.5325 17.4499 19.5657 17.4167 19.5657 17.3836C19.5988 17.3504 19.5988 17.3173 19.5988 17.2841C19.5988 17.2178 19.5988 17.1514 19.5657 17.052Z" fill="white"/>
<path opacity="0.63" d="M17.6423 17.9141C17.2775 17.9141 17.2775 18.511 17.6423 18.511C18.0071 18.511 18.0071 17.9141 17.6423 17.9141Z" fill="white"/>
<path d="M17.9076 19.0086C17.9076 19.0086 17.9076 18.9755 17.8744 18.9755C17.8744 18.9423 17.8413 18.9423 17.8413 18.9091C17.8081 18.876 17.8081 18.876 17.775 18.876C17.7418 18.876 17.7418 18.876 17.7086 18.876C17.7086 18.876 17.7086 18.876 17.6755 18.876C17.6423 18.876 17.6091 18.876 17.576 18.9091C17.5428 18.9091 17.5428 18.9423 17.5097 18.9423C17.5097 18.9423 17.4765 18.9755 17.4765 19.0086C17.4765 19.0418 17.4765 19.0418 17.4433 19.075C17.4433 19.1081 17.4433 19.1081 17.4433 19.1413V19.1744C17.4433 19.2076 17.4765 19.2076 17.4765 19.2408L17.5097 19.2739C17.5428 19.2739 17.5428 19.3071 17.576 19.3071H17.6091H17.6423C17.6755 19.3071 17.6755 19.2739 17.7086 19.2739L17.7418 19.2408C17.7418 19.2408 17.775 19.2408 17.775 19.2076C17.775 19.2076 17.7749 19.2076 17.8081 19.2076C17.8081 19.2076 17.8081 19.2076 17.8413 19.2076C17.8744 19.2076 17.8744 19.1744 17.9076 19.1744L17.9408 19.1413C17.9408 19.1081 17.9739 19.1081 17.9408 19.075C17.9076 19.0418 17.9076 19.0418 17.9076 19.0086Z" fill="white"/>
<path d="M19.5657 17.5496C19.5326 17.4833 19.4994 17.4501 19.4331 17.417C19.3999 17.417 19.3668 17.3838 19.3668 17.3838C19.3336 17.3838 19.3004 17.3838 19.2673 17.3838C19.2673 17.3838 19.2673 17.3838 19.2341 17.3838C19.201 17.3838 19.1678 17.3838 19.1346 17.3838C19.1015 17.3838 19.0683 17.417 19.0351 17.417C19.002 17.4501 18.9688 17.4501 18.9357 17.4833C18.9357 17.4833 18.9357 17.4833 18.9025 17.5164C18.8693 17.5496 18.8693 17.5496 18.8362 17.5828C18.8362 17.6159 18.803 17.6491 18.803 17.6491C18.803 17.6823 18.803 17.7154 18.803 17.7486C18.803 17.7486 18.803 17.8149 18.803 17.8481C18.803 17.8481 18.803 17.8812 18.8362 17.8812C18.8693 17.9144 18.8362 17.9144 18.8693 17.9475C18.8693 17.9807 18.9025 17.9807 18.9357 18.0139C18.9688 18.047 19.002 18.047 19.0351 18.0802C19.0683 18.0802 19.1346 18.0802 19.1678 18.0802C19.201 18.0802 19.2341 18.0802 19.2673 18.047C19.3004 18.047 19.3004 18.047 19.3336 18.0139C19.3336 18.0139 19.3336 18.0139 19.3004 18.0139H19.3336C19.3668 18.0139 19.3999 17.9807 19.4331 17.9807C19.3999 17.9807 19.3668 18.0139 19.3336 18.0139H19.3668C19.4331 17.9807 19.4663 17.9807 19.5326 17.9144C19.5657 17.8812 19.5989 17.8149 19.6321 17.7486C19.6321 17.7154 19.6321 17.6491 19.6321 17.6159C19.5989 17.6159 19.5989 17.5828 19.5657 17.5496Z" fill="white"/>
<path d="M20.428 17.1512C20.428 17.1181 20.3948 17.1181 20.3617 17.0849H20.3285C20.2953 17.0849 20.2622 17.0518 20.2622 17.0518C20.229 17.0518 20.1958 17.0518 20.1958 17.0849C20.1627 17.1181 20.1295 17.1844 20.1295 17.2176C20.1295 17.2839 20.1627 17.3171 20.1958 17.3502C20.229 17.3502 20.2622 17.3834 20.2622 17.3834C20.2953 17.3834 20.3285 17.3834 20.3285 17.3502H20.3617C20.3948 17.3502 20.3948 17.3171 20.428 17.2839C20.428 17.2507 20.4611 17.2507 20.4611 17.2176C20.4611 17.1844 20.4611 17.1512 20.428 17.1512Z" fill="white"/>
<path d="M19.2672 19.937C19.0019 19.937 19.0019 20.3681 19.2672 20.3681C19.5657 20.3681 19.5657 19.937 19.2672 19.937Z" fill="white"/>
<path d="M20.3284 19.5391C20.03 19.5391 20.03 20.0033 20.3284 20.0033C20.5937 20.0033 20.5937 19.5391 20.3284 19.5391Z" fill="white"/>
<path d="M17.8745 21.4292C17.5097 21.4292 17.5097 21.993 17.8745 21.993C18.2393 21.993 18.2393 21.4292 17.8745 21.4292Z" fill="white"/>
<path d="M18.5046 20.1361C18.4714 20.1029 18.4714 20.0698 18.4382 20.0698C18.4051 20.0366 18.3719 20.0366 18.3387 20.0366C18.3056 20.0366 18.3056 20.0366 18.2724 20.0366C18.2393 20.0366 18.2061 20.0698 18.2061 20.0698C18.2061 20.0698 18.1729 20.0698 18.1729 20.1029C18.1398 20.1361 18.1398 20.1361 18.1398 20.1693C18.1398 20.2024 18.1398 20.2024 18.1398 20.2024C18.1398 20.2356 18.1398 20.2688 18.1398 20.2688C18.1398 20.3019 18.1398 20.3019 18.1398 20.3351C18.1398 20.3682 18.1398 20.3682 18.1729 20.4014L18.2061 20.4346H18.2393C18.2724 20.4677 18.2724 20.4677 18.3056 20.4677C18.3387 20.4677 18.3387 20.4677 18.3719 20.4677C18.4051 20.4677 18.4714 20.4677 18.5046 20.4346L18.5377 20.4014C18.5377 20.4014 18.5709 20.3682 18.5709 20.3351C18.604 20.3019 18.604 20.2688 18.604 20.2356C18.5377 20.2356 18.5046 20.1693 18.5046 20.1361Z" fill="white"/>
<path d="M17.2111 20.7329C16.9458 20.7329 16.9458 21.1309 17.2111 21.1309C17.4764 21.1309 17.4764 20.7329 17.2111 20.7329Z" fill="white"/>
<path d="M14.9562 21.4627C14.5914 21.3632 14.1934 21.2637 13.8287 21.1642C13.4639 21.0647 13.0659 20.8989 12.668 20.8989C12.4358 20.8989 12.3695 21.1974 12.5685 21.33C12.9001 21.5622 13.3312 21.6285 13.7292 21.6948C14.1271 21.7611 14.5251 21.7943 14.923 21.7943C15.0888 21.7943 15.122 21.4958 14.9562 21.4627Z" fill="#EDA421"/>
<path d="M14.8897 22.2251C14.5581 22.2251 14.2265 22.1919 13.8949 22.1919C13.7954 22.1919 13.6959 22.2582 13.6959 22.3909C13.6959 22.4904 13.7622 22.5898 13.8617 22.623C14.1933 22.7225 14.5581 22.6893 14.9229 22.6562C15.0224 22.6562 15.155 22.5567 15.155 22.424C15.1219 22.3245 15.0224 22.2251 14.8897 22.2251Z" fill="#EDA421"/>
<path d="M15.4536 23.1208C15.3873 23.0214 15.2546 22.9882 15.1551 23.0545C14.923 23.2203 14.6908 23.3861 14.4919 23.5851C14.2929 23.7841 14.1271 24.0162 13.9944 24.2815C13.9281 24.4142 13.9613 24.58 14.0939 24.6463C14.2266 24.7126 14.3592 24.6795 14.4587 24.5468C14.4919 24.5137 14.4919 24.4805 14.525 24.4805C14.5582 24.4473 14.5582 24.4142 14.5914 24.4142C14.6245 24.381 14.6245 24.381 14.6577 24.3479L14.6908 24.3147C14.7572 24.2152 14.8567 24.1157 14.9561 24.0162C15.122 23.8173 15.2878 23.6183 15.4867 23.4525C15.5199 23.353 15.5199 23.2203 15.4536 23.1208Z" fill="#EDA421"/>
<path d="M15.6526 23.784C15.5862 23.7508 15.4536 23.7508 15.4204 23.8503C15.3209 24.0493 15.2215 24.2151 15.1551 24.4141C15.122 24.5136 15.0556 24.6131 15.0225 24.7125C14.9893 24.812 14.9562 24.9115 14.923 25.0442C14.8898 25.1437 14.9562 25.2763 15.0556 25.2763C15.1551 25.3095 15.2546 25.2431 15.2878 25.1437C15.3209 25.0442 15.3541 24.9447 15.3873 24.8452C15.4204 24.7457 15.4536 24.6462 15.4868 24.5467C15.5531 24.3478 15.6194 24.1819 15.6857 24.0161C15.7521 23.9498 15.7189 23.8503 15.6526 23.784Z" fill="#EDA421"/>
<path d="M21.7876 24.4473C21.7213 24.4142 21.655 24.4473 21.6218 24.4805C21.4229 24.8453 21.1907 25.2432 21.1244 25.6743C21.1244 25.7407 21.1244 25.807 21.1907 25.8401C21.257 25.8733 21.3234 25.8401 21.3565 25.7738C21.5555 25.409 21.655 24.9779 21.854 24.6131C21.854 24.5468 21.854 24.4805 21.7876 24.4473Z" fill="#EDA421"/>
<path d="M32.068 2.75908C31.6701 2.59326 31.1395 2.52693 30.8078 2.85856C30.6752 2.99121 30.6089 3.19018 30.5757 3.35599C30.5425 3.38916 30.5425 3.42232 30.5094 3.48865C30.4431 3.65446 30.3767 3.85343 30.3104 4.01924C30.2441 4.21822 30.1777 4.38403 30.1114 4.58301C30.0451 4.74882 29.9788 4.94779 30.0451 5.1136C30.1114 5.3789 30.4431 5.44523 30.6752 5.34574C30.841 5.27941 30.9405 5.1136 31.0731 4.98095C31.3053 4.71566 31.5042 4.45036 31.7032 4.1519C31.9022 3.82027 32.068 3.48865 32.2338 3.12386C32.3001 2.99121 32.2338 2.8254 32.068 2.75908Z" fill="white"/>
<path d="M35.7159 12.0775C35.6827 11.7127 35.5501 11.3811 35.4506 11.0495C35.3179 10.6183 35.1521 10.1872 34.9531 9.75612C34.6547 9.02655 34.2567 8.3633 33.7593 7.76638C33.295 7.20262 32.6649 6.6057 31.9685 6.37356C31.6701 6.27407 31.3716 6.27407 31.1063 6.43988C30.7415 6.67202 30.7415 7.13629 30.9736 7.50108C31.2058 7.8327 31.6037 8.06484 31.9022 8.33014L31.9353 8.3633C32.5654 9.1592 33.1292 9.98826 33.5935 10.8836C33.7593 11.2153 33.9251 11.5801 34.0577 11.9448C34.1904 12.2765 34.2567 12.7076 34.4557 13.006C34.6878 13.3377 35.0858 13.3708 35.3842 13.1387C35.6495 12.8071 35.749 12.4423 35.7159 12.0775Z" fill="white"/>
<path d="M36.9761 15.6259C36.943 15.3606 36.8767 15.0953 36.7772 14.83C36.7108 14.6642 36.6114 14.5316 36.4787 14.3989V14.3658C36.3461 14.1336 36.0476 14.0341 35.7823 14.1336C35.5502 14.2 35.318 14.3658 35.2185 14.5979C34.9201 15.1285 35.119 15.6923 35.3512 16.1897C35.4507 16.455 35.6165 16.6871 35.9149 16.7535C36.2466 16.8529 36.6114 16.6871 36.8103 16.3887C36.9761 16.1897 37.0093 15.8912 36.9761 15.6259Z" fill="white"/>
<path opacity="0.13" d="M4.87493 13.9678C2.68621 15.7254 3.28314 23.5517 6.1351 27.5644C9.15288 31.8092 16.6476 34.8933 19.6322 32.8704C22.252 31.0796 13.6298 29.6204 10.4794 24.3476C6.43357 17.6488 6.63254 12.6081 4.87493 13.9678Z" fill="#672C77"/>
<path opacity="0.84" d="M31.7365 15.3937C31.7365 15.0289 31.438 14.7305 31.0732 14.7305C30.7084 14.7305 30.41 15.0289 30.41 15.3937C30.41 15.7585 30.7084 16.057 31.0732 16.057C31.438 16.057 31.7365 15.7585 31.7365 15.3937Z" fill="white"/>
<path opacity="0.13" d="M31.2057 15.4931C31.2057 15.4931 31.1726 15.4931 31.1726 15.46C31.1394 15.4268 31.1394 15.4268 31.0731 15.4268C31.0731 15.4268 31.0399 15.4268 31.0399 15.3936C31.0399 15.3936 31.0399 15.3936 31.0068 15.3605C31.0068 15.3273 30.9736 15.3273 30.9736 15.2941V15.3273C30.9736 15.2941 30.9405 15.261 30.9405 15.2278C30.9405 15.2278 30.9405 15.2278 30.9405 15.1947C30.9405 15.1615 30.9073 15.1615 30.9073 15.1283C30.8741 15.0952 30.841 15.0952 30.8078 15.062C30.7746 15.062 30.7415 15.062 30.7083 15.062C30.6751 15.062 30.642 15.062 30.6088 15.0952C30.5757 15.1283 30.5425 15.1283 30.5093 15.1947C30.4762 15.2278 30.4762 15.3273 30.4762 15.3605C30.4762 15.4268 30.5093 15.4931 30.5425 15.5594C30.5757 15.6258 30.6088 15.6921 30.6752 15.7253C30.7083 15.7584 30.7746 15.8247 30.841 15.8579C30.8741 15.8579 30.9073 15.8911 30.9405 15.8911C31.0068 15.9242 31.0399 15.9242 31.1063 15.8911C31.1394 15.8911 31.1726 15.8579 31.2389 15.8579C31.3052 15.8247 31.3384 15.7253 31.3384 15.6589C31.3384 15.6258 31.3052 15.5263 31.2057 15.4931Z" fill="#672C77"/>
<path d="M31.2721 14.8964C31.2721 14.8632 31.2721 14.8632 31.2721 14.8964C31.2389 14.8632 31.2389 14.8632 31.2057 14.83L31.1726 14.7969C31.1394 14.7969 31.1394 14.7969 31.1063 14.7969H31.0731C31.0399 14.7969 31.0068 14.83 31.0068 14.83C31.0068 14.83 30.9736 14.8632 30.9736 14.8964C30.9736 14.9295 30.9736 14.9295 30.9736 14.9627C30.9736 14.9958 30.9736 15.029 31.0068 15.0622C31.0068 15.0622 31.0068 15.0622 31.0399 15.0953C31.0399 15.0953 31.0399 15.0953 31.0399 15.1285L31.0731 15.1617C31.0731 15.1617 31.1063 15.1617 31.1063 15.1948C31.1394 15.1948 31.1394 15.1948 31.1726 15.1948H31.2057C31.2721 15.1948 31.3052 15.1285 31.3384 15.0622C31.3384 15.029 31.3384 14.9958 31.3384 14.9627C31.3052 14.9295 31.3052 14.8964 31.2721 14.8964Z" fill="white"/>
<path opacity="0.84" d="M30.1446 12.6747C30.1446 12.1772 29.7467 11.7793 29.2492 11.7793C28.7518 11.7793 28.3538 12.1772 28.3538 12.6747C28.3538 13.1721 28.7518 13.5701 29.2492 13.5701C29.7467 13.5701 30.1446 13.1721 30.1446 12.6747Z" fill="white"/>
<path opacity="0.13" d="M29.3486 12.8738C29.3154 12.8407 29.3154 12.8407 29.2822 12.8407C29.2822 12.8407 29.3154 12.8738 29.3486 12.8738C29.3154 12.8407 29.2822 12.8407 29.2822 12.8075C29.2491 12.7743 29.1828 12.7743 29.1496 12.7743C29.1164 12.7743 29.1164 12.7743 29.0833 12.7412C29.0501 12.7412 29.0501 12.708 29.017 12.708C28.9838 12.6748 28.9838 12.6748 28.9506 12.6417C28.9506 12.6085 28.9175 12.6085 28.9175 12.5754L28.9506 12.6085C28.9506 12.5754 28.9175 12.5754 28.9175 12.5422C28.9175 12.509 28.9175 12.509 28.8843 12.4759C28.8843 12.4095 28.818 12.3432 28.7516 12.3101C28.7185 12.3101 28.6853 12.3101 28.6522 12.3432C28.619 12.3764 28.5858 12.4095 28.5858 12.4427C28.5527 12.509 28.5527 12.5754 28.5527 12.6748C28.5527 12.708 28.5527 12.7743 28.5858 12.8075C28.5858 12.8407 28.619 12.907 28.6522 12.9401C28.7517 13.106 28.8843 13.2054 29.0501 13.2718C29.0833 13.2718 29.0833 13.2718 29.1164 13.2718C29.1496 13.2718 29.1828 13.2718 29.1828 13.2718C29.2159 13.2718 29.2823 13.2718 29.3154 13.2386C29.3154 13.2386 29.3154 13.2386 29.3486 13.2386C29.3817 13.2054 29.4149 13.1723 29.4481 13.1391C29.4812 13.106 29.4812 13.0396 29.4812 13.0065C29.3817 12.9733 29.3817 12.907 29.3486 12.8738Z" fill="#672C77"/>
<path d="M29.2822 12.1107C29.2822 12.0775 29.249 12.0775 29.249 12.0444C29.249 12.0444 29.2158 12.0444 29.2158 12.0112C29.1827 12.0112 29.1827 11.978 29.1495 11.978C29.1163 11.978 29.1163 11.978 29.0832 11.978C29.05 11.978 29.05 11.978 29.0169 11.978C28.9837 11.978 28.9837 11.978 28.9837 12.0112L28.9505 12.0444C28.9505 12.0775 28.9505 12.0775 28.9505 12.1107V12.1438C28.9505 12.177 28.9837 12.177 28.9837 12.2102C28.9837 12.2102 29.0169 12.2102 29.0169 12.2433C29.05 12.2433 29.05 12.2765 29.0832 12.2765C29.1163 12.2765 29.1163 12.2765 29.1495 12.2765C29.1827 12.2765 29.1827 12.2765 29.2158 12.2765C29.249 12.2765 29.249 12.2765 29.249 12.2433L29.2822 12.2102C29.2822 12.177 29.2822 12.177 29.2822 12.1438V12.1107Z" fill="white"/>
</svg>
