<svg width="24" height="24" viewBox="0 0 24 24" fill="none" xmlns="http://www.w3.org/2000/svg">
<path d="M4.0523 10.1593C3.45715 10.1593 3.30648 10.6113 3.63042 11.0558L5.46859 13.6021C5.72473 13.9562 6.11647 13.9487 6.36508 13.6021L8.20325 11.0483C8.51965 10.6189 8.37652 10.1593 7.7889 10.1593H6.69655C7.3821 7.4548 9.81541 5.47349 12.7459 5.47349C16.2038 5.47349 18.9761 8.24581 18.9761 11.7037C18.9761 15.1616 16.2038 17.9489 12.7459 17.9414C10.7345 17.9339 8.97166 16.9922 7.84164 15.5081C7.53277 15.154 7.08076 15.041 6.71162 15.3122C6.36508 15.5608 6.29728 16.0505 6.63628 16.4648C8.02244 18.2729 10.3126 19.4933 12.7459 19.4933C17.0099 19.4933 20.5356 15.9676 20.5356 11.7037C20.5356 7.43973 17.0099 3.91406 12.7459 3.91406C9.00179 3.91406 5.8302 6.61858 5.10699 10.1593H4.0523ZM12.4672 7.3418C12.0981 7.3418 11.8042 7.6356 11.8042 7.99721V12.0804C11.8042 12.2612 11.8645 12.4269 11.9926 12.6002L13.7856 14.9657C14.0568 15.3198 14.4485 15.38 14.7724 15.1465C15.0813 14.928 15.1114 14.5287 14.8704 14.2048L13.1226 11.8544V7.99721C13.1226 7.6356 12.8288 7.3418 12.4672 7.3418Z" fill="#494949"/>
</svg>
