<svg width="29" height="28" viewBox="0 0 29 28" fill="none" xmlns="http://www.w3.org/2000/svg">
<path d="M3.75098 13.2148C3.75098 13.6719 4.10254 14.0674 4.66504 14.0674C4.9375 14.0674 5.18359 13.918 5.40332 13.7422L14.1221 6.4209C14.3682 6.20996 14.6494 6.20996 14.8955 6.4209L23.6055 13.7422C23.8164 13.918 24.0625 14.0674 24.335 14.0674C24.8535 14.0674 25.249 13.7422 25.249 13.2324C25.249 12.9336 25.1348 12.6963 24.9062 12.5029L22.4365 10.4287V6.77246C22.4365 6.37695 22.1816 6.13086 21.7861 6.13086H20.5732C20.1865 6.13086 19.9229 6.37695 19.9229 6.77246V8.31055L15.7568 4.8125C14.9922 4.1709 14.0254 4.1709 13.2607 4.8125L4.10254 12.5029C3.86523 12.6963 3.75098 12.96 3.75098 13.2148ZM6.60742 21.1162C6.60742 22.3818 7.39844 23.1465 8.70801 23.1465H20.3008C21.6016 23.1465 22.4014 22.3818 22.4014 21.1162V14.4365L15.0449 8.27539C14.7021 7.97656 14.2891 7.98535 13.9551 8.27539L6.60742 14.4365V21.1162ZM16.8115 21.4941H12.1973V15.8691C12.1973 15.4561 12.4697 15.1924 12.8828 15.1924H16.1348C16.5479 15.1924 16.8115 15.4561 16.8115 15.8691V21.4941Z" fill="#4CAD66"/>
</svg>
