<svg width="67" height="66" viewBox="0 0 67 66" fill="none" xmlns="http://www.w3.org/2000/svg">
<path d="M33.4841 66C51.571 66 66.5 51.0638 66.5 33C66.5 14.9362 51.5392 0 33.4521 0C15.3971 0 0.5 14.9362 0.5 33C0.5 51.0638 15.429 66 33.4841 66ZM33.4841 44.0426C24.4884 44.0426 17.5024 47.266 14.1211 50.9681C9.78275 46.2766 7.13509 39.9574 7.13509 33C7.13509 18.3511 18.8422 6.60638 33.4521 6.60638C48.094 6.60638 59.8649 18.3511 59.8968 33C59.8968 39.9574 57.2492 46.2766 52.8789 51C49.4976 47.266 42.5116 44.0426 33.4841 44.0426ZM33.4841 38.8085C39.6725 38.8723 44.4894 33.5745 44.4894 26.7447C44.4894 20.2979 39.6406 14.9043 33.4841 14.9043C27.3594 14.9043 22.4787 20.2979 22.5106 26.7447C22.5425 33.5745 27.3275 38.7766 33.4841 38.8085Z" fill="#64BD78"/>
</svg>
