<svg width="21" height="20" viewBox="0 0 21 20" fill="none" xmlns="http://www.w3.org/2000/svg">
<g clip-path="url(#clip0_120_3870)">
<path d="M13.0415 4.16667C13.8555 4.32547 14.6035 4.72355 15.1899 5.30995C15.7763 5.89634 16.1744 6.64439 16.3332 7.45833M13.0415 0.833333C14.7326 1.0212 16.3095 1.77848 17.5134 2.98084C18.7173 4.1832 19.4765 5.75917 19.6665 7.45M18.8332 14.1V16.6C18.8341 16.8321 18.7866 17.0618 18.6936 17.2745C18.6006 17.4871 18.4643 17.678 18.2933 17.8349C18.1222 17.9918 17.9203 18.1112 17.7005 18.1856C17.4806 18.2599 17.2477 18.2876 17.0165 18.2667C14.4522 17.988 11.989 17.1118 9.82486 15.7083C7.81139 14.4289 6.10431 12.7218 4.82486 10.7083C3.41651 8.53434 2.54007 6.05916 2.26653 3.48333C2.2457 3.25289 2.27309 3.02063 2.34695 2.80135C2.4208 2.58207 2.53951 2.38057 2.6955 2.20968C2.8515 2.03879 3.04137 1.90226 3.25302 1.80877C3.46468 1.71528 3.69348 1.66688 3.92486 1.66667H6.42486C6.82929 1.66269 7.22136 1.8059 7.528 2.06961C7.83464 2.33332 8.03493 2.69954 8.09153 3.1C8.19705 3.90005 8.39274 4.68561 8.67486 5.44167C8.78698 5.73994 8.81125 6.0641 8.74479 6.37573C8.67832 6.68737 8.52392 6.97343 8.29986 7.2L7.24153 8.25833C8.42783 10.3446 10.1552 12.072 12.2415 13.2583L13.2999 12.2C13.5264 11.9759 13.8125 11.8215 14.1241 11.7551C14.4358 11.6886 14.7599 11.7129 15.0582 11.825C15.8143 12.1071 16.5998 12.3028 17.3999 12.4083C17.8047 12.4654 18.1744 12.6693 18.4386 12.9812C18.7029 13.2932 18.8433 13.6913 18.8332 14.1Z" stroke="white" stroke-width="2" stroke-linecap="round" stroke-linejoin="round"/>
</g>
<defs>
<clipPath id="clip0_120_3870">
<rect width="20" height="20" fill="white" transform="translate(0.5)"/>
</clipPath>
</defs>
</svg>
