<svg width="29" height="41" viewBox="0 0 29 41" fill="none" xmlns="http://www.w3.org/2000/svg">
<path d="M13.7759 19.6961C13.7759 19.6961 13.8939 18.3982 13.6284 18.4867C13.3629 18.5752 13.0384 19.4306 13.0384 19.4306C13.0384 19.4306 13.1269 18.2507 12.8319 18.5162C12.7139 18.6047 12.6254 18.8997 12.5074 19.2241C12.4779 19.0767 11.8584 16.4217 12.9499 15.4188C13.3629 15.5073 13.8939 15.5663 14.4544 15.4778C15.1033 15.3893 15.6048 15.1828 15.9883 14.9468C16.4603 15.2418 18.0237 17.2477 17.5813 18.8997C17.3453 18.5162 17.1978 18.2212 17.0208 18.2802C16.8438 18.3392 17.0208 19.1062 17.0208 19.1062C17.0208 19.1062 16.5488 18.1327 16.3718 18.2802C16.2243 18.4277 16.3423 19.2536 16.3423 19.2536C16.3423 19.2536 15.8703 18.3392 15.6048 18.5162C15.5163 18.5752 15.3688 19.1357 15.3393 19.9321L14.7198 19.9026C14.7493 19.3421 14.7198 18.5162 14.5134 18.5162C14.2479 18.4572 13.7759 19.6961 13.7759 19.6961Z" fill="#D97B4B"/>
<path d="M17.0213 19.0767C17.0213 19.0767 16.8443 18.3097 17.0213 18.2507C17.1983 18.1917 17.3458 18.4867 17.5817 18.8702C17.6112 18.9292 17.6702 18.9882 17.6997 19.0472C17.7882 19.1652 17.9652 19.2537 18.1422 19.3422L18.1127 19.4602C17.6702 21.6136 15.4578 21.0236 15.3693 20.9941C15.3103 20.5811 15.3103 20.1976 15.3398 19.8731C15.3693 19.0767 15.5463 18.5162 15.6053 18.4572C15.8708 18.2802 16.3428 19.1947 16.3428 19.1947C16.3428 19.1947 16.1953 18.3392 16.3723 18.2212C16.5198 18.1327 17.0213 19.0767 17.0213 19.0767Z" fill="#F9CFC7"/>
<path d="M13.6286 18.4569C13.8941 18.3684 13.7761 19.6663 13.7761 19.6663C13.7761 19.6663 14.2481 18.4274 14.5136 18.4569C14.7201 18.4864 14.7496 19.3124 14.7201 19.8433C14.7201 20.0498 14.6906 20.1973 14.6611 20.2858C14.6021 20.4923 14.5431 20.9053 14.4841 21.1413C12.9796 22.1148 12.1536 20.4923 12.1536 20.4923L12.0356 20.4628C12.2126 20.1383 12.3306 19.6074 12.4781 19.1649C12.5961 18.8404 12.6846 18.5454 12.8026 18.4569C13.1271 18.1914 13.0091 19.3714 13.0091 19.3714C13.0091 19.3714 13.3926 18.5454 13.6286 18.4569Z" fill="#F9CFC7"/>
<path d="M22.9209 36.5107C24.5139 36.6877 26.0184 37.9267 25.9004 38.1627C25.7824 38.3987 24.8384 38.0742 24.7499 38.0152C24.8089 38.0742 25.3694 38.4872 25.2219 38.9002C25.1039 39.3427 24.0419 38.6937 24.0124 38.6642C24.0419 38.7232 24.5139 39.2247 24.1599 39.4607C23.7764 39.6966 19.912 37.7792 19.912 37.7792L19.8825 37.6612C21.0625 37.3662 22.0655 36.9827 22.9209 36.5107Z" fill="#F9CFC7"/>
<path d="M6.43046 38.6345C6.34197 38.6935 5.04401 39.6965 5.04401 39.2245C5.04401 38.133 7.04995 36.7466 7.04995 36.7466C7.93492 37.2776 9.05589 37.6906 10.4423 37.956C9.70487 38.8705 7.81692 40.6995 7.31544 40.5815C6.81395 40.434 7.69893 39.3425 7.69893 39.3425C7.69893 39.3425 6.45996 40.4635 5.92898 40.139C5.66349 39.903 6.34197 38.7525 6.43046 38.6345Z" fill="#F9CFC7"/>
<path d="M12.1537 20.5222C12.1537 20.5222 12.9797 22.1446 14.4841 21.1712C14.5431 20.9647 14.6021 20.5517 14.6611 20.3157C14.6906 20.2272 14.6906 20.0797 14.7201 19.8732L15.3396 19.9027C15.3101 20.2567 15.3396 20.6402 15.3691 21.0237C15.5461 22.6166 16.4016 24.4161 19.0565 24.6521C22.9209 25.006 23.8058 21.1712 23.8058 21.1712L24.4253 21.0827C24.8088 22.2626 25.0448 23.3836 25.2218 23.9736C25.6348 25.301 28.0537 29.1359 27.3162 31.5254C26.9032 32.8528 25.7528 35.0062 22.9209 36.5402C22.0654 37.0122 21.0624 37.3957 19.8824 37.6907C17.9355 38.1922 15.4871 38.3986 12.4487 38.1922C11.7407 38.1332 11.0622 38.0447 10.4722 37.9267C9.08577 37.6612 7.96481 37.2482 7.07983 36.7172C2.30098 33.9443 3.83493 28.1625 4.30691 27.189C5.42788 24.7111 5.19189 23.5016 5.66387 21.1712C5.95886 19.7552 6.78484 18.8407 6.78484 18.8407C6.78484 18.8407 8.0533 18.0738 9.52826 19.2537C10.8852 20.3452 11.4162 21.0237 11.8292 20.8172C11.9177 20.7582 12.0062 20.6402 12.0947 20.4927L12.1537 20.5222Z" fill="#F4BC69"/>
<path d="M12.9205 15.3892C11.8291 16.3922 12.4486 19.0471 12.4781 19.1946C12.3306 19.6371 12.1831 20.1386 12.0356 20.4926C11.9471 20.6696 11.8586 20.7876 11.7701 20.8171C11.3571 21.0236 10.8556 20.3451 9.46914 19.2536C7.99419 18.0442 6.72572 18.8406 6.72572 18.8406C5.60476 18.1621 4.86728 17.3362 4.60179 16.4807C3.65782 13.2653 5.45726 11.4953 5.81125 10.4039C6.16524 9.25342 6.46023 6.5985 6.46023 6.5985C6.46023 6.5985 5.36876 6.80499 4.57229 4.91705C3.77581 3.0291 5.66376 1.11166 7.37471 1.34765C9.08565 1.58365 9.58714 3.94358 9.58714 3.94358C12.1536 1.67214 15.546 3.41259 15.664 3.47159C15.6345 3.38309 15.31 1.52465 16.7849 0.374183C17.7584 -0.392794 20.3543 -0.00930681 20.6198 1.79014C20.9148 3.79608 18.9974 4.68105 18.9974 4.68105C18.9974 4.68105 19.7053 6.09701 20.6198 7.57197C21.4753 8.95843 23.7467 9.60741 23.8057 12.5278C23.8352 14.3568 23.1862 16.0382 21.7998 17.3657C23.0682 17.9557 23.8647 19.5486 24.3662 21.0531L23.7467 21.1416C23.7467 21.1416 22.8912 24.9764 18.9974 24.6225C16.3424 24.3865 15.5165 22.587 15.31 20.9941C15.3985 21.0236 17.6109 21.6135 18.0534 19.4601L18.0829 19.3421C17.8764 19.2536 17.7289 19.1651 17.6404 19.0471C17.6109 18.9881 17.5519 18.9291 17.5224 18.8701C17.9649 17.2182 16.4014 15.2122 15.9295 14.9172C15.5755 15.1532 15.0445 15.3597 14.3955 15.4482C13.8645 15.5367 13.363 15.4777 12.9205 15.3892Z" fill="#F4BC69"/>
<path d="M11.7706 14.7991C11.9476 14.8876 12.1836 15.0056 12.3901 15.0646C12.5966 15.1531 12.8031 15.1826 13.0391 15.2416C13.4815 15.3301 13.924 15.3301 14.3665 15.2711C14.809 15.2121 15.222 15.1236 15.635 14.9466C16.0185 14.7696 16.4315 14.5336 16.7264 14.2091C16.7559 14.1796 16.8444 14.1796 16.8739 14.2091C16.9034 14.2386 16.9034 14.2976 16.9034 14.3271C16.6379 14.7696 16.2545 15.0646 15.812 15.3006C15.3695 15.5366 14.8975 15.6546 14.4255 15.7136C13.9535 15.7726 13.452 15.7431 12.9801 15.6251C12.5081 15.5071 12.0656 15.3006 11.6821 14.9761C11.6231 14.9466 11.6231 14.8581 11.6821 14.8286C11.6821 14.7696 11.7116 14.7696 11.7706 14.7991Z" fill="#422011"/>
<path d="M14.5727 21.1707V21.3182V21.2887C14.6907 22.2032 14.5727 23.1767 14.1597 24.0617C13.7467 24.9466 12.9502 25.6546 12.0063 25.9201C11.5343 26.0676 11.0328 26.0971 10.5313 26.0381C10.0298 25.9791 9.58735 25.8021 9.14486 25.5956C8.70237 25.3891 8.31889 25.1236 7.9649 24.7991C7.61091 24.5041 7.28642 24.1797 7.02092 23.7962C6.99142 23.7667 7.02092 23.7372 7.02092 23.7372C7.05042 23.7372 7.07992 23.7372 7.07992 23.7372C7.7584 24.3271 8.52538 24.8286 9.32186 25.1531C10.1183 25.4776 11.0033 25.5956 11.7998 25.3301C12.0063 25.3006 12.1833 25.1826 12.3898 25.0941C12.4783 25.0351 12.5668 24.9761 12.6553 24.9171L12.7733 24.8286L12.8912 24.7401C13.2157 24.4746 13.4812 24.1502 13.6877 23.7667C14.1007 23.0292 14.3367 22.1442 14.3957 21.2592V21.2297L14.4252 21.0822C14.4252 21.0527 14.4842 21.0232 14.5137 21.0527C14.5432 21.1117 14.5727 21.1412 14.5727 21.1707Z" fill="#C18536"/>
<path d="M6.6964 18.7818C7.13889 18.4278 7.72887 18.3098 8.28935 18.3983C8.58434 18.4278 8.84983 18.5458 9.08583 18.6638C9.32182 18.8113 9.58731 18.9588 9.76431 19.1358C10.1773 19.4602 10.5313 19.8142 10.9148 20.1682C11.2983 20.4927 11.6523 20.8762 12.1242 20.5812C12.1537 20.5517 12.1832 20.5812 12.1832 20.6107C12.1832 20.6402 12.1832 20.6697 12.1832 20.6697C12.0947 20.7877 11.9767 20.8762 11.8292 20.9352C11.6818 20.9942 11.5048 20.9647 11.3868 20.9352C11.0918 20.8467 10.8558 20.6992 10.6493 20.5517C10.2068 20.2567 9.82331 19.9322 9.41032 19.6077C9.02683 19.2833 8.64334 19.0473 8.17136 18.9293C7.72887 18.8113 7.22738 18.7818 6.7554 18.9293C6.7259 18.9293 6.6964 18.9293 6.6669 18.8998C6.6669 18.8113 6.6964 18.7818 6.6964 18.7818Z" fill="#C18536"/>
<path d="M15.4579 21.3183C15.6054 21.7903 15.7529 22.2328 16.0184 22.6458C16.2544 23.0588 16.5789 23.3833 16.9623 23.6487C17.6998 24.1797 18.6733 24.3862 19.5878 24.3567C20.5317 24.3862 21.4167 24.0322 22.1247 23.4717C22.8327 22.8818 23.3931 22.0558 23.7176 21.1413C23.7176 21.1118 23.7471 21.1118 23.7766 21.1118C23.8061 21.1118 23.8061 21.1413 23.8061 21.1708C23.6291 22.1738 23.1572 23.1178 22.4197 23.8257C22.3312 23.9142 22.2132 24.0027 22.1247 24.0912C22.0657 24.1207 22.0362 24.1797 21.9772 24.2092L21.8002 24.3272C21.6822 24.3862 21.5642 24.4747 21.4462 24.5337L21.0922 24.6812C20.9742 24.7402 20.8562 24.7697 20.7087 24.7992C20.5907 24.8287 20.4432 24.8582 20.3252 24.8877L19.9418 24.9467C19.8238 24.9762 19.6763 24.9762 19.5583 24.9762C19.0273 24.9762 18.5258 24.9172 18.0243 24.7697C17.5228 24.6222 17.0213 24.3862 16.6379 24.0617C16.2249 23.7372 15.9004 23.2948 15.6939 22.8228C15.4874 22.3508 15.3694 21.8493 15.3399 21.3478C15.3399 21.3183 15.3694 21.2888 15.3989 21.2888C15.4284 21.2888 15.4579 21.2888 15.4579 21.3183Z" fill="#C18536"/>
<path d="M19.7355 19.696C19.588 19.7255 19.47 19.7255 19.3225 19.7255C19.175 19.7255 19.057 19.7255 18.9095 19.696C18.762 19.6665 18.644 19.637 18.4965 19.6075C18.349 19.578 18.231 19.519 18.113 19.4305C18.0835 19.401 18.0835 19.3715 18.0835 19.342C18.113 19.3125 18.113 19.3125 18.1425 19.3125L18.939 19.401C19.057 19.4305 19.2045 19.4305 19.3225 19.46C19.4405 19.4895 19.588 19.519 19.706 19.5485C19.7355 19.5485 19.765 19.6075 19.765 19.637C19.7945 19.6665 19.765 19.696 19.7355 19.696Z" fill="#C18536"/>
<path d="M5.84079 3.02909C6.10628 2.8816 6.40127 2.8226 6.69626 2.8521C6.99125 2.8816 7.31574 2.9996 7.55173 3.20609C7.78773 3.41258 7.93522 3.70758 8.02372 3.97307C8.05322 4.12056 8.08272 4.23856 8.11222 4.38605C8.11222 4.53355 8.14172 4.68104 8.11222 4.79904C8.11222 4.88754 8.05322 4.94654 7.96472 4.94654C7.90572 4.94654 7.87622 4.91704 7.84673 4.85804V4.82854C7.78773 4.71054 7.72873 4.59255 7.69923 4.47455L7.55173 4.15006C7.43374 3.94357 7.31574 3.76657 7.16825 3.61908C7.02075 3.47158 6.84376 3.38308 6.60776 3.32408C6.40127 3.26509 6.16528 3.26509 5.92928 3.26509H5.89978C5.81129 3.26509 5.75229 3.20609 5.75229 3.11759C5.78179 3.08809 5.81129 3.05859 5.84079 3.02909Z" fill="#C18536"/>
<path d="M16.8735 3.82533C16.785 3.53034 16.785 3.20584 16.8145 2.88135C16.844 2.55686 16.9325 2.26188 17.08 1.96688C17.2275 1.67189 17.493 1.3769 17.8175 1.22941C18.1419 1.08191 18.4959 1.11141 18.8204 1.17041C18.9089 1.19991 18.9384 1.2589 18.9089 1.3474C18.8794 1.4064 18.8499 1.4359 18.7909 1.4359H18.7614C18.4959 1.4949 18.2304 1.5244 18.0534 1.67189C17.8765 1.81939 17.729 1.99638 17.611 2.20288C17.375 2.64536 17.2865 3.20584 17.1685 3.76633C17.139 3.85482 17.08 3.88433 16.9915 3.88433C16.9325 3.91383 16.903 3.85483 16.8735 3.82533Z" fill="#C18536"/>
<path d="M11.2391 12.4096C11.2686 12.7636 11.0621 13.0881 10.7376 13.1176C10.4426 13.1471 10.1477 12.8816 10.1182 12.5276C10.0887 12.1736 10.2951 11.8491 10.6196 11.8196C10.9441 11.7901 11.2096 12.0556 11.2391 12.4096Z" fill="black"/>
<path d="M17.1097 11.4067C17.1392 11.7607 16.9327 12.0852 16.6082 12.1147C16.3132 12.1442 16.0182 11.8787 15.9887 11.5247C15.9592 11.1707 16.1657 10.8462 16.4902 10.8167C16.7852 10.7872 17.0507 11.0527 17.1097 11.4067Z" fill="black"/>
<path d="M13.3042 13.5015C13.0682 13.7965 13.8646 14.3569 14.1596 14.3569C14.4841 14.3274 14.8971 13.708 14.7791 13.413C14.6611 13.059 13.5402 13.2065 13.3042 13.5015Z" fill="#D56D94"/>
<path d="M10.944 13.7963C11.2095 13.8848 11.416 14.0323 11.5635 14.2683C11.7405 14.4748 11.829 14.7403 11.888 15.0058C11.9175 15.2713 11.9175 15.5368 11.8585 15.7728C11.829 15.8908 11.77 16.0088 11.7405 16.1267C11.6815 16.2447 11.6225 16.3627 11.5635 16.4512C11.534 16.5102 11.475 16.5102 11.416 16.4807C11.3865 16.4512 11.357 16.4217 11.357 16.3627C11.3865 16.2447 11.3865 16.1267 11.416 16.0087C11.416 15.8908 11.4455 15.7728 11.475 15.6843C11.5045 15.4778 11.5045 15.2418 11.4455 15.0353C11.416 14.8288 11.3275 14.6518 11.239 14.4453C11.121 14.2683 11.003 14.0913 10.826 13.9438C10.7965 13.9143 10.767 13.8258 10.826 13.7963C10.8555 13.7963 10.885 13.7668 10.944 13.7963Z" fill="#422011"/>
<path d="M17.0803 12.7048C16.9918 12.9407 16.9623 13.2062 16.9328 13.4422C16.9033 13.6782 16.9328 13.9437 16.9918 14.1797C17.0508 14.4157 17.1393 14.6517 17.2868 14.8287C17.4343 15.0352 17.6113 15.2122 17.7883 15.4187C17.8178 15.4482 17.8178 15.5367 17.7883 15.5662C17.7588 15.5957 17.6998 15.5957 17.6703 15.5957C17.5523 15.5367 17.4343 15.4482 17.2868 15.3892C17.1688 15.3007 17.0508 15.2122 16.9623 15.0942C16.7558 14.8877 16.6083 14.5927 16.5493 14.2977C16.4608 14.0027 16.4608 13.6782 16.5198 13.4127C16.5788 13.1177 16.6968 12.8522 16.8738 12.6163C16.9033 12.5573 16.9623 12.5573 17.0213 12.5868C17.0803 12.6163 17.1098 12.6458 17.0803 12.7048Z" fill="#422011"/>
<path d="M10.0887 14.4747C9.26272 14.6812 8.43675 14.8877 7.58127 15.0942L5.07385 15.6842L2.56642 16.2447C1.74045 16.4217 0.884973 16.5987 0.0589973 16.7757C0.0294982 16.7757 0 16.7757 0 16.7462C0 16.7167 -4.5056e-07 16.6872 0.0294987 16.6872C0.855474 16.4807 1.68145 16.2742 2.53692 16.0677L5.04435 15.4777L7.55177 14.9172C8.37775 14.7402 9.23322 14.5632 10.0592 14.3862C10.0887 14.3862 10.1182 14.3862 10.1182 14.4157C10.1182 14.4157 10.1182 14.4452 10.0887 14.4747Z" fill="black"/>
<path d="M10.0887 15.4484C9.43972 15.8319 8.79074 16.2153 8.14176 16.5988L6.19482 17.7198L4.21838 18.8408C3.5694 19.1947 2.89092 19.5782 2.24194 19.9322C2.21244 19.9322 2.18294 19.9322 2.18294 19.9027C2.18294 19.8732 2.18294 19.8437 2.21244 19.8437C2.86142 19.4602 3.5104 19.0768 4.15938 18.6933L6.10632 17.5723L8.08276 16.4513C8.73174 16.0973 9.41022 15.7139 10.0592 15.3599C10.0887 15.3599 10.1182 15.3599 10.1182 15.3894C10.1182 15.3894 10.1182 15.4189 10.0887 15.4484Z" fill="black"/>
<path d="M18.3486 12.9114C19.204 12.8819 20.0595 12.8524 20.915 12.8229L23.4814 12.7639L26.0478 12.7344C26.9033 12.7344 27.7588 12.7344 28.6143 12.7344C28.6438 12.7344 28.6733 12.7639 28.6733 12.7934C28.6733 12.8229 28.6438 12.8524 28.6143 12.8524C27.7588 12.8819 26.9033 12.9114 26.0478 12.9409L23.4814 12.9999L20.915 13.0294C20.0595 13.0294 19.204 13.0294 18.3486 13.0294C18.3191 13.0294 18.2896 12.9999 18.2896 12.9704C18.3191 12.9409 18.3191 12.9114 18.3486 12.9114Z" fill="black"/>
<path d="M18.5846 13.708C19.4106 13.885 20.2365 14.0325 21.033 14.2095L23.4815 14.7405L25.9299 15.301C26.7559 15.5075 27.5523 15.6844 28.3783 15.8909C28.4078 15.8909 28.4373 15.9204 28.4078 15.9499C28.4078 15.9794 28.3783 15.9794 28.3488 15.9794C27.5228 15.8024 26.6969 15.6549 25.9004 15.478L23.452 14.947L21.0035 14.3865C20.1776 14.18 19.3811 14.003 18.5551 13.7965C18.5256 13.7965 18.4961 13.767 18.5256 13.7375C18.5256 13.7375 18.5551 13.708 18.5846 13.708Z" fill="black"/>
<path d="M21.5048 17.4837C21.2393 17.3952 20.9148 17.3952 20.6788 17.4542C20.4133 17.5427 20.2069 17.6607 20.0004 17.8967C19.5874 18.3392 19.2924 18.8997 18.9679 19.4602C18.9384 19.5192 18.8499 19.5487 18.7614 19.5192C18.7024 19.4897 18.6729 19.4307 18.7024 19.3717C18.7614 19.0177 18.8499 18.6932 18.9974 18.3687C19.1449 18.0442 19.3219 17.7492 19.5874 17.4837C19.8234 17.2182 20.2069 16.9822 20.5903 16.9232C21.0033 16.8642 21.3868 16.9822 21.6818 17.2182C21.7408 17.2772 21.7408 17.3657 21.7113 17.4247C21.6228 17.5132 21.5638 17.5132 21.5048 17.4837Z" fill="#C18536"/>
<path d="M12.7433 6.59834C12.6843 6.53934 12.6548 6.45084 12.5958 6.39185C12.5368 6.33285 12.4779 6.27385 12.4484 6.24435C12.4189 6.21485 12.4189 6.21485 12.3894 6.18535C12.3894 6.18535 12.3894 6.18535 12.3599 6.15585C12.3599 6.12635 12.3304 6.12635 12.3304 6.09686C12.3009 6.03786 12.2419 5.97886 12.2124 5.91986C12.1829 5.86086 12.1534 5.80186 12.0944 5.71337C12.0944 5.71337 12.0944 5.68387 12.0649 5.68387C12.0649 5.68387 12.0649 5.68387 12.0649 5.65437C12.0649 5.62487 12.0354 5.59537 12.0354 5.56587C11.9764 5.38888 11.9764 5.15288 11.7994 5.06439C11.7109 5.00539 11.5929 5.03488 11.5044 5.09388C11.3274 5.24138 11.4159 5.53637 11.4454 5.74287C11.4749 5.91986 11.5634 6.09686 11.6224 6.24435C11.7109 6.39185 11.7994 6.53934 11.9174 6.65734C11.9764 6.71634 12.0649 6.80483 12.1534 6.86383C12.2419 6.92283 12.3304 6.95233 12.4189 6.98183C12.5074 7.01133 12.6253 6.98183 12.6843 6.89333C12.7728 6.80483 12.8023 6.68684 12.7433 6.59834Z" fill="#D38D39"/>
<path d="M12.3902 6.15576C12.3902 6.15576 12.3902 6.18599 12.3902 6.15576C12.36 6.15576 12.36 6.15576 12.3902 6.15576C12.3902 6.15576 12.36 6.15576 12.3902 6.15576Z" fill="#D38D39"/>
<path d="M13.4518 5.97918C13.4223 5.92018 13.3928 5.86118 13.3633 5.83168L13.3338 5.80219C13.3043 5.77269 13.2748 5.74319 13.2748 5.74319C13.2453 5.68419 13.1863 5.65469 13.1568 5.62519C13.0978 5.56619 13.0683 5.53669 13.0093 5.47769C12.9798 5.44819 12.9503 5.41869 12.9503 5.38919C12.9208 5.3302 12.8618 5.3007 12.8028 5.2712C12.7733 5.2712 12.7438 5.2417 12.7438 5.2417C12.7143 5.2417 12.6848 5.2417 12.6553 5.2417C12.5963 5.2417 12.5373 5.2712 12.4783 5.3007C12.3898 5.3597 12.3308 5.50719 12.3603 5.59569C12.3603 5.65469 12.3898 5.68419 12.4193 5.74319C12.4488 5.77269 12.4488 5.80218 12.4783 5.83168C12.5373 5.89068 12.5668 5.97918 12.6258 6.03818C12.6553 6.09718 12.7143 6.12668 12.7438 6.18567C12.8028 6.24467 12.8618 6.27417 12.9208 6.33317C12.9503 6.36267 12.9798 6.36267 13.0093 6.39217C13.0388 6.39217 13.0683 6.42166 13.0683 6.42166C13.1568 6.45116 13.2453 6.45117 13.3338 6.39217C13.4223 6.33317 13.4813 6.21517 13.4518 6.12667C13.4813 6.03818 13.4813 6.00868 13.4518 5.97918Z" fill="#D38D39"/>
<path d="M13.9828 5.33003C13.9533 5.27103 13.9238 5.21203 13.8648 5.18253C13.8353 5.15303 13.8058 5.15303 13.8058 5.12353L13.7763 5.09403C13.7173 5.03503 13.6288 4.97604 13.5993 4.91704L13.5698 4.88754C13.5403 4.82854 13.4813 4.79904 13.4223 4.76954C13.3633 4.74004 13.2748 4.76954 13.2158 4.79904C13.1568 4.82854 13.0978 4.88754 13.0978 4.94654C13.0683 5.00553 13.0978 5.09403 13.1273 5.15303C13.1863 5.27103 13.2748 5.35953 13.3928 5.44802C13.4518 5.50702 13.5108 5.56602 13.5698 5.59552C13.5698 5.59552 13.5993 5.59552 13.5993 5.62502C13.6583 5.65452 13.6878 5.65452 13.7468 5.65452C13.7763 5.65452 13.8058 5.65452 13.8353 5.65452C13.8943 5.65452 13.9828 5.62502 14.0123 5.56602C14.0123 5.47752 14.0123 5.38902 13.9828 5.33003Z" fill="#D38D39"/>
<path d="M6.01791 28.8408C5.92941 28.7818 5.81141 28.8113 5.75241 28.8703C5.69342 28.9293 5.63442 29.0177 5.57542 29.1062C5.54592 29.1652 5.51642 29.2537 5.45742 29.3127C5.42792 29.4012 5.36893 29.4897 5.33943 29.6077C5.30993 29.7257 5.25093 29.8732 5.30993 29.9912C5.36893 30.1092 5.45742 30.1977 5.57542 30.2272C5.72291 30.2567 5.84091 30.1682 5.89991 30.0797C5.95891 29.9912 5.95891 29.8732 5.98841 29.7847C5.98841 29.6962 6.01791 29.6372 6.01791 29.5487V29.6372C6.01791 29.5487 6.0474 29.4602 6.0769 29.3717C6.0769 29.3422 6.1064 29.2832 6.1064 29.2537C6.1064 29.2242 6.1064 29.1652 6.1359 29.1357C6.1654 28.9882 6.1359 28.8998 6.01791 28.8408Z" fill="#D38D39"/>
<path d="M6.84392 29.9324C6.75542 29.903 6.60792 29.9324 6.54892 30.0209C6.46043 30.1979 6.40143 30.3454 6.34243 30.5224C6.31293 30.6109 6.28343 30.6699 6.28343 30.7584C6.25393 30.9059 6.25393 31.0829 6.37193 31.1714C6.46043 31.2304 6.54893 31.2599 6.63742 31.2009C6.78492 31.1124 6.81442 30.9354 6.84392 30.7879C6.87341 30.5814 6.90291 30.3749 6.96191 30.1684C7.02091 30.1094 6.96191 29.9914 6.84392 29.9324Z" fill="#D38D39"/>
<path d="M7.72868 31.0237C7.72868 30.9647 7.72868 30.9057 7.72868 30.8467C7.72868 30.7583 7.69919 30.6993 7.64019 30.6403C7.61069 30.6108 7.58119 30.5813 7.55169 30.5813C7.52219 30.5518 7.46319 30.5518 7.43369 30.5518C7.3452 30.5518 7.2862 30.5813 7.2272 30.6403C7.1977 30.6698 7.1977 30.6698 7.1682 30.6993C7.1387 30.7583 7.1387 30.7878 7.1387 30.8467C7.1387 30.9057 7.1387 30.9647 7.1387 31.0237C7.1387 31.0532 7.1387 31.0827 7.1387 31.1122C7.1387 31.1712 7.1682 31.2302 7.1682 31.2892C7.1682 31.3187 7.1977 31.3482 7.1977 31.3482C7.2272 31.3777 7.2567 31.4072 7.2862 31.4367C7.3157 31.4662 7.3157 31.4662 7.3452 31.4662C7.3747 31.4957 7.43369 31.4957 7.46319 31.4957C7.52219 31.4957 7.58119 31.4662 7.61069 31.4662C7.64019 31.4367 7.66969 31.4072 7.69919 31.3777C7.72869 31.3482 7.72868 31.3187 7.75818 31.2892V31.2597C7.75818 31.2597 7.75818 31.2597 7.75818 31.2302C7.75818 31.2007 7.75818 31.1712 7.75818 31.1417C7.72868 31.0827 7.72868 31.0532 7.72868 31.0237Z" fill="#D38D39"/>
<path d="M25.7231 28.1917C25.6936 27.9852 25.6051 27.8082 25.5166 27.6312C25.4281 27.4542 25.3692 27.3067 25.2807 27.1297C25.2217 27.0117 25.0742 26.9822 24.9857 27.0412C24.8972 27.0707 24.8087 27.2182 24.8382 27.3362C24.8972 27.5132 24.9857 27.6902 25.0447 27.8672C25.0742 27.9557 25.1037 28.0442 25.1332 28.1327C25.1922 28.2507 25.2512 28.3392 25.3397 28.4572C25.3987 28.5457 25.5461 28.5457 25.6051 28.4867C25.7231 28.3982 25.7526 28.2802 25.7231 28.1917Z" fill="#D38D39"/>
<path d="M25.1631 28.546C25.1336 28.487 25.1041 28.3985 25.0746 28.3395C25.0156 28.2215 24.9861 28.133 24.9271 28.015C24.8976 27.956 24.8386 27.9265 24.7796 27.897C24.7206 27.897 24.6616 27.897 24.6321 27.897C24.5141 27.956 24.4551 28.074 24.4846 28.192C24.5141 28.31 24.5731 28.428 24.6026 28.5165C24.6321 28.5755 24.6616 28.664 24.6911 28.7229C24.7206 28.7819 24.7796 28.8409 24.8386 28.8999C24.8976 28.9589 24.9861 28.9884 25.0746 28.9589C25.1631 28.9294 25.2221 28.8409 25.2221 28.7524C25.1926 28.6935 25.1631 28.6344 25.1631 28.546Z" fill="#D38D39"/>
<path d="M14.8675 28.1623C14.8675 28.0738 14.838 27.9853 14.838 27.8673C14.838 27.8083 14.8085 27.7493 14.779 27.6903C14.7495 27.6608 14.661 27.6313 14.602 27.6313C14.543 27.6313 14.484 27.6608 14.425 27.6903C14.425 27.7198 14.3955 27.7198 14.3955 27.7493C14.366 27.7788 14.366 27.8378 14.366 27.8673C14.366 27.9558 14.3365 28.0443 14.3365 28.1623C14.3365 28.2213 14.3365 28.2508 14.3365 28.3098C14.3365 28.3393 14.3365 28.3983 14.3365 28.4278C14.3365 28.4868 14.366 28.5458 14.425 28.6048C14.5135 28.6933 14.6905 28.6933 14.779 28.6048C14.8085 28.5458 14.838 28.5163 14.8675 28.4573C14.8675 28.3983 14.8675 28.3688 14.8675 28.3393C14.8675 28.2508 14.8675 28.2213 14.8675 28.1623Z" fill="#D38D39"/>
<path d="M15.4872 28.0737C15.4577 27.9557 15.4282 27.8377 15.3692 27.7492C15.3397 27.6902 15.2217 27.6312 15.1627 27.6607C15.1332 27.6607 15.1037 27.6902 15.0742 27.7197C15.0447 27.7492 15.0152 27.8082 15.0152 27.8672C15.0152 27.9557 15.0152 28.0737 15.0152 28.1622C15.0152 28.1917 15.0152 28.2212 15.0152 28.2507C15.0152 28.2802 15.0152 28.3097 15.0152 28.3392C15.0152 28.3687 15.0152 28.4277 15.0152 28.4572C15.0152 28.4867 15.0447 28.5162 15.0742 28.5457C15.1037 28.5752 15.1037 28.6047 15.1332 28.6047C15.1627 28.6047 15.1922 28.6342 15.2217 28.6342C15.2512 28.6342 15.2807 28.6342 15.3102 28.6342C15.3397 28.6342 15.3692 28.6047 15.3987 28.5752C15.4577 28.5457 15.4872 28.4867 15.4872 28.4277C15.4872 28.3982 15.4872 28.3392 15.5167 28.3097C15.5167 28.2802 15.5167 28.2507 15.5167 28.2212C15.4872 28.1622 15.4872 28.1032 15.4872 28.0737Z" fill="#D38D39"/>
<path d="M15.0742 28.5164C15.044 28.4861 15.0742 28.5164 15.0742 28.5164C15.044 28.4861 15.0742 28.5164 15.0742 28.5164Z" fill="#D38D39"/>
<path d="M15.1046 28.5463L15.0744 28.5161C15.0744 28.5161 15.0744 28.5161 15.1046 28.5463Z" fill="#D38D39"/>
<path d="M16.4308 28.6932C16.4308 28.5457 16.4013 28.4277 16.4013 28.2802C16.4013 28.2212 16.3718 28.1917 16.3423 28.1327C16.3128 28.1032 16.2538 28.0737 16.1948 28.0737C16.0768 28.0737 15.9883 28.1622 15.9883 28.2802L16.0178 28.6932C16.0178 28.7522 16.0178 28.8407 16.0178 28.8997C16.0178 28.9292 16.0178 28.9882 16.0473 29.0177C16.0473 29.0472 16.0768 29.0767 16.0768 29.1062C16.1063 29.1652 16.1653 29.2537 16.2538 29.2242C16.3423 29.2242 16.4013 29.1652 16.4308 29.1062C16.4603 29.0177 16.4603 28.9587 16.4603 28.8702C16.4308 28.8407 16.4308 28.7817 16.4308 28.6932Z" fill="#D38D39"/>
<path d="M13.0387 35.7733C12.9797 35.6848 12.9502 35.6258 12.9207 35.5373C12.8912 35.4783 12.8617 35.3898 12.8617 35.3014C12.8617 35.2719 12.8322 35.2129 12.8322 35.1834C12.8027 35.1244 12.8027 35.0654 12.7437 35.0359C12.6847 35.0064 12.6257 34.9769 12.5667 35.0064C12.4782 35.0359 12.4487 35.0654 12.4192 35.1539C12.4192 35.1834 12.4192 35.1834 12.3897 35.2129C12.3602 35.2719 12.3602 35.3308 12.3602 35.4193C12.3602 35.5373 12.3897 35.6553 12.4192 35.7733C12.4487 35.8913 12.4782 36.0093 12.5667 36.0978C12.5962 36.1568 12.6552 36.2158 12.7142 36.2748C12.7437 36.3043 12.7732 36.3338 12.8322 36.3633C12.8912 36.3928 12.9502 36.3928 13.0092 36.3928C13.1567 36.3928 13.2452 36.2748 13.2747 36.1273C13.1862 36.0093 13.0977 35.8913 13.0387 35.7733Z" fill="#D38D39"/>
<path d="M13.8646 35.8617C13.8646 35.8322 13.8351 35.8027 13.8351 35.7732C13.8056 35.7142 13.7761 35.6552 13.7466 35.5962C13.6876 35.5077 13.6581 35.3897 13.5991 35.3012C13.5401 35.2127 13.4516 35.1832 13.3631 35.2127C13.3336 35.2422 13.2746 35.2422 13.2746 35.3012C13.2451 35.3307 13.2451 35.3897 13.2451 35.4487C13.2746 35.5372 13.3336 35.6552 13.3631 35.7437C13.3926 35.8027 13.4221 35.8617 13.4516 35.9502C13.4811 36.0092 13.5106 36.0682 13.5696 36.1272C13.6286 36.1862 13.7171 36.1862 13.7761 36.1567C13.8351 36.1272 13.8941 36.0682 13.8941 35.9797C13.8941 35.9207 13.8941 35.8912 13.8646 35.8617Z" fill="#D38D39"/>
<path d="M14.6611 35.9794C14.6611 35.9499 14.6611 35.9499 14.6316 35.9204C14.6316 35.8909 14.6021 35.8319 14.6021 35.8024C14.5726 35.7139 14.5431 35.6254 14.5136 35.5664C14.4841 35.5074 14.4841 35.4779 14.4251 35.4484C14.3956 35.4189 14.3366 35.4189 14.2776 35.4189C14.1891 35.4484 14.1301 35.5369 14.1596 35.6549C14.1891 35.7434 14.2186 35.8319 14.2186 35.9204C14.2186 35.9499 14.2481 36.0089 14.2481 36.0384C14.2481 36.0679 14.2776 36.0679 14.2776 36.0974C14.2776 36.1269 14.3071 36.1564 14.3366 36.1859C14.3661 36.2154 14.3661 36.2154 14.3956 36.2154C14.4546 36.2449 14.5136 36.2449 14.5431 36.2154C14.6021 36.1859 14.6316 36.1564 14.6316 36.0974C14.6611 36.0679 14.6611 36.0384 14.6611 35.9794Z" fill="#D38D39"/>
<path d="M10.3247 24.1209C10.2952 24.1209 10.3247 24.1209 10.3247 24.1209C10.2657 24.0324 10.2362 24.0029 10.2067 23.9734C10.1772 23.9439 10.1477 23.9439 10.1182 23.9144C10.1477 23.9144 10.1477 23.9439 10.1772 23.9439C10.1477 23.9144 10.1182 23.9144 10.0887 23.8849C10.0887 23.8849 10.0592 23.8849 10.0592 23.8554C10.0592 23.8554 10.0592 23.8554 10.0297 23.8554C10.0002 23.8259 9.97069 23.7964 9.94119 23.7669C9.91169 23.7374 9.9117 23.7079 9.8822 23.6784V23.6489C9.8527 23.5899 9.8232 23.5309 9.7642 23.4719C9.7052 23.4424 9.6167 23.4129 9.55771 23.4424C9.49871 23.4719 9.43971 23.5014 9.38071 23.5604C9.35121 23.6194 9.35121 23.7079 9.35121 23.7669C9.38071 23.9439 9.49871 24.0914 9.6167 24.2094C9.7052 24.2979 9.7937 24.3569 9.9117 24.3864C9.97069 24.4159 10.0592 24.4159 10.1182 24.3864C10.1772 24.3569 10.2362 24.3274 10.2657 24.2979C10.2952 24.2684 10.3247 24.2389 10.3247 24.1799C10.3542 24.2094 10.3542 24.1504 10.3247 24.1209Z" fill="#D38D39"/>
<path d="M6.25357 11.9083C6.25357 11.8788 6.22408 11.8493 6.19458 11.8198C6.16508 11.8198 6.13558 11.8198 6.10608 11.8198C6.07658 11.8198 6.04708 11.8493 6.04708 11.9083C6.01758 11.9673 6.01758 11.9968 5.98808 12.0558C5.98808 12.0853 5.98808 12.1148 5.98808 12.1148C5.98808 12.1443 5.98808 12.1738 5.98808 12.1738C5.98808 12.2033 5.98808 12.2623 6.04708 12.2623C6.07658 12.2918 6.13558 12.2623 6.13558 12.2328C6.13558 12.2033 6.16508 12.2033 6.16508 12.1738C6.16508 12.1443 6.19458 12.1443 6.19458 12.1148C6.22408 12.0853 6.22408 12.0263 6.25357 11.9968C6.25357 11.9673 6.28307 11.9673 6.28307 11.9378C6.25357 11.9378 6.25357 11.9378 6.25357 11.9083Z" fill="#D38D39"/>
<path d="M6.8144 11.8789C6.7849 11.8494 6.7554 11.8199 6.7259 11.7904C6.6374 11.7609 6.54891 11.8199 6.51941 11.9084C6.48991 11.9674 6.48991 12.0264 6.46041 12.0854C6.46041 12.1149 6.43091 12.1444 6.43091 12.1739C6.43091 12.2034 6.43091 12.2624 6.43091 12.3214C6.43091 12.3804 6.48991 12.4394 6.54891 12.4689C6.6079 12.4689 6.6669 12.4689 6.7259 12.4099C6.7554 12.3804 6.7849 12.3509 6.7849 12.2919C6.7849 12.2624 6.8144 12.2329 6.8144 12.2034C6.8439 12.1444 6.8439 12.0854 6.87339 12.0264C6.8439 11.9379 6.8439 11.9084 6.8144 11.8789Z" fill="#D38D39"/>
</svg>
