<svg width="16" height="16" viewBox="0 0 16 16" fill="none" xmlns="http://www.w3.org/2000/svg">
<g clip-path="url(#clip0_142_468)">
<path d="M12.0208 11.078L14.8762 13.9326L13.9328 14.876L11.0782 12.0206C10.016 12.8721 8.69483 13.3352 7.3335 13.3333C4.0215 13.3333 1.3335 10.6453 1.3335 7.33331C1.3335 4.02131 4.0215 1.33331 7.3335 1.33331C10.6455 1.33331 13.3335 4.02131 13.3335 7.33331C13.3354 8.69465 12.8723 10.0158 12.0208 11.078ZM10.6835 10.5833C11.5296 9.71324 12.0021 8.54693 12.0002 7.33331C12.0002 4.75465 9.9115 2.66665 7.3335 2.66665C4.75483 2.66665 2.66683 4.75465 2.66683 7.33331C2.66683 9.91131 4.75483 12 7.3335 12C8.54712 12.0019 9.71342 11.5294 10.5835 10.6833L10.6835 10.5833Z" fill="#565C69"/>
</g>
<defs>
<clipPath id="clip0_142_468">
<rect width="16" height="16" fill="white"/>
</clipPath>
</defs>
</svg>
