<svg width="43" height="26" viewBox="0 0 43 26" fill="none" xmlns="http://www.w3.org/2000/svg">
<path d="M42.3986 12.1992C42.7092 12.7075 40.5912 15.9833 37.9649 15.9268L37.852 15.8986C37.9084 15.7009 37.9367 15.4467 37.9649 15.1643C38.0214 14.6278 38.0214 13.95 37.9367 13.1593C38.2191 13.244 39.2922 13.4417 40.6194 12.9052C41.4949 12.538 42.1162 11.7191 42.3986 12.1992Z" fill="#A8CA5D"/>
<path d="M36.073 15.729L36.8637 16.9998C36.4118 17.2257 35.7341 17.4516 34.7175 17.6775L34.2656 16.1244C34.5763 16.0679 34.8869 15.9832 35.1693 15.9267C35.5082 15.8702 35.8188 15.8137 36.073 15.729Z" fill="#EAE173"/>
<path d="M32.4582 18.0165L32.4864 18.1294C31.611 18.2706 30.5661 18.4118 29.3518 18.5248L28.9282 17.0563V16.9998C30.0013 16.8869 30.9897 16.7457 31.8652 16.6045L32.4582 18.0165Z" fill="#EAE173"/>
<path d="M26.3586 18.666V18.7789C25.0313 18.8637 23.8452 18.9484 22.7721 18.9766L22.6591 17.4517V17.4234C23.7323 17.4234 24.8901 17.3669 26.1326 17.2822V17.3105L26.3586 18.666Z" fill="#EAE173"/>
<path d="M19.7784 17.3106L19.5807 18.9768C18.0275 18.9485 16.8132 18.8356 15.8248 18.6944L16.7285 17C17.5757 17.113 18.5923 17.2542 19.7784 17.3106Z" fill="#EAE173"/>
<path d="M37.9933 15.1641C37.9651 15.4465 37.9369 15.7006 37.8804 15.8983C37.8521 15.9548 37.8521 16.0395 37.8239 16.096C37.7674 16.2089 37.7957 16.5761 36.892 16.9996L36.1013 15.7289C37.3721 15.4182 37.9933 15.1641 37.9933 15.1641Z" fill="#D1D375"/>
<path d="M34.2939 16.1245L34.7457 17.6777C34.1245 17.8189 33.3902 17.9601 32.4866 18.1013L32.4583 17.9883L31.8371 16.5481C32.769 16.4351 33.5879 16.294 34.2939 16.1245Z" fill="#D1D375"/>
<path d="M26.3584 18.666L26.1324 17.2822V17.254C26.3019 17.2258 26.4713 17.2258 26.6407 17.1975C27.0079 17.1693 27.375 17.141 27.7421 17.0846C28.1375 17.0281 28.5328 16.9998 28.9282 16.9434V16.9998L29.3518 18.4683C28.4481 18.553 27.4597 18.6377 26.3866 18.7225L26.3584 18.666Z" fill="#D1D375"/>
<path d="M22.6587 17.4235L22.7717 18.9485C21.5856 18.9767 20.5407 19.0049 19.6088 18.9767L19.8065 17.3105C19.9759 17.3105 20.1454 17.3388 20.343 17.3388C21.0208 17.3953 21.8115 17.3953 22.6587 17.4235Z" fill="#D1D375"/>
<path d="M16.1355 16.9153C16.3332 16.9435 16.5309 16.9718 16.7285 17L15.8249 18.6944C12.5773 18.2143 12.1255 17.3671 12.1255 17.3671C12.2949 17.3107 12.4926 17.2259 12.6338 17.1695C12.6338 17.1695 13.3115 17.8754 14.0175 17.4236C14.1587 17.3389 14.187 16.9718 14.1305 16.4917C14.1305 16.4917 14.8365 16.6894 16.1355 16.9153Z" fill="#D1D375"/>
<path d="M32.1474 9.48779C32.1474 9.48779 34.7172 14.9663 35.1973 15.9265C34.9149 15.9829 34.6325 16.0394 34.2936 16.1241C33.5876 16.2653 32.7687 16.4065 31.8367 16.5477C30.9613 16.6889 30.0012 16.8301 28.8998 16.9431C28.5327 16.9996 28.1373 17.0278 27.7137 17.0843C27.2901 14.5427 26.217 8.69708 26.217 8.69708C26.7253 8.83828 28.6456 6.94621 28.8998 6.77678L28.928 6.74854H29.1257C29.1257 6.74854 31.1872 9.37484 31.9215 9.48779C31.9779 9.48779 32.0627 9.48779 32.1474 9.48779Z" fill="#5F6D24"/>
<path d="M20.2868 17.3388C20.1173 17.3388 19.9479 17.3105 19.7502 17.3105C18.5641 17.2258 17.5475 17.1128 16.7286 16.9999C16.5026 16.9716 16.305 16.9434 16.1355 16.9152C16.1355 15.8703 17.2086 10.1941 17.2086 10.1941C17.5193 10.1376 19.3831 8.10435 19.2419 7.53955C19.6373 8.01963 20.5409 8.58442 21.021 8.55618C21.021 8.55618 20.3997 15.8985 20.315 17.3105L20.2868 17.3388Z" fill="#5F6D24"/>
<path d="M37.9651 13.1873C38.0216 13.978 38.0216 14.6557 37.9934 15.1923C37.9934 15.1923 37.4003 15.4182 36.0731 15.7571C35.8189 15.8136 35.5083 15.8983 35.1976 15.9548C34.7176 14.9664 32.1477 9.51608 32.1477 9.51608C32.9384 9.40313 34.4069 8.21705 34.7458 7.79346C34.7458 7.79346 36.9203 10.448 37.8804 12.4248C37.9087 12.453 37.9087 12.5095 37.9087 12.5377C37.9369 12.7354 37.9369 12.9613 37.9651 13.1873Z" fill="#748730"/>
<path d="M27.742 17.1129C27.3749 17.1412 27.0078 17.1977 26.6407 17.2259C26.4712 17.2541 26.3018 17.2541 26.1323 17.2824C24.8898 17.3671 23.732 17.4236 22.6589 17.4236C21.8117 17.4236 21.0209 17.3953 20.2867 17.3671V17.3106C20.3714 15.8986 20.9927 8.55628 20.9927 8.55628C21.5293 8.55628 22.7436 7.05957 22.7436 7.05957C23.0825 7.28549 25.7088 8.61276 26.2171 8.72572C26.2453 8.72572 27.3184 14.5714 27.742 17.1129Z" fill="#748730"/>
<path d="M14.4413 9.23389C14.8367 9.7422 16.8982 10.2505 17.2088 10.194C17.2088 10.194 16.1357 15.8985 16.1357 16.9151C14.8367 16.6892 14.1307 16.4915 14.1307 16.4915C14.0177 15.7008 13.7071 14.5994 13.227 13.8935C13.0858 13.6958 12.9728 13.5546 12.8599 13.4699C12.9728 11.9167 14.4413 9.23389 14.4413 9.23389Z" fill="#748730"/>
<path d="M37.9083 12.5098C37.9083 12.4816 37.8801 12.4251 37.8801 12.3969C36.9199 10.4201 34.7455 7.76553 34.7455 7.76553C35.1408 7.31369 35.6209 5.50635 35.6209 5.50635C36.9764 7.82201 37.6542 10.4201 37.9083 12.5098Z" fill="#8DA34F"/>
<path d="M29.9732 0.592494C29.6908 2.25864 29.1825 6.35341 28.9284 6.77701L28.9001 6.80525C28.6742 7.00292 26.7257 8.86675 26.2174 8.72555C25.709 8.61259 23.0545 7.28532 22.7439 7.0594C22.4332 6.83349 22.405 0.705453 22.405 0.536015C23.2522 0.310097 24.1841 0.140658 25.2007 0.0559383C27.0363 -0.1135 28.6177 0.112418 29.9732 0.592494Z" fill="#8DA34F"/>
<path d="M19.2421 7.51137C19.4116 8.10441 17.5477 10.1094 17.2089 10.1659C16.8982 10.2224 14.8367 9.71408 14.4414 9.20576C14.046 8.72568 14.5826 6.57946 14.639 6.41002C15.4298 5.11099 16.4746 3.8402 17.8584 2.76709C17.8584 2.90829 18.2537 6.26882 19.2421 7.51137Z" fill="#8DA34F"/>
<path d="M35.6209 5.50642C35.6209 5.50642 35.1126 7.31376 34.7454 7.7656C34.4066 8.16095 32.9381 9.37527 32.1474 9.48822C32.0627 9.48822 32.0062 9.48822 31.9497 9.48822C31.2155 9.37527 29.154 6.74897 29.154 6.74897H28.9563C29.2104 6.32537 29.7188 2.25884 30.0012 0.564453C32.5427 1.49637 34.3783 3.38843 35.6209 5.50642Z" fill="#A9BE79"/>
<path d="M22.4332 0.507812C22.4332 0.677251 22.4614 6.80528 22.772 7.0312C22.772 7.0312 21.5577 8.49967 21.0212 8.52791C20.5411 8.52791 19.6374 7.99135 19.2421 7.51128C18.2537 6.29697 17.8583 2.90819 17.8301 2.79523C19.0726 1.83508 20.5976 1.01613 22.4332 0.507812Z" fill="#A9BE79"/>
<path d="M14.4411 9.23373C14.4411 9.23373 12.9727 11.9165 12.8597 13.4697C12.5208 13.2155 12.2667 13.3567 12.1255 13.4979C12.1537 13.3285 12.5208 9.82676 14.6388 6.43799C14.5823 6.57919 14.0458 8.72541 14.4411 9.23373Z" fill="#A9BE79"/>
<path d="M14.1305 16.4913C14.187 16.9714 14.1588 17.3385 14.0176 17.4232C13.2833 17.8751 12.6338 17.1691 12.6338 17.1691C12.4644 17.2256 12.2949 17.282 12.1255 17.3668C10.883 17.8186 9.07561 18.3834 6.02572 18.0445C2.12863 17.5927 1.30967 15.3053 1.19671 14.9099C0.744878 15.1358 0.406 15.3335 0.264801 15.0229C-0.554153 13.0743 0.434241 8.86659 4.52901 8.55595C7.83306 8.30179 9.01913 10.8999 9.72513 12.1424C10.3746 13.272 11.3348 13.6109 11.9843 13.6956C11.9843 13.6956 12.0408 13.6109 12.1255 13.5262C12.2667 13.385 12.5209 13.2438 12.8597 13.4979C12.9727 13.5826 13.1139 13.7238 13.2269 13.9215C13.7069 14.5993 14.0458 15.7006 14.1305 16.4913Z" fill="#A8CA5D"/>
<path d="M37.9935 15.2487C36.1014 15.9265 34.1246 16.3218 32.1479 16.6607C30.1711 16.9996 28.1943 17.2537 26.1893 17.3949C24.1842 17.5361 22.1792 17.5644 20.1742 17.4514C19.1858 17.3949 18.1692 17.282 17.1808 17.1408C16.6725 17.0843 16.1924 16.9713 15.7123 16.8866L14.2438 16.6042C14.2156 16.6042 14.1874 16.5477 14.1874 16.5195C14.1874 16.4913 14.2156 16.463 14.2721 16.463L15.7406 16.7454C16.2206 16.8301 16.7289 16.9431 17.209 16.9996C18.1974 17.1125 19.1858 17.1972 20.1742 17.2537C22.151 17.3384 24.156 17.3102 26.1328 17.1408C28.1096 16.9713 30.1146 16.7454 32.0631 16.4348C33.0515 16.2936 34.0399 16.0959 35.0001 15.8982C35.9602 15.7005 36.9486 15.4746 37.8805 15.1357C37.9088 15.1357 37.9653 15.1357 37.9653 15.164C38.05 15.1922 38.05 15.2205 37.9935 15.2487Z" fill="#51661E"/>
<path d="M16.8136 17.0283C16.7571 17.1977 16.7006 17.3389 16.6441 17.4801C16.5876 17.6213 16.5029 17.7625 16.4182 17.9037C16.277 18.1861 16.1076 18.4685 15.9099 18.7227C15.8816 18.7509 15.8534 18.7509 15.8252 18.7227C15.7969 18.6944 15.7969 18.6662 15.7969 18.6379C15.9099 18.3273 16.0511 18.0449 16.1923 17.7625C16.277 17.6213 16.3335 17.4801 16.4464 17.3389C16.5312 17.1977 16.6159 17.0565 16.7288 16.9435C16.7571 16.9153 16.7853 16.9153 16.8136 16.9435C16.8136 16.9718 16.8136 17 16.8136 17.0283Z" fill="#51661E"/>
<path d="M19.835 17.3385C19.8632 17.4797 19.835 17.6209 19.835 17.7621C19.835 17.9033 19.8068 18.0445 19.8068 18.1857C19.7785 18.3269 19.7785 18.4681 19.7503 18.6093C19.722 18.7505 19.6938 18.8917 19.6373 19.0047C19.6091 19.0329 19.5808 19.0612 19.5526 19.0329C19.5244 19.0329 19.5244 19.0047 19.5244 18.9765V18.9482C19.5244 18.807 19.5244 18.6658 19.5244 18.5246C19.5244 18.3834 19.5526 18.2422 19.5526 18.101C19.5808 17.9598 19.5808 17.8186 19.6091 17.6774C19.6373 17.5362 19.6656 17.395 19.722 17.2821C19.722 17.2538 19.7785 17.2256 19.8068 17.2256C19.8068 17.2821 19.835 17.3103 19.835 17.3385Z" fill="#51661E"/>
<path d="M22.7438 17.4232C22.772 17.5362 22.8002 17.6774 22.8285 17.8186C22.8567 17.9598 22.8567 18.0728 22.8567 18.214C22.8567 18.4681 22.885 18.7223 22.8285 19.0047C22.8285 19.0329 22.8002 19.0611 22.7438 19.0611C22.7155 19.0611 22.6873 19.0329 22.6873 19.0047C22.6026 18.7505 22.5743 18.4963 22.5743 18.2422C22.5743 18.101 22.5743 17.988 22.5743 17.8468C22.5743 17.7056 22.5743 17.5927 22.6026 17.4515C22.6026 17.4232 22.659 17.395 22.6873 17.395C22.7155 17.3668 22.7155 17.395 22.7438 17.4232Z" fill="#51661E"/>
<path d="M26.1892 17.2821C26.2457 17.3951 26.2739 17.508 26.3021 17.621C26.3304 17.734 26.3586 17.8469 26.3869 17.9599C26.4151 18.1858 26.4433 18.4117 26.4151 18.6659C26.4151 18.6941 26.3869 18.7224 26.3304 18.7224C26.3021 18.7224 26.2739 18.6941 26.2739 18.6941C26.1892 18.4682 26.1327 18.2423 26.0762 18.0164C26.048 17.9034 26.048 17.7904 26.048 17.6775C26.048 17.5645 26.048 17.4516 26.048 17.3104C26.048 17.2821 26.0762 17.2539 26.1327 17.2539C26.1609 17.2256 26.1892 17.2539 26.1892 17.2821Z" fill="#51661E"/>
<path d="M28.9848 16.9997C29.0413 17.1127 29.0977 17.2256 29.1542 17.3668C29.2107 17.4798 29.2389 17.621 29.2672 17.7339C29.3237 17.9881 29.4084 18.2422 29.4084 18.4964C29.4084 18.5246 29.3801 18.5811 29.3519 18.5811C29.3237 18.5811 29.2954 18.5811 29.2954 18.5529C29.1825 18.327 29.0977 18.0728 29.013 17.8469C28.9848 17.7339 28.9565 17.5927 28.9283 17.4798C28.9001 17.3668 28.8718 17.2256 28.8718 17.0844C28.8718 17.0562 28.9001 16.9997 28.9283 16.9997C28.9565 16.9715 28.9565 16.9715 28.9848 16.9997Z" fill="#51661E"/>
<path d="M31.8652 16.4633C31.9499 16.5763 32.0064 16.6892 32.0911 16.8304C32.1476 16.9434 32.204 17.0846 32.2605 17.1975C32.3735 17.4517 32.4582 17.7058 32.5147 17.9882C32.5147 18.0165 32.4864 18.073 32.4582 18.073C32.43 18.073 32.4017 18.073 32.4017 18.0447C32.2323 17.8188 32.1193 17.5646 32.0064 17.3105C31.9499 17.1975 31.8934 17.0563 31.8652 16.9151C31.8087 16.7739 31.7804 16.661 31.7522 16.5198C31.7522 16.4915 31.7804 16.4351 31.8087 16.4351C31.8369 16.4351 31.8369 16.4351 31.8652 16.4633Z" fill="#51661E"/>
<path d="M34.3504 16.1244C34.4069 16.2374 34.4634 16.3503 34.5199 16.4915C34.5763 16.6045 34.6046 16.7457 34.6328 16.8869C34.6893 17.1411 34.774 17.3952 34.774 17.6776V17.7059C34.774 17.7341 34.7175 17.7623 34.6893 17.7623C34.6611 17.7623 34.6328 17.7341 34.6328 17.7059V17.7341C34.4916 17.4799 34.4069 17.2258 34.3504 16.9716C34.3222 16.8304 34.2939 16.7175 34.2657 16.5763C34.2375 16.4351 34.2092 16.3221 34.2092 16.1809V16.1527C34.2092 16.1244 34.2657 16.0962 34.2939 16.0962C34.3504 16.0962 34.3504 16.0962 34.3504 16.1244Z" fill="#51661E"/>
<path d="M36.1294 15.7006C36.2141 15.7853 36.2988 15.8983 36.3835 15.983C36.4683 16.0677 36.5248 16.1807 36.6095 16.2936C36.7507 16.5196 36.8636 16.7172 36.9483 16.9714C36.9483 16.9996 36.9483 17.0561 36.8919 17.0561C36.8636 17.0561 36.8354 17.0561 36.8071 17.0279C36.6377 16.8584 36.4683 16.6325 36.3553 16.4348C36.2988 16.3219 36.2141 16.2089 36.1576 16.096C36.1012 15.983 36.0447 15.87 36.0164 15.7571C36.0164 15.7288 36.0164 15.6724 36.0729 15.6724C36.1012 15.6724 36.1012 15.6724 36.1294 15.7006Z" fill="#51661E"/>
<path d="M22.4899 0.733645C22.5181 1.86324 22.5463 2.99283 22.6028 4.12242C22.6311 4.68721 22.6593 5.25201 22.6875 5.81681C22.7158 6.0992 22.744 6.3816 22.7723 6.63576C22.7723 6.69224 22.8005 6.77696 22.8005 6.83344C22.8005 6.86168 22.8287 6.88992 22.8287 6.91816C22.8287 6.9464 22.857 6.97464 22.8287 6.9464C22.9417 7.00288 23.0547 7.0876 23.1958 7.14408C23.7042 7.39823 24.1842 7.65239 24.6926 7.90655C25.2009 8.13247 25.7092 8.41487 26.2175 8.5843C26.3022 8.61254 26.4152 8.58431 26.5281 8.52783C26.6411 8.47135 26.7541 8.38663 26.867 8.33015C27.0929 8.18895 27.3189 8.01951 27.5448 7.82183C27.9966 7.45471 28.392 7.0876 28.8156 6.72048C28.7591 6.77696 28.8156 6.72048 28.7873 6.72048V6.69224C28.7873 6.664 28.8156 6.63576 28.8156 6.60752C28.8438 6.55104 28.8438 6.49456 28.872 6.43808L28.9568 6.07096C29.0132 5.81681 29.0415 5.59089 29.098 5.33673L29.3521 3.84002C29.5216 2.85163 29.6628 1.86324 29.8322 0.846604C29.8322 0.818365 29.8604 0.790125 29.9169 0.790125C29.9452 0.790125 29.9734 0.818364 29.9734 0.874844C29.8322 1.86324 29.7192 2.87987 29.578 3.86826L29.3521 5.36497C29.3239 5.61913 29.2674 5.87329 29.2109 6.12744C29.1827 6.2404 29.1544 6.3816 29.1262 6.49456C29.098 6.55104 29.098 6.60752 29.0697 6.69224C29.0697 6.72048 29.0415 6.74872 29.0415 6.8052L29.0132 6.86168C28.985 6.88992 29.0132 6.88992 28.9568 6.9464C28.5332 7.31351 28.1096 7.70887 27.686 8.07599C27.4601 8.24543 27.2341 8.44311 27.0082 8.5843C26.8953 8.66902 26.7541 8.75374 26.6411 8.81022C26.5846 8.83846 26.4999 8.8667 26.4152 8.89494C26.3869 8.89494 26.3305 8.92318 26.274 8.92318C26.2457 8.92318 26.2175 8.92318 26.1893 8.92318C26.161 8.92318 26.161 8.92318 26.1328 8.89494C25.8504 8.81022 25.5962 8.69726 25.3421 8.55607C25.0879 8.44311 24.8338 8.30191 24.5796 8.18895C24.0713 7.93479 23.563 7.68063 23.0547 7.42647C22.9417 7.36999 22.8005 7.28527 22.6875 7.20056C22.6028 7.11584 22.6028 7.0876 22.5746 7.05936C22.5463 7.03112 22.5463 6.97464 22.5463 6.9464C22.5181 6.86168 22.5181 6.8052 22.5181 6.72048C22.4899 6.43808 22.4616 6.15568 22.4334 5.87329C22.4051 5.30849 22.3769 4.74369 22.3769 4.1789C22.3487 3.04931 22.3487 1.91972 22.3769 0.790125C22.3769 0.761885 22.4051 0.733645 22.4334 0.733645C22.4616 0.648925 22.4899 0.677165 22.4899 0.733645Z" fill="#51661E"/>
<path d="M29.1544 6.74882C29.6909 7.34185 30.2557 7.96313 30.8205 8.49968C31.1029 8.78208 31.4135 9.06448 31.7242 9.26216C31.7524 9.2904 31.8089 9.31864 31.8371 9.31864L31.9501 9.34688C32.0348 9.34688 32.1195 9.34688 32.2042 9.31864C32.3737 9.26216 32.5714 9.20568 32.7408 9.09272C33.4186 8.7256 34.0963 8.21729 34.6611 7.68073C34.887 7.39833 35.0282 7.00298 35.1977 6.63586C35.3389 6.26874 35.4801 5.87338 35.6213 5.50627L35.6495 5.47803L35.6777 5.50627C35.593 5.90162 35.4801 6.29698 35.3671 6.69234C35.2259 7.0877 35.1129 7.45481 34.8588 7.82193C34.5764 8.13257 34.2658 8.38672 33.9269 8.64088C33.588 8.89504 33.2774 9.12096 32.882 9.31864C32.6843 9.40336 32.4866 9.48808 32.289 9.54456C32.176 9.5728 32.0631 9.60104 31.9501 9.5728C31.8936 9.5728 31.8371 9.54456 31.7807 9.51632C31.7242 9.48808 31.6959 9.45984 31.6395 9.4316C31.2723 9.20568 30.9899 8.92328 30.7075 8.61264C30.1427 8.01961 29.6344 7.39833 29.1544 6.72058V6.69234C29.1261 6.72058 29.1544 6.72058 29.1544 6.74882Z" fill="#51661E"/>
<path d="M17.9432 3.1058C17.9997 3.47291 18.0844 3.84003 18.1691 4.20715C18.2538 4.57426 18.3385 4.94138 18.4515 5.3085C18.6492 6.01449 18.9033 6.74873 19.3269 7.34176C19.5246 7.62416 19.8352 7.85008 20.1459 8.04776C20.2871 8.13248 20.4565 8.2172 20.626 8.30192C20.7954 8.3584 20.9648 8.41488 21.106 8.41488C21.2472 8.38664 21.4167 8.27368 21.5579 8.16072C21.6991 8.04776 21.8403 7.9348 21.9815 7.7936C22.2639 7.53944 22.518 7.25704 22.7722 7.00289C22.8004 6.97465 22.8287 6.97465 22.8569 7.00289C22.8851 7.03113 22.8851 7.05937 22.8569 7.08761C22.631 7.39824 22.3768 7.68064 22.0944 7.96304C21.9532 8.10424 21.812 8.2172 21.6708 8.3584C21.5014 8.47135 21.3602 8.61255 21.1343 8.66903C20.8801 8.69727 20.7107 8.64079 20.513 8.55607C20.3153 8.47135 20.1459 8.38664 19.9764 8.30192C19.6376 8.10424 19.3269 7.85008 19.0728 7.53944C18.8468 7.2288 18.6774 6.86169 18.5362 6.49457C18.395 6.12745 18.282 5.76034 18.1973 5.39322C17.9997 4.65898 17.8867 3.89651 17.8302 3.13404C17.8302 3.1058 17.8585 3.07756 17.8867 3.04932C17.9149 3.04932 17.9432 3.07756 17.9432 3.1058Z" fill="#51661E"/>
<path d="M14.6675 6.43833C14.5828 6.83369 14.5263 7.20081 14.498 7.59616C14.4416 7.96328 14.4133 8.35864 14.4416 8.72575C14.4698 8.89519 14.498 9.09287 14.5828 9.17759C14.6957 9.29055 14.8652 9.37527 15.0346 9.45999C15.3735 9.62943 15.7406 9.74239 16.1077 9.82711C16.2771 9.88359 16.4748 9.94007 16.6725 9.96831C16.8419 9.99654 17.0679 10.053 17.2091 10.053C17.2373 10.053 17.322 9.99655 17.3785 9.94007C17.4632 9.88359 17.5197 9.82711 17.5762 9.77063C17.7174 9.62943 17.8586 9.51647 17.9715 9.37527C18.2257 9.09287 18.4799 8.81047 18.734 8.49984C18.847 8.35864 18.9599 8.1892 19.0729 8.01976C19.1576 7.85032 19.2706 7.68088 19.2423 7.51144C19.2423 7.51144 19.2423 7.4832 19.2706 7.4832C19.2706 7.4832 19.2988 7.4832 19.2988 7.51144C19.3553 7.70912 19.2423 7.9068 19.1858 8.10448C19.1011 8.27392 18.9882 8.44336 18.9034 8.6128C18.6775 8.92343 18.4516 9.23407 18.1975 9.54471C18.0563 9.68591 17.9433 9.82711 17.8021 9.96831C17.7174 10.0248 17.6609 10.1095 17.5762 10.166C17.5479 10.1942 17.4915 10.2225 17.435 10.2507C17.4067 10.2789 17.3785 10.2789 17.3503 10.3072C17.2938 10.3354 17.2655 10.3354 17.2373 10.3354C17.0114 10.3354 16.8137 10.3072 16.616 10.2507C16.4183 10.2225 16.2207 10.166 16.0512 10.1095C15.6841 9.99654 15.317 9.88359 14.9499 9.71415C14.7804 9.62943 14.5828 9.51647 14.4416 9.37527C14.2721 9.17759 14.2721 8.95167 14.2439 8.75399C14.2439 7.96328 14.4416 7.20081 14.6675 6.46657C14.6675 6.43833 14.6675 6.43833 14.6957 6.43833C14.724 6.43833 14.6675 6.41009 14.6675 6.43833Z" fill="#51661E"/>
<path d="M17.2935 10.1941C17.2087 10.7589 17.124 11.3237 17.0393 11.8885L16.7569 13.5829L16.4745 15.249C16.3898 15.8138 16.2768 16.3786 16.2203 16.9152C16.2203 16.9434 16.1921 16.9716 16.1356 16.9716C16.1074 16.9716 16.0791 16.9434 16.0791 16.9152C16.0791 16.3221 16.1639 15.7573 16.2203 15.1925C16.3051 14.6277 16.3898 14.0629 16.4745 13.4981C16.5875 12.9334 16.6722 12.3686 16.7851 11.832C16.8981 11.2672 17.0111 10.7306 17.1523 10.1659C17.1523 10.1376 17.2087 10.1094 17.237 10.1094C17.2652 10.1094 17.2935 10.1659 17.2935 10.1941Z" fill="#51661E"/>
<path d="M21.0775 8.52767C21.0493 9.26191 20.9928 9.99614 20.9645 10.7304L20.7951 12.9048L20.5974 15.0793C20.541 15.8135 20.4562 16.5478 20.3715 17.2538C20.3715 17.282 20.3433 17.3102 20.2868 17.3102C20.2586 17.3102 20.2303 17.282 20.2303 17.2538C20.2586 16.5195 20.315 15.7853 20.3433 15.0511L20.5127 12.8766L20.7104 10.7021C20.7669 9.9679 20.8516 9.23367 20.9363 8.52767C20.9363 8.49943 20.9645 8.47119 21.021 8.47119C21.0493 8.47119 21.0775 8.49943 21.0775 8.52767Z" fill="#51661E"/>
<path d="M26.3018 8.6971C26.443 9.4031 26.5842 10.0809 26.7254 10.7868L27.1208 12.8766L27.4879 14.9663C27.6009 15.6723 27.7138 16.3783 27.7985 17.0843C27.7985 17.1126 27.7703 17.169 27.7421 17.169C27.7138 17.169 27.6856 17.1408 27.6573 17.1126C27.5162 16.4066 27.375 15.7288 27.2338 15.0228L26.8384 12.9331L26.4713 10.8433C26.3583 10.1373 26.2454 9.43134 26.1606 8.72534C26.1606 8.6971 26.1889 8.64062 26.2171 8.64062C26.2736 8.64062 26.3018 8.66886 26.3018 8.6971Z" fill="#51661E"/>
<path d="M32.2043 9.45988C32.4867 9.99644 32.7691 10.5048 33.0233 11.0413L33.814 12.651C34.0681 13.1875 34.3223 13.7241 34.5482 14.2606C34.8024 14.7972 35.0283 15.362 35.2542 15.8986C35.2825 15.9268 35.2542 15.9833 35.226 15.9833C35.1977 15.9833 35.1695 15.9833 35.1413 15.955C34.8589 15.4185 34.5765 14.9102 34.3223 14.3736C34.0681 13.837 33.814 13.3005 33.5316 12.7639L32.7691 11.1543C32.515 10.6177 32.289 10.0529 32.0631 9.51636C32.0349 9.48812 32.0631 9.43164 32.0914 9.43164C32.1478 9.43164 32.1761 9.43164 32.2043 9.45988Z" fill="#51661E"/>
<path d="M14.4979 9.26189L14.046 10.3068C13.9048 10.6456 13.7354 11.0128 13.6224 11.3516C13.4813 11.6905 13.3401 12.0576 13.2271 12.3965C13.1141 12.7636 13.0012 13.1025 12.9447 13.4696C12.9447 13.4979 12.9165 13.5261 12.86 13.5261C12.8317 13.5261 12.8035 13.4979 12.8035 13.4696C12.8035 13.0743 12.8882 12.7071 12.9729 12.3118C13.0577 11.9447 13.1989 11.5775 13.3401 11.2104C13.4813 10.8433 13.6507 10.5044 13.8201 10.1656C13.9896 9.82668 14.1872 9.4878 14.3849 9.17717C14.4132 9.14893 14.4414 9.14893 14.4696 9.14893C14.4979 9.17717 14.4979 9.23365 14.4979 9.26189Z" fill="#51661E"/>
<path d="M34.7738 7.76555C35.1127 8.10442 35.4233 8.47154 35.734 8.83866C36.0446 9.20577 36.327 9.60113 36.5812 9.99649C36.8636 10.3918 37.1177 10.7872 37.3436 11.2108C37.5696 11.6344 37.7955 12.058 37.9367 12.5098C37.9367 12.5098 37.9367 12.5381 37.9084 12.5381C37.9084 12.5381 37.8802 12.5381 37.8802 12.5098C37.852 12.3969 37.7672 12.3122 37.7108 12.1992C37.6543 12.0862 37.5978 12.0015 37.5131 11.8886C37.4001 11.6909 37.2589 11.4932 37.1177 11.2955L36.327 10.1094L35.5081 8.95162C35.2257 8.55626 34.9715 8.1609 34.6891 7.76555V7.7373C34.7456 7.7373 34.7456 7.73731 34.7738 7.76555Z" fill="#51661E"/>
<path d="M7.46583 13.1591C7.46583 12.566 6.98576 12.0859 6.39272 12.0859C5.79969 12.0859 5.31961 12.566 5.31961 13.1591C5.31961 13.7521 5.79969 14.2322 6.39272 14.2322C6.98576 14.2322 7.46583 13.7521 7.46583 13.1591Z" fill="#E8BAD3"/>
<path d="M1.70512 12.6509C1.70512 12.8486 1.56392 12.9898 1.39448 12.9898C1.22504 12.9898 1.08385 12.8203 1.08385 12.6509C1.08385 12.4814 1.22504 12.312 1.39448 12.312C1.56392 12.312 1.70512 12.4532 1.70512 12.6509Z" fill="black"/>
<path d="M4.38785 12.5098C4.38785 12.7075 4.24664 12.8487 4.07721 12.8487C3.90777 12.8487 3.76657 12.6792 3.76657 12.5098C3.76657 12.3403 3.90777 12.1709 4.07721 12.1709C4.24664 12.1709 4.38785 12.3121 4.38785 12.5098Z" fill="black"/>
<path d="M17.9994 17.2538C17.9994 17.2538 15.2319 19.7389 14.1305 20.9532C13.001 22.1393 12.9445 24.3984 13.0857 24.7091C13.1986 25.0197 14.1588 23.8337 14.1588 23.8337C14.1588 23.8337 14.1305 25.2174 14.4129 25.2456C14.6953 25.2739 15.4861 24.3984 15.4861 24.3984C15.4861 24.3984 15.6837 25.4998 15.9944 25.4998C16.4462 25.4998 17.6605 23.3536 18.7901 22.9582C19.4961 22.7323 22.8002 21.5745 23.7603 20.0778C24.7205 18.5811 25.0593 15.6441 23.2802 14.8816C21.7835 14.1756 19.2419 14.2039 17.9994 17.2538Z" fill="#A8CA5D"/>
<path d="M36.1578 13.0463C35.0282 12.4815 32.5431 12.6792 31.5829 15.0513C30.6227 17.4235 33.362 20.2192 34.5198 21.2076C35.6777 22.196 35.9318 24.0881 36.2142 24.4552C36.5249 24.8223 37.2309 23.3256 37.2309 23.3256C37.2309 23.3256 37.4285 24.0881 37.8804 24.2857C38.3322 24.4834 38.3322 22.8455 38.3322 22.8455C38.3322 22.8455 39.2076 23.8621 39.5465 23.6645C39.8854 23.4386 40.3655 21.7159 39.9419 20.191C39.6595 19.0614 37.0614 16.4351 36.8073 16.0397C36.5813 15.6444 37.0614 15.3337 37.0614 14.7972C37.1179 13.837 36.4684 13.2157 36.1578 13.0463Z" fill="#A8CA5D"/>
<path d="M0.490716 15.136C0.716634 15.0795 0.942555 14.9383 1.16847 14.7971C1.39439 14.6559 1.64855 14.5429 1.90271 14.4865C2.0439 14.4582 2.1851 14.43 2.3263 14.4582H2.72166C2.97582 14.4582 3.22997 14.4582 3.51237 14.4582C3.76653 14.4582 4.02069 14.43 4.27485 14.4017C4.52901 14.3735 4.75493 14.317 4.98084 14.2041C5.20676 14.0911 5.3762 13.9217 5.5174 13.724C5.6586 13.5263 5.71508 13.2721 5.7998 13.018L5.82804 12.9897L5.85627 13.018C5.82803 13.2721 5.77156 13.5545 5.6586 13.8087C5.54564 14.0629 5.34796 14.2605 5.0938 14.4017C4.61373 14.6841 4.04893 14.7124 3.51237 14.7406C3.25821 14.7406 2.97582 14.7406 2.72166 14.7406L2.3263 14.7124C2.1851 14.7124 2.10038 14.7124 1.95918 14.7124C1.70503 14.7406 1.47911 14.8536 1.25319 14.9665L0.886075 15.136C0.773116 15.1925 0.631915 15.2489 0.490716 15.2207C0.462476 15.2207 0.462479 15.1925 0.462479 15.1925C0.462479 15.1642 0.490716 15.136 0.490716 15.136Z" fill="#6D842F"/>
<path d="M14.2998 15.9831C14.2716 15.6442 14.2151 15.3054 14.1304 14.9665C13.961 14.4017 13.6503 13.9216 13.1985 13.5262C13.0008 13.3568 12.7467 13.2156 12.4643 13.2439C12.2666 13.2721 12.0124 13.3851 12.0124 13.611C12.0124 13.6674 12.0689 13.6957 12.1254 13.6957C12.2948 13.6674 12.4078 13.5262 12.6055 13.5827C12.8031 13.6392 13.0008 13.8086 13.142 14.0063C13.3679 14.3452 13.5091 14.797 13.5939 15.1924C13.7068 15.6442 13.7633 16.1243 13.7915 16.5761C13.8198 16.7456 13.848 16.9715 13.7068 17.0845C13.5091 17.2257 13.255 17.1127 13.0573 17.1127C12.8596 17.1409 12.7467 17.3951 12.9443 17.5081C13.4809 17.8469 14.2998 17.5928 14.3846 16.915C14.3846 16.6044 14.3281 16.2655 14.2998 15.9831Z" fill="#3F522A"/>
<path d="M24.6921 15.8983C24.2967 14.9664 23.5342 14.4298 22.5458 14.3169C21.6422 14.2039 20.6255 14.2604 19.8631 14.797C19.4677 15.0794 19.1571 15.4747 18.8182 15.8418C18.4793 16.2372 18.0275 16.6325 17.8015 17.1126C17.6886 17.3103 17.9427 17.508 18.1122 17.3668C18.4511 17.0561 18.677 16.6325 18.9594 16.2654C19.2135 15.9548 19.4959 15.6159 19.8066 15.3335C20.4561 14.797 21.3598 14.7122 22.1787 14.8252C23.0259 14.9382 23.7601 15.3335 24.099 16.1525C24.2685 16.5478 24.3249 16.9714 24.2967 17.395C24.2685 17.8469 24.3532 18.3552 24.3249 18.8353C24.3249 19.0047 24.5509 18.8917 24.5509 18.8917C24.918 18.5529 24.9462 17.8469 24.9462 17.395C24.9462 16.8585 24.8897 16.3501 24.6921 15.8983Z" fill="#3F522A"/>
<path d="M37.6261 14.6274C37.5696 14.2038 37.4284 13.8085 37.146 13.4696C36.6094 12.7636 35.6493 12.453 34.8021 12.5094C33.136 12.5659 31.6392 13.752 31.2439 15.3899C31.0462 16.2371 31.0745 17.5361 31.6392 18.2421C31.724 18.3268 31.9499 18.1856 31.9499 18.1856C31.8369 17.8468 31.6392 17.282 31.5828 16.9148C31.5263 16.5477 31.5263 16.1524 31.611 15.757C31.7522 15.051 32.0911 14.4015 32.6559 13.9214C33.6725 13.046 35.4799 12.7071 36.44 13.8367C36.6659 14.1191 36.8354 14.458 36.8354 14.8251C36.8354 15.2769 36.2988 15.7852 37.3437 16.6324C37.3437 16.6324 37.739 16.463 37.4566 15.8982C37.3719 15.7005 37.5131 15.4746 37.5696 15.2487C37.6261 15.051 37.6543 14.8533 37.6261 14.6274Z" fill="#3F522A"/>
<path d="M4.04875 9.17719C4.04875 9.14895 4.02051 9.12071 4.02051 9.09247C3.99227 9.036 3.93579 8.97952 3.87931 8.95128C3.85107 8.95128 3.82283 8.92304 3.79459 8.92304C3.73811 8.8948 3.65339 8.8948 3.59692 8.92304H3.56868C3.54044 8.92304 3.54043 8.92304 3.5122 8.95128C3.48396 8.95128 3.48396 8.95128 3.45572 8.97952L3.42748 9.00775C3.42748 9.00775 3.42748 9.00775 3.39924 9.00775C3.371 9.03599 3.34276 9.03599 3.31452 9.06423L3.25804 9.14895C3.2298 9.17719 3.2298 9.20543 3.2298 9.23367C3.2298 9.26191 3.2298 9.26191 3.2298 9.29015C3.2298 9.34663 3.2298 9.37487 3.2298 9.43135C3.25804 9.48783 3.28628 9.54431 3.31452 9.57255L3.34276 9.60079C3.371 9.62903 3.42748 9.65727 3.45572 9.65727C3.48396 9.65727 3.48396 9.65727 3.5122 9.65727C3.54043 9.65727 3.54044 9.65727 3.56868 9.65727C3.56868 9.65727 3.56868 9.65727 3.59692 9.65727H3.62516C3.6534 9.65727 3.68163 9.65727 3.73811 9.62903H3.76636C3.82284 9.62903 3.85108 9.60079 3.90755 9.57255C3.96403 9.54431 3.99227 9.51607 4.02051 9.45959C4.04875 9.40311 4.07699 9.37487 4.07699 9.31839C4.07699 9.29015 4.07699 9.23367 4.04875 9.17719Z" fill="#8CA840"/>
<path d="M5.65868 9.12094C5.63044 9.00798 5.54572 8.92326 5.461 8.86678C5.40452 8.83855 5.3198 8.81031 5.23508 8.81031C5.20684 8.81031 5.1786 8.78207 5.1786 8.78207C5.09388 8.75383 5.00916 8.75383 4.95268 8.72559C4.8962 8.72559 4.83972 8.72559 4.78324 8.72559C4.69852 8.72559 4.61381 8.78207 4.55733 8.86678C4.50085 8.9515 4.52909 9.03622 4.55733 9.12094C4.64205 9.29038 4.81149 9.40334 4.98092 9.45982C5.12212 9.5163 5.3198 9.5163 5.48924 9.45982C5.54572 9.43158 5.63044 9.40334 5.65868 9.31862C5.65868 9.29038 5.68692 9.26214 5.68692 9.26214C5.68692 9.20566 5.68692 9.14918 5.65868 9.12094Z" fill="#8CA840"/>
<path d="M5.94088 9.37507V9.40331C5.96912 9.71395 6.39272 9.71395 6.42096 9.40331V9.37507C6.4492 9.06443 5.91264 9.06443 5.94088 9.37507Z" fill="#8CA840"/>
<path d="M17.2934 19.5694C17.2934 19.5412 17.2934 19.4847 17.2934 19.4847C17.2934 19.4565 17.2651 19.4282 17.2651 19.4L17.2369 19.3717L17.2087 19.3435C17.1522 19.287 17.1239 19.287 17.0392 19.2588C17.011 19.2588 16.9827 19.2588 16.9545 19.2588C16.9263 19.2588 16.8698 19.2588 16.8698 19.2588C16.8415 19.2588 16.8415 19.2588 16.8133 19.287C16.8133 19.287 16.7851 19.287 16.7851 19.3153C16.7568 19.3153 16.7286 19.3435 16.7286 19.3717C16.7003 19.4 16.7003 19.4282 16.6721 19.4282C16.6439 19.4565 16.6156 19.4565 16.5874 19.4847C16.5309 19.5129 16.4744 19.5694 16.4462 19.6259C16.4179 19.6824 16.3897 19.7389 16.3615 19.8236C16.3332 19.8801 16.3332 19.9365 16.3615 19.993C16.3615 20.0213 16.3897 20.0777 16.4179 20.106C16.4462 20.1342 16.4744 20.1625 16.5027 20.1907C16.5591 20.2189 16.6156 20.2472 16.6721 20.2472C16.7568 20.2472 16.8415 20.2189 16.898 20.1907C16.9545 20.1625 17.011 20.1625 17.0392 20.1342C17.0957 20.106 17.1239 20.0777 17.1804 20.0495C17.2087 20.0213 17.2369 19.993 17.2651 19.9648C17.2934 19.9083 17.3499 19.8518 17.3499 19.7953C17.2651 19.6541 17.2651 19.6259 17.2934 19.5694C17.2934 19.5977 17.2934 19.5977 17.2934 19.5694Z" fill="#8CA840"/>
<path d="M18.1122 18.9766C18.084 18.8636 17.9993 18.7789 17.9145 18.7507C17.8581 18.7224 17.8016 18.7224 17.7451 18.7507L17.6604 18.7789C17.6321 18.7789 17.6039 18.8072 17.6039 18.8354C17.6039 18.8354 17.6039 18.8636 17.5757 18.8636C17.5474 18.8919 17.5192 18.9201 17.5192 18.9766C17.4909 19.0048 17.4909 19.0613 17.4909 19.0896C17.4909 19.1178 17.4909 19.1743 17.5192 19.2025C17.5192 19.2307 17.5474 19.2872 17.5757 19.3155C17.6039 19.3437 17.6039 19.3437 17.6321 19.3719C17.6886 19.4002 17.7451 19.4002 17.7733 19.4002C17.8016 19.4002 17.8298 19.4002 17.8581 19.4002C17.9145 19.3719 17.9428 19.3719 17.9993 19.3155C17.9993 19.3155 18.0275 19.3155 18.0275 19.2872C18.0557 19.259 18.0557 19.259 18.084 19.2307C18.1122 19.2025 18.1122 19.1743 18.1122 19.146C18.1122 19.0895 18.1122 19.0331 18.1122 18.9766Z" fill="#8CA840"/>
<path d="M18.1971 19.7674C18.1971 19.7392 18.1971 19.7392 18.1971 19.7109C18.1971 19.6827 18.1689 19.6827 18.1689 19.6545C18.1689 19.6262 18.1407 19.598 18.1124 19.598C18.1124 19.598 18.0842 19.5697 18.0559 19.5697C18.0277 19.5697 17.9995 19.5415 17.9712 19.5415C17.943 19.5415 17.943 19.5415 17.9147 19.5415C17.8865 19.5415 17.8865 19.5697 17.8583 19.5697C17.83 19.5697 17.8018 19.598 17.8018 19.6262C17.7735 19.6545 17.7735 19.6827 17.7735 19.7109C17.7735 19.7392 17.7735 19.7392 17.7735 19.7674C17.7735 19.7957 17.7735 19.8521 17.7735 19.8804C17.7735 19.9086 17.8018 19.9651 17.83 19.9933C17.8583 19.9933 17.8583 20.0216 17.8865 20.0216C17.9147 20.0498 17.9712 20.0498 17.9995 20.0498C18.0277 20.0498 18.0559 20.0498 18.0842 20.0216C18.1124 20.0216 18.1407 19.9933 18.1689 19.9651C18.1971 19.9369 18.2254 19.9086 18.2254 19.8521C18.1971 19.8521 18.1971 19.7957 18.1971 19.7674Z" fill="#8CA840"/>
<path d="M19.2985 17.395C18.9596 17.395 18.9596 17.9316 19.2985 17.9316C19.6656 17.9033 19.6656 17.395 19.2985 17.395Z" fill="#8CA840"/>
<path d="M33.362 17.621C33.3337 17.5362 33.3055 17.4798 33.249 17.4233C33.1925 17.3668 33.1643 17.3386 33.1078 17.3386C33.0513 17.3103 33.0231 17.3103 32.9666 17.3386C32.9948 17.3386 32.9384 17.3386 32.9101 17.3386C32.8819 17.3386 32.9101 17.3386 32.8819 17.3668C32.8536 17.3668 32.8254 17.395 32.8254 17.395C32.7407 17.4233 32.6842 17.4515 32.656 17.5362C32.656 17.5362 32.656 17.5645 32.6277 17.5645C32.5995 17.5927 32.5995 17.6492 32.5712 17.6774C32.5712 17.7339 32.543 17.7622 32.543 17.8186C32.543 17.8469 32.543 17.8469 32.543 17.8751C32.543 17.9316 32.543 17.9598 32.5712 17.9881C32.5995 18.0163 32.5995 18.0728 32.6277 18.101C32.656 18.1293 32.6842 18.1858 32.7124 18.214C32.7124 18.2422 32.7407 18.2422 32.7689 18.2705C32.8254 18.327 32.8536 18.3552 32.9101 18.3552C32.9666 18.3834 32.9948 18.3834 33.0513 18.3552C33.1078 18.3552 33.136 18.327 33.1925 18.327C33.249 18.2987 33.2772 18.2422 33.3055 18.214C33.3902 18.0163 33.4184 17.7904 33.362 17.621Z" fill="#8CA840"/>
<path d="M34.2372 18.8352C34.209 18.7787 34.1808 18.7223 34.1525 18.694C34.1243 18.6658 34.096 18.6658 34.096 18.6375C34.0396 18.6093 33.9831 18.5811 33.9266 18.5811C33.8701 18.5811 33.8419 18.5811 33.7854 18.6093C33.7572 18.6093 33.7007 18.6375 33.6724 18.6658C33.6442 18.694 33.616 18.7223 33.616 18.7787C33.5877 18.807 33.5877 18.8635 33.5877 18.9199C33.5877 18.9482 33.5877 18.9764 33.5877 19.0047C33.616 19.0611 33.6442 19.1176 33.6724 19.1459C33.7007 19.1741 33.7289 19.1741 33.7289 19.2023C33.7854 19.2306 33.8419 19.2588 33.8984 19.2588C33.9548 19.2588 33.9831 19.2588 34.0396 19.2306C34.0678 19.2306 34.1243 19.2023 34.1525 19.1741C34.1808 19.1458 34.209 19.1176 34.209 19.0611C34.2372 19.0329 34.2372 18.9764 34.2372 18.9199C34.2655 18.8917 34.2372 18.8635 34.2372 18.8352Z" fill="#8CA840"/>
<path d="M34.9999 19.5981C34.9999 19.5698 34.9717 19.5133 34.9435 19.4851C34.9152 19.4569 34.887 19.4286 34.8305 19.4286C34.8023 19.4004 34.7458 19.4004 34.7175 19.4004C34.6893 19.4004 34.6611 19.4004 34.6328 19.4004C34.5763 19.4286 34.5199 19.4569 34.4916 19.4851C34.4634 19.5133 34.4634 19.5416 34.4351 19.5416C34.4069 19.5981 34.3787 19.6545 34.3787 19.711C34.3787 19.7675 34.3787 19.7957 34.4069 19.824C34.4069 19.8522 34.4351 19.9087 34.4634 19.9369C34.4916 19.9652 34.5199 19.9934 34.5763 19.9934C34.6046 20.0217 34.6611 20.0217 34.6893 20.0217C34.7175 20.0217 34.7458 20.0217 34.774 20.0217C34.8305 19.9934 34.887 19.9652 34.9152 19.9369C34.9435 19.9087 34.9435 19.8805 34.9717 19.8805C34.9999 19.824 35.0282 19.7675 35.0282 19.711C35.0282 19.6828 35.0282 19.6263 34.9999 19.5981Z" fill="#8CA840"/>
<path d="M34.4914 18.2422C34.4914 18.214 34.4914 18.214 34.4914 18.2422C34.4914 18.214 34.4631 18.214 34.4631 18.1857C34.4349 18.1575 34.4349 18.1292 34.4066 18.1292C34.3784 18.101 34.3784 18.101 34.3502 18.101C34.3219 18.0728 34.2937 18.0728 34.2654 18.0728C34.2372 18.0728 34.209 18.0728 34.209 18.0728C34.1807 18.0728 34.1807 18.101 34.1525 18.101C34.1242 18.1292 34.096 18.1292 34.096 18.1575C34.0678 18.1857 34.0678 18.214 34.0395 18.2422C34.0395 18.2987 34.0395 18.3269 34.0395 18.3834C34.0395 18.4116 34.0678 18.4681 34.096 18.4964C34.1242 18.4964 34.1242 18.5246 34.1525 18.5246C34.1807 18.5528 34.2372 18.5528 34.2654 18.5528C34.2937 18.5528 34.3219 18.5528 34.3502 18.5246C34.3784 18.5246 34.4066 18.4964 34.4349 18.4681C34.4631 18.4399 34.4914 18.4116 34.4914 18.3552C34.5196 18.3269 34.5196 18.2704 34.4914 18.2422Z" fill="#8CA840"/>
<path d="M39.292 13.8652C39.292 13.8088 39.292 13.8088 39.2637 13.7805C39.2637 13.7805 39.2637 13.7805 39.2637 13.7523L39.2355 13.724C39.2355 13.724 39.2355 13.724 39.2072 13.724H39.179C39.1508 13.724 39.1225 13.6958 39.1225 13.6958C39.1225 13.6958 39.0943 13.6958 39.066 13.6958C39.066 13.6958 39.0661 13.6958 39.0378 13.6958H39.0096C38.9813 13.6958 38.9813 13.6958 38.9813 13.724C38.9813 13.724 38.9531 13.724 38.9531 13.7523C38.9249 13.7805 38.9249 13.8088 38.8966 13.8088L38.8684 13.837C38.8684 13.8652 38.8401 13.8652 38.8401 13.8935V13.9217C38.8401 13.95 38.8401 13.95 38.8684 13.9782L38.8966 14.0064L38.9248 14.0347C38.9531 14.0347 38.9531 14.0629 38.9813 14.0629C39.0096 14.0629 39.0096 14.0629 39.0378 14.0629C39.0661 14.0629 39.0943 14.0629 39.0943 14.0347C39.0943 14.0347 39.0943 14.0347 39.1225 14.0347C39.1225 14.0347 39.1225 14.0347 39.1508 14.0347H39.179L39.2072 14.0064C39.2072 14.0064 39.2072 14.0064 39.2072 13.9782L39.2355 13.95C39.2355 13.9217 39.2355 13.9217 39.2637 13.8935C39.292 13.8935 39.292 13.8935 39.292 13.8652Z" fill="#8CA840"/>
<path d="M39.8003 13.4414C39.405 13.4414 39.405 14.0627 39.8003 14.0627C40.1957 14.0627 40.1957 13.4414 39.8003 13.4414Z" fill="#8CA840"/>
<path d="M41.1278 13.1875C41.1278 13.1593 41.0996 13.1028 41.0713 13.0745C41.0431 13.0745 41.0431 13.0463 41.0149 13.0463C40.9866 13.0181 40.9301 13.0181 40.9019 13.0181C40.8737 13.0181 40.8454 13.0181 40.8172 13.0463C40.7889 13.0463 40.7607 13.0745 40.7325 13.1028C40.7042 13.131 40.7042 13.1593 40.676 13.1875C40.6477 13.2157 40.6477 13.244 40.6477 13.2722C40.6477 13.3005 40.6477 13.3287 40.6477 13.3287C40.6477 13.3569 40.676 13.4134 40.7042 13.4417C40.7325 13.4417 40.7325 13.4699 40.7607 13.4699C40.7889 13.4981 40.8454 13.4981 40.8737 13.4981C40.9019 13.4981 40.9301 13.4981 40.9584 13.4699C40.9866 13.4699 41.0149 13.4417 41.0431 13.4134C41.0713 13.3852 41.0713 13.3569 41.0996 13.3287C41.1278 13.3005 41.1278 13.2722 41.1278 13.244C41.1278 13.244 41.1278 13.2157 41.1278 13.1875Z" fill="#8CA840"/>
<path d="M39.6028 14.2324C39.4334 14.2324 39.4334 14.4866 39.6028 14.4866C39.744 14.4583 39.744 14.2324 39.6028 14.2324Z" fill="#8CA840"/>
<path d="M15.4294 20.8686C15.4294 20.8403 15.4011 20.8121 15.3729 20.7839C15.3729 20.7556 15.3447 20.7556 15.3164 20.7274C15.2882 20.6991 15.2882 20.6991 15.2599 20.6991C15.2317 20.6991 15.2035 20.6709 15.1752 20.6709C15.147 20.6709 15.0905 20.6709 15.0623 20.6709C15.034 20.6709 15.034 20.6709 15.0058 20.6709C14.9775 20.6709 14.9493 20.6991 14.9211 20.6991C14.8928 20.7274 14.8646 20.7274 14.8363 20.7556C14.8081 20.7556 14.8081 20.7839 14.7799 20.7839C14.7516 20.8121 14.7234 20.8403 14.7234 20.8686C14.6951 20.9251 14.6951 20.9533 14.6951 21.0098C14.6951 21.038 14.6951 21.0663 14.6951 21.0945C14.6951 21.1227 14.7234 21.1792 14.7516 21.2075C14.7516 21.2357 14.7799 21.2357 14.8081 21.2639C14.8363 21.2922 14.8646 21.3204 14.9211 21.3204C14.9775 21.3487 15.034 21.3204 15.0905 21.3204C15.0905 21.3204 15.0905 21.3204 15.1187 21.3204C15.147 21.3204 15.1752 21.2922 15.2035 21.2922C15.2317 21.2922 15.2317 21.2639 15.2599 21.2639C15.2882 21.2357 15.3164 21.2357 15.3447 21.2075C15.3729 21.1792 15.4011 21.151 15.4011 21.1227C15.4011 21.0945 15.4294 21.0945 15.4294 21.0663C15.4294 21.038 15.4576 21.0098 15.4576 21.0098C15.4576 20.9815 15.4576 20.9533 15.4576 20.9251C15.4294 20.9251 15.4294 20.8968 15.4294 20.8686Z" fill="#8CA840"/>
<path opacity="0.15" d="M16.5309 8.55594C16.3897 8.47122 16.1921 8.41474 16.0226 8.33002C15.9379 8.30178 15.8532 8.2453 15.7685 8.18882C15.7685 8.16058 15.7402 8.16058 15.7402 8.13234C15.712 8.07586 15.712 7.99114 15.6838 7.93466C15.6838 7.82171 15.6555 7.73699 15.6555 7.62403C15.6555 7.65227 15.6555 7.70875 15.6838 7.73699C15.6838 7.65227 15.6555 7.56755 15.6555 7.51107C15.6273 7.28515 15.4578 7.05923 15.1754 7.11571C15.0625 7.14395 14.9778 7.20043 14.9213 7.31339C14.893 7.34163 14.893 7.39811 14.8648 7.42635C14.8083 7.53931 14.7801 7.65227 14.7518 7.76523C14.7236 7.87819 14.7236 8.01938 14.7236 8.13234C14.7236 8.30178 14.7801 8.44298 14.8366 8.61242C14.9495 8.83834 15.1472 9.03602 15.3731 9.17722C15.4861 9.2337 15.5708 9.29017 15.6838 9.31841C15.825 9.37489 15.9662 9.45961 16.1356 9.48785C16.2768 9.51609 16.418 9.51609 16.5309 9.43137C16.6157 9.37489 16.7004 9.29017 16.7569 9.17722C16.8416 8.9513 16.7569 8.69714 16.5309 8.55594Z" fill="#576C2E"/>
<path opacity="0.15" d="M21.1342 6.91804C21.1059 6.8898 21.0494 6.86156 21.0212 6.86156C20.993 6.86156 20.993 6.86156 20.9647 6.83332C20.9365 6.83332 20.9082 6.80508 20.9082 6.80508C20.8235 6.72036 20.7388 6.66388 20.6823 6.57916C20.6258 6.52268 20.5976 6.49444 20.5694 6.43796C20.5694 6.43796 20.5129 6.35324 20.5411 6.40972C20.5976 6.4662 20.5129 6.38148 20.5129 6.38148C20.4564 6.29676 20.3717 6.1838 20.3152 6.07085C20.2022 5.87317 20.0893 5.64725 20.0046 5.44957C20.0046 5.42133 19.9763 5.39309 19.9763 5.36485C19.9481 5.30837 19.9481 5.25189 19.9198 5.19541C19.8634 5.05421 19.8351 4.91301 19.7504 4.80006C19.6374 4.63062 19.2986 4.5459 19.1856 4.80006C19.1009 4.96949 19.1009 5.11069 19.1009 5.30837C19.1009 5.47781 19.1291 5.64725 19.1574 5.78845C19.2138 6.09909 19.3268 6.38148 19.468 6.66388C19.6092 6.94628 19.8069 7.20044 20.0046 7.42635C20.1175 7.53931 20.2305 7.68051 20.3999 7.76523C20.5129 7.84995 20.6541 7.87819 20.7953 7.87819C20.993 7.87819 21.1059 7.79347 21.2471 7.68051C21.5013 7.48283 21.3883 7.05924 21.1342 6.91804Z" fill="#576C2E"/>
<path opacity="0.15" d="M27.9117 3.95298C27.4881 4.15066 27.1775 4.4613 26.8668 4.77194C26.6127 4.99786 26.3021 5.30849 25.9349 5.25201C25.2007 5.13905 24.6641 4.54602 24.3817 3.8965C24.1841 3.47291 23.5346 3.52939 23.3369 3.8965C23.3086 3.95298 23.2804 4.00946 23.2522 4.09418C23.1957 4.12242 23.1392 4.1789 23.111 4.26362C22.885 4.96962 23.111 5.84505 23.6758 6.32513C23.9581 6.57928 24.297 6.77696 24.6077 6.9464C24.9465 7.14408 25.3137 7.45472 25.709 7.53944C26.1326 7.62416 26.528 7.42648 26.8668 7.17232C27.1775 6.9464 27.4599 6.72048 27.714 6.43809C28.1941 5.90153 28.5612 5.28025 28.7871 4.57426C28.9001 4.06594 28.3353 3.75531 27.9117 3.95298Z" fill="#576C2E"/>
<path opacity="0.15" d="M33.5312 5.7323C33.2206 5.81702 32.9382 6.01469 32.6558 6.15589C32.6275 6.15589 32.571 6.18413 32.5428 6.18413C32.5428 6.18413 32.5428 6.18413 32.5146 6.18413C32.4863 6.18413 32.4581 6.18413 32.4298 6.18413H32.4016C32.4016 6.18413 32.3451 6.15589 32.3169 6.15589C32.2886 6.15589 32.2322 6.12765 32.2322 6.12765C32.2039 6.09941 32.1474 6.07117 32.1192 6.07117C31.978 5.98646 31.8368 5.90174 31.6956 5.81702C31.6956 5.81702 31.6674 5.81702 31.6674 5.78878C31.6391 5.76054 31.6109 5.7323 31.5826 5.70406C31.5544 5.67582 31.5544 5.67582 31.5544 5.67582C31.5262 5.64758 31.5262 5.61934 31.4979 5.5911C31.4697 5.56286 31.4697 5.53462 31.4414 5.47814C31.4132 5.42166 31.4132 5.33694 31.385 5.28046V5.25222C31.385 5.1675 31.385 5.11102 31.3567 5.0263C31.3285 4.91334 31.3003 4.82862 31.2438 4.7439C31.1873 4.57447 30.9614 4.48975 30.7919 4.48975C30.5943 4.48975 30.4531 4.60271 30.3401 4.7439C30.1989 4.94158 30.1707 5.19574 30.1989 5.42166C30.1707 5.53462 30.1707 5.64758 30.1424 5.76054C30.1142 6.04293 30.1424 6.32533 30.2554 6.60773C30.4813 7.08781 31.0461 7.3702 31.4414 7.6526C31.6674 7.82204 31.9215 8.01972 32.1757 8.10444C32.5146 8.2174 32.8534 8.10444 33.1076 7.85028C33.4747 7.48316 33.8136 7.00309 34.0678 6.55125C34.3784 6.12765 33.983 5.5911 33.5312 5.7323Z" fill="#576C2E"/>
<path opacity="0.15" d="M31.4135 11.5777C30.764 11.6059 30.2274 12.0013 29.8603 12.4813C29.6908 12.7355 29.5496 12.9896 29.4367 13.272C29.4084 13.1026 29.3802 12.9332 29.352 12.7637C29.239 12.1425 29.0696 11.5494 28.8719 10.9564C28.7872 10.674 28.5048 10.5045 28.2224 10.5893C28.1659 10.6175 28.1094 10.6175 28.0812 10.674C27.4317 10.7022 27.1775 11.3517 27.2905 11.9165C27.3469 12.1707 27.4599 12.4249 27.5164 12.679C27.6011 12.9332 27.6576 13.2156 27.7141 13.4697C27.827 14.0345 27.94 14.5993 28.1941 15.1359C28.3353 15.4183 28.4765 15.7007 28.7872 15.8136C29.0413 15.8983 29.352 15.8701 29.6344 15.8701C29.9732 15.8701 30.2839 15.8701 30.5098 15.6159C30.7075 15.39 30.7075 15.0794 30.7922 14.797C30.9052 14.3734 31.1311 13.978 31.4135 13.6674C31.5547 13.498 31.7241 13.3568 31.9218 13.2438C32.1759 13.0744 32.4866 12.9049 32.5713 12.5661C32.769 11.8883 31.9783 11.5494 31.4135 11.5777Z" fill="#576C2E"/>
<path opacity="0.15" d="M26.2735 12.3687C26.1888 11.9451 26.1041 11.5215 26.0194 11.1261C25.9629 10.7872 25.5393 10.6743 25.2569 10.8155C24.7768 11.0696 24.3532 11.1543 23.8731 10.9849C23.4213 10.8437 22.9412 10.4766 22.5176 10.1942C22.1505 9.94004 21.7269 10.3072 21.6987 10.6743C21.6704 11.0132 21.6704 11.352 21.6987 11.6627C21.6422 11.9733 21.614 12.2557 21.5857 12.5663C21.5575 12.9052 21.5857 13.2441 21.8399 13.47C22.1223 13.7242 22.5176 13.7524 22.8847 13.7524C23.1389 13.7524 23.3931 13.7806 23.619 13.8936C23.8731 14.0066 24.0708 14.1478 24.2403 14.3454C24.4379 14.5714 24.6638 14.7973 24.9745 14.882C25.8217 15.1079 26.3018 14.2325 26.3582 13.5265C26.4147 13.1311 26.33 12.7358 26.2735 12.3687Z" fill="#576C2E"/>
<path opacity="0.15" d="M19.6656 10.4482C19.4396 10.2223 19.1008 10.1941 18.8184 10.2788C18.3383 10.42 18.0559 10.8718 17.9429 11.3519C17.83 11.8885 17.8017 12.425 17.7453 12.9616C17.717 13.2157 17.717 13.4981 17.6888 13.7523C17.6888 14.0912 17.6323 14.4583 17.8865 14.6842C18.0276 14.8254 18.2253 14.8536 18.3948 14.7689C18.5077 14.8254 18.5924 14.8536 18.7336 14.8254C19.242 14.7972 19.6091 14.3453 19.7503 13.8935C19.8632 13.4981 19.8632 13.0463 19.8632 12.6509C19.8632 12.1709 19.8632 11.6908 19.8632 11.2107C19.8632 10.9283 19.8632 10.6459 19.6656 10.4482Z" fill="#576C2E"/>
<path opacity="0.15" d="M16.1355 10.8715C15.8531 10.7021 15.5143 10.7303 15.2601 10.928C14.9777 11.1257 14.8648 11.4363 14.8365 11.7752C14.8365 11.8881 14.8083 12.0011 14.8083 12.1141C14.7236 12.3682 14.6671 12.6224 14.6106 12.8765C14.5541 13.1307 14.4694 13.3849 14.4129 13.639C14.3564 13.9214 14.3 14.232 14.4129 14.5144C14.5259 14.7968 14.78 14.9663 15.0907 14.9945C15.4295 15.0228 15.6837 14.7968 15.8249 14.4862C15.9943 14.0344 16.1073 13.5543 16.192 13.1025C16.305 12.5094 16.3897 11.9164 16.4179 11.3233C16.3897 11.1257 16.2767 10.9562 16.1355 10.8715Z" fill="#576C2E"/>
<path opacity="0.15" d="M36.6658 11.6059C36.1857 10.7869 35.5645 10.081 34.8585 9.45968C34.802 9.4032 34.7173 9.37496 34.6608 9.34672C34.5761 9.29024 34.4913 9.23376 34.3784 9.20552C34.0113 9.09256 33.5312 9.4032 33.5312 9.82679C33.5312 9.93975 33.5594 10.0245 33.6442 10.1092C33.6442 10.1374 33.6442 10.1374 33.6442 10.1657C33.6442 10.2786 33.6442 10.3633 33.6724 10.4763C33.7006 10.6175 33.7289 10.7869 33.7571 10.9281C33.8418 11.267 34.0113 11.6341 34.2372 11.8883C34.3784 12.0577 34.6043 12.1425 34.8302 12.1425C34.9714 12.1425 35.1126 12.1142 35.2821 12.1142C35.3668 12.1142 35.4515 12.1142 35.508 12.1142C35.508 12.1142 35.508 12.1142 35.5362 12.1142C35.5645 12.1142 35.6209 12.1425 35.6492 12.1425C35.7339 12.1707 35.7904 12.1707 35.8751 12.1989C35.8751 12.1989 35.9033 12.1989 35.9316 12.2272C35.9598 12.2272 36.0163 12.2554 36.0163 12.2837C36.214 12.3684 36.4681 12.3684 36.6093 12.1989C36.7505 12.0295 36.7788 11.8036 36.6658 11.6059Z" fill="#576C2E"/>
</svg>
