<svg width="390" height="147" viewBox="0 0 390 147" fill="none" xmlns="http://www.w3.org/2000/svg">
<defs>
<radialGradient id="paint0_radial_292_8410" cx="0" cy="0" r="1" gradientUnits="userSpaceOnUse" gradientTransform="translate(195 65.9004) rotate(90) scale(80.9484 214.982)">
<stop stop-color="#64BD78" stop-opacity="0.42"/>
<stop offset="1" stop-color="#64BD78" stop-opacity="0.06"/>
</radialGradient>
<radialGradient id="paint1_radial_292_8410" cx="0" cy="0" r="1" gradientUnits="userSpaceOnUse" gradientTransform="translate(195 65.9004) rotate(90) scale(80.9484 214.982)">
<stop stop-color="#64BD78" stop-opacity="0.42"/>
<stop offset="1" stop-color="#64BD78" stop-opacity="0.06"/>
</radialGradient>
<radialGradient id="paint2_radial_292_8410" cx="0" cy="0" r="1" gradientUnits="userSpaceOnUse" gradientTransform="translate(195 65.9004) rotate(90) scale(80.9484 214.982)">
<stop stop-color="#64BD78" stop-opacity="0.42"/>
<stop offset="1" stop-color="#64BD78" stop-opacity="0.06"/>
</radialGradient>
<radialGradient id="paint3_radial_292_8410" cx="0" cy="0" r="1" gradientUnits="userSpaceOnUse" gradientTransform="translate(195 65.9004) rotate(90) scale(80.9484 214.982)">
<stop stop-color="#64BD78" stop-opacity="0.42"/>
<stop offset="1" stop-color="#64BD78" stop-opacity="0.06"/>
</radialGradient>
<radialGradient id="paint4_radial_292_8410" cx="0" cy="0" r="1" gradientUnits="userSpaceOnUse" gradientTransform="translate(195 65.9004) rotate(90) scale(80.9484 214.982)">
<stop stop-color="#64BD78" stop-opacity="0.42"/>
<stop offset="1" stop-color="#64BD78" stop-opacity="0.06"/>
</radialGradient>
<radialGradient id="paint5_radial_292_8410" cx="0" cy="0" r="1" gradientUnits="userSpaceOnUse" gradientTransform="translate(195 65.9004) rotate(90) scale(80.9484 214.982)">
<stop stop-color="#64BD78" stop-opacity="0.42"/>
<stop offset="1" stop-color="#64BD78" stop-opacity="0.06"/>
</radialGradient>
<radialGradient id="paint6_radial_292_8410" cx="0" cy="0" r="1" gradientUnits="userSpaceOnUse" gradientTransform="translate(195 65.9004) rotate(90) scale(80.9484 214.982)">
<stop stop-color="#64BD78" stop-opacity="0.42"/>
<stop offset="1" stop-color="#64BD78" stop-opacity="0.06"/>
</radialGradient>
<radialGradient id="paint7_radial_292_8410" cx="0" cy="0" r="1" gradientUnits="userSpaceOnUse" gradientTransform="translate(195 65.9004) rotate(90) scale(80.9484 214.982)">
<stop stop-color="#64BD78" stop-opacity="0.42"/>
<stop offset="1" stop-color="#64BD78" stop-opacity="0.06"/>
</radialGradient>
<radialGradient id="paint8_radial_292_8410" cx="0" cy="0" r="1" gradientUnits="userSpaceOnUse" gradientTransform="translate(195 65.9004) rotate(90) scale(80.9484 214.982)">
<stop stop-color="#64BD78" stop-opacity="0.42"/>
<stop offset="1" stop-color="#64BD78" stop-opacity="0.06"/>
</radialGradient>
<radialGradient id="paint9_radial_292_8410" cx="0" cy="0" r="1" gradientUnits="userSpaceOnUse" gradientTransform="translate(195 65.9004) rotate(90) scale(80.9484 214.982)">
<stop stop-color="#64BD78" stop-opacity="0.42"/>
<stop offset="1" stop-color="#64BD78" stop-opacity="0.06"/>
</radialGradient>
<radialGradient id="paint10_radial_292_8410" cx="0" cy="0" r="1" gradientUnits="userSpaceOnUse" gradientTransform="translate(195 65.9004) rotate(90) scale(80.9484 214.982)">
<stop stop-color="#64BD78" stop-opacity="0.42"/>
<stop offset="1" stop-color="#64BD78" stop-opacity="0.06"/>
</radialGradient>
<radialGradient id="paint11_radial_292_8410" cx="0" cy="0" r="1" gradientUnits="userSpaceOnUse" gradientTransform="translate(195 65.9004) rotate(90) scale(80.9484 214.982)">
<stop stop-color="#64BD78" stop-opacity="0.42"/>
<stop offset="1" stop-color="#64BD78" stop-opacity="0.06"/>
</radialGradient>
<radialGradient id="paint12_radial_292_8410" cx="0" cy="0" r="1" gradientUnits="userSpaceOnUse" gradientTransform="translate(195 65.9004) rotate(90) scale(80.9484 214.982)">
<stop stop-color="#64BD78" stop-opacity="0.42"/>
<stop offset="1" stop-color="#64BD78" stop-opacity="0.06"/>
</radialGradient>
</defs>
<path d="M164.758 115.697C164.879 115.808 164.999 115.928 165.099 116.049C166.053 117.139 166.525 118.636 166.404 120.161C166.284 121.695 165.571 123.1 164.447 124.024C163.092 125.133 161.406 125.567 159.57 125.299C158.105 125.086 156.891 124.67 155.867 124.042C155.646 124.218 155.425 124.384 155.215 124.541C154.562 125.049 153.88 125.567 153.288 126.121C150.207 129.014 146.885 132.193 143.132 135.834C142.741 136.213 142.389 136.675 142.048 137.109C141.958 137.22 141.868 137.34 141.777 137.451C142.7 138.338 143.132 139.484 143.132 141.046C143.132 142.672 142.63 144.031 141.597 145.195C141.125 145.722 140.523 146.11 139.75 146.359C138.154 146.886 136.679 146.988 135.244 146.664C134.251 146.442 133.327 145.962 132.585 145.269C131.611 144.372 131.029 143.227 130.949 142.053C130.929 141.711 130.959 141.388 130.999 141.064C130.829 141.092 130.648 141.11 130.467 141.12C129.012 141.194 127.597 140.694 126.584 139.761C125.991 139.216 125.55 138.523 125.309 137.774C124.938 136.591 124.868 135.381 125.098 134.18C125.52 132.026 127.547 130.4 130.126 130.132C131.792 129.956 133.337 130.363 135.134 131.426L135.144 131.435C137.793 129.698 147.899 120.189 149.474 117.934C149.434 117.869 149.384 117.804 149.344 117.74C149.123 117.416 148.902 117.074 148.702 116.723C147.568 114.736 147.497 112.814 148.511 111.012C149.284 109.645 150.518 108.674 152.003 108.286C153.599 107.87 155.365 108.129 156.991 109.025C157.382 109.238 157.744 109.497 158.065 109.792C159.349 110.975 159.931 112.694 159.65 114.422C161.457 114.025 163.474 114.515 164.758 115.697ZM156.128 122.508C156.178 122.517 156.238 122.536 156.298 122.564C156.419 122.619 156.519 122.674 156.62 122.739C157.533 123.312 158.587 123.682 159.831 123.848C161.206 124.033 162.54 123.663 163.514 122.832C164.437 122.037 164.889 120.919 164.778 119.699C164.738 119.209 164.628 118.673 164.447 118.109C164.267 117.536 163.986 117.065 163.594 116.705C163.524 116.64 163.444 116.575 163.363 116.511C162.209 115.642 160.393 115.55 159.058 116.28C158.938 116.344 158.827 116.391 158.737 116.427C158.707 116.437 158.677 116.455 158.647 116.464C158.486 116.529 158.306 116.529 158.155 116.446C158.065 116.4 157.994 116.344 157.924 116.289C157.533 115.928 157.703 115.522 157.774 115.346L157.784 115.309C158.105 114.478 158.205 113.738 158.095 113.027C157.954 112.149 157.603 111.447 157.001 110.892C156.479 110.412 155.787 110.042 154.873 109.765C153.519 109.358 152.445 109.654 151.783 109.977C150.789 110.458 149.986 111.336 149.695 112.269C149.264 113.637 149.434 114.94 150.207 116.15C150.438 116.511 150.679 116.88 150.909 117.222C151.271 117.758 151.361 118.146 150.839 118.756L150.618 119.024C150.107 119.634 149.585 120.253 149.023 120.835C147.919 121.972 146.755 123.118 145.581 124.245C143.824 125.927 142.028 127.6 140.503 129.014C139.178 130.243 137.582 131.666 135.776 132.895C135.365 133.182 134.953 133.172 134.542 132.886C133.006 131.805 131.571 131.407 130.026 131.647C128.249 131.925 126.935 133.043 126.674 134.494C126.493 135.51 126.564 136.499 126.875 137.432C127.035 137.922 127.316 138.347 127.708 138.708C128.681 139.604 130.136 139.891 131.411 139.428C131.541 139.382 131.682 139.318 131.822 139.253C131.892 139.216 131.963 139.188 132.033 139.16C132.183 139.096 132.344 139.096 132.494 139.16C132.605 139.207 132.695 139.271 132.775 139.336C133.157 139.687 132.976 140.103 132.896 140.288L132.886 140.306C132.525 141.138 132.444 141.831 132.635 142.496C132.826 143.162 133.207 143.763 133.729 144.243C134.441 144.899 135.375 145.287 136.358 145.324C137.171 145.361 138.034 145.232 138.757 145.093C139.68 144.927 140.372 144.428 140.884 143.541C141.386 142.681 141.576 141.702 141.506 140.463C141.456 139.595 141.095 138.874 140.412 138.246L140.382 138.218C140.141 137.996 139.921 137.617 140.222 137.054C140.653 136.24 141.255 135.473 142.118 134.632C144.015 132.793 145.942 130.964 147.578 129.42C147.859 129.152 148.14 128.884 148.421 128.626L148.561 128.487C150.046 127.073 151.592 125.613 153.147 124.199C153.649 123.746 154.211 123.358 154.753 122.989C154.984 122.832 155.235 122.656 155.476 122.48C155.656 122.351 155.907 122.342 156.108 122.462L156.128 122.508Z" fill="url(#paint0_radial_292_8410)"/>
<path d="M92.7544 106.124C92.5938 106.179 92.4332 106.235 92.2626 106.281C90.7975 106.66 89.1115 106.475 87.6363 105.782C86.1511 105.079 85.0271 103.924 84.5454 102.612C83.9734 101.032 84.1942 99.4332 85.1776 97.9824C85.9704 96.8272 86.8535 95.9586 87.8872 95.3394C87.7969 95.0899 87.7166 94.8404 87.6363 94.5909C87.3854 93.8424 87.1345 93.0661 86.8134 92.3453C85.1275 88.6027 83.2508 84.5459 81.0832 79.9346C80.8524 79.454 80.5413 78.9735 80.2302 78.5114C80.1499 78.3913 80.0696 78.2712 79.9893 78.1511C78.7449 78.5854 77.4303 78.5022 75.8748 77.8923C74.2491 77.2547 73.085 76.3028 72.3223 74.9629C71.9811 74.3622 71.8305 73.6969 71.8807 72.9391C71.9811 71.3774 72.4527 70.0928 73.3358 69.0024C73.948 68.2539 74.791 67.6624 75.7744 67.2928C77.0489 66.8215 78.4238 66.7753 79.628 67.1634C79.9793 67.2743 80.2904 67.4314 80.6015 67.5885C80.6416 67.4314 80.6918 67.2743 80.752 67.1172C81.2538 65.8604 82.2975 64.8532 83.6322 64.3634C84.4149 64.0769 85.2679 63.966 86.121 64.0584C87.4456 64.2063 88.69 64.6129 89.804 65.2875C91.791 66.4888 92.6239 68.8361 91.8713 71.1371C91.3896 72.6157 90.386 73.7708 88.6198 74.8797L88.6097 74.889C89.3022 77.8091 94.8518 90.0997 96.4875 92.3176C96.5678 92.3084 96.6481 92.2991 96.7284 92.2806C97.1398 92.2252 97.5613 92.1697 98.0029 92.1328C100.431 91.948 102.378 92.6503 103.783 94.212C104.847 95.4041 105.329 96.8272 105.138 98.2411C104.927 99.7566 103.974 101.152 102.449 102.178C102.077 102.427 101.676 102.631 101.254 102.788C99.5684 103.416 97.6316 103.231 96.0058 102.316C95.7148 103.971 94.4403 105.495 92.7544 106.124ZM89.3323 96.1434C89.3022 96.1804 89.262 96.2266 89.2119 96.2635C89.1115 96.3467 89.0112 96.4114 88.9108 96.4668C87.9775 97.0213 87.2048 97.7698 86.5424 98.7586C85.8199 99.8491 85.6593 101.124 86.121 102.279C86.5525 103.379 87.4958 104.192 88.7603 104.58C89.2721 104.738 89.8441 104.848 90.4864 104.922C91.1286 104.996 91.7107 104.941 92.2225 104.747C92.3229 104.71 92.4132 104.673 92.5035 104.627C93.8181 103.98 94.621 102.492 94.4202 101.069C94.4002 100.949 94.4002 100.829 94.4002 100.736C94.4002 100.708 94.4002 100.672 94.4002 100.644C94.3901 100.487 94.4704 100.33 94.6109 100.237C94.6912 100.182 94.7715 100.136 94.8618 100.108C95.3736 99.923 95.7148 100.219 95.8654 100.348L95.8955 100.376C96.5979 100.976 97.3004 101.355 98.0531 101.54C98.9864 101.771 99.8293 101.734 100.612 101.448C101.295 101.198 101.937 100.745 102.569 100.08C103.502 99.0913 103.633 98.0655 103.573 97.3817C103.482 96.3467 102.92 95.3302 102.097 94.711C100.903 93.8146 99.5283 93.445 98.0129 93.6206C97.5613 93.676 97.0997 93.7407 96.6682 93.7962C95.9858 93.8886 95.5743 93.8146 95.1528 93.14L94.9722 92.8536C94.5607 92.1882 94.1493 91.4951 93.788 90.7928C93.0855 89.4067 92.3931 87.9835 91.7308 86.5419C90.7373 84.398 89.7738 82.2171 88.9509 80.3689C88.2384 78.7702 87.4456 76.8573 86.9238 74.852C86.8034 74.3899 86.9639 74.048 87.4155 73.817C89.1015 72.9391 90.0548 71.8764 90.4161 70.4717C90.8376 68.8545 90.2355 67.302 88.8807 66.5166C87.9374 65.9621 86.9238 65.6387 85.86 65.537C85.3081 65.4816 84.7762 65.5555 84.2544 65.7403C82.9698 66.2116 82.1168 67.339 82.0867 68.5958C82.0867 68.7252 82.0968 68.873 82.1068 69.0116C82.1168 69.0856 82.1168 69.1503 82.1168 69.2242C82.1269 69.372 82.0566 69.5107 81.9362 69.6123C81.8459 69.6862 81.7455 69.7417 81.6452 69.7787C81.1434 69.9635 80.8022 69.64 80.6517 69.5107L80.6416 69.5014C79.9592 68.8638 79.2868 68.5311 78.5442 68.4295C77.8116 68.337 77.0489 68.4202 76.3665 68.6697C75.4232 69.0209 74.6806 69.6585 74.2591 70.4717C73.9079 71.1463 73.6971 71.9226 73.5466 72.5972C73.3459 73.4381 73.5867 74.2236 74.2591 75.0091C74.9214 75.7669 75.8246 76.3213 77.0891 76.7372C77.9722 77.0329 78.8453 77.0144 79.7284 76.6817L79.7685 76.6632C80.0796 76.5431 80.5413 76.5061 80.9929 76.9774C81.6351 77.6613 82.167 78.4745 82.6688 79.528C83.7626 81.8567 84.8364 84.2039 85.7396 86.2C85.9002 86.5419 86.0507 86.8839 86.2113 87.2258L86.2916 87.4014C87.1245 89.2126 87.9775 91.0885 88.7803 92.9645C89.0413 93.5651 89.2018 94.1935 89.3624 94.7942C89.4326 95.0437 89.5029 95.3302 89.5832 95.5982C89.6434 95.8015 89.5531 96.0233 89.3524 96.1341L89.3323 96.1434Z" fill="url(#paint1_radial_292_8410)"/>
<path d="M182.341 83.2151C182.22 83.326 182.09 83.4276 181.949 83.5293C180.745 84.3887 179.109 84.7953 177.464 84.6659C175.798 84.5273 174.282 83.8527 173.299 82.7993C172.125 81.5332 171.673 79.9807 172.004 78.2896C172.265 76.9404 172.737 75.8315 173.439 74.9074C173.259 74.7041 173.078 74.5008 172.907 74.2975C172.376 73.6876 171.824 73.0592 171.222 72.5047C168.131 69.6215 164.739 66.5073 160.855 62.9864C160.444 62.6168 159.962 62.2841 159.49 61.9607C159.37 61.8775 159.239 61.7943 159.119 61.7112C158.135 62.5428 156.891 62.9217 155.195 62.894C153.429 62.8663 151.964 62.3857 150.709 61.4154C150.147 60.9719 149.736 60.4082 149.475 59.6966C148.933 58.218 148.853 56.8596 149.224 55.5474C149.485 54.6417 150.017 53.8008 150.789 53.117C151.783 52.2391 153.027 51.7216 154.302 51.6661C154.673 51.6476 155.024 51.6846 155.376 51.7308C155.356 51.5737 155.335 51.4074 155.325 51.241C155.275 49.9011 155.837 48.6073 156.861 47.6925C157.463 47.1565 158.216 46.7591 159.039 46.5558C160.323 46.2324 161.638 46.1862 162.952 46.4264C165.281 46.8515 167.007 48.7459 167.258 51.1301C167.418 52.6642 166.956 54.078 165.762 55.7229L165.752 55.7322C167.589 58.1996 177.745 67.6624 180.163 69.1594C180.233 69.1225 180.304 69.0855 180.374 69.0486C180.735 68.8545 181.106 68.6512 181.488 68.4756C183.665 67.4591 185.753 67.4406 187.69 68.4017C189.165 69.1317 190.188 70.2961 190.59 71.6638C191.011 73.1331 190.7 74.7688 189.707 76.2473C189.466 76.6077 189.175 76.9312 188.854 77.2269C187.539 78.3913 185.673 78.8995 183.796 78.6038C184.207 80.1933 183.645 82.0507 182.341 83.2151ZM175.095 75.1569C175.085 75.2031 175.065 75.2585 175.025 75.314C174.965 75.4249 174.894 75.5173 174.834 75.6097C174.192 76.4414 173.781 77.4025 173.57 78.5484C173.339 79.8051 173.72 81.0527 174.614 81.9583C175.467 82.827 176.671 83.2613 177.995 83.1781C178.527 83.1504 179.119 83.0488 179.732 82.9009C180.354 82.753 180.876 82.4943 181.277 82.1339C181.347 82.0692 181.418 81.9953 181.488 81.9214C182.451 80.8679 182.582 79.2045 181.809 77.9662C181.739 77.8553 181.688 77.7536 181.658 77.6705C181.648 77.6427 181.628 77.615 181.618 77.5873C181.548 77.4394 181.558 77.2731 181.648 77.1345C181.699 77.0513 181.759 76.9866 181.829 76.9312C182.22 76.58 182.662 76.7371 182.853 76.811L182.893 76.8295C183.786 77.1437 184.599 77.2454 185.361 77.1622C186.325 77.0513 187.088 76.7371 187.69 76.1919C188.222 75.7206 188.633 75.083 188.944 74.2513C189.416 73.013 189.105 72.0242 188.763 71.405C188.262 70.4809 187.318 69.7324 186.315 69.4459C184.84 69.0208 183.415 69.1594 182.09 69.8525C181.688 70.0558 181.287 70.2776 180.916 70.4809C180.324 70.8044 179.912 70.8783 179.25 70.3977L178.969 70.1944C178.317 69.7139 177.654 69.2241 177.022 68.6974C175.808 67.6624 174.573 66.5719 173.379 65.4723C171.583 63.8274 169.797 62.1455 168.291 60.7131C166.977 59.4748 165.461 57.9778 164.157 56.2959C163.856 55.9078 163.866 55.5381 164.197 55.1592C165.401 53.7638 165.853 52.4516 165.612 51.0192C165.341 49.3743 164.147 48.1453 162.571 47.8865C161.477 47.7017 160.393 47.7479 159.37 48.0251C158.838 48.1638 158.366 48.4225 157.975 48.7737C156.981 49.6608 156.65 50.9915 157.132 52.1744C157.182 52.2945 157.252 52.4239 157.312 52.5533C157.343 52.618 157.383 52.6826 157.413 52.7473C157.483 52.8859 157.473 53.0338 157.403 53.1724C157.343 53.2741 157.282 53.3572 157.202 53.4312C156.811 53.7731 156.359 53.5975 156.168 53.5236L156.148 53.5143C155.255 53.1632 154.492 53.08 153.77 53.2463C153.047 53.4127 152.385 53.7546 151.853 54.2259C151.121 54.8728 150.689 55.7229 150.629 56.6286C150.579 57.3771 150.709 58.1718 150.83 58.8464C150.99 59.6966 151.532 60.3435 152.475 60.8332C153.399 61.3045 154.452 61.5078 155.807 61.4524C156.75 61.4154 157.543 61.1012 158.236 60.4913L158.266 60.4636C158.507 60.2511 158.928 60.0478 159.53 60.3342C160.403 60.7408 161.226 61.3138 162.129 62.1178C164.086 63.9013 166.043 65.7033 167.699 67.2373C167.98 67.4961 168.271 67.764 168.552 68.0228L168.703 68.1614C170.208 69.5568 171.773 70.9984 173.279 72.4493C173.76 72.9206 174.172 73.4381 174.563 73.9463C174.734 74.1589 174.915 74.3991 175.095 74.6209C175.236 74.7873 175.246 75.0275 175.105 75.2031L175.095 75.1569Z" fill="url(#paint2_radial_292_8410)"/>
<path d="M315.231 118.217C315.331 118.346 315.421 118.475 315.512 118.614C316.254 119.834 316.465 121.386 316.084 122.865C315.702 124.362 314.749 125.646 313.474 126.386C311.949 127.273 310.213 127.458 308.437 126.922C307.022 126.487 305.898 125.905 305.005 125.129C304.764 125.268 304.513 125.397 304.272 125.526C303.539 125.924 302.777 126.34 302.094 126.802C298.552 129.204 294.718 131.847 290.373 134.887C289.911 135.211 289.49 135.608 289.078 135.987C288.968 136.089 288.868 136.19 288.757 136.292C289.51 137.309 289.741 138.501 289.47 140.035C289.189 141.643 288.456 142.909 287.232 143.907C286.68 144.36 286.018 144.646 285.205 144.785C283.539 145.071 282.064 144.951 280.709 144.424C279.765 144.064 278.943 143.445 278.32 142.65C277.518 141.624 277.146 140.404 277.267 139.24C277.307 138.898 277.387 138.584 277.487 138.27C277.317 138.27 277.136 138.26 276.956 138.242C275.51 138.094 274.196 137.401 273.363 136.329C272.871 135.701 272.56 134.961 272.45 134.176C272.289 132.956 272.43 131.746 272.871 130.59C273.664 128.53 275.942 127.227 278.541 127.347C280.217 127.421 281.672 128.049 283.258 129.361L283.268 129.371C286.188 128.049 297.819 120.157 299.766 118.161C299.736 118.087 299.706 118.023 299.676 117.949C299.515 117.597 299.355 117.228 299.214 116.849C298.441 114.723 298.712 112.811 300.027 111.184C301.02 109.946 302.415 109.179 303.951 109.013C305.597 108.837 307.303 109.354 308.748 110.482C309.099 110.75 309.41 111.064 309.671 111.406C310.735 112.764 311.006 114.539 310.424 116.211C312.26 116.082 314.167 116.858 315.231 118.217ZM305.526 123.66C305.577 123.678 305.627 123.706 305.687 123.743C305.797 123.817 305.888 123.891 305.968 123.965C306.771 124.667 307.744 125.184 308.948 125.536C310.273 125.924 311.658 125.757 312.762 125.073C313.816 124.427 314.458 123.392 314.558 122.163C314.598 121.673 314.588 121.128 314.508 120.545C314.438 119.954 314.227 119.446 313.906 119.03C313.846 118.956 313.785 118.882 313.715 118.808C312.722 117.782 310.956 117.422 309.51 117.949C309.39 117.995 309.26 118.023 309.169 118.05C309.139 118.06 309.099 118.069 309.069 118.078C308.898 118.124 308.718 118.087 308.587 117.986C308.507 117.93 308.447 117.865 308.386 117.792C308.065 117.385 308.296 117.006 308.396 116.84L308.417 116.803C308.878 116.036 309.109 115.315 309.129 114.594C309.149 113.707 308.918 112.958 308.417 112.33C307.985 111.776 307.363 111.314 306.51 110.907C305.245 110.306 304.131 110.436 303.429 110.657C302.365 110.99 301.422 111.739 300.97 112.607C300.308 113.892 300.248 115.204 300.8 116.516C300.96 116.914 301.141 117.302 301.312 117.671C301.572 118.254 301.592 118.651 300.98 119.178L300.719 119.409C300.117 119.935 299.485 120.471 298.823 120.961C297.528 121.922 296.193 122.883 294.829 123.817C292.801 125.212 290.734 126.598 288.978 127.772C287.453 128.788 285.636 129.953 283.639 130.905C283.177 131.126 282.786 131.062 282.425 130.711C281.1 129.417 279.745 128.816 278.18 128.825C276.373 128.835 274.888 129.749 274.376 131.145C274.025 132.115 273.915 133.104 274.065 134.074C274.146 134.583 274.346 135.045 274.667 135.46C275.47 136.495 276.865 136.985 278.2 136.717C278.34 136.689 278.491 136.643 278.631 136.606C278.702 136.588 278.782 136.56 278.852 136.542C279.003 136.495 279.173 136.523 279.304 136.606C279.404 136.671 279.484 136.745 279.555 136.828C279.866 137.235 279.615 137.614 279.505 137.78L279.494 137.789C278.993 138.556 278.792 139.231 278.862 139.915C278.943 140.598 279.203 141.255 279.645 141.809C280.237 142.567 281.09 143.084 282.054 143.269C282.846 143.417 283.719 143.417 284.462 143.399C285.395 143.371 286.168 142.973 286.83 142.188C287.473 141.412 287.834 140.478 287.974 139.24C288.075 138.381 287.844 137.604 287.282 136.893L287.262 136.865C287.061 136.616 286.911 136.209 287.302 135.691C287.864 134.952 288.597 134.278 289.6 133.584C291.798 132.05 294.016 130.535 295.902 129.241C296.224 129.019 296.545 128.798 296.876 128.576L297.046 128.465C298.763 127.291 300.539 126.072 302.315 124.916C302.887 124.547 303.509 124.242 304.111 123.955C304.362 123.835 304.643 123.697 304.914 123.567C305.115 123.466 305.366 123.493 305.536 123.641L305.526 123.66Z" fill="url(#paint3_radial_292_8410)"/>
<path d="M358.659 103.153C358.819 103.107 358.99 103.061 359.16 103.033C360.646 102.747 362.311 103.033 363.736 103.819C365.172 104.613 366.205 105.833 366.597 107.173C367.058 108.781 366.717 110.361 365.623 111.757C364.75 112.866 363.807 113.67 362.733 114.224C362.803 114.483 362.863 114.732 362.924 114.982C363.114 115.749 363.315 116.534 363.586 117.274C365.001 121.109 366.577 125.276 368.403 130.008C368.594 130.507 368.875 130.997 369.146 131.477C369.216 131.597 369.286 131.727 369.356 131.856C370.631 131.505 371.935 131.662 373.451 132.364C375.026 133.094 376.12 134.12 376.783 135.497C377.084 136.125 377.174 136.791 377.074 137.539C376.863 139.092 376.291 140.339 375.337 141.374C374.675 142.086 373.792 142.622 372.778 142.927C371.474 143.324 370.099 143.278 368.925 142.816C368.584 142.677 368.283 142.511 367.992 142.326C367.941 142.474 367.881 142.631 367.801 142.788C367.209 144.017 366.095 144.951 364.73 145.357C363.927 145.598 363.064 145.653 362.231 145.505C360.917 145.283 359.712 144.794 358.649 144.054C356.752 142.733 356.1 140.339 357.003 138.094C357.585 136.652 358.679 135.562 360.525 134.564C360.525 134.564 360.535 134.564 360.535 134.554C360.053 131.588 355.407 118.993 353.942 116.682C353.862 116.691 353.781 116.691 353.691 116.701C353.28 116.728 352.848 116.765 352.417 116.765C349.978 116.802 348.091 115.98 346.807 114.335C345.833 113.087 345.452 111.627 345.743 110.232C346.054 108.735 347.118 107.395 348.713 106.471C349.095 106.249 349.516 106.064 349.948 105.935C351.684 105.417 353.601 105.713 355.146 106.73C355.548 105.112 356.932 103.671 358.659 103.153ZM361.348 113.309C361.378 113.272 361.428 113.235 361.479 113.198C361.589 113.124 361.689 113.069 361.79 113.014C362.763 112.524 363.586 111.821 364.319 110.879C365.121 109.835 365.372 108.569 365.001 107.395C364.65 106.277 363.767 105.399 362.532 104.937C362.03 104.752 361.468 104.595 360.836 104.484C360.204 104.373 359.612 104.392 359.09 104.549C358.99 104.576 358.899 104.613 358.799 104.65C357.434 105.214 356.531 106.656 356.631 108.079C356.641 108.199 356.631 108.319 356.631 108.412C356.631 108.439 356.631 108.476 356.631 108.504C356.631 108.661 356.541 108.809 356.391 108.901C356.31 108.957 356.22 108.994 356.13 109.021C355.608 109.179 355.287 108.855 355.146 108.716L355.116 108.689C354.464 108.051 353.781 107.626 353.049 107.395C352.136 107.109 351.293 107.09 350.49 107.33C349.787 107.543 349.115 107.949 348.432 108.569C347.429 109.493 347.228 110.509 347.238 111.202C347.258 112.237 347.75 113.291 348.513 113.956C349.637 114.926 350.981 115.379 352.507 115.296C352.968 115.268 353.43 115.231 353.862 115.204C354.544 115.148 354.956 115.25 355.317 115.952L355.467 116.248C355.829 116.941 356.19 117.653 356.501 118.383C357.103 119.806 357.695 121.275 358.247 122.754C359.08 124.953 359.883 127.189 360.565 129.084C361.157 130.729 361.81 132.679 362.191 134.721C362.281 135.192 362.091 135.516 361.619 135.728C359.873 136.495 358.849 137.502 358.378 138.879C357.846 140.46 358.327 142.049 359.622 142.918C360.525 143.528 361.509 143.916 362.562 144.082C363.104 144.165 363.646 144.128 364.178 143.971C365.493 143.574 366.426 142.511 366.546 141.254C366.556 141.125 366.556 140.977 366.556 140.838C366.556 140.764 366.556 140.7 366.556 140.626C366.556 140.478 366.637 140.339 366.767 140.247C366.868 140.173 366.968 140.127 367.068 140.099C367.58 139.942 367.901 140.284 368.042 140.432L368.052 140.441C368.694 141.116 369.326 141.494 370.059 141.633C370.791 141.772 371.544 141.735 372.247 141.522C373.21 141.236 374.003 140.644 374.484 139.85C374.886 139.193 375.147 138.436 375.347 137.77C375.608 136.939 375.428 136.144 374.806 135.321C374.203 134.527 373.34 133.917 372.106 133.427C371.243 133.085 370.38 133.048 369.467 133.316L369.427 133.325C369.105 133.418 368.644 133.436 368.232 132.937C367.64 132.216 367.169 131.376 366.747 130.285C365.824 127.892 364.931 125.489 364.168 123.447C364.038 123.096 363.907 122.744 363.777 122.393L363.706 122.208C363.014 120.351 362.291 118.42 361.629 116.507C361.418 115.897 361.298 115.259 361.177 114.64C361.127 114.381 361.077 114.095 361.017 113.818C360.967 113.605 361.077 113.392 361.278 113.291L361.348 113.309Z" fill="url(#paint4_radial_292_8410)"/>
<path d="M357.962 78.1799C357.811 78.106 357.66 78.0228 357.52 77.9397C356.266 77.1542 355.332 75.8512 354.951 74.3634C354.57 72.8663 354.81 71.3231 355.583 70.1402C356.516 68.7171 357.992 67.8392 359.838 67.5989C361.313 67.4049 362.598 67.4696 363.782 67.8022C363.933 67.5804 364.093 67.3587 364.244 67.1461C364.705 66.49 365.187 65.8062 365.578 65.1131C367.596 61.5091 369.753 57.5724 372.182 53.0812C372.433 52.6099 372.623 52.0739 372.814 51.5657C372.864 51.4363 372.914 51.2977 372.964 51.1683C371.8 50.5677 371.028 49.5973 370.526 48.1003C370.004 46.5478 370.044 45.1154 370.666 43.72C370.947 43.0916 371.399 42.5557 372.061 42.1028C373.416 41.1695 374.791 40.6705 376.266 40.5873C377.28 40.5319 378.323 40.7444 379.257 41.1972C380.471 41.7886 381.394 42.722 381.846 43.8217C381.976 44.1359 382.057 44.4593 382.117 44.7827C382.267 44.7088 382.438 44.6441 382.608 44.5887C383.973 44.1266 385.489 44.219 386.753 44.8382C387.496 45.1986 388.138 45.7346 388.61 46.3907C389.342 47.4165 389.804 48.5531 389.964 49.7729C390.245 51.9446 388.84 54.0423 386.452 55.0034C384.917 55.6225 383.311 55.6595 381.254 55.1235L381.244 55.1235C379.267 57.4985 372.653 69.327 371.861 71.9145C371.921 71.9607 371.981 72.0162 372.041 72.0624C372.352 72.3119 372.673 72.5799 372.985 72.8571C374.711 74.4466 375.383 76.267 374.992 78.2631C374.691 79.7786 373.817 81.0447 372.523 81.8117C371.138 82.6434 369.362 82.8744 367.515 82.4585C367.074 82.3569 366.642 82.209 366.241 82.015C364.635 81.2295 363.531 79.7509 363.25 78.0136C361.655 78.873 359.567 78.9562 357.962 78.1799ZM364.033 69.3362C363.983 69.3362 363.923 69.3362 363.852 69.327C363.722 69.3085 363.601 69.2808 363.491 69.2438C362.427 68.9389 361.313 68.8834 360.069 69.0498C358.694 69.2438 357.53 69.9554 356.878 71.0181C356.245 72.0346 356.175 73.2175 356.667 74.3541C356.868 74.8162 357.149 75.2967 357.49 75.7865C357.841 76.2855 358.273 76.6552 358.754 76.8954C358.845 76.9416 358.935 76.9786 359.035 77.0156C360.42 77.5238 362.176 77.1265 363.22 76.0637C363.31 75.9713 363.401 75.8974 363.481 75.8327C363.511 75.8142 363.531 75.7958 363.551 75.768C363.682 75.6571 363.862 75.6202 364.033 75.6479C364.133 75.6664 364.224 75.7033 364.304 75.7403C364.786 75.9806 364.766 76.4149 364.745 76.5997L364.745 76.6367C364.705 77.5146 364.846 78.2539 365.177 78.9007C365.588 79.7047 366.16 80.2777 366.903 80.6381C367.555 80.9523 368.338 81.1186 369.302 81.1371C370.727 81.1648 371.65 80.5826 372.182 80.1021C372.974 79.372 373.456 78.3185 373.446 77.3482C373.426 75.9251 372.844 74.7238 371.72 73.772C371.379 73.4855 371.038 73.2082 370.707 72.9403C370.185 72.5244 369.984 72.1825 370.275 71.4524L370.405 71.1382C370.696 70.4174 370.998 69.6782 371.349 68.9758C372.041 67.5897 372.784 66.1758 373.547 64.7804C374.691 62.7012 375.875 60.6127 376.878 58.8476C377.751 57.3136 378.825 55.5209 380.15 53.8575C380.461 53.4693 380.842 53.3677 381.334 53.534C383.15 54.1532 384.646 54.1439 386.051 53.4878C387.656 52.7393 388.559 51.3162 388.349 49.8561C388.198 48.8396 387.817 47.9155 387.215 47.1023C386.904 46.6864 386.502 46.3445 386.01 46.1135C384.786 45.522 383.311 45.6422 382.237 46.4277C382.127 46.5108 382.016 46.6125 381.906 46.7049C381.846 46.7511 381.796 46.8065 381.735 46.8528C381.615 46.9544 381.454 47.0006 381.294 46.9821C381.173 46.9636 381.063 46.9359 380.963 46.8897C380.491 46.6587 380.531 46.2059 380.551 46.0118L380.551 45.9933C380.632 45.0969 380.491 44.4131 380.09 43.8309C379.688 43.2487 379.136 42.7774 378.484 42.454C377.591 42.0197 376.577 41.8995 375.624 42.1306C374.831 42.3246 374.058 42.6758 373.396 42.9992C372.573 43.4058 372.071 44.0804 371.861 45.0507C371.66 46.0026 371.78 46.9914 372.252 48.1557C372.583 48.969 373.155 49.5696 373.998 49.9762L374.038 49.9947C374.339 50.1426 374.671 50.4383 374.56 51.0574C374.41 51.9538 374.078 52.8502 373.516 53.8852C372.292 56.1585 371.028 58.4226 369.964 60.3447C369.783 60.6774 369.593 61.01 369.412 61.3335L369.322 61.5091C368.348 63.2649 367.345 65.0761 366.311 66.8412C365.98 67.4049 365.568 67.9316 365.167 68.4306C364.996 68.6432 364.816 68.8834 364.645 69.1052C364.515 69.2808 364.274 69.3547 364.053 69.2993L364.033 69.3362Z" fill="url(#paint5_radial_292_8410)"/>
<path d="M100.723 37.6013C100.572 37.5273 100.422 37.4442 100.281 37.361C99.0266 36.5755 98.0933 35.2725 97.712 33.7847C97.3306 32.2877 97.5715 30.7444 98.3442 29.5615C99.2775 28.1384 100.753 27.2605 102.599 27.0202C104.074 26.8262 105.359 26.8909 106.543 27.2236C106.694 27.0018 106.854 26.78 107.005 26.5674C107.466 25.9113 107.948 25.2275 108.339 24.5344C110.357 20.9304 112.514 16.9937 114.943 12.5025C115.194 12.0313 115.384 11.4953 115.575 10.987C115.625 10.8576 115.675 10.719 115.726 10.5896C114.561 9.98898 113.789 9.01867 113.287 7.52161C112.765 5.96912 112.805 4.53675 113.427 3.14135C113.708 2.51296 114.16 1.97698 114.822 1.52417C116.177 0.590821 117.552 0.091804 119.027 0.00863449C120.041 -0.0468119 121.084 0.165733 122.018 0.618545C123.232 1.20997 124.155 2.14332 124.607 3.243C124.737 3.5572 124.818 3.88064 124.878 4.20407C125.028 4.13015 125.199 4.06546 125.37 4.01001C126.734 3.54796 128.25 3.64037 129.514 4.25952C130.257 4.61992 130.899 5.1559 131.371 5.81202C132.103 6.83778 132.565 7.97443 132.726 9.19425C133.007 11.3659 131.602 13.4636 129.213 14.4247C127.678 15.0438 126.072 15.0808 124.015 14.5448L124.005 14.5448C121.988 16.9105 115.374 28.7298 114.582 31.3173C114.642 31.3635 114.702 31.419 114.762 31.4652C115.073 31.7147 115.394 31.9827 115.705 32.2599C117.432 33.8494 118.104 35.6699 117.713 37.666C117.412 39.1815 116.538 40.4475 115.244 41.2145C113.859 42.0462 112.083 42.2772 110.236 41.8614C109.795 41.7597 109.363 41.6119 108.962 41.4178C107.356 40.6323 106.252 39.1538 105.971 37.4164C104.416 38.2943 102.328 38.3775 100.723 37.6013ZM106.794 28.7576C106.744 28.7576 106.684 28.7576 106.613 28.7483C106.483 28.7298 106.363 28.7021 106.252 28.6652C105.188 28.3602 104.074 28.3048 102.83 28.4711C101.455 28.6652 100.291 29.3767 99.6388 30.4394C99.0065 31.456 98.9363 32.6388 99.428 33.7755C99.6287 34.2375 99.9097 34.7181 100.251 35.2078C100.602 35.7068 101.034 36.0765 101.515 36.3168C101.606 36.363 101.696 36.3999 101.796 36.4369C103.181 36.9451 104.937 36.5478 105.981 35.4851C106.071 35.3926 106.162 35.3187 106.242 35.254C106.272 35.2356 106.292 35.2171 106.312 35.1893C106.443 35.0785 106.623 35.0415 106.794 35.0692C106.894 35.0877 106.985 35.1247 107.065 35.1616C107.547 35.4019 107.527 35.8362 107.507 36.021L107.507 36.058C107.466 36.9359 107.607 37.6752 107.938 38.3221C108.35 39.126 108.922 39.699 109.664 40.0594C110.316 40.3736 111.099 40.5399 112.063 40.5584C113.488 40.5861 114.411 40.0039 114.943 39.5234C115.736 38.7934 116.217 37.7399 116.207 36.7696C116.187 35.3464 115.605 34.1451 114.481 33.1933C114.14 32.9068 113.799 32.6296 113.468 32.3616C112.946 31.9457 112.745 31.6038 113.036 30.8738L113.167 30.5596C113.458 29.8388 113.759 29.0995 114.11 28.3972C114.802 27.011 115.545 25.5971 116.308 24.2017C117.452 22.1225 118.636 20.034 119.639 18.269C120.512 16.735 121.586 14.9422 122.911 13.2788C123.222 12.8907 123.603 12.789 124.095 12.9554C125.911 13.5745 127.407 13.5653 128.812 12.9092C130.417 12.1606 131.321 10.7375 131.11 9.27742C130.959 8.2609 130.578 7.33679 129.976 6.52358C129.665 6.10773 129.263 5.76581 128.772 5.53479C127.547 4.94336 126.072 5.06349 124.998 5.84898C124.888 5.93215 124.777 6.0338 124.667 6.12621C124.607 6.17242 124.557 6.22787 124.496 6.27407C124.376 6.37572 124.216 6.42193 124.055 6.40345C123.935 6.38496 123.824 6.35724 123.724 6.31103C123.252 6.08001 123.292 5.6272 123.312 5.43313L123.312 5.41465C123.393 4.51827 123.252 3.83443 122.851 3.25225C122.449 2.67006 121.897 2.19876 121.245 1.87533C120.352 1.441 119.338 1.32086 118.385 1.55189C117.592 1.74595 116.819 2.09711 116.157 2.42055C115.334 2.82716 114.832 3.50175 114.622 4.47206C114.421 5.42389 114.541 6.41269 115.013 7.57706C115.344 8.39027 115.916 8.99094 116.759 9.39755L116.799 9.41603C117.1 9.56389 117.432 9.8596 117.321 10.4788C117.171 11.3751 116.839 12.2715 116.277 13.3065C115.053 15.5798 113.789 17.8439 112.725 19.766C112.544 20.0987 112.354 20.4314 112.173 20.7548L112.083 20.9304C111.109 22.6862 110.106 24.4974 109.072 26.2625C108.741 26.8262 108.329 27.3529 107.928 27.8519C107.757 28.0645 107.577 28.3048 107.406 28.5265C107.276 28.7021 107.035 28.7761 106.814 28.7206L106.794 28.7576Z" fill="url(#paint6_radial_292_8410)"/>
<path d="M202.17 123.044C202.05 122.924 201.95 122.804 201.849 122.674C200.956 121.538 200.565 120.022 200.755 118.507C200.956 116.982 201.739 115.605 202.913 114.736C204.318 113.692 206.024 113.332 207.85 113.683C209.305 113.969 210.49 114.431 211.483 115.106C211.714 114.949 211.935 114.783 212.156 114.635C212.838 114.163 213.54 113.674 214.163 113.147C217.394 110.393 220.876 107.371 224.82 103.906C225.232 103.545 225.613 103.102 225.974 102.677C226.065 102.566 226.165 102.455 226.255 102.344C225.382 101.411 225.011 100.256 225.091 98.6939C225.172 97.0675 225.744 95.7368 226.847 94.6186C227.339 94.1104 227.971 93.7592 228.754 93.5374C230.38 93.0846 231.855 93.0476 233.27 93.4358C234.244 93.7037 235.147 94.2213 235.859 94.9513C236.782 95.8939 237.304 97.0583 237.324 98.2319C237.334 98.5738 237.284 98.8972 237.224 99.2207C237.395 99.2022 237.575 99.1929 237.756 99.1929C239.211 99.1929 240.596 99.7474 241.559 100.727C242.121 101.3 242.523 102.002 242.723 102.769C243.035 103.961 243.045 105.181 242.744 106.373C242.212 108.508 240.104 110.033 237.505 110.19C235.829 110.282 234.314 109.82 232.568 108.674L232.558 108.665C229.818 110.273 219.22 119.32 217.525 121.501C217.565 121.566 217.605 121.63 217.645 121.704C217.846 122.037 218.046 122.388 218.237 122.748C219.271 124.781 219.231 126.704 218.117 128.459C217.274 129.79 215.989 130.705 214.484 131.019C212.868 131.361 211.112 131.019 209.536 130.058C209.155 129.827 208.804 129.55 208.503 129.236C207.278 127.988 206.797 126.26 207.168 124.541C205.382 124.855 203.395 124.282 202.17 123.044ZM211.152 116.631C211.102 116.622 211.042 116.594 210.981 116.566C210.861 116.501 210.761 116.446 210.67 116.381C209.787 115.762 208.754 115.356 207.519 115.125C206.164 114.875 204.8 115.18 203.786 115.975C202.823 116.732 202.311 117.823 202.351 119.052C202.371 119.542 202.451 120.087 202.592 120.66C202.742 121.242 203.003 121.723 203.375 122.102C203.445 122.175 203.515 122.24 203.595 122.305C204.709 123.22 206.506 123.395 207.88 122.73C208.001 122.674 208.121 122.628 208.212 122.601C208.242 122.591 208.272 122.582 208.302 122.564C208.463 122.499 208.643 122.517 208.794 122.601C208.884 122.656 208.954 122.711 209.014 122.767C209.386 123.137 209.195 123.543 209.115 123.709L209.095 123.746C208.733 124.56 208.583 125.299 208.663 126.01C208.754 126.898 209.075 127.609 209.647 128.191C210.138 128.69 210.821 129.097 211.714 129.411C213.039 129.883 214.133 129.633 214.815 129.337C215.829 128.903 216.682 128.062 217.023 127.138C217.525 125.789 217.424 124.476 216.722 123.238C216.511 122.869 216.29 122.49 216.079 122.138C215.748 121.584 215.678 121.196 216.23 120.604L216.461 120.355C217.003 119.773 217.555 119.172 218.147 118.618C219.311 117.527 220.525 116.437 221.769 115.365C223.616 113.766 225.503 112.177 227.098 110.827C228.483 109.663 230.159 108.314 232.026 107.168C232.457 106.9 232.859 106.928 233.26 107.233C234.735 108.388 236.15 108.841 237.706 108.674C239.492 108.48 240.867 107.417 241.208 105.976C241.439 104.969 241.429 103.98 241.158 103.028C241.017 102.538 240.767 102.095 240.395 101.716C239.472 100.773 238.027 100.422 236.732 100.829C236.592 100.875 236.451 100.93 236.311 100.986C236.241 101.013 236.17 101.041 236.1 101.069C235.95 101.124 235.779 101.115 235.638 101.05C235.528 100.995 235.438 100.93 235.367 100.856C235.006 100.487 235.207 100.08 235.297 99.9045L235.307 99.886C235.719 99.0728 235.829 98.3797 235.679 97.7051C235.518 97.0398 235.177 96.4114 234.675 95.9031C233.993 95.21 233.079 94.785 232.106 94.7018C231.293 94.6371 230.43 94.7203 229.697 94.8219C228.774 94.9421 228.052 95.4226 227.49 96.2728C226.948 97.1045 226.697 98.0748 226.707 99.3131C226.717 100.182 227.038 100.921 227.68 101.577L227.71 101.605C227.941 101.836 228.142 102.224 227.811 102.769C227.339 103.564 226.697 104.303 225.784 105.098C223.787 106.845 221.769 108.591 220.053 110.06C219.762 110.31 219.461 110.569 219.17 110.818L219.02 110.948C217.454 112.288 215.839 113.683 214.213 115.023C213.691 115.448 213.109 115.808 212.547 116.16C212.316 116.307 212.045 116.474 211.804 116.631C211.614 116.76 211.363 116.751 211.172 116.622L211.152 116.631Z" fill="url(#paint7_radial_292_8410)"/>
<path d="M1.4622 123.044C1.34177 122.924 1.24142 122.804 1.14107 122.674C0.247915 121.538 -0.143467 120.022 0.0472057 118.507C0.247914 116.982 1.03068 115.605 2.20482 114.736C3.60978 113.692 5.3158 113.332 7.14225 113.683C8.59738 113.969 9.78156 114.431 10.7751 115.106C11.0059 114.949 11.2267 114.783 11.4474 114.635C12.1298 114.163 12.8323 113.674 13.4545 113.147C16.6859 110.393 20.1682 107.371 24.1121 103.906C24.5236 103.545 24.9049 103.102 25.2662 102.677C25.3565 102.566 25.4569 102.455 25.5472 102.344C24.6842 101.411 24.3128 100.246 24.3931 98.6939C24.4734 97.0675 25.0454 95.7368 26.1493 94.6186C26.6411 94.1104 27.2733 93.7592 28.0561 93.5374C29.6818 93.0846 31.157 93.0476 32.572 93.4358C33.5454 93.7037 34.4486 94.2213 35.1611 94.9513C36.0844 95.8939 36.6062 97.0583 36.6263 98.2319C36.6363 98.5738 36.5862 98.8972 36.5259 99.2207C36.6965 99.2022 36.8772 99.1929 37.0578 99.1929C38.513 99.1929 39.8978 99.7474 40.8612 100.727C41.4232 101.3 41.8246 102.002 42.0254 102.769C42.3364 103.961 42.3465 105.181 42.0454 106.373C41.5135 108.508 39.4061 110.033 36.8069 110.19C35.131 110.282 33.6157 109.82 31.8695 108.674L31.8595 108.665C29.1098 110.264 18.5124 119.301 16.8164 121.482C16.8565 121.547 16.8967 121.612 16.9368 121.686C17.1375 122.018 17.3382 122.37 17.5289 122.73C18.5625 124.763 18.5224 126.685 17.4085 128.441C16.5655 129.772 15.281 130.686 13.7757 131.001C12.16 131.343 10.4038 131.001 8.82819 130.04C8.44685 129.809 8.09561 129.531 7.79455 129.217C6.57023 127.97 6.08853 126.242 6.45984 124.523C4.67353 124.855 2.68652 124.282 1.4622 123.044ZM10.4439 116.631C10.3937 116.622 10.3335 116.594 10.2733 116.566C10.1529 116.501 10.0525 116.446 9.9622 116.381C9.07908 115.762 8.04543 115.356 6.81108 115.125C5.4563 114.875 4.09148 115.18 3.0779 115.975C2.1145 116.732 1.6027 117.823 1.64284 119.052C1.66291 119.542 1.74319 120.087 1.88369 120.66C2.03422 121.242 2.29514 121.723 2.66645 122.102C2.7367 122.175 2.80695 122.24 2.88723 122.305C4.00116 123.22 5.7975 123.395 7.17235 122.73C7.29278 122.674 7.4132 122.628 7.50352 122.601C7.53363 122.591 7.56373 122.582 7.59384 122.564C7.75441 122.499 7.93504 122.517 8.08557 122.601C8.17589 122.656 8.24614 122.711 8.30635 122.767C8.67766 123.137 8.48699 123.543 8.40671 123.709L8.38664 123.746C8.02536 124.56 7.87483 125.299 7.95511 126.01C8.04543 126.898 8.36657 127.609 8.93858 128.191C9.43032 128.69 10.1127 129.097 11.0059 129.411C12.3306 129.883 13.4244 129.633 14.1068 129.337C15.1204 128.903 15.9734 128.062 16.3146 127.138C16.8164 125.789 16.716 124.476 16.0136 123.238C15.8028 122.869 15.582 122.49 15.3713 122.138C15.0401 121.584 14.9699 121.196 15.5218 120.604L15.7526 120.355C16.2945 119.773 16.8465 119.172 17.4386 118.618C18.6027 117.527 19.817 116.437 21.0614 115.365C22.9079 113.766 24.7945 112.177 26.3902 110.827C27.7751 109.663 29.451 108.314 31.3176 107.168C31.7491 106.9 32.1505 106.928 32.5519 107.233C34.0271 108.388 35.4421 108.841 36.9976 108.674C38.7839 108.48 40.1588 107.417 40.5 105.976C40.7308 104.969 40.7207 103.98 40.4498 103.028C40.3093 102.538 40.0584 102.095 39.6871 101.716C38.7638 100.773 37.3187 100.422 36.0242 100.829C35.8837 100.875 35.7432 100.93 35.6027 100.986C35.5324 101.013 35.4622 101.041 35.3919 101.069C35.2414 101.124 35.0708 101.115 34.9303 101.05C34.8199 100.995 34.7296 100.93 34.6594 100.856C34.2981 100.487 34.5088 100.08 34.5891 99.9045L34.5991 99.886C35.0106 99.0728 35.121 98.3797 34.9705 97.7051C34.8099 97.0398 34.4687 96.4114 33.9669 95.9031C33.2845 95.21 32.3713 94.785 31.3978 94.7018C30.585 94.6371 29.7219 94.7203 28.9893 94.8219C28.0661 94.9421 27.3435 95.4226 26.7816 96.2728C26.2396 97.1045 25.9888 98.0748 25.9988 99.3131C26.0088 100.182 26.33 100.921 26.9722 101.577L27.0023 101.605C27.2331 101.836 27.4339 102.224 27.1027 102.769C26.631 103.564 25.9888 104.303 25.0755 105.098C23.0785 106.845 21.0614 108.591 19.3453 110.06C19.0543 110.31 18.7532 110.569 18.4622 110.818L18.3117 110.948C16.7461 112.288 15.1304 113.683 13.5047 115.023C12.9829 115.448 12.4008 115.808 11.8388 116.16C11.608 116.307 11.337 116.474 11.0962 116.631C10.9055 116.76 10.6546 116.751 10.464 116.622L10.4439 116.631Z" fill="url(#paint8_radial_292_8410)"/>
<path d="M309.624 12.1411C309.634 11.984 309.664 11.8269 309.695 11.6698C309.986 10.2929 310.919 8.98989 312.254 8.09351C313.598 7.18789 315.224 6.77204 316.719 6.96611C318.506 7.19713 319.961 8.10275 320.924 9.56284C321.697 10.7365 322.138 11.8546 322.279 12.9728C322.56 13.019 322.841 13.056 323.112 13.1022C323.955 13.2408 324.818 13.3702 325.661 13.4256C330.046 13.7121 334.833 13.9893 340.272 14.2758C340.844 14.3035 341.447 14.2573 342.039 14.2111C342.189 14.2019 342.34 14.1834 342.5 14.1741C342.641 12.9543 343.313 11.9101 344.598 10.9028C345.942 9.84931 347.388 9.32257 349.033 9.29485C349.776 9.28561 350.478 9.46119 351.191 9.84007C352.656 10.6163 353.69 11.5866 354.362 12.8065C354.824 13.6474 355.014 14.6085 354.924 15.5788C354.814 16.8448 354.242 17.9907 353.318 18.8039C353.058 19.0442 352.756 19.229 352.465 19.4138C352.596 19.5155 352.726 19.6264 352.847 19.7465C353.85 20.726 354.352 22.0383 354.232 23.3505C354.161 24.1175 353.88 24.8753 353.409 25.5314C352.676 26.5572 351.713 27.3888 350.569 28.008C348.511 29.1077 345.862 28.738 343.965 27.0931C342.751 26.0396 342.079 24.6905 341.798 22.7406L341.798 22.7314C338.647 21.9921 324.236 21.0495 321.346 21.4006C321.316 21.4746 321.295 21.5485 321.265 21.6132C321.135 21.9736 321.004 22.3525 320.834 22.7221C319.921 24.8013 318.375 26.0951 316.228 26.5479C314.592 26.8898 312.996 26.6496 311.712 25.8548C310.337 25.0047 309.403 23.5908 309.092 21.8719C309.012 21.4561 309.002 21.031 309.032 20.6151C309.183 18.9425 310.226 17.427 311.842 16.5029C310.377 15.5418 309.474 13.8045 309.624 12.1411ZM320.844 13.7953C320.824 13.7583 320.794 13.7028 320.784 13.6381C320.754 13.518 320.733 13.4071 320.723 13.3055C320.603 12.289 320.232 11.3186 319.559 10.3299C318.827 9.24865 317.653 8.54633 316.338 8.39847C315.073 8.2691 313.869 8.66645 312.926 9.53511C312.545 9.88627 312.173 10.3114 311.822 10.8011C311.461 11.2909 311.26 11.7992 311.21 12.3167C311.2 12.4091 311.2 12.5107 311.2 12.6032C311.23 13.9801 312.324 15.3108 313.799 15.7728C313.929 15.8098 314.04 15.8652 314.13 15.9022C314.16 15.9207 314.19 15.9299 314.22 15.9392C314.381 16.0039 314.491 16.1425 314.522 16.2996C314.542 16.392 314.542 16.4844 314.542 16.5583C314.501 17.0573 314.05 17.2144 313.859 17.2699L313.819 17.2791C312.926 17.5841 312.243 17.9999 311.722 18.5359C311.079 19.2013 310.738 19.9036 310.668 20.6798C310.608 21.3544 310.758 22.0845 311.12 22.9069C311.651 24.1175 312.595 24.6812 313.297 24.94C314.341 25.3281 315.585 25.3188 316.549 24.9215C317.964 24.3393 318.927 23.3782 319.439 22.0475C319.589 21.6501 319.74 21.2435 319.87 20.8647C320.081 20.264 320.342 19.9498 321.185 19.9128L321.546 19.8943C322.379 19.8574 323.232 19.8204 324.085 19.8389C325.741 19.8759 327.447 19.9498 329.133 20.0514C331.662 20.1993 334.211 20.3749 336.369 20.532C338.245 20.6706 340.453 20.8647 342.641 21.336C343.143 21.4468 343.403 21.7333 343.424 22.2139C343.514 23.9974 344.126 25.2542 345.32 26.1875C346.695 27.2595 348.481 27.4535 349.846 26.6958C350.8 26.169 351.582 25.4759 352.154 24.6535C352.455 24.2284 352.626 23.7479 352.666 23.2396C352.777 21.9736 352.074 20.7723 350.86 20.1716C350.729 20.1069 350.589 20.0514 350.448 19.996C350.378 19.9683 350.308 19.9406 350.238 19.9128C350.087 19.8481 349.977 19.7372 349.936 19.5894C349.906 19.4785 349.896 19.3768 349.906 19.2752C349.947 18.7854 350.418 18.6376 350.619 18.5821L350.639 18.5729C351.562 18.2956 352.194 17.8983 352.616 17.3346C353.037 16.7709 353.298 16.1148 353.359 15.4309C353.439 14.4976 353.158 13.6012 352.556 12.8804C352.054 12.289 351.392 11.7715 350.81 11.3371C350.077 10.8011 349.214 10.6348 348.15 10.8474C347.117 11.0507 346.183 11.5497 345.2 12.3998C344.517 13.0005 344.146 13.7213 344.066 14.5992L344.066 14.6362C344.036 14.9411 343.865 15.3477 343.213 15.5048C342.259 15.7266 341.236 15.8006 339.981 15.7359C337.232 15.588 334.472 15.4217 332.134 15.2738C331.732 15.2461 331.331 15.2276 330.929 15.1999L330.719 15.1906C328.581 15.0613 326.383 14.9227 324.206 14.7471C323.513 14.6916 322.831 14.5438 322.169 14.4052C321.888 14.3497 321.576 14.285 321.285 14.2296C321.055 14.1834 320.884 14.017 320.864 13.8045L320.844 13.7953Z" fill="url(#paint9_radial_292_8410)"/>
<path d="M258.7 20.0802C258.8 20.2096 258.891 20.339 258.981 20.4776C259.723 21.6974 259.934 23.2499 259.553 24.7285C259.171 26.2255 258.218 27.51 256.944 28.2493C255.418 29.1365 253.682 29.3213 251.906 28.7853C250.491 28.351 249.367 27.7688 248.474 26.9925C248.233 27.1312 247.982 27.2605 247.741 27.3899C247.009 27.7873 246.246 28.2031 245.563 28.6652C242.021 31.0679 238.187 33.7108 233.842 36.7511C233.38 37.0745 232.959 37.4719 232.548 37.8508C232.437 37.9524 232.337 38.0541 232.226 38.1557C232.979 39.1723 233.21 40.3644 232.939 41.8984C232.658 43.5063 231.925 44.7723 230.701 45.7704C230.149 46.2232 229.487 46.5097 228.674 46.6483C227.008 46.9348 225.533 46.8146 224.178 46.2879C223.235 45.9275 222.412 45.3083 221.79 44.5136C220.987 43.4878 220.615 42.268 220.736 41.1036C220.776 40.7617 220.856 40.4475 220.957 40.1333C220.786 40.1333 220.605 40.1241 220.425 40.1056C218.98 39.9578 217.665 39.2647 216.832 38.1927C216.34 37.5643 216.029 36.825 215.919 36.0395C215.758 34.8197 215.899 33.6091 216.34 32.454C217.133 30.3933 219.411 29.0903 222.01 29.2104C223.686 29.2843 225.141 29.9127 226.727 31.2249L226.737 31.2342C229.657 29.9127 241.288 22.0209 243.235 20.0248C243.205 19.9509 243.175 19.8862 243.145 19.8122C242.984 19.4611 242.824 19.0914 242.683 18.7126C241.911 16.5871 242.182 14.6742 243.496 13.0478C244.49 11.8095 245.885 11.0425 247.42 10.8761C249.066 10.7006 250.772 11.2181 252.217 12.3455C252.568 12.6135 252.879 12.9277 253.14 13.2696C254.204 14.628 254.475 16.4023 253.893 18.0749C255.729 17.9455 257.636 18.7218 258.7 20.0802ZM248.996 25.5232C249.046 25.5417 249.096 25.5694 249.156 25.6064C249.267 25.6803 249.357 25.7542 249.437 25.8282C250.24 26.5305 251.213 27.048 252.418 27.3992C253.742 27.7873 255.127 27.6209 256.231 26.9371C257.285 26.2902 257.927 25.2552 258.027 24.0262C258.068 23.5364 258.058 22.9912 257.977 22.409C257.907 21.8176 257.696 21.3093 257.375 20.8934C257.315 20.8195 257.255 20.7456 257.184 20.6717C256.191 19.6459 254.425 19.2855 252.98 19.8122C252.859 19.8584 252.729 19.8862 252.638 19.9139C252.608 19.9231 252.568 19.9324 252.538 19.9416C252.367 19.9878 252.187 19.9509 252.056 19.8492C251.976 19.7938 251.916 19.7291 251.856 19.6551C251.535 19.2485 251.765 18.8697 251.866 18.7033L251.886 18.6664C252.347 17.8993 252.578 17.1785 252.598 16.4577C252.618 15.5706 252.388 14.8221 251.886 14.1937C251.454 13.6392 250.832 13.1772 249.979 12.7706C248.715 12.1699 247.601 12.2993 246.898 12.521C245.834 12.8537 244.891 13.6023 244.439 14.4709C243.777 15.7554 243.717 17.0676 244.269 18.3799C244.429 18.7772 244.61 19.1654 244.781 19.535C245.042 20.1172 245.062 20.5146 244.45 21.0413L244.189 21.2723C243.586 21.7991 242.954 22.3351 242.292 22.8248C240.997 23.7859 239.663 24.747 238.298 25.6803C236.271 27.0757 234.203 28.4619 232.447 29.6355C230.922 30.652 229.105 31.8164 227.108 32.7682C226.647 32.99 226.255 32.9253 225.894 32.5741C224.569 31.2804 223.215 30.6797 221.649 30.689C219.843 30.6982 218.357 31.6131 217.846 33.0085C217.494 33.9788 217.384 34.9676 217.535 35.9379C217.615 36.4461 217.816 36.9082 218.137 37.3241C218.939 38.359 220.334 38.8488 221.669 38.5808C221.81 38.5531 221.96 38.5069 222.101 38.4699C222.171 38.4515 222.251 38.4237 222.321 38.4053C222.472 38.359 222.643 38.3868 222.773 38.4699C222.873 38.5346 222.954 38.6086 223.024 38.6917C223.335 39.0983 223.084 39.4772 222.974 39.6436L222.964 39.6528C222.462 40.4198 222.261 41.0944 222.331 41.7782C222.412 42.4621 222.673 43.1182 223.114 43.6727C223.706 44.4304 224.559 44.9479 225.523 45.1327C226.316 45.2806 227.189 45.2806 227.931 45.2621C228.865 45.2344 229.637 44.837 230.3 44.0515C230.942 43.2753 231.303 42.3419 231.444 41.1036C231.544 40.2442 231.313 39.468 230.751 38.7564L230.731 38.7287C230.53 38.4792 230.38 38.0726 230.771 37.5551C231.333 36.8158 232.066 36.1412 233.069 35.4481C235.267 33.9141 237.485 32.3986 239.372 31.1048C239.693 30.883 240.014 30.6612 240.345 30.4395L240.516 30.3286C242.232 29.155 244.008 27.9351 245.784 26.78C246.356 26.4104 246.978 26.1054 247.581 25.8189C247.831 25.6988 248.112 25.5602 248.383 25.4308C248.584 25.3292 248.835 25.3569 249.006 25.5047L248.996 25.5232Z" fill="url(#paint10_radial_292_8410)"/>
<path d="M57.9918 20.0802C58.0921 20.2096 58.1825 20.339 58.2728 20.4776C59.0154 21.6974 59.2262 23.2499 58.8448 24.7285C58.4635 26.2255 57.5101 27.51 56.2356 28.2493C54.7102 29.1365 52.9741 29.3213 51.1978 28.7853C49.7828 28.351 48.6589 27.7688 47.7657 26.9925C47.5249 27.1312 47.274 27.2605 47.0331 27.3899C46.3005 27.7873 45.5378 28.2031 44.8554 28.6652C41.333 31.0863 37.4995 33.7293 33.1541 36.7603C32.6925 37.0838 32.271 37.4811 31.8596 37.86C31.7492 37.9617 31.6488 38.0633 31.5384 38.165C32.2911 39.1815 32.5219 40.3736 32.251 41.9076C31.97 43.5156 31.2374 44.7816 30.0131 45.7796C29.4611 46.2324 28.7988 46.5189 27.9859 46.6575C26.32 46.944 24.8448 46.8239 23.49 46.2971C22.5467 45.9367 21.7238 45.3176 21.1016 44.5228C20.2988 43.4971 19.9275 42.2773 20.0479 41.1129C20.088 40.771 20.1683 40.4568 20.2687 40.1426C20.0981 40.1426 19.9174 40.1333 19.7368 40.1148C18.2917 39.967 16.9771 39.2739 16.1441 38.2019C15.6524 37.5736 15.3413 36.8343 15.2309 36.0488C15.0703 34.829 15.2108 33.6184 15.6524 32.4632C16.4452 30.4025 18.7232 29.0995 21.3224 29.2196C22.9983 29.2936 24.4534 29.922 26.039 31.2342L26.0491 31.2434C28.9694 29.922 40.6004 22.0301 42.5473 20.034C42.5172 19.9601 42.4871 19.8954 42.457 19.8215C42.2964 19.4703 42.1358 19.1007 41.9953 18.7218C41.2226 16.5964 41.4936 14.6835 42.8082 13.057C43.8017 11.8187 45.1966 11.0517 46.7321 10.8854C48.3779 10.7098 50.0839 11.2273 51.529 12.3547C51.8802 12.6227 52.1913 12.9369 52.4522 13.2788C53.516 14.6372 53.787 16.4115 53.2049 18.0842C55.0213 17.9455 56.928 18.7218 57.9918 20.0802ZM48.2876 25.5232C48.3377 25.5417 48.3879 25.5694 48.4481 25.6064C48.5585 25.6803 48.6488 25.7542 48.7291 25.8282C49.5319 26.5305 50.5054 27.048 51.7096 27.3991C53.0343 27.7873 54.4192 27.6209 55.5231 26.9371C56.5768 26.2902 57.2191 25.2552 57.3194 24.0262C57.3596 23.5364 57.3495 22.9912 57.2692 22.409C57.199 21.8175 56.9883 21.3093 56.6671 20.8934C56.6069 20.8195 56.5467 20.7456 56.4765 20.6717C55.4829 19.6459 53.7167 19.2855 52.2716 19.8122C52.1512 19.8584 52.0207 19.8862 51.9304 19.9139C51.9003 19.9231 51.8602 19.9324 51.8301 19.9416C51.6594 19.9878 51.4788 19.9509 51.3484 19.8492C51.2681 19.7938 51.2079 19.7291 51.1476 19.6551C50.8265 19.2485 51.0573 18.8697 51.1577 18.7033L51.1777 18.6663C51.6394 17.8993 51.8702 17.1785 51.8903 16.4577C51.9103 15.5706 51.6795 14.8221 51.1777 14.1937C50.7462 13.6392 50.124 13.1772 49.271 12.7706C48.0066 12.1699 46.8926 12.2993 46.1901 12.521C45.1264 12.8537 44.1831 13.6022 43.7315 14.4709C43.0691 15.7554 43.0089 17.0676 43.5609 18.3799C43.7214 18.7772 43.9021 19.1654 44.0727 19.535C44.3336 20.1172 44.3537 20.5146 43.7415 21.0413L43.4806 21.2723C42.8785 21.7991 42.2462 22.335 41.5839 22.8248C40.2893 23.7859 38.9546 24.747 37.5898 25.6803C35.5626 27.0757 33.4953 28.4619 31.7391 29.6355C30.2138 30.6612 28.3873 31.8256 26.4003 32.7774C25.9387 32.9992 25.5473 32.9345 25.186 32.5834C23.8613 31.2804 22.5066 30.6797 20.941 30.6982C19.1347 30.7074 17.6494 31.6223 17.1376 33.0177C16.7763 33.988 16.676 34.9676 16.8165 35.9471C16.8968 36.4554 17.0975 36.9174 17.4186 37.3333C18.2214 38.3683 19.6164 38.8581 20.9511 38.5901C21.0916 38.5623 21.2421 38.5161 21.3826 38.4792C21.4528 38.4607 21.5331 38.433 21.6034 38.4145C21.7539 38.3683 21.9245 38.396 22.055 38.4792C22.1553 38.5439 22.2356 38.6178 22.3059 38.701C22.617 39.1076 22.3661 39.4865 22.2557 39.6528L22.2456 39.662C21.7439 40.429 21.5432 41.1036 21.6134 41.7875C21.6937 42.4713 21.9546 43.1274 22.3962 43.6819C22.9883 44.4397 23.8413 44.9572 24.8047 45.142C25.5975 45.2898 26.4706 45.2898 27.2132 45.2714C28.1465 45.2436 28.9192 44.8463 29.5815 44.0608C30.2238 43.2845 30.5851 42.3512 30.7256 41.1129C30.8259 40.2535 30.5951 39.4772 30.0331 38.7657L30.0131 38.7379C29.8124 38.4884 29.6618 38.0818 30.0532 37.5643C30.6152 36.825 31.3478 36.1504 32.3513 35.4574C34.5491 33.9233 36.7669 32.4078 38.6536 31.1141C38.9747 30.8923 39.2958 30.6705 39.627 30.4487L39.7976 30.3378C41.5136 29.1642 43.2899 27.9444 45.0662 26.7892C45.6382 26.4196 46.2604 26.1146 46.8625 25.8282C47.1134 25.708 47.3944 25.5694 47.6654 25.44C47.8661 25.3384 48.1169 25.3661 48.2876 25.514L48.2876 25.5232Z" fill="url(#paint11_radial_292_8410)"/>
<path d="M315.231 60.6589C315.331 60.7883 315.421 60.9177 315.512 61.0563C316.254 62.2761 316.465 63.8286 316.084 65.3072C315.702 66.8042 314.749 68.0887 313.474 68.828C311.949 69.7151 310.213 69.9 308.437 69.364C307.022 68.9297 305.898 68.3475 305.005 67.5712C304.764 67.7098 304.513 67.8392 304.272 67.9686C303.539 68.366 302.777 68.7818 302.094 69.2438C298.552 71.6465 294.718 74.2895 290.373 77.3298C289.911 77.6532 289.49 78.0506 289.078 78.4295C288.968 78.5311 288.868 78.6328 288.757 78.7344C289.51 79.7509 289.741 80.943 289.47 82.477C289.189 84.085 288.456 85.351 287.232 86.3491C286.68 86.8019 286.018 87.0883 285.205 87.227C283.539 87.5134 282.064 87.3933 280.709 86.8665C279.765 86.5061 278.943 85.887 278.32 85.0923C277.518 84.0665 277.146 82.8467 277.267 81.6823C277.307 81.3404 277.387 81.0262 277.487 80.712C277.317 80.712 277.136 80.7028 276.956 80.6843C275.51 80.5364 274.196 79.8434 273.363 78.7714C272.871 78.143 272.56 77.4037 272.45 76.6182C272.289 75.3984 272.43 74.1878 272.871 73.0327C273.664 70.9719 275.942 69.6689 278.541 69.7891C280.217 69.863 281.672 70.4914 283.258 71.8036L283.268 71.8129C286.188 70.4914 297.819 62.5995 299.766 60.6035C299.736 60.5295 299.706 60.4648 299.676 60.3909C299.515 60.0398 299.355 59.6701 299.214 59.2912C298.441 57.1658 298.712 55.2529 300.027 53.6265C301.02 52.3882 302.415 51.6212 303.951 51.4548C305.597 51.2792 307.303 51.7967 308.748 52.9241C309.099 53.1921 309.41 53.5063 309.671 53.8482C310.735 55.2067 311.006 56.981 310.424 58.6536C312.26 58.5242 314.167 59.3005 315.231 60.6589ZM305.526 66.1019C305.577 66.1204 305.627 66.1481 305.687 66.1851C305.797 66.259 305.888 66.3329 305.968 66.4069C306.771 67.1092 307.744 67.6267 308.948 67.9778C310.273 68.366 311.658 68.1996 312.762 67.5158C313.816 66.8689 314.458 65.8339 314.558 64.6048C314.598 64.1151 314.588 63.5698 314.508 62.9877C314.438 62.3962 314.227 61.888 313.906 61.4721C313.846 61.3982 313.785 61.3243 313.715 61.2503C312.722 60.2246 310.956 59.8642 309.51 60.3909C309.39 60.4371 309.26 60.4648 309.169 60.4926C309.139 60.5018 309.099 60.5111 309.069 60.5203C308.898 60.5665 308.718 60.5295 308.587 60.4279C308.507 60.3724 308.447 60.3077 308.386 60.2338C308.065 59.8272 308.296 59.4483 308.396 59.282L308.417 59.245C308.878 58.478 309.109 57.7572 309.129 57.0364C309.149 56.1493 308.918 55.4007 308.417 54.7724C307.985 54.2179 307.363 53.7558 306.51 53.3492C305.245 52.7486 304.131 52.8779 303.429 53.0997C302.365 53.4324 301.422 54.1809 300.97 55.0496C300.308 56.3341 300.248 57.6463 300.8 58.9586C300.96 59.3559 301.141 59.744 301.311 60.1137C301.572 60.6959 301.592 61.0932 300.98 61.62L300.719 61.851C300.117 62.3777 299.485 62.9137 298.823 63.4035C297.528 64.3646 296.193 65.3256 294.829 66.259C292.801 67.6544 290.734 69.0405 288.978 70.2142C287.453 71.2307 285.636 72.3951 283.639 73.3469C283.177 73.5687 282.786 73.504 282.425 73.1528C281.1 71.8591 279.745 71.2584 278.18 71.2676C276.373 71.2769 274.888 72.1917 274.376 73.5871C274.025 74.5575 273.915 75.5462 274.065 76.5166C274.146 77.0248 274.346 77.4869 274.667 77.9027C275.47 78.9377 276.865 79.4275 278.2 79.1595C278.34 79.1318 278.491 79.0856 278.631 79.0486C278.702 79.0301 278.782 79.0024 278.852 78.9839C279.003 78.9377 279.173 78.9655 279.304 79.0486C279.404 79.1133 279.484 79.1872 279.555 79.2704C279.866 79.677 279.615 80.0559 279.505 80.2222L279.494 80.2315C278.993 80.9985 278.792 81.6731 278.862 82.3569C278.943 83.0408 279.203 83.6969 279.645 84.2513C280.237 85.0091 281.09 85.5266 282.054 85.7114C282.846 85.8593 283.719 85.8593 284.462 85.8408C285.395 85.8131 286.168 85.4157 286.83 84.6302C287.473 83.854 287.834 82.9206 287.974 81.6823C288.075 80.8229 287.844 80.0466 287.282 79.3351L287.262 79.3074C287.061 79.0579 286.911 78.6512 287.302 78.1337C287.864 77.3945 288.597 76.7199 289.6 76.0268C291.798 74.4928 294.016 72.9772 295.902 71.6835C296.224 71.4617 296.545 71.2399 296.876 71.0181L297.046 70.9072C298.762 69.7336 300.539 68.5138 302.315 67.3587C302.887 66.989 303.509 66.6841 304.111 66.3976C304.362 66.2775 304.643 66.1389 304.914 66.0095C305.115 65.9078 305.366 65.9356 305.536 66.0834L305.526 66.1019Z" fill="url(#paint12_radial_292_8410)"/>
</svg>
