<svg width="162" height="147" viewBox="0 0 162 147" fill="none" xmlns="http://www.w3.org/2000/svg">
<path d="M101.678 28.0634C101.164 24.6038 102.627 20.9268 105.375 18.772C108.123 16.6172 112.057 16.0835 115.299 17.4277C116.9 15.3125 119.846 14.1461 122.337 15.0555C124.828 15.9649 126.37 19.1476 125.124 21.5001C126.607 21.5792 127.338 23.3584 127.497 24.8411C128.248 31.2857 125.401 37.6315 121.744 42.9888C116.367 50.8173 109.052 57.2817 100.65 61.6704C98.1793 62.9554 94.8779 63.9438 92.8813 62.0065C88.5717 57.7957 93.929 48.8602 93.7511 43.6412C93.5336 37.928 93.8104 28.3599 101.678 28.0634Z" fill="#2D4934"/>
<path d="M33.5749 33.3024C32.626 31.7802 31.6573 30.2382 31.1828 28.5183C30.7084 26.7984 30.8072 24.8216 31.8747 23.3784C29.7397 21.9749 27.6442 20.4329 26.1418 18.3572C24.6591 16.2814 23.8486 13.5929 24.5405 11.1415C25.2324 8.6902 27.7233 6.69355 30.2537 7.06916C29.1664 4.87482 29.7792 1.85019 31.8747 0.545442C33.9702 -0.739531 37.2321 0.347754 37.8054 2.73978C39.7427 1.01989 42.5894 0.387291 45.0605 1.09897C47.5514 1.81065 49.6074 3.86661 50.3191 6.35748C55.5183 5.6458 60.8954 7.87968 64.4933 11.6951C68.0912 15.5104 69.9693 20.7492 70.2065 25.9879C70.2658 27.3322 70.246 28.7753 70.9182 29.9417C71.3926 30.7918 72.2032 31.4244 72.9148 32.0965C78.5489 37.2957 80.3479 45.4602 80.5456 53.1108C80.7235 59.7531 79.8141 66.6919 76.1174 72.2074C72.4206 77.723 65.3434 81.3604 58.9778 79.4626C54.9252 78.2369 51.7029 75.0146 49.6271 71.3179C47.5316 67.6408 46.4246 63.4894 45.3373 59.3972C44.1314 54.89 43.4988 49.1965 41.2649 45.1044C39.0706 41.0715 36.0262 37.2166 33.5749 33.3024Z" fill="#2D4934"/>
<path d="M83.4121 10.746C85.4878 7.22719 88.3543 4.04441 91.4975 1.03955C95.2338 4.18279 97.5073 8.2354 98.7725 12.3869C100.038 16.5383 100.393 20.8281 100.73 25.0982C100.888 27.0751 101.046 29.0915 100.453 31.0091C99.8598 32.9464 98.4166 34.8047 96.1234 35.6943C93.7907 36.6037 90.9243 36.3269 88.6508 35.3582C86.3972 34.3698 84.697 32.7488 83.4318 31.0091C78.9443 24.7819 79.6758 17.0721 83.4121 10.746Z" fill="#EACEA4"/>
<path d="M50.1016 6.91113C53.3833 7.60304 56.1905 9.30316 58.6616 11.201C60.8361 12.8616 62.8526 14.7396 64.1968 16.9142C65.5411 19.0887 66.2132 21.6191 65.6399 24.0309C65.205 25.8892 64.0387 27.6091 62.6746 29.1511C60.9745 31.0686 58.7999 32.7688 56.2497 33.8956C54.688 34.5875 50.5959 36.1295 49.3109 34.5084C48.5399 33.5397 48.6585 31.4245 48.4806 30.2779C48.2632 28.7952 48.1248 27.3323 48.0259 25.8497C47.848 22.8843 47.8875 19.8993 48.1841 16.9537C48.5399 13.5337 49.1725 10.1928 50.1016 6.91113Z" fill="#EACEA4"/>
<path d="M52.8692 58.6458C52.9482 66.7708 55.0833 74.7574 58.2265 82.2498C59.7883 85.9861 61.6268 89.6433 64.1176 92.8458C66.569 96.0089 69.6529 98.7172 73.1322 100.714C74.8719 101.722 76.7104 102.552 78.6675 103.007C85.468 104.589 92.7231 101.169 97.27 95.8507C101.817 90.5527 104.07 83.6533 105.533 76.8133C107.332 68.3127 108.064 59.3772 105.81 50.9952C103.556 42.5935 97.9817 34.7848 89.9753 31.4241C87.2472 30.2775 84.3214 29.6647 81.3956 29.3088C77.2244 28.7948 72.9148 28.7751 68.8819 29.981C64.9479 31.1473 61.1326 33.658 59.1359 37.335C59.0964 37.1373 59.0568 36.9594 58.9975 36.8012C54.1541 42.1586 52.8099 51.7464 52.8692 58.6458Z" fill="#EACEA4"/>
<path d="M54.8659 19.8402C53.146 21.3822 51.5645 23.1416 50.4772 25.1778C46.9781 31.7213 49.2318 40.301 54.4507 45.5792C59.6697 50.8575 67.2214 53.2298 74.6149 53.8624C81.3364 54.4357 88.5915 53.5461 93.7907 49.2365C98.555 45.2827 100.888 38.9567 101.204 32.769C101.501 26.9175 99.9388 20.631 95.5501 16.7365C92.2685 13.8305 87.8403 12.6048 83.5109 12.0118C72.9544 10.6082 62.9513 12.5851 54.8659 19.8402Z" fill="#EACEA4"/>
<path d="M150.784 47.7143C152.504 48.3073 154.263 49.2562 155.094 50.8773C155.924 52.4983 155.37 54.9101 153.651 55.4834C157.782 54.5938 162.191 58.6069 161.657 62.8176C161.143 67.0086 155.904 69.8553 152.109 67.9773C152.899 69.203 152.425 70.9426 151.357 71.9311C150.29 72.9195 148.787 73.3149 147.344 73.473C144.755 73.7498 142.086 73.3742 139.674 72.3858C139.872 74.9557 137.697 77.2489 135.226 78.0396C132.755 78.8304 130.106 78.4943 127.536 78.1583C128.09 80.5305 126.291 82.9225 124.057 83.911C121.843 84.8994 119.312 84.8006 116.881 84.682C117.098 89.7626 113.737 94.5268 109.368 97.1561C105 99.7853 99.8003 100.616 94.7 100.833C93.6918 100.873 92.6045 100.873 91.7544 100.319C91.1218 99.8842 90.7066 99.1923 90.3903 98.4806C87.939 93.2023 88.5716 86.9158 90.7857 81.5387C92.9998 76.1616 96.6373 71.5159 100.255 66.9493C105.79 59.9512 111.938 52.5972 120.538 50.1854C125.421 48.8213 130.58 49.1178 135.542 48.0503C140.643 46.963 145.684 45.9351 150.784 47.7143Z" fill="#2D4934"/>
<path d="M87.6425 67.3441C88.5124 66.158 89.5206 65.0509 90.2323 63.7659C91.3196 61.7891 91.6754 59.5156 92.3673 57.3608C94.1267 51.9046 98.2979 47.259 103.537 44.9065C104.604 44.432 105.771 43.9971 106.561 43.1273C107.154 42.4749 107.471 41.6446 107.846 40.8341C110.831 34.3697 117.533 29.8031 124.63 29.3682C125.5 29.3089 126.389 29.3286 127.22 29.0914C128.03 28.874 128.762 28.439 129.513 28.0634C135.523 25.0783 143.391 26.4819 148.036 31.3451C149.736 33.1242 151.041 35.4767 150.843 37.9281C150.626 40.3794 148.432 42.7121 146 42.4156C146.593 45.9147 144.498 49.4533 141.631 51.5488C138.765 53.6443 135.226 54.5537 131.747 55.3246C131.035 55.4828 130.264 55.6805 129.869 56.2933C129.632 56.6492 129.572 57.0841 129.493 57.519C128.683 61.5518 124.867 64.4381 120.894 65.4265C119.352 65.8219 117.731 65.98 116.248 66.5929C114.765 67.2057 113.401 68.3918 113.144 69.9733C113.006 70.7443 113.164 71.5549 113.045 72.3258C112.67 74.7179 110.06 75.9633 107.827 76.9122C105.593 77.8611 103.062 79.4624 103.161 81.894C103.201 83.0603 103.873 84.3651 103.22 85.3337C102.785 85.9861 101.935 86.164 101.204 86.421C99.405 87.0734 97.9223 88.556 97.27 90.355C96.7362 91.8377 96.7362 93.4983 96.1629 94.9611C95.5699 96.4438 94.443 97.6497 93.2569 98.7172C90.2322 101.465 85.6063 103.699 82.2456 100.081C79.992 97.6695 81.1979 95.3368 81.791 92.5098C83.5701 83.6929 81.8898 75.1528 87.6425 67.3441Z" fill="#3E664A"/>
<path d="M57.6335 89.4063C54.6287 85.2351 48.362 85.1956 44.2698 82.1116C40.1184 78.9684 38.695 73.097 34.4447 70.0922C30.8072 67.5222 25.4697 67.3641 22.8602 63.7266C21.081 61.2555 21.16 57.8355 19.5785 55.226C18.2738 53.0712 16.0004 51.7269 13.9247 50.2838C10.6233 48.0104 7.6184 45.2823 5.02868 42.2181C2.08312 38.7388 -0.447292 34.2711 0.501611 29.8231C1.35167 25.8298 5.04845 22.7854 9.06152 22.0341C13.0944 21.2829 17.3051 22.5679 20.6856 24.8611C24.0661 27.1543 26.7151 30.3964 29.0083 33.7966C29.463 34.4687 29.9374 35.2002 30.6491 35.5956C31.6771 36.1689 32.9225 35.9514 34.0889 35.8723C39.5648 35.477 45.1396 38.4225 47.8677 43.1868C49.4493 45.9544 50.1411 49.2163 52.1773 51.6676C54.7671 54.7713 59.1755 56.0958 61.2512 59.5554C63.663 63.5487 62.2792 69.3212 65.5411 72.6621C66.49 73.6308 67.6959 74.2436 68.8227 74.9948C72.7962 77.6241 75.5243 81.7162 78.1536 85.7095C79.4386 87.6667 80.7433 89.6633 81.2968 91.9367C81.8701 94.2101 81.5736 96.8196 79.9723 98.5197C78.7664 99.7849 77.0268 100.378 75.3069 100.694C66.2132 102.414 62.1804 95.7521 57.6335 89.4063Z" fill="#3E664A"/>
<path d="M127.121 41.6648C129.177 40.3403 131.549 39.0356 133.961 39.4902C133.032 40.9334 131.391 41.7044 129.869 42.5149C123.009 46.1523 117.474 51.8062 112.097 57.4206C107.945 61.7499 103.794 66.1189 100.275 71.0018C96.756 75.8847 93.8895 81.3013 92.565 87.1529C91.9719 89.7624 91.715 92.6684 90.3311 95.0011C88.631 97.8478 87.781 94.4278 88.1566 92.6684C89.2636 87.6273 91.5963 82.5863 93.9291 77.9999C98.7329 68.5307 105.276 59.9905 112.986 52.7156C117.335 48.6037 122.08 44.8871 127.121 41.6648Z" fill="#2D4934"/>
<path d="M15.7236 37.7104C39.5648 53.4662 59.2348 75.4491 72.2427 100.892C73.3893 103.145 74.5359 105.478 76.4337 107.139C76.7896 107.455 77.2442 107.751 77.6989 107.653C78.7664 107.435 78.4501 105.834 77.8768 104.924C74.3777 99.2903 70.8589 93.6562 67.3598 88.0221C63.2677 81.4193 59.136 74.7967 53.9763 68.9847C51.3471 66.0194 48.441 63.2913 45.5746 60.5632C42.8465 57.9932 40.1184 55.4233 37.3903 52.8533C33.7726 49.4333 30.1549 46.0331 26.379 42.8108C23.7893 40.6164 21.1403 38.5012 18.4122 36.4848C17.661 35.9312 16.119 34.409 15.012 34.9428C13.4898 35.6742 14.8736 37.1569 15.7236 37.7104Z" fill="#2D4934"/>
<path d="M67.3993 127.362C68.3087 132.463 69.0401 137.919 72.4404 141.813C75.1487 144.897 79.2408 146.538 83.333 146.914C87.4251 147.27 91.537 146.479 95.4908 145.332C96.6769 144.996 97.9026 144.581 98.8515 143.771C100.314 142.505 100.828 140.489 101.283 138.611C104.723 123.942 108.182 109.274 111.622 94.6055C94.5419 95.0008 77.4419 95.3962 60.3616 95.0404C60.1442 95.0404 59.8872 95.0404 59.729 95.1985C59.5511 95.3765 59.5709 95.6532 59.5906 95.8904C60.1442 101.05 62.1013 105.973 63.5049 110.974C65.0468 116.371 66.4109 121.827 67.3993 127.362Z" fill="#876249"/>
<path d="M60.3814 95.1395C60.1639 95.1395 59.9069 95.1395 59.7488 95.2976C59.5709 95.4756 59.5906 95.7523 59.6104 95.9896C59.729 97.1164 59.9267 98.2432 60.1639 99.37C61.014 99.7456 62.0024 99.8247 62.9513 99.8642C68.2494 100.161 73.6067 100.299 78.806 101.406C84.0052 102.513 89.1253 104.648 92.9011 108.365C94.3245 109.768 95.5699 111.409 96.2816 113.287C96.8944 114.889 97.0921 116.589 97.3095 118.289C97.9817 123.923 98.5748 129.577 98.298 135.231C98.1596 137.979 97.7445 140.924 95.8862 142.941C94.8582 144.067 93.4942 144.799 92.1104 145.451C91.0429 145.965 89.9556 146.42 88.8485 146.835C91.1022 146.558 93.336 146.024 95.5106 145.392C96.6967 145.056 97.9224 144.641 98.8713 143.83C100.334 142.565 100.848 140.548 101.303 138.67C104.743 124.002 108.202 109.334 111.642 94.665C94.5617 95.1 77.4617 95.4953 60.3814 95.1395Z" fill="#6D503C"/>
<path d="M59.808 97.2742C68.0911 99.0139 76.6115 99.1325 85.0528 99.2313C90.766 99.3104 96.4594 99.3895 102.173 99.4686C104.782 99.5081 107.392 99.5279 109.942 99.0139C111.069 98.7766 112.215 98.4208 113.105 97.6696C113.975 96.9184 114.528 95.6927 114.212 94.5856C113.658 92.6483 111.128 92.2529 109.111 92.2529C100.65 92.2727 92.2091 92.9844 83.7481 93.4391C75.8405 93.874 67.419 94.5659 59.6696 92.8262C58.4242 92.5495 57.0601 92.6483 56.645 94.21C56.1705 96.1276 58.3451 96.9579 59.808 97.2742Z" fill="#876249"/>
<path d="M106.957 108.029C105.85 108.78 104.723 109.709 103.379 109.729C101.342 109.749 99.8597 107.713 97.8631 107.297C94.7594 106.645 92.1104 110.085 88.9473 110.105C85.8436 110.124 83.4911 106.863 80.3676 106.724C76.493 106.546 73.3892 111.271 69.5936 110.421C67.7551 110.006 66.4306 108.345 64.6514 107.673C63.92 107.396 63.0897 107.317 62.2594 107.416C62.635 108.622 63.0106 109.828 63.3664 111.034C63.663 110.915 63.9793 110.816 64.3154 110.797C66.9842 110.5 69.0401 113.406 71.7287 113.564C74.9905 113.762 77.2639 109.887 80.5258 109.571C84.0051 109.235 86.8716 113.07 90.3509 112.714C93.1581 112.437 95.6094 109.452 98.298 110.362C99.9981 110.935 101.204 112.991 102.963 112.754C104.644 112.536 105.474 110.342 107.135 110.045C107.471 109.986 107.688 109.966 108.004 110.045C108.242 109.057 108.459 108.108 108.696 107.12C108.044 107.297 107.51 107.634 106.957 108.029Z" fill="#AD7F60"/>
<path d="M106.937 107.989C105.83 108.74 104.703 109.67 103.359 109.689C101.323 109.709 99.8399 107.673 97.8433 107.258C96.1827 106.902 94.6407 107.732 93.0988 108.582C93.7709 109.254 94.3837 109.986 94.9372 110.777C96.0443 110.263 97.1514 109.946 98.2782 110.322C99.9783 110.895 101.184 112.951 102.944 112.714C104.624 112.496 105.454 110.302 107.115 110.006C107.411 109.946 107.708 109.966 108.004 110.025C108.242 109.057 108.459 108.068 108.696 107.1C108.084 107.297 107.471 107.633 106.937 107.989Z" fill="#8E6950"/>
<path d="M57.0602 111.824C56.2694 114.533 56.2496 117.439 56.7241 120.226C57.4555 124.417 59.4127 128.529 62.7931 131.099C66.7074 134.064 71.867 134.598 76.7302 135.369C79.5176 135.824 82.2852 136.397 85.0331 137.089C86.0611 137.346 87.1483 137.623 88.1368 137.227C89.2241 136.792 89.8566 135.626 90.0543 134.46C90.5683 131.455 88.631 128.43 86.0215 126.829C83.412 125.228 80.2885 124.773 77.2442 124.476C74.1998 124.18 71.096 124.022 68.2493 122.915C67.597 122.658 66.9446 122.341 66.4504 121.847C65.8968 121.274 65.6003 120.483 65.3829 119.712C64.4537 116.549 64.3351 113.208 63.5839 109.986C63.2874 108.74 62.9315 107.475 62.4175 106.309C61.7652 104.826 61.3302 105.123 60.2825 106.19C58.7405 107.772 57.673 109.729 57.0602 111.824Z" fill="#EACEA4"/>
<path d="M92.9209 20.2158C93.0198 20.5914 93.0593 20.9868 93.0593 21.402C93.0791 24.3475 90.7068 26.7593 87.7415 26.7791C85.7646 26.7988 84.0447 25.7313 83.0958 24.1498C83.6494 26.5221 85.8042 28.2815 88.3346 28.2617C91.2801 28.242 93.6721 25.8302 93.6524 22.8846C93.6524 21.9159 93.3954 21.0066 92.9209 20.2158Z" fill="#E9F1F4"/>
<path d="M92.4813 26.6114C94.3995 24.3586 94.1282 20.9773 91.8754 19.0591C89.6226 17.141 86.2413 17.4123 84.3231 19.6651C82.4049 21.9179 82.6762 25.2991 84.9291 27.2173C87.1819 29.1355 90.5631 28.8642 92.4813 26.6114Z" fill="white"/>
<path d="M88.4137 28.6371C85.3693 28.6569 82.8784 26.2055 82.8586 23.1611C82.8389 20.1167 85.2902 17.6258 88.3346 17.6061C91.379 17.5863 93.8699 20.0376 93.8897 23.082C93.9292 26.1264 91.4778 28.6173 88.4137 28.6371ZM88.3544 17.9421C85.5077 17.9619 83.1947 20.2946 83.2145 23.1611C83.2343 26.0078 85.567 28.3208 88.4334 28.301C91.2802 28.2812 93.5931 25.9485 93.5733 23.082C93.5338 20.2156 91.2011 17.9224 88.3544 17.9421Z" fill="#E0BA99"/>
<path d="M92.2093 23.2998C92.2291 25.2372 90.6673 26.8187 88.73 26.8187C86.7926 26.8384 85.2111 25.2767 85.2111 23.3394C85.1914 21.402 86.7531 19.8205 88.6905 19.8205C90.6278 19.8007 92.2093 21.3625 92.2093 23.2998Z" fill="#593E39"/>
<path d="M88.8091 26.4432C89.2045 25.3954 89.5208 24.3279 89.6196 23.2209C89.7185 22.1138 89.5603 20.9672 89.0266 19.9985C89.0463 19.9985 88.6905 20.3544 88.6707 20.3741C88.5126 20.5916 88.473 20.9672 88.4137 21.2044C88.2753 21.7777 88.2161 22.3708 88.1963 22.9639C88.1765 23.5569 88.2358 24.15 88.3347 24.7233C88.394 25.0198 88.4533 25.3163 88.5521 25.6129C88.5719 25.771 88.8486 26.3246 88.8091 26.4432Z" fill="#30211F"/>
<path d="M85.8043 23.5373C85.8241 23.6559 85.8438 23.7745 85.9229 23.8734C85.9822 23.9722 86.0811 24.0513 86.1997 24.071C86.3776 24.0908 86.5357 23.9524 86.595 23.7943C86.6544 23.6361 86.6544 23.4582 86.6741 23.2803C86.7137 22.8256 86.8718 22.3709 87.1091 21.9558C87.5242 21.2836 86.516 21.4418 86.2392 21.8174C85.8834 22.3116 85.7054 22.9245 85.8043 23.5373Z" fill="white"/>
<path d="M87.5439 21.2637C87.6823 21.2834 87.8206 21.2241 87.9195 21.1253C88.0183 21.0264 88.0974 20.9078 88.1568 20.7892C88.1963 20.7299 88.216 20.6311 88.1765 20.5915C88.1567 20.5717 88.1369 20.5717 88.1172 20.552C87.8997 20.4927 87.5044 20.5717 87.3462 20.7694C87.2078 20.9671 87.3067 21.2241 87.5439 21.2637Z" fill="white"/>
<path d="M66.1736 24.1299C66.2725 24.5055 66.312 24.9009 66.312 25.316C66.3318 28.2616 63.9595 30.6734 60.9942 30.6931C59.0173 30.7129 57.2974 29.6454 56.3485 28.0639C56.902 30.4361 59.0568 32.1956 61.5873 32.1758C64.5328 32.156 66.9248 29.7442 66.9051 26.7987C66.9051 25.8498 66.6481 24.9206 66.1736 24.1299Z" fill="#E9F1F4"/>
<path d="M66.9842 26.996C67.004 29.9416 64.6317 32.3534 61.6664 32.3732C58.7209 32.3929 56.3091 30.0207 56.2893 27.0553C56.2695 24.1098 58.6418 21.698 61.6071 21.6782C64.5527 21.6782 66.9645 24.0505 66.9842 26.996Z" fill="white"/>
<path d="M61.686 32.5707C58.6416 32.5904 56.1507 30.1391 56.131 27.0947C56.1112 24.0503 58.5626 21.5594 61.607 21.5397C64.6514 21.5199 67.1422 23.9712 67.162 27.0156C67.1818 30.0403 64.7304 32.5509 61.686 32.5707ZM61.607 21.8757C58.7602 21.8955 56.4473 24.2282 56.4671 27.0947C56.4868 29.9414 58.8195 32.2544 61.686 32.2346C64.5327 32.2148 66.8457 29.8821 66.8259 27.0156C66.7864 24.1492 64.4537 21.8362 61.607 21.8757Z" fill="#E0BA99"/>
<path d="M65.462 27.2329C65.4817 29.1703 63.92 30.7518 61.9826 30.7518C60.0453 30.7715 58.4638 29.2098 58.4638 27.2725C58.444 25.3351 60.0058 23.7536 61.9431 23.7536C63.8805 23.7338 65.462 25.2956 65.462 27.2329Z" fill="#593E39"/>
<path d="M62.0617 30.3768C62.4571 29.329 62.7734 28.2615 62.8722 27.1544C62.971 26.0474 62.8129 24.9008 62.2791 23.9321C62.2989 23.9321 61.9431 24.288 61.9233 24.3077C61.7652 24.5252 61.7256 24.9008 61.6663 25.138C61.5279 25.7113 61.4686 26.3044 61.4489 26.8975C61.4291 27.4905 61.4884 28.0836 61.5872 28.6569C61.6465 28.9534 61.7059 29.2499 61.8047 29.5465C61.8245 29.7046 62.1012 30.2582 62.0617 30.3768Z" fill="#30211F"/>
<path d="M59.0569 27.4709C59.0766 27.5895 59.0964 27.7081 59.1755 27.807C59.2348 27.9058 59.3336 27.9849 59.4522 28.0046C59.6302 28.0244 59.7883 27.886 59.8476 27.7279C59.9069 27.5697 59.9069 27.3918 59.9267 27.2139C59.9662 26.7592 60.1244 26.3045 60.3616 25.8894C60.7768 25.2172 59.7685 25.3754 59.4918 25.751C59.1557 26.2254 58.958 26.8581 59.0569 27.4709Z" fill="white"/>
<path d="M60.7965 25.1968C60.9348 25.2165 61.0732 25.1572 61.1721 25.0584C61.2709 24.9595 61.35 24.8409 61.4093 24.7223C61.4489 24.663 61.4686 24.5642 61.4291 24.5246C61.4093 24.5049 61.3895 24.5049 61.3698 24.4851C61.1523 24.4258 60.7569 24.5049 60.5988 24.7025C60.4604 24.9002 60.5592 25.1572 60.7965 25.1968Z" fill="white"/>
<path d="M74.8719 31.4445C74.5556 31.5631 74.2789 31.8003 74.18 32.1166C74.1009 32.3538 74.1405 32.6108 74.2393 32.8481C74.4963 33.5795 75.1289 34.133 75.7813 34.5482C76.4337 34.9831 77.1453 35.3192 77.7384 35.8331C78.4303 35.1808 79.0431 34.4691 79.5967 33.6981C79.8339 33.362 80.0514 33.026 80.1502 32.6306C80.2491 32.2352 80.2688 31.7015 80.0316 31.3654C79.7746 31.0096 78.6478 30.377 77.7384 30.9898C77.4221 31.2072 77.1256 31.3852 76.9674 31.7015C76.4139 31.2666 75.5243 31.1677 74.8719 31.4445Z" fill="#593E39"/>
<path d="M82.9179 39.8461C82.8783 39.767 82.7795 39.7275 82.7004 39.767C81.7713 40.1031 80.684 40.1624 79.7746 39.7472C78.7862 39.2926 78.2129 38.2646 77.9954 37.2366C77.9756 37.1575 77.9559 37.0785 77.9559 36.9994C77.9559 36.9598 77.9559 36.9203 77.9559 36.8808C77.9756 36.09 77.9361 35.2795 77.7977 34.5085C77.7582 34.291 77.4221 34.3504 77.4617 34.5678C77.4814 34.6864 77.5012 34.805 77.521 34.9236C77.4617 34.9632 77.4221 35.0225 77.4221 35.1016C77.4617 35.7539 77.5012 36.4063 77.6198 37.0389C77.6 37.5727 77.5407 38.0867 77.4221 38.6204C77.3628 38.917 77.2837 39.2135 77.1256 39.4902C76.9872 39.7472 76.7697 39.9647 76.5721 40.1822C76.1371 40.5973 75.6232 40.9531 75.0696 41.2101C74.4568 41.5067 73.7847 41.6846 73.0927 41.7241C72.9939 41.7241 72.9346 41.823 72.9543 41.9218C72.9741 42.0207 73.0532 42.0602 73.152 42.0602C74.4172 41.9614 75.6627 41.4474 76.6314 40.5973C76.8686 40.3798 77.1058 40.1426 77.2837 39.8856C77.4814 39.6089 77.6 39.3123 77.6791 38.996C77.7582 38.6797 77.8175 38.3437 77.857 38.0076C77.9559 38.3041 78.0942 38.5809 78.2722 38.8577C78.5687 39.3519 78.9839 39.7472 79.4979 40.024C79.9723 40.281 80.5061 40.3996 81.02 40.4194C81.6329 40.4392 82.2457 40.3403 82.8388 40.1229C82.9178 40.0438 82.9574 39.9252 82.9179 39.8461Z" fill="#593E39"/>
<path d="M92.1697 5.62549C94.0675 8.63035 94.1663 12.3864 95.0559 15.8262C94.9966 15.589 93.7116 15.1936 93.4744 15.0948C92.8814 14.8575 92.2685 14.6401 91.6557 14.4622C90.4893 14.1063 89.1055 14.1261 87.9985 13.7109C86.4367 13.1179 89.1055 9.38157 89.659 8.55128C90.3509 7.46399 91.1614 6.45578 92.1697 5.62549Z" fill="#FFE0B6"/>
<path d="M51.3272 12.1698C53.9565 13.1187 55.8938 15.3724 57.5742 17.6063C55.2019 20.0378 53.0867 22.6473 50.8923 25.2173C50.9912 23.1811 50.5563 21.1449 50.5563 19.0889C50.5365 18.5156 51.1493 12.1105 51.3272 12.1698Z" fill="#FFE0B6"/>
<path d="M61.9826 49.7899C67.9924 52.6761 75.0894 52.9726 81.4747 51.1341C87.8798 49.2759 93.593 45.3814 98.041 40.4194C96.7363 43.3452 95.0559 46.0931 93.3162 48.8014C91.3987 51.7865 89.3427 54.8111 86.3774 56.7485C82.8388 59.0614 78.3512 59.5754 74.1998 58.844C70.0483 58.1125 66.1736 56.2543 62.5362 54.0995C60.4011 52.8343 58.2859 51.4109 56.7439 49.4538C56.4078 49.0189 54.9845 47.299 55.4194 46.7455C55.8345 46.2117 57.3172 47.0618 57.7126 47.299C59.1359 48.1293 60.4802 49.0584 61.9826 49.7899Z" fill="#DBC09C"/>
<path d="M65.0469 17.0919C65.3632 17.6059 65.8376 18.0013 66.2133 18.456C66.6482 18.9897 66.9447 19.6026 67.1029 20.2747C67.4389 21.6783 67.2017 23.4377 68.3483 24.3273C68.4669 24.4262 68.6646 24.5052 68.7832 24.4064C68.882 24.3273 68.9018 24.1889 68.9018 24.0703C68.9611 22.726 69.0007 21.3422 68.4471 20.1166C68.0913 19.2863 67.4587 18.5746 67.261 17.7048C67.004 16.5977 67.4785 15.4116 67.1622 14.3243C67.0436 13.8894 66.7866 13.4742 66.6877 13.0591C65.9167 13.2765 65.1655 13.5335 64.3945 13.8301C64.5131 14.9371 64.4736 16.2023 65.0469 17.0919Z" fill="#FFE0B6"/>
<path d="M77.936 17.151C78.45 15.5893 77.6988 13.9287 77.1453 12.3669C77.0662 12.1495 77.0069 11.8925 77.0069 11.6553C76.3545 11.6553 75.7022 11.675 75.0498 11.6948C75.2673 12.0111 75.4056 12.3867 75.4649 12.7623C75.5836 13.5333 75.4254 14.3241 75.5045 15.1148C75.6033 16.0835 76.0382 17.0324 75.9592 18.0011C75.8999 18.8709 75.4056 19.7012 75.4254 20.571C75.4649 21.7769 76.4534 22.884 76.2755 24.0701C76.2162 24.5248 76.0382 25.1178 76.4336 25.3551C77.1453 24.4062 77.4616 23.1805 77.3232 22.0141C77.2046 21.1048 76.829 20.2152 77.0069 19.3256C77.1453 18.5546 77.6791 17.9022 77.936 17.151Z" fill="#FFE0B6"/>
<path d="M78.8652 11.7144C79.2013 12.2679 79.3397 12.94 79.399 13.5924C79.4781 14.5611 79.4385 15.589 79.8141 16.4984C79.9525 16.8543 80.2688 17.2299 80.6444 17.1508C80.9805 17.0915 81.1584 16.6763 81.1189 16.3403C81.0793 16.0042 80.9014 15.6879 80.7828 15.3716C80.3677 14.2645 80.763 13.0389 80.8421 11.8527C80.1897 11.7934 79.5176 11.7341 78.8652 11.7144Z" fill="#FFE0B6"/>
<path d="M74.3184 23.7739C74.2591 23.2797 73.7451 23.0029 73.3893 22.6668C72.5195 21.8168 72.5195 20.3934 72.7962 19.2073C72.9939 18.3375 73.3102 17.3886 72.9543 16.578C72.5985 15.7873 71.6694 15.2931 71.531 14.443C71.4322 13.9092 71.6892 13.3755 71.9264 12.8813C72.0845 12.565 72.2822 12.2091 72.5194 11.9126C71.5112 12.0312 70.5426 12.1696 69.5541 12.3673C69.7716 13.2964 69.2576 14.4035 69.4553 15.3919C69.6727 16.4594 70.6612 17.1711 71.1554 18.1398C71.9659 19.7213 71.3531 21.7179 71.9264 23.3983C72.1241 23.9716 72.5194 24.5449 73.1125 24.703C73.666 24.8612 74.4172 24.3867 74.3184 23.7739Z" fill="#FFE0B6"/>
<path d="M86.0216 126.829C83.5307 125.287 80.5654 124.813 77.6396 124.516C75.9593 125.505 74.6941 127.027 74.2196 129.142C73.7452 131.297 74.4371 133.63 75.9197 135.231C76.1965 135.27 76.4535 135.31 76.7303 135.349C79.5177 135.804 82.2853 136.377 85.0332 137.069C86.0612 137.326 87.1484 137.603 88.1369 137.208C89.2242 136.773 89.8567 135.606 90.0544 134.44C90.5882 131.455 88.6311 128.43 86.0216 126.829Z" fill="#FFE0B6"/>
</svg>
