<svg width="112" height="128" viewBox="0 0 112 128" fill="none" xmlns="http://www.w3.org/2000/svg">
<path d="M66.0393 127.808C88.7357 127.808 107.135 125.029 107.135 121.601C107.135 118.173 88.7357 115.394 66.0393 115.394C43.3429 115.394 24.9438 118.173 24.9438 121.601C24.9438 125.029 43.3429 127.808 66.0393 127.808Z" fill="#BDC0CE"/>
<path d="M36.0343 108.034C32.5437 107.501 29.2767 105.369 27.6948 102.223C26.1989 99.2308 26.3192 95.7402 26.3192 92.4045C26.3192 89.447 26.1817 86.4551 25.3048 83.6351C24.4278 80.8152 22.7084 78.15 20.1635 76.6713C18.0658 75.4504 14.1282 74.4359 11.7037 74.2984C9.72631 74.1952 -0.779682 75.2441 0.871015 81.0903C2.05745 85.2858 7.83488 83.9618 8.41951 83.8071C11.5146 82.913 14.8847 84.856 16.587 87.5899C18.2893 90.3239 18.702 93.6425 18.9083 96.8579C19.1146 100.073 19.1834 103.358 20.3527 106.367C21.178 108.516 22.5536 110.407 24.1183 112.092C25.5455 113.623 27.179 115.016 29.122 115.789C30.8415 116.477 32.7157 116.649 34.5555 116.752C37.4786 116.924 40.4362 116.976 43.2733 116.322C46.1276 115.669 48.8788 114.259 50.667 111.955C51.6299 110.717 52.3177 109.169 52.2318 107.605C52.1458 106.023 51.2001 104.458 49.7213 103.925C47.2281 103.031 45.2851 102.532 43.9783 103.994C40.8316 107.45 38.7682 108.464 36.0343 108.034Z" fill="#E0BA99"/>
<path d="M33.8505 107.467C31.9247 106.762 30.1881 105.576 28.8984 103.994C27.2478 106.487 25.1844 108.688 22.8115 110.494C23.2414 111.044 23.6884 111.56 24.1527 112.075C24.9093 112.884 25.7174 113.657 26.5944 114.311C29.6894 113.004 32.1655 110.459 33.8505 107.467Z" fill="#EACEA4"/>
<path d="M13.8016 74.5393C13.0622 74.4017 12.3572 74.3157 11.7554 74.2813C11.0848 74.247 9.43409 74.3329 7.59425 74.7112C8.69472 77.6171 7.23316 80.8841 6.87207 84.0652C7.68022 83.9792 8.29924 83.8416 8.47119 83.79C9.17618 83.5837 9.88115 83.5321 10.6033 83.6009C11.8929 80.8497 12.9246 77.9954 13.664 75.0551C13.6984 74.8832 13.7328 74.7112 13.8016 74.5393Z" fill="#EACEA4"/>
<path d="M21.2297 101.879C23.1383 101.294 25.0641 100.727 26.9727 100.142C26.4569 98.2508 26.3881 96.2562 26.3709 94.2444C26.1646 94.3647 25.941 94.4851 25.7175 94.6055C24.1872 95.3964 22.5881 96.0498 20.9374 96.5313C20.284 96.7204 19.5962 96.8924 18.96 97.1503C19.0631 98.8526 19.1491 100.572 19.3726 102.257C20.0088 102.188 20.645 102.051 21.2297 101.879Z" fill="#EACEA4"/>
<path d="M26.2507 88.5872C26.1131 86.9021 25.8552 85.2342 25.3566 83.6351C24.5828 81.1591 23.1728 78.8034 21.1095 77.2559C21.6941 79.4568 20.4733 81.7609 18.9257 83.446C17.9456 84.512 16.828 85.4406 15.8135 86.4723C16.1058 86.8161 16.3809 87.1944 16.6216 87.5727C17.3782 88.7763 17.8769 90.0832 18.2036 91.4587C20.1809 90.8053 22.1068 90.0488 24.0326 89.2578C24.7204 88.9655 25.5113 88.6732 26.2507 88.5872Z" fill="#EACEA4"/>
<path d="M43.3078 116.322C45.2164 115.892 47.0734 115.101 48.6382 113.949C47.7268 110.339 46.3684 106.779 44.5458 103.512C44.3567 103.633 44.1847 103.787 44.0128 103.976C42.2589 105.937 40.8317 107.106 39.439 107.691C40.2127 110.648 40.8661 113.64 41.4164 116.666C42.0526 116.563 42.6888 116.46 43.3078 116.322Z" fill="#EACEA4"/>
<path d="M107.547 76.8779C109.8 77.6688 111.193 80.0933 111.296 82.4662C111.365 83.9277 111.021 85.3721 110.66 86.7821C108.734 94.365 106.309 101.827 103.369 109.066C102.079 112.265 100.566 115.566 97.8152 117.629C96.302 118.764 94.4794 119.452 92.5879 119.624C91.3327 119.727 89.9744 119.555 89.0114 118.73C87.6015 117.492 87.6015 115.325 87.825 113.468C88.9427 103.977 92.7943 94.9496 97.7808 86.7993C98.5717 85.5097 99.3799 84.2372 99.9989 82.8445C100.532 81.6236 100.635 80.334 101.065 79.096C101.89 76.7575 105.432 76.1557 107.547 76.8779Z" fill="#CEAA8E"/>
<path d="M97.8666 124.232C98.967 124.731 100.411 125.195 101.288 124.37C101.512 124.146 100.962 123.733 100.635 123.613C101.546 123.957 102.423 124.026 103.231 123.476C103.713 123.166 103.249 122.564 102.853 122.272C103.438 122.702 104.177 122.375 104.246 121.722C104.315 121.068 103.816 120.501 103.317 120.071C99.9987 117.182 95.3045 116.632 91.2982 114.809C90.1977 114.311 89.1316 113.709 87.9796 113.331C86.2601 112.763 84.3687 112.729 82.6148 113.21C82.2365 113.313 81.8411 113.451 81.5487 113.709C78.7976 116.099 85.985 118.541 87.2058 119.142C90.7307 120.914 94.2901 122.599 97.8666 124.232Z" fill="#CEAA8E"/>
<path d="M43.9784 77.2217C42.1729 84.0824 43.5657 88.1747 44.0644 95.2418C44.563 102.309 47.5549 109.531 53.3839 113.571C56.1695 115.497 59.4365 116.615 62.7207 117.492C69.7189 119.383 75.8918 120.587 83.0621 119.486C100.136 116.856 104.229 95.878 104.194 87.401C104.16 78.9068 102.939 70.4813 102.131 62.0215C101.667 57.293 101.323 52.4784 99.5862 48.0594C96.2333 39.548 87.4639 33.4438 78.3163 33.2719C71.7651 33.1515 65.2827 36.0746 60.8121 40.8204C55.7396 46.1851 53.6075 52.7707 50.1857 60.388C48.2255 64.7211 45.1992 72.6135 43.9784 77.2217Z" fill="#EACEA4"/>
<path d="M60.8293 2.0979C61.4311 1.16939 62.1704 0.189284 63.2537 0.0345312C63.8727 -0.0514426 64.5089 0.1377 65.0592 0.430011C67.1569 1.53048 68.3434 3.81738 69.2547 6.01831C70.5099 9.04458 71.5588 12.2772 71.3524 15.5442C71.1289 18.9144 69.5814 22.0954 67.5008 24.7606C65.4202 27.4258 62.8238 29.6439 60.2446 31.8104C58.8347 32.9969 57.3731 34.2005 55.6192 34.7507C53.4871 35.4385 51.2002 35.1978 51.2002 32.7218C51.2002 30.2285 51.5785 27.6665 51.9568 25.2077C52.8165 19.8945 54.3812 14.6845 56.6165 9.80115C57.8374 7.13596 59.2473 4.55675 60.8293 2.0979Z" fill="#EACEA4"/>
<path d="M58.7658 16.3522C58.869 10.1793 60.9839 6.13853 61.964 2.88872C62.1703 2.16654 62.8925 1.06607 63.4256 0C63.374 0 63.3224 0.0171958 63.2708 0.0171958C62.1875 0.189143 61.4482 1.16924 60.8463 2.08057C59.2472 4.53942 57.8373 7.11863 56.6336 9.78381C54.3983 14.6843 52.8336 19.8771 51.9739 25.1903C51.5784 27.632 51.2173 30.2112 51.2173 32.7044C51.2173 35.1805 53.5042 35.4212 55.6363 34.7334C57.3902 34.166 58.8518 32.9623 60.2617 31.7931C60.3305 31.7415 60.3821 31.6899 60.4509 31.6383C61.0871 29.2827 57.6309 27.7179 57.6653 25.2591C57.7169 20.1523 58.6798 21.3215 58.7658 16.3522Z" fill="#E0BA99"/>
<path d="M92.5019 1.89132C93.1725 1.01439 93.9807 0.0858717 95.0811 0.0170927C95.7001 -0.0344916 96.3192 0.223428 96.8522 0.550129C98.864 1.80535 99.8613 4.17822 100.601 6.44793C101.632 9.56018 102.509 13.9276 103.06 17.5557C103.558 20.8915 99.7065 22.5078 97.4368 25.0011C95.1671 27.4943 92.4159 29.5061 89.6648 31.4835C88.1688 32.5496 86.6213 33.65 84.8159 34.0799C82.6321 34.5957 80.3796 34.1831 80.5688 31.7242C80.7579 29.2482 81.3253 26.7033 81.8928 24.2961C83.148 19.0689 85.1082 13.9964 87.7046 9.28506C89.1145 6.68866 90.7137 4.22981 92.5019 1.89132Z" fill="#EACEA4"/>
<path d="M92.5363 8.71774C92.7083 6.70596 92.8974 4.67697 93.5508 2.76836C93.7915 2.06337 94.6169 1.01449 95.2359 0C95.1843 0 95.1327 0 95.0811 0C93.9807 0.0859738 93.1725 1.01449 92.5019 1.87423C90.7309 4.21271 89.1317 6.67157 87.7046 9.23359C85.1082 13.945 83.148 19.0174 81.8928 24.2446C81.3081 26.6519 80.7579 29.1967 80.5688 31.6727C80.3796 34.1488 82.6321 34.5443 84.8159 34.0284C86.6041 33.5986 88.1516 32.5153 89.6648 31.432C89.7336 31.3804 89.8024 31.3288 89.8711 31.2945C90.6965 29.0076 90.9716 26.4283 91.1779 23.9695C91.625 18.9142 92.0893 13.8246 92.5363 8.71774Z" fill="#E0BA99"/>
<path d="M57.8374 16.7304C53.8483 21.8028 51.5098 28.1477 51.2347 34.5785C51.0971 37.8112 51.4926 41.1297 52.9026 44.0357C54.9487 48.2828 59.0239 51.2918 63.4429 52.9253C67.862 54.5588 72.6421 54.9715 77.3535 55.1091C84.0938 55.3154 91.0749 54.9371 97.1447 51.9796C103.197 49.0221 112.431 34.441 103.954 18.9657C99.5691 10.9873 89.1319 5.94928 81.2051 6.36195C71.8856 6.8434 63.3742 9.69773 57.8374 16.7304Z" fill="#EACEA4"/>
<path d="M74.3094 21.7683C74.4126 22.267 74.4814 22.7656 74.4814 23.2986C74.4814 27.0815 71.4035 30.1593 67.6207 30.1593C65.093 30.1593 62.8749 28.7838 61.6885 26.7548C62.3763 29.8155 65.1102 32.0852 68.3772 32.0852C72.1601 32.0852 75.2379 29.0073 75.2379 25.2245C75.2379 23.952 74.8941 22.7828 74.3094 21.7683Z" fill="#E9F1F4"/>
<path d="M70.0336 32.1108C73.7212 31.2401 76.0046 27.5449 75.1339 23.8574C74.2631 20.1699 70.568 17.8864 66.8805 18.7571C63.1929 19.6279 60.9095 23.3231 61.7802 27.0106C62.6509 30.6981 66.3461 32.9816 70.0336 32.1108Z" fill="white"/>
<path d="M68.4632 32.5325C64.5599 32.5325 61.3789 29.3515 61.3789 25.4483C61.3789 21.545 64.5599 18.364 68.4632 18.364C72.3664 18.364 75.5474 21.545 75.5474 25.4483C75.5474 29.3515 72.3664 32.5325 68.4632 32.5325ZM68.4632 18.8111C64.8007 18.8111 61.826 21.7858 61.826 25.4483C61.826 29.1107 64.8007 32.0854 68.4632 32.0854C72.1256 32.0854 75.1003 29.1107 75.1003 25.4483C75.1003 21.7858 72.1256 18.8111 68.4632 18.8111Z" fill="#E0BA99"/>
<path d="M73.3809 25.7061C73.3809 28.1821 71.3692 30.1939 68.8931 30.1939C66.4171 30.1939 64.4053 28.1821 64.4053 25.7061C64.4053 23.23 66.4171 21.2183 68.8931 21.2183C71.3692 21.2183 73.3809 23.23 73.3809 25.7061Z" fill="#593E39"/>
<path d="M68.9791 29.7123C69.495 28.3883 69.9248 27.0127 70.0452 25.5856C70.1828 24.1756 69.9936 22.6969 69.3058 21.4417C69.323 21.4417 68.876 21.8887 68.8416 21.9403C68.6352 22.2154 68.5836 22.6969 68.4977 23.0236C68.3257 23.7629 68.2226 24.5195 68.2054 25.2761C68.1882 26.0326 68.2397 26.7892 68.3601 27.5458C68.4289 27.9413 68.5149 28.3195 68.618 28.6978C68.6868 28.8526 69.0307 29.5576 68.9791 29.7123Z" fill="#30211F"/>
<path d="M65.1619 25.9639C65.1791 26.1187 65.2307 26.2562 65.2995 26.3938C65.3855 26.5141 65.5058 26.6345 65.6606 26.6345C65.8841 26.6517 66.0904 26.4797 66.1764 26.2734C66.2624 26.0671 66.2624 25.8435 66.2796 25.62C66.3312 25.0182 66.5203 24.4508 66.847 23.9349C67.3801 23.0752 66.0904 23.2643 65.7465 23.7458C65.2651 24.382 65.0244 25.1901 65.1619 25.9639Z" fill="white"/>
<path d="M67.4146 23.058C67.5865 23.0924 67.7757 23.0064 67.896 22.886C68.0336 22.7657 68.1196 22.6109 68.2055 22.4562C68.2571 22.3702 68.2915 22.267 68.2227 22.1983C68.2055 22.1811 68.1711 22.1639 68.1368 22.1467C67.8444 22.0607 67.3458 22.1639 67.1566 22.4218C66.9675 22.6797 67.1051 23.0236 67.4146 23.058Z" fill="white"/>
<path d="M100.033 21.5278C100.137 21.9921 100.188 22.4735 100.188 22.9722C100.188 26.5659 97.2823 29.4718 93.6886 29.4718C91.2985 29.4718 89.2008 28.1822 88.0659 26.2392C88.7193 29.1279 91.3157 31.2945 94.4108 31.2945C98.0045 31.2945 100.91 28.3885 100.91 24.7948C100.928 23.6084 100.601 22.4907 100.033 21.5278Z" fill="#E9F1F4"/>
<path d="M100.992 25.4709C101.246 21.8902 98.55 18.7812 94.9693 18.5267C91.3887 18.2723 88.2797 20.9687 88.0252 24.5494C87.7707 28.13 90.4672 31.239 94.0478 31.4935C97.6285 31.7479 100.737 29.0515 100.992 25.4709Z" fill="white"/>
<path d="M94.4966 31.7241C90.7997 31.7241 87.7734 28.715 87.7734 25.001C87.7734 21.3041 90.7825 18.2778 94.4966 18.2778C98.1935 18.2778 101.22 21.2869 101.22 25.001C101.22 28.715 98.2106 31.7241 94.4966 31.7241ZM94.4966 18.7249C91.0232 18.7249 88.2033 21.5448 88.2033 25.0182C88.2033 28.4915 91.0232 31.3115 94.4966 31.3115C97.9699 31.3115 100.79 28.4915 100.79 25.0182C100.79 21.5448 97.9699 18.7249 94.4966 18.7249Z" fill="#E0BA99"/>
<path d="M99.1565 25.2765C99.1565 27.6322 97.2479 29.5408 94.8922 29.5408C92.5366 29.5408 90.6279 27.6322 90.6279 25.2765C90.6279 22.9208 92.5366 21.0122 94.8922 21.0122C97.2479 21.0122 99.1565 22.9208 99.1565 25.2765Z" fill="#593E39"/>
<path d="M94.9955 29.0591C95.477 27.8039 95.8896 26.4971 96.01 25.1559C96.1304 23.8147 95.9584 22.4047 95.305 21.2183C95.3222 21.2183 94.8924 21.6481 94.858 21.6825C94.6688 21.9404 94.6172 22.3875 94.5313 22.697C94.3593 23.402 94.2733 24.107 94.2562 24.8292C94.239 25.5513 94.2905 26.2735 94.4109 26.9785C94.4797 27.3396 94.5485 27.7179 94.6516 28.0618C94.7032 28.2509 95.0471 28.9215 94.9955 29.0591Z" fill="#30211F"/>
<path d="M91.3672 25.4999C91.3844 25.6375 91.4188 25.775 91.5048 25.8954C91.5736 26.0157 91.6939 26.1189 91.8487 26.1361C92.055 26.1533 92.2442 25.9985 92.3301 25.7922C92.4161 25.6031 92.4161 25.3795 92.4333 25.1732C92.4849 24.6058 92.674 24.0555 92.9664 23.5741C93.465 22.7659 92.2442 22.9379 91.9175 23.3849C91.4704 24.004 91.2297 24.7605 91.3672 25.4999Z" fill="white"/>
<path d="M93.4992 22.7659C93.6711 22.7831 93.8431 22.7143 93.9634 22.6112C94.0838 22.508 94.187 22.3532 94.2557 22.1985C94.2901 22.1125 94.3417 22.0093 94.2729 21.9578C94.2557 21.9406 94.2213 21.9234 94.187 21.9062C93.9118 21.8202 93.4304 21.9234 93.2584 22.1641C93.0865 22.3876 93.2069 22.7143 93.4992 22.7659Z" fill="white"/>
<path d="M59.1958 37.158C57.8031 36.3327 56.2383 35.5073 55.6193 34.0286C55.3098 33.272 55.2754 32.4466 55.2926 31.6213C55.3442 28.2683 56.0148 24.795 58.0094 22.0954C58.6628 21.2013 59.4709 20.4103 59.9352 19.3958C60.3995 18.3985 60.4338 17.0745 59.6601 16.3008C59.3506 16.0084 58.9723 15.8021 58.6284 15.5442C58.3533 15.8537 58.0954 16.1632 57.8374 16.4899C53.8483 21.5624 51.5098 27.9072 51.2347 34.3381C51.0971 37.5707 51.4926 40.8893 52.9026 43.7952C53.1261 44.2422 53.3668 44.6893 53.6247 45.102C54.8971 45.4287 56.3071 45.3083 57.6139 45.016C58.7316 44.7753 59.8664 44.397 60.7606 43.692C61.6547 42.987 62.3081 41.8694 62.2049 40.7173C62.0674 39.1182 60.5886 37.9662 59.1958 37.158Z" fill="#E0BA99"/>
<path d="M81.1706 6.36172C80.5 6.39611 79.8294 6.44769 79.176 6.49928C78.8149 6.86037 78.3679 7.03232 77.7832 7.25585C76.786 7.63414 75.8918 8.21876 75.1524 8.97533C74.9805 9.14727 74.8085 9.35361 74.7226 9.57714C74.4818 10.2649 75.1009 10.9527 75.7371 11.331C76.6656 11.8812 77.7145 12.1564 78.6946 12.569C79.6747 12.9989 80.6548 13.6351 81.0674 14.6152C81.4973 15.6297 81.2738 16.8161 81.6865 17.8306C82.1335 18.9311 83.2856 19.6705 84.472 19.722C85.6585 19.7736 86.8277 19.2234 87.6359 18.3465C88.1173 17.8134 88.4956 17.1944 88.9426 16.6442C89.6132 15.8016 90.473 15.131 91.3671 14.5292C91.6766 14.3229 91.9861 14.1166 92.2097 13.8242C92.5879 13.3256 92.6051 12.655 92.6223 12.0188C92.6395 10.9011 92.6051 9.74909 92.2612 8.70021C88.5815 7.04951 84.6439 6.18978 81.1706 6.36172Z" fill="#E0BA99"/>
<path d="M81.1187 32.309C80.7404 32.395 80.3621 32.6014 80.1902 32.9625C80.0526 33.2376 80.0698 33.5471 80.1214 33.8394C80.3105 34.7507 80.9467 35.4901 81.6345 36.1091C82.3223 36.7281 83.0961 37.2611 83.6979 37.9661C84.6092 37.3299 85.469 36.5905 86.2427 35.7824C86.5694 35.4385 86.8961 35.0774 87.0853 34.6475C87.2744 34.2177 87.3948 33.5815 87.1712 33.1516C86.9305 32.6873 85.7269 31.7588 84.5405 32.309C84.145 32.4982 83.7667 32.6529 83.526 33.014C82.9413 32.3606 81.944 32.1027 81.1187 32.309Z" fill="#593E39"/>
<path d="M41.382 78.8895C37.3584 88.6733 38.3729 100.091 42.8435 109.668C44.6146 113.468 48.0191 116.288 51.7676 118.197C55.4988 120.105 59.7803 120.466 62.136 116.993C63.7523 114.603 63.7008 111.474 63.3397 108.619C61.9985 97.563 57.1668 87.1257 50.6671 78.0813C49.4635 76.3962 47.5205 74.0749 45.1476 74.3157C42.9811 74.522 42.1041 77.1356 41.382 78.8895Z" fill="#CEAA8E"/>
<path d="M65.5751 124.696C66.6755 125.195 68.1199 125.659 68.9968 124.834C69.4783 124.542 68.6701 124.198 68.3434 124.077C69.2547 124.421 70.3036 124.421 71.0946 123.871C71.4557 123.648 70.9742 122.994 70.5615 122.736C70.9054 123.287 71.8855 122.839 71.9543 122.186C72.0231 121.533 71.5244 120.965 71.0258 120.535C67.7072 117.647 63.0131 117.096 59.0067 115.274C57.9062 114.775 56.8401 114.173 55.6881 113.795C53.9686 113.228 52.0772 113.193 50.3233 113.675C49.945 113.778 49.5495 113.915 49.2572 114.173C46.5061 116.563 53.6935 119.005 54.9143 119.607C58.4564 121.361 61.9986 123.063 65.5751 124.696Z" fill="#CEAA8E"/>
<path d="M63.2706 5.02098C63.4254 4.78025 63.5973 4.53952 63.8725 4.43635C64.3367 4.2644 64.8182 4.5911 65.1621 4.95219C66.3141 6.19022 66.8644 7.85811 67.3802 9.47442C65.1449 11.1423 63.0643 12.9993 60.8462 14.6844C61.2589 11.3486 61.3276 7.94409 63.2706 5.02098Z" fill="#FFE0B6"/>
<path d="M94.5997 4.1267C94.359 4.55657 94.2902 5.07241 94.2386 5.55387C94.1011 6.84347 94.0667 8.15028 94.1355 9.45708C94.1355 9.59464 94.1527 9.73219 94.2214 9.85256C94.2902 9.97292 94.4106 10.0589 94.531 10.1449C96.5083 11.4861 98.8468 12.5006 100.119 14.5295C99.483 12.6381 99.483 10.6091 99.1219 8.64892C98.95 7.65163 98.6749 6.68872 98.331 5.74301C98.1075 5.124 97.8323 4.52218 97.3681 4.04073C96.5599 3.21538 95.2187 2.97466 94.5997 4.1267Z" fill="#FFE0B6"/>
<path d="M91.2812 53.424C90.1635 51.0512 86.4151 47.6466 81.1707 49.2113C78.7806 49.9163 76.6656 51.1887 75.7199 53.4928C75.376 54.3181 75.2213 55.2811 75.5996 56.0892C75.9779 56.8974 77.0611 57.396 77.8177 56.9146C77.491 57.6024 77.7661 58.5309 78.4195 58.9264C79.0729 59.3218 80.0186 59.1499 80.4829 58.5309C79.6575 59.3906 80.758 60.8006 81.9272 60.577C83.492 60.2847 83.4748 58.892 83.8703 58.892C85.5038 58.892 86.4151 63.9472 86.8449 64.7382C88.6676 68.1427 91.4875 70.5844 95.2532 71.4441C99.0188 72.3039 103.524 70.0513 105.742 66.9047C107.272 64.7382 107.616 61.7291 106.653 59.2702C105.742 56.949 102.561 53.8023 100.584 56.8974C99.1908 59.0811 100.326 60.13 96.7491 60.2503C93.4477 60.3191 92.6052 56.2268 91.2812 53.424Z" fill="#CEAA8E"/>
<path d="M62.1702 72.5962C60.6915 86.1629 64.1648 99.8155 69.1685 112.505C70.6816 116.322 72.4699 120.277 75.8229 122.65C76.2699 122.977 76.7686 123.269 77.3188 123.269C77.869 123.286 78.4709 122.908 78.5224 122.358C79.2274 123.149 80.7921 122.753 81.0501 121.722C80.8781 122.392 82.2021 122.444 82.3913 121.773C82.5804 121.103 82.0645 120.466 81.6003 119.933C77.422 115.153 75.2898 108.843 74.6364 102.532C73.983 96.2218 74.7052 89.8426 75.6509 83.5665C76.0808 80.7809 76.545 77.961 76.2871 75.1582C76.012 72.3555 74.9115 69.5012 72.6934 67.7645C68.1884 64.274 62.7376 67.4206 62.1702 72.5962Z" fill="#CEAA8E"/>
<path d="M81.9617 46.4602C82.4259 47.3371 82.5635 48.3344 82.8558 49.2801C83.1309 50.1399 83.5092 50.9652 84.0078 51.7046C84.8332 52.9426 86.054 54.0259 87.5156 54.2666C87.8251 54.3182 88.1518 54.3182 88.4269 54.1806C88.8396 53.9743 89.0459 53.4929 89.0287 53.0286C89.0287 52.5643 88.8568 52.1345 88.6848 51.7218C88.0142 50.0711 87.2748 48.3688 87.4124 46.5806C87.4468 46.1163 87.55 45.652 87.55 45.1878C87.55 44.7235 87.4296 44.2421 87.1029 43.8982C86.7418 43.5371 86.2088 43.4167 85.7445 43.1932C84.5925 42.6086 84.025 41.3018 83.5436 40.0981C83.2857 40.9407 82.9417 41.7832 82.3743 42.471C81.8069 43.1588 81.0159 43.6918 80.139 43.795C79.6919 43.8466 78.9698 43.7434 78.6431 44.1045C80.053 44.5344 81.2567 45.1018 81.9617 46.4602Z" fill="#FFA599"/>
<path d="M89.0631 43.5715C89.0287 43.4684 88.9255 43.4168 88.8224 43.434C87.6703 43.6575 86.3979 43.5371 85.4178 42.8837C84.3345 42.1616 83.8703 40.8719 83.7671 39.6167C83.7671 39.5308 83.7499 39.4276 83.7499 39.3416C83.7671 39.29 83.7671 39.2384 83.7843 39.2041C83.9563 38.2755 84.0422 37.3298 84.025 36.3841C84.025 36.1262 83.6295 36.1262 83.6295 36.3841C83.6295 36.5217 83.6295 36.6764 83.6295 36.814C83.5436 36.8312 83.492 36.9172 83.492 37.0031C83.4232 37.7597 83.3544 38.5335 83.3716 39.29C83.2513 39.909 83.0793 40.5109 82.873 41.0955C82.7526 41.4394 82.5979 41.7833 82.3743 42.0584C82.168 42.3335 81.8757 42.557 81.6006 42.7634C81.0159 43.176 80.3625 43.4855 79.6576 43.6919C78.8838 43.9154 78.0756 44.0014 77.2503 43.9498C77.1471 43.9498 77.0439 44.053 77.0439 44.1561C77.0439 44.2765 77.1299 44.3453 77.2503 44.3625C78.7634 44.4656 80.311 44.0702 81.5834 43.262C81.9101 43.0557 82.2196 42.8321 82.4775 42.5398C82.7526 42.2647 82.9418 41.938 83.0965 41.5769C83.2513 41.2158 83.3716 40.8376 83.492 40.4593C83.5608 40.8204 83.6639 41.1815 83.8187 41.5253C84.0938 42.1444 84.5065 42.6946 85.0567 43.1073C85.5554 43.4855 86.1572 43.7263 86.7762 43.8294C87.4984 43.967 88.2377 43.9498 88.9427 43.8122C89.0287 43.7951 89.0975 43.6747 89.0631 43.5715Z" fill="#593E39"/>
<path d="M88.2034 50.4667C88.3581 51.1201 88.5301 51.7563 88.5817 52.4269C88.5989 52.6676 88.5989 52.9427 88.4613 53.1491C88.3237 53.3382 88.0658 53.4414 87.8251 53.4242C87.5844 53.4242 87.3437 53.3382 87.1201 53.2351C85.693 52.5988 84.4893 51.4812 83.7327 50.1056C83.3201 49.349 83.0106 48.4721 82.4775 47.8015C82.6151 48.3002 82.7183 48.7988 82.873 49.2803C83.1481 50.14 83.5264 50.9654 84.0251 51.7047C84.8504 52.9427 86.0712 54.026 87.5328 54.2667C87.8423 54.3183 88.169 54.3183 88.4441 54.1808C88.8568 53.9744 89.0631 53.493 89.0459 53.0287C89.0459 52.5645 88.874 52.1346 88.702 51.7219C88.5473 51.3092 88.3753 50.8794 88.2034 50.4667Z" fill="#E29088"/>
<path d="M103.197 68.0396C102.182 68.8306 100.635 69.4668 99.414 69.7935C97.4022 70.3265 95.2528 69.8967 93.2754 69.2433C91.917 68.7962 89.9912 67.8161 89.0799 66.7328C86.5179 63.6893 86.707 61.5916 86.1396 60.1644C85.9505 59.6658 85.7097 59.1671 85.3315 58.7888C84.9532 58.4106 84.4201 58.1526 83.8871 58.2386C83.1649 58.359 82.6147 59.0812 81.8925 59.1499C81.7206 59.1671 81.5486 59.1155 81.3939 59.0468C80.3794 58.5137 80.9124 57.5508 80.964 57.035C80.7061 57.2757 80.4309 57.5164 80.1042 57.6712C79.7775 57.8087 79.3821 57.8259 79.0898 57.6196C78.7459 57.3617 78.6771 56.863 78.7115 56.4332C78.7459 56.0033 78.8834 55.5734 78.7975 55.1436C78.8662 55.5218 77.9033 56.0549 76.6309 55.7798C76.0807 55.6594 75.7368 55.2983 75.3413 55.0232C75.3413 55.4015 75.3929 55.7626 75.5476 56.1065C75.9259 56.9146 77.0092 57.4133 77.7658 56.9318C77.4391 57.6196 77.7142 58.5481 78.3676 58.9436C78.9866 59.3219 79.8635 59.1843 80.345 58.6513C79.6744 59.5282 80.7405 60.8178 81.8753 60.5943C83.44 60.302 83.4228 58.892 83.8183 58.892C85.4518 58.892 86.4147 63.9301 86.793 64.7382C89.0283 69.6043 92.0202 70.6704 95.3732 71.427C99.1388 72.2867 103.644 70.0342 105.862 66.8876C106.825 65.512 107.152 63.8097 107.152 62.1246C106.051 65.3057 105.174 66.4921 103.197 68.0396Z" fill="#B2937F"/>
<path d="M81.5832 121.051C80.9986 121.189 80.3108 121.258 80.0013 120.742C80.0357 121.086 80.0872 121.361 79.6918 121.515C79.2447 121.619 78.7632 121.498 78.4193 121.206C78.3678 121.567 77.7144 123.287 75.7198 121.189C72.3152 117.612 70.3894 112.041 68.3604 107.519C67.4147 105.421 63.907 93.6944 62.6689 89.688C63.8726 97.4772 66.2627 105.146 69.1514 112.488C70.6645 116.305 72.4528 120.26 75.8057 122.633C76.2528 122.96 76.7514 123.252 77.3017 123.252C77.8519 123.269 78.4537 122.891 78.5053 122.341C79.2103 123.132 80.775 122.736 81.033 121.705C80.861 122.375 82.185 122.427 82.3741 121.756C82.5117 121.275 82.271 120.811 81.9787 120.398C81.9271 120.673 81.9615 120.948 81.5832 121.051Z" fill="#B2937F"/>
<path d="M63.3051 108.602C62.772 104.269 61.706 100.039 60.2272 95.9465C61.1213 99.1104 61.7919 102.343 62.239 105.593C62.4109 106.814 62.5485 108.052 62.4969 109.272C62.3594 112.711 60.3132 116.941 56.5991 117.595C58.0091 117.354 59.505 117.887 60.8634 117.44C61.5512 117.216 62.1358 116.735 62.5657 116.15C63.7005 113.898 63.6146 111.147 63.3051 108.602Z" fill="#B2937F"/>
<path d="M94.6519 118.076C94.4281 118.128 94.2042 118.214 93.9976 118.317C94.2214 118.249 94.4453 118.18 94.6519 118.076Z" fill="#B2937F"/>
<path d="M98.5713 116.993C100.686 114.93 101.976 112.093 103.093 109.307C103.781 107.605 104.452 105.868 105.088 104.149C103.85 106.745 102.337 109.221 100.807 111.663C99.9125 113.107 98.984 114.534 97.8147 115.772C96.9378 116.701 95.8545 117.578 94.6509 118.094C95.2527 117.939 95.8889 117.887 96.4735 117.75C97.1957 117.561 97.9179 117.337 98.5713 116.993Z" fill="#B2937F"/>
<path opacity="0.17" d="M43.8921 78.58C44.2016 79.0958 44.7862 79.3709 45.3193 79.6461C48.2252 81.2108 50.2198 84.0479 51.8361 86.9194C52.1972 87.5728 52.5926 88.2434 53.2289 88.6217C53.7275 87.6932 53.4352 86.5584 53.0913 85.5783C52.1456 82.9303 50.7528 80.437 48.9989 78.2361C48.3971 77.4795 47.6921 76.723 46.7808 76.3791C45.6116 75.932 42.8948 76.9121 43.8921 78.58Z" fill="white"/>
</svg>
