<svg width="134" height="84" viewBox="0 0 134 84" fill="none" xmlns="http://www.w3.org/2000/svg">
<path d="M71.7242 54.5422C71.2391 57.877 72.088 61.3331 73.7705 64.2434C75.4531 67.1538 77.9542 69.5639 80.7584 71.4284C83.0625 72.9593 85.6545 74.2023 87.3219 76.4002C88.2768 77.6584 88.8832 79.1742 89.0347 80.7354C89.0802 81.2205 89.0954 81.7359 89.2924 82.1906C89.4895 82.6454 89.9139 83.0395 90.399 83.0092C90.884 82.9788 91.2933 82.3574 90.9901 81.9632C91.1266 82.2816 90.9598 82.8576 91.4146 82.9031C92.0209 82.8273 92.4605 82.1603 92.3241 81.5843C92.415 81.8268 92.1725 82.3877 92.5817 82.3119C93.6277 81.9784 94.0369 80.7355 94.2795 79.6592C96.1287 71.2162 96.3561 62.4093 94.9161 53.8905C94.522 51.5561 93.9914 49.2066 92.8849 47.0996C91.7632 45.0078 89.9897 43.1737 87.7463 42.4309C85.3059 41.6276 82.5622 42.1732 80.3037 43.4162C76.4687 45.5687 72.376 50.0858 71.7242 54.5422Z" fill="#4B4F4F"/>
<path d="M0.2541 69.518C0.481471 70.9732 0.951373 72.4284 1.81538 73.6259C2.04276 73.9442 2.3156 74.2625 2.69455 74.3383C3.07351 74.4141 3.54341 74.1413 3.49793 73.7623C3.64952 74.0806 4.05878 74.2625 4.39226 74.1564C4.90764 73.9745 4.54384 73.6562 4.559 73.3985C4.51353 73.7926 5.18048 73.929 5.42301 73.6107C5.66554 73.2924 5.58975 72.8377 5.48364 72.4436C5.07438 71.1248 4.34679 69.7303 4.83185 68.4267C5.13501 67.5778 5.90807 66.9866 6.69629 66.5622C8.06052 65.8195 9.59149 65.4102 11.1376 65.3647C12.8808 65.3192 14.6846 65.7437 16.3065 65.1373C18.459 64.3188 19.6413 61.7419 19.1866 59.4834C18.7318 57.2248 16.8977 55.4059 14.7452 54.5873C12.9414 53.89 9.71275 53.4353 7.95441 54.466C6.52955 55.2997 4.847 56.952 3.74046 58.2253C1.08779 61.3175 -0.367382 65.486 0.2541 69.518Z" fill="#4B4F4F"/>
<path d="M2.70961 40.6114C3.0734 45.3407 3.46751 50.1609 5.25617 54.572C7.87852 61.0445 13.5325 66.1376 20.1566 68.3507C23.8703 69.5936 27.8114 69.9574 31.7222 70.2909C46.3498 71.5339 61.1592 72.3827 75.6504 70.0029C78.9548 69.4572 82.3957 68.6841 84.9575 66.5165C87.4282 64.4247 88.7773 61.3021 89.899 58.2554C90.9601 55.4056 91.8999 52.4801 92.0818 49.4485C92.3395 45.0527 90.9601 40.7023 89.0198 36.7309C88.0497 34.7603 86.9432 32.8352 85.4122 31.2588C81.3801 27.1206 75.2108 26.0444 69.4507 25.62C61.2502 25.0288 52.989 25.3471 44.834 24.3467C41.863 23.9829 38.8768 23.4221 36.1939 22.1033C33.7534 20.9058 31.6616 19.102 29.2666 17.8136C23.3549 14.6455 16.2458 14.8577 9.57623 15.5398C6.7265 15.8279 2.25486 16.8738 1.39085 20.1479C0.966426 21.7698 1.39085 23.7252 1.52728 25.3623C1.70917 27.7724 1.90623 30.1674 2.08813 32.5776C2.28518 35.2757 2.4974 37.9435 2.70961 40.6114Z" fill="#656A6B"/>
<path d="M69.9815 47.6149C67.6774 50.0705 66.389 53.3901 66.101 56.7401C65.813 60.09 66.4799 63.4854 67.7229 66.6232C68.7385 69.2 70.1482 71.7011 70.2695 74.4599C70.3301 76.0363 69.9512 77.6279 69.1932 79.0073C68.9507 79.4317 68.6779 79.8562 68.5718 80.3412C68.4657 80.8263 68.5869 81.4023 69.0113 81.66C69.4358 81.9177 70.1179 81.6297 70.1027 81.1446C70.0421 81.4781 69.557 81.948 69.9057 82.1602C70.4362 82.4331 71.1941 82.1602 71.4063 81.5994C71.3305 81.8419 70.9061 82.1299 71.1941 82.3421C72.2552 82.6604 73.3011 81.8874 74.1045 81.1295C80.4557 75.2633 85.6701 68.1693 89.3687 60.3629C90.3843 58.2256 91.2938 55.9822 91.5818 53.6327C91.8698 51.2832 91.4605 48.7669 90.0356 46.857C88.4895 44.7955 85.9278 43.6738 83.3661 43.4161C79.0005 42.9614 73.0586 44.3256 69.9815 47.6149Z" fill="#656A6B"/>
<path d="M23.34 81.5081C23.5977 81.8871 23.8857 82.2812 24.3253 82.4025C24.7649 82.5086 25.3257 82.1145 25.1741 81.69C25.356 82.1145 25.8259 82.3873 26.2807 82.357C26.796 82.0993 26.7354 81.8568 26.6445 81.4778C26.6141 81.9629 27.463 82.0235 27.7055 81.5839C27.9329 81.1595 27.751 80.629 27.5388 80.1742C26.508 77.8853 25.2499 75.5662 25.3105 73.0499C25.3409 71.6857 25.7804 70.3669 25.9623 69.0027C26.3716 66.062 25.5531 62.9546 23.7493 60.5899C21.9454 58.2253 19.1715 56.6185 16.2308 56.2244C12.8051 55.7697 8.15158 57.907 10.3192 61.8784C12.699 66.2288 15.8367 70.3214 18.5955 74.4445C20.1568 76.794 21.7332 79.1586 23.34 81.5081Z" fill="#656A6B"/>
<path d="M87.5341 31.3048C88.959 31.1229 90.3687 30.7591 91.5813 29.9861C95.0526 27.7881 95.7498 23.1194 97.7355 19.5118C100.312 14.828 105.345 11.8267 110.59 10.7959C115.834 9.76516 121.291 10.5382 126.43 11.9782C128.628 12.5997 130.886 13.4031 132.417 15.0857C133.948 16.7682 134.479 19.5876 132.993 21.3156C131.371 23.2104 128.431 22.9376 125.975 22.5131C123.883 22.1493 121.791 21.7855 119.7 21.4217C117.229 20.9973 114.591 20.5729 112.257 21.4975C108.467 22.9982 106.861 27.3486 104.814 30.8804C101.434 36.6859 95.7953 41.1576 89.3683 43.113C86.6853 43.9315 83.7901 44.3105 81.1071 43.5374C78.4241 42.7643 75.9988 40.627 75.4986 37.8683C74.0131 29.7435 83.1989 31.8808 87.5341 31.3048Z" fill="#656A6B"/>
<path d="M36.0273 21.9826C29.9793 28.8947 20.7025 32.8206 11.5319 32.3659C13.4418 33.1541 15.5336 33.427 17.5951 33.5331C23.0823 33.8059 28.615 32.9419 33.7536 31.0168C37.4825 29.6374 41.5752 27.5608 43.758 24.226C40.8779 23.5136 38.4072 23.2104 36.1335 21.8613L36.0273 21.9826Z" fill="#4B4F4F"/>
<path d="M1.11841 20.6181C0.875884 17.632 0.693987 14.5094 1.87632 11.7658C3.36181 8.30974 6.77238 6.05118 10.2587 4.68695C13.1236 3.56525 16.1856 2.89829 19.2627 2.7164C20.7936 2.62545 22.3246 2.67092 23.8252 2.94377C27.3116 3.56525 30.5251 5.46001 32.8898 8.09752C35.2545 10.735 36.7854 14.085 37.3917 17.5713C37.8313 20.1331 37.7555 22.907 36.361 25.1049C35.4667 26.5146 34.1024 27.5605 32.7382 28.5155C30.9496 29.7584 29.1003 30.9256 27.0842 31.729C22.7642 33.4722 17.9439 33.5631 13.3055 33.0629C9.68274 32.684 5.77195 31.7745 3.55887 28.8944C1.75505 26.5601 1.36094 23.4678 1.11841 20.6181Z" fill="#656A6B"/>
<path d="M2.60386 3.35316C2.64933 3.11063 2.72512 2.83779 2.95249 2.73168C3.10407 2.65589 3.27081 2.67104 3.43755 2.6862C5.21105 2.94389 6.72686 4.0656 8.16688 5.15698C8.90963 5.71783 9.66753 6.32415 10.1071 7.14269C11.9261 10.6594 6.10538 18.2536 2.93734 17.9807C-1.10988 17.6321 2.07332 5.80877 2.60386 3.35316Z" fill="#656A6B"/>
<path d="M28.5392 0.336801C28.7059 0.154904 28.9181 -0.0269861 29.1606 0.00333008C29.3274 0.0184882 29.4638 0.124595 29.6002 0.230702C30.9645 1.41303 34.9813 9.82578 34.8904 10.7656C34.5114 14.7067 26.5534 11.8873 24.0372 9.93189C20.8237 7.44596 26.7808 2.1103 28.5392 0.336801Z" fill="#656A6B"/>
<path d="M16.3673 13.7217C16.4128 13.9491 16.4431 14.1764 16.4431 14.4189C16.4431 16.1621 15.0334 17.5718 13.2902 17.5718C12.1231 17.5718 11.1075 16.9504 10.5618 16.0105C10.8801 17.4051 12.1382 18.4662 13.6389 18.4662C15.382 18.4662 16.7917 17.0565 16.7917 15.3133C16.7917 14.7373 16.6402 14.1916 16.3673 13.7217Z" fill="#E9F1F4"/>
<path d="M16.8366 15.4195C16.8366 17.1627 15.4269 18.5724 13.6837 18.5724C11.9405 18.5724 10.5308 17.1627 10.5308 15.4195C10.5308 13.6763 11.9405 12.2666 13.6837 12.2666C15.4269 12.2666 16.8366 13.6763 16.8366 15.4195Z" fill="white"/>
<path d="M13.6829 18.6635C11.8943 18.6635 10.424 17.2083 10.424 15.4045C10.424 13.6158 11.8791 12.1455 13.6829 12.1455C15.4716 12.1455 16.9419 13.6007 16.9419 15.4045C16.9419 17.2083 15.4716 18.6635 13.6829 18.6635ZM13.6829 12.3729C12.0004 12.3729 10.6362 13.7371 10.6362 15.4197C10.6362 17.1022 12.0004 18.4664 13.6829 18.4664C15.3655 18.4664 16.7297 17.1022 16.7297 15.4197C16.7297 13.7371 15.3655 12.3729 13.6829 12.3729Z" fill="#4B4F4F"/>
<path d="M15.942 15.541C15.942 16.6779 15.0173 17.6025 13.8805 17.6025C12.7436 17.6025 11.819 16.6779 11.819 15.541C11.819 14.4041 12.7436 13.4795 13.8805 13.4795C15.0173 13.4795 15.942 14.4041 15.942 15.541Z" fill="#593E39"/>
<path d="M13.9263 17.375C14.1537 16.7687 14.3659 16.132 14.4113 15.4802C14.472 14.8284 14.381 14.1463 14.0779 13.5703C14.093 13.5703 13.8808 13.7825 13.8657 13.7977C13.7747 13.9189 13.7444 14.1463 13.7141 14.2979C13.6383 14.6314 13.5928 14.98 13.5777 15.3286C13.5625 15.6773 13.5928 16.0259 13.6534 16.3746C13.6838 16.5565 13.7292 16.7232 13.7747 16.9051C13.7899 16.9809 13.9415 17.2992 13.9263 17.375Z" fill="#30211F"/>
<path d="M12.1674 15.6467C12.1826 15.7073 12.1977 15.7831 12.2281 15.8438C12.2584 15.9044 12.319 15.9499 12.3948 15.965C12.5009 15.9802 12.5919 15.8892 12.6222 15.7983C12.6676 15.7073 12.6677 15.6012 12.6677 15.4951C12.698 15.2223 12.7889 14.9494 12.9253 14.7221C13.1679 14.328 12.5767 14.4189 12.4251 14.6311C12.2129 14.9191 12.1068 15.2981 12.1674 15.6467Z" fill="white"/>
<path d="M13.1989 14.3279C13.2747 14.343 13.3656 14.3127 13.4263 14.2521C13.4869 14.1914 13.5324 14.1308 13.5627 14.055C13.5779 14.0247 13.593 13.9641 13.5778 13.9338C13.5627 13.9186 13.5475 13.9186 13.5324 13.9186C13.396 13.8731 13.1686 13.9338 13.0776 14.0399C13.0018 14.146 13.0625 14.2976 13.1989 14.3279Z" fill="white"/>
<path d="M31.6762 10.3408C31.7217 10.5682 31.752 10.7956 31.752 11.0381C31.752 12.7813 30.3423 14.191 28.5991 14.191C27.432 14.191 26.4164 13.5695 25.8707 12.6297C26.189 14.0242 27.4471 15.0853 28.9478 15.0853C30.6909 15.0853 32.1006 13.6756 32.1006 11.9324C32.1006 11.3564 31.9491 10.8107 31.6762 10.3408Z" fill="#E9F1F4"/>
<path d="M32.1465 12.0386C32.1465 13.7818 30.7368 15.1915 28.9936 15.1915C27.2505 15.1915 25.8408 13.7818 25.8408 12.0386C25.8408 10.2954 27.2505 8.88574 28.9936 8.88574C30.7368 8.88574 32.1465 10.2954 32.1465 12.0386Z" fill="white"/>
<path d="M28.9934 15.2826C27.2047 15.2826 25.7344 13.8275 25.7344 12.0236C25.7344 10.235 27.1896 8.76465 28.9934 8.76465C30.782 8.76465 32.2524 10.2198 32.2524 12.0236C32.2524 13.8275 30.782 15.2826 28.9934 15.2826ZM28.9934 8.99202C27.3108 8.99202 25.9466 10.3562 25.9466 12.0388C25.9466 13.7213 27.3108 15.0856 28.9934 15.0856C30.6759 15.0856 32.0401 13.7213 32.0401 12.0388C32.0401 10.3562 30.6759 8.99202 28.9934 8.99202Z" fill="#4B4F4F"/>
<path d="M31.2519 12.1601C31.2519 13.297 30.3273 14.2216 29.1904 14.2216C28.0535 14.2216 27.1289 13.297 27.1289 12.1601C27.1289 11.0233 28.0535 10.0986 29.1904 10.0986C30.3273 10.0986 31.2519 11.0233 31.2519 12.1601Z" fill="#593E39"/>
<path d="M29.2362 13.9941C29.4635 13.3878 29.6758 12.7512 29.7212 12.0994C29.7819 11.4476 29.6909 10.7655 29.3877 10.1895C29.4029 10.1895 29.1907 10.4017 29.1755 10.4168C29.0846 10.5381 29.0543 10.7655 29.024 10.917C28.9482 11.2505 28.9027 11.5992 28.8875 11.9478C28.8724 12.2964 28.9027 12.6451 28.9633 12.9937C28.9936 13.1756 29.0391 13.3423 29.0846 13.5242C29.0997 13.6 29.2513 13.9184 29.2362 13.9941Z" fill="#30211F"/>
<path d="M27.4774 12.2658C27.4925 12.3265 27.5077 12.4023 27.538 12.4629C27.5683 12.5235 27.6289 12.569 27.7047 12.5842C27.8108 12.5993 27.9018 12.5084 27.9321 12.4174C27.9776 12.3265 27.9776 12.2204 27.9776 12.1143C28.0079 11.8414 28.0989 11.5686 28.2353 11.3412C28.4778 10.9471 27.8866 11.038 27.7351 11.2503C27.5228 11.5383 27.4167 11.9172 27.4774 12.2658Z" fill="white"/>
<path d="M28.5085 10.947C28.5843 10.9622 28.6753 10.9318 28.7359 10.8712C28.7965 10.8106 28.842 10.7499 28.8723 10.6742C28.8875 10.6438 28.9026 10.5832 28.8875 10.5529C28.8723 10.5377 28.8572 10.5377 28.842 10.5377C28.7056 10.4923 28.4782 10.5529 28.3873 10.659C28.3115 10.7651 28.3721 10.9167 28.5085 10.947Z" fill="white"/>
<path d="M3.66491 5.157C3.69522 5.06605 3.72554 4.97509 3.78617 4.91446C3.8468 4.85383 3.95291 4.82351 4.04386 4.80835C4.3925 4.76288 4.74113 4.92962 5.04429 5.11151C5.72641 5.50562 6.33273 6.00584 6.86327 6.58185C6.24178 7.09723 5.63546 7.62776 5.04429 8.17345C4.11965 9.02231 3.28595 9.91664 3.05858 11.1899C2.64931 10.432 2.93732 9.15873 3.02827 8.3402C3.14953 7.27913 3.36174 6.2029 3.66491 5.157Z" fill="#E5CAC6"/>
<path d="M28.3116 2.30723C28.4329 2.18597 28.5693 2.04955 28.7361 1.98892C29.0089 1.88281 29.3272 1.9586 29.5698 2.11018C29.8123 2.27692 29.9942 2.50429 30.1761 2.74682C31.3584 4.36874 32.1466 6.2635 32.4801 8.24921C30.4641 7.11235 28.8876 5.21759 26.7655 4.3081C27.3264 3.67146 27.7053 2.92871 28.3116 2.30723Z" fill="#E5CAC6"/>
<path d="M21.9301 15.4038C21.733 15.4796 21.536 15.616 21.4602 15.8282C21.3995 15.9798 21.4299 16.1617 21.4905 16.3133C21.6572 16.7984 22.0665 17.1622 22.4909 17.4653C22.9154 17.7533 23.3853 17.9959 23.7642 18.3445C24.2189 17.9201 24.6434 17.4653 25.0223 16.9499C25.1739 16.7377 25.3255 16.5104 25.4013 16.2527C25.4771 15.995 25.4922 15.6312 25.3406 15.419C25.1739 15.1764 24.4463 14.752 23.8248 15.1461C23.6126 15.2826 23.4156 15.3887 23.3095 15.6009C22.9457 15.2977 22.3697 15.2371 21.9301 15.4038Z" fill="#E5CAC6"/>
<path d="M27.1139 21.0583C27.0836 20.9977 27.023 20.9826 26.9623 20.9977C26.3409 21.2099 25.6284 21.2251 25.0373 20.9371C24.3855 20.6188 24.0368 19.9366 23.9004 19.2545C23.8852 19.2091 23.8852 19.1484 23.8701 19.103C23.8701 19.0726 23.8701 19.0423 23.8701 19.0272C23.9004 18.4966 23.8701 17.9812 23.7943 17.4507C23.7791 17.3143 23.5518 17.3446 23.5821 17.481C23.5972 17.5568 23.5972 17.6326 23.6124 17.7236C23.5669 17.7387 23.5518 17.7842 23.5518 17.8448C23.5669 18.2692 23.5821 18.7088 23.6427 19.1181C23.6124 19.4667 23.5669 19.8154 23.4911 20.1489C23.4457 20.3459 23.385 20.543 23.2941 20.7249C23.188 20.8916 23.0516 21.0432 22.9151 21.1645C22.612 21.4373 22.2785 21.6495 21.9147 21.8162C21.5054 21.9981 21.0507 22.1043 20.6111 22.1346C20.5505 22.1346 20.505 22.1952 20.5201 22.2558C20.5353 22.3165 20.5808 22.3619 20.6414 22.3468C21.4903 22.3013 22.3088 21.9678 22.9606 21.4373C23.1273 21.3009 23.2789 21.1493 23.4153 20.9826C23.5366 20.8158 23.6276 20.6188 23.6882 20.4065C23.7488 20.1943 23.7943 19.9821 23.8246 19.7547C23.8852 19.9518 23.9762 20.1337 24.0823 20.3156C24.2794 20.6491 24.537 20.9219 24.8705 21.1038C25.1737 21.2706 25.5223 21.3615 25.871 21.3918C26.2802 21.4221 26.6895 21.3615 27.0684 21.2251C27.1139 21.1948 27.1442 21.119 27.1139 21.0583Z" fill="#E5CAC6"/>
<path d="M39.408 53.0263C40.1659 52.7383 40.7722 52.1319 41.3027 51.4953C45.3196 46.7205 46.411 40.2177 47.366 34.0483C47.7601 31.4715 48.1542 28.8643 47.851 26.2722C47.7904 25.7265 47.6994 25.1808 47.6843 24.6352C46.8051 24.5594 45.9411 24.4684 45.0771 24.3623C45.1832 24.62 45.3045 24.8625 45.3651 25.0899C46.4262 29.2432 45.2741 34.4273 43.5613 38.2471C41.7726 42.1882 38.9229 45.5988 37.2252 49.5854C36.8159 50.5555 36.4976 51.7681 37.1797 52.5715C37.6648 53.2082 38.6349 53.3143 39.408 53.0263Z" fill="#797F7F"/>
<path d="M78.2125 27.0752C78.637 28.1817 78.6369 29.4702 78.0458 30.5009C76.1207 33.9115 74.135 37.5343 74.2108 41.4451C74.2563 43.7491 75.0142 45.9773 75.4083 48.2511C75.7721 50.3429 75.8024 52.4802 75.5447 54.572C75.4386 55.4208 75.2719 56.3 75.5144 57.1185C75.7569 57.9371 76.5451 58.6798 77.3788 58.5131C78.0609 58.3767 78.5157 57.7249 78.7582 57.0731C79.3191 55.5724 79.122 53.905 79.0007 52.2983C78.5308 46.5685 79.0007 40.763 80.365 35.1696C80.6378 34.0631 80.941 32.9565 81.4867 31.9561C81.9717 31.0466 82.6538 30.2432 83.245 29.3944C81.6989 28.394 80.0012 27.636 78.2125 27.0752Z" fill="#797F7F"/>
<path d="M56.1424 38.4136C56.5062 37.1252 57.2944 35.9883 57.5976 34.6847C57.8553 33.5933 57.7492 32.4565 57.7037 31.3348C57.6279 29.2733 57.7795 27.1966 58.1585 25.1503C55.8847 25.0896 53.611 25.0138 51.3373 24.8926C51.5192 28.0303 49.9124 31.1529 50.2611 34.3058C50.4733 36.1247 51.307 37.8073 51.883 39.5353C52.9895 42.8549 53.0956 46.4929 52.2165 49.8883C51.3373 53.2837 49.4577 56.4821 49.3819 59.9836C49.3667 60.8779 50.6552 61.3023 51.4283 60.8173C52.1862 60.3474 52.5196 59.4076 52.7773 58.5436C53.4746 56.285 54.1719 54.0416 54.854 51.7831C55.4906 49.7064 56.1424 47.5843 56.1576 45.4166C56.2031 43.0823 55.4906 40.6722 56.1424 38.4136Z" fill="#797F7F"/>
<path d="M69.4661 25.6205C67.9502 25.5144 66.4344 25.4386 64.9338 25.3779C64.9035 25.575 64.858 25.7569 64.8125 25.9539C64.2668 28.3338 63.5696 30.6833 62.751 32.9721C61.9931 35.0943 61.1139 37.3225 61.5687 39.5204C61.9476 41.3546 63.2209 42.9462 63.3573 44.8106C63.4786 46.478 62.6904 48.2212 63.327 49.7673C63.4786 50.1159 63.7666 50.4797 64.1456 50.4343C64.3578 50.4039 64.5397 50.2524 64.6761 50.1008C65.8281 48.8275 65.8433 46.9176 65.5856 45.2199C65.3279 43.5222 64.8428 41.7941 65.2369 40.1268C65.722 38.1107 67.3591 36.6101 68.4201 34.8214C69.3448 33.2753 69.8147 31.4866 69.7995 29.6828C69.7844 28.3641 69.5722 26.8634 69.9663 25.6811C69.7995 25.6508 69.6328 25.6356 69.4661 25.6205Z" fill="#797F7F"/>
<path d="M117.366 10.3864C116.365 10.3258 115.365 10.3258 114.364 10.3713C114.486 11.4778 114.228 12.6298 114.016 13.7364C113.531 16.1617 113.227 18.7082 113.637 21.1335C114.819 20.9062 116.047 20.9365 117.275 21.0729C117.275 20.0725 116.956 19.072 116.79 18.0716C116.365 15.5705 116.865 13.0088 117.35 10.5229C117.35 10.4774 117.35 10.4319 117.366 10.3864Z" fill="#797F7F"/>
<path d="M126.43 11.9931C125.612 11.7657 124.778 11.5535 123.944 11.3564C123.793 12.1144 123.474 12.8571 123.156 13.5847C122.201 15.7371 121.201 17.8744 120.594 20.133C120.473 20.5877 120.367 21.0728 120.337 21.5427C121.731 21.7852 123.11 22.0277 124.505 22.2703C124.763 21.2698 124.687 20.1936 124.884 19.178C125.354 16.6921 127.264 14.8428 128.78 12.7661C128.022 12.4478 127.218 12.2053 126.43 11.9931Z" fill="#797F7F"/>
<path d="M132.432 15.0851C132.175 14.8122 131.902 14.5545 131.614 14.3271C131.144 15.6762 130.598 16.995 129.992 18.2683C129.295 19.7234 128.506 21.2392 128.233 22.8005C130.052 22.9066 131.871 22.6489 133.008 21.315C134.494 19.587 133.963 16.7828 132.432 15.0851Z" fill="#797F7F"/>
<path d="M102.844 33.8057C101.889 32.2141 100.312 30.9712 98.7664 29.8798C97.3112 28.849 95.7651 27.8183 94.613 26.4844C94.2038 27.2423 93.7339 27.9547 93.1882 28.5914C93.4913 28.9703 93.8551 29.3189 94.2492 29.6069C95.477 30.5164 96.9322 31.0773 98.0994 32.0626C99.3424 33.1085 100.146 34.5636 100.979 35.9733C101.631 35.2912 102.268 34.5637 102.844 33.8057Z" fill="#797F7F"/>
<path d="M110.484 20.8154C109.271 18.7236 108.286 16.4953 107.558 14.1913C107.316 13.4334 107.119 12.63 107.028 11.8418C105.755 12.3269 104.542 12.9332 103.405 13.6456C103.663 14.358 103.86 15.1159 104.133 15.7829C105.224 18.5568 107.892 20.4971 108.968 23.2862C109.029 23.4529 109.089 23.6196 109.165 23.7864C109.756 23.1194 110.408 22.5434 111.166 22.0735C110.969 21.6339 110.726 21.2095 110.484 20.8154Z" fill="#797F7F"/>
<path d="M106.891 27.1205C106.77 27.0751 106.664 27.0296 106.542 26.9841C102.783 25.5593 99.5091 22.5731 98.1145 18.8594C97.9781 19.0716 97.8569 19.2838 97.7356 19.5112C97.1899 20.4964 96.7503 21.5575 96.3107 22.6337C97.5689 23.8312 98.7663 25.1045 99.888 26.4233C101.131 27.8936 102.45 29.561 104.345 29.94C104.648 30.0006 104.966 30.0309 105.299 30.0461C105.83 29.0911 106.345 28.0907 106.891 27.1205Z" fill="#797F7F"/>
<path d="M15.0183 9.03785C15.1244 9.15911 15.2608 9.28038 15.4124 9.29554C15.6246 9.31069 15.8216 9.11363 15.8671 8.90142C15.9126 8.68921 15.852 8.46184 15.7762 8.26479C15.2002 6.73382 13.6995 5.62728 13.3963 4.02052C13.3812 3.91441 13.366 3.79314 13.366 3.67188C12.4414 3.9144 11.5319 4.21757 10.6376 4.55105C10.8498 4.65716 11.0772 4.71779 11.2742 4.79358C11.8199 4.97548 12.305 5.27864 12.7294 5.67275C13.1993 6.11233 13.5782 6.64287 13.8966 7.20372C14.2604 7.8252 14.5332 8.50731 15.0183 9.03785Z" fill="#797F7F"/>
<path d="M18.8379 11.1753C19.0198 11.4785 19.3382 11.7665 19.6868 11.6907C20.0657 11.5997 20.2173 11.145 20.2628 10.766C20.5053 8.93192 20.1112 7.022 19.1411 5.46071C18.656 4.67249 18.0194 3.9449 17.7314 3.05057C17.7162 2.98994 17.6859 2.91415 17.6708 2.85352C16.8219 2.94446 15.9731 3.08089 15.1242 3.26279C15.1394 3.26279 15.1394 3.27794 15.1545 3.27794C15.867 3.83879 16.6097 4.4148 17.1099 5.1727C18.0194 6.50662 18.0952 8.21948 18.3832 9.79592C18.4741 10.2658 18.5954 10.7509 18.8379 11.1753Z" fill="#797F7F"/>
<path d="M19.8234 2.68667C20.2629 3.05046 20.6722 3.45974 20.9905 3.9448C21.3998 4.58144 21.6272 5.33934 22.0213 5.99114C22.2183 6.30946 22.4609 6.62778 22.8095 6.7642C23.1581 6.90063 23.628 6.80967 23.7948 6.4762C23.9312 6.21851 23.8554 5.90019 23.7038 5.65766C23.5523 5.41513 23.34 5.20292 23.1733 4.97555C22.7944 4.42986 22.6428 3.74774 22.3396 3.15658C22.2638 3.005 22.1729 2.85341 22.0668 2.71699C21.324 2.67151 20.5661 2.65635 19.8234 2.68667Z" fill="#797F7F"/>
</svg>
