<svg width="110" height="128" viewBox="0 0 110 128" fill="none" xmlns="http://www.w3.org/2000/svg">
<path d="M55.0001 127.48C85.3562 127.48 109.965 124.118 109.965 119.971C109.965 115.823 85.3562 112.461 55.0001 112.461C24.6441 112.461 0.0356445 115.823 0.0356445 119.971C0.0356445 124.118 24.6441 127.48 55.0001 127.48Z" fill="#3C474D"/>
<path d="M79.3859 56.1035C79.3859 56.1035 82.2503 61.2129 87.6693 65.2385C93.0883 69.1866 103.307 74.6831 102.301 79.6376C101.294 84.5148 96.2623 81.2633 96.2623 81.2633C96.2623 81.2633 80.3923 78.5538 75.9797 75.3024C71.567 72.1284 62.5869 63.4579 62.5869 63.4579" fill="#B7A48F"/>
<path d="M70.7155 90.7078C70.7155 90.7078 95.1786 79.0182 90.1467 108.513C90.1467 108.513 96.2624 109.442 96.2624 113.545C96.2624 116.332 90.1467 116.332 90.1467 116.332C90.1467 116.332 63.7482 118.035 61.4258 114.397C59.0259 110.681 55.1552 96.8236 70.7155 90.7078Z" fill="#B7A48F"/>
<path d="M17.9184 94.2688C19.3893 94.5784 20.7054 95.1203 21.944 95.8945C24.8084 97.7524 26.7437 100.694 27.0534 104.023C27.1308 105.029 29.3758 106.345 29.0662 107.352C27.363 114.01 19.699 116.951 13.5058 115.713C7.31263 114.474 3.36447 108.436 4.6031 102.63C5.76432 96.7461 11.7253 93.0301 17.9184 94.2688Z" fill="#C7B299"/>
<path d="M21.8666 95.8945C24.7309 97.7525 26.6663 100.694 26.976 104.023C25.3503 107.584 21.3247 112.306 11.9575 109.21C12.0349 109.21 24.0342 109.132 21.8666 95.8945Z" fill="#998675"/>
<path d="M84.0307 69.419C90.1465 93.4175 92.856 116.874 59.258 118.81C25.9696 120.745 19.0797 100.54 22.2537 71.1995C25.5051 40.3884 29.763 34.0404 50.2779 33.4985C65.9157 32.9566 76.9085 41.1626 84.0307 69.419Z" fill="#C7B299"/>
<path d="M80.6246 22.4281C84.1857 39.4594 81.8633 53.5489 53.2198 56.8777C25.6601 60.0517 19.3121 41.4721 20.1637 25.3699C20.9378 10.9707 32.5501 0.906835 49.2716 0.0552729C65.9158 -0.79629 77.6055 8.26121 80.6246 22.4281Z" fill="#C7B299"/>
<path d="M73.657 26.1439C74.2763 29.2405 72.4958 34.6596 69.7088 38.2207C69.0895 38.9948 68.3928 39.6915 67.6961 40.3109C64.2124 43.0978 59.2578 45.3428 53.684 46.3492C47.4908 47.5104 41.5299 47.046 37.1172 45.3428C36.4205 45.1106 35.7237 44.7235 35.027 44.3364C31.5433 42.2462 28.2145 38.6077 27.6726 35.7434C27.0533 32.3371 30.4595 30.7114 33.711 27.6922C35.027 26.4536 36.5753 25.3698 38.4333 24.3634C41.4524 22.7377 45.0135 21.4216 48.8843 20.6475C54.7678 19.5637 60.419 19.8733 64.7543 21.4216C67.2315 22.2732 69.3218 23.5119 70.7926 25.0601C71.9539 26.2988 73.3473 24.5182 73.657 26.1439Z" fill="#333333"/>
<path d="M71.1022 29.0081C71.3344 32.1047 69.012 35.4336 65.5283 38.2205C62.1995 40.93 57.7094 43.0202 53.4516 43.9492C47.5681 45.1878 41.5297 44.6459 37.2719 42.5557C34.7946 41.3171 32.8593 39.4591 32.0851 37.1367C30.1497 31.8725 39.3621 25.9116 49.7357 23.9762C60.1093 21.9634 70.7151 23.3569 71.1022 29.0081Z" fill="#931C25"/>
<path d="M64.9095 14.2995C65.374 16.8542 63.5934 19.3315 61.0387 19.7185C58.484 20.183 56.0068 18.4025 55.6197 15.8478C55.1552 13.2931 56.9357 10.8158 59.4904 10.4288C62.0451 9.96428 64.5224 11.7448 64.9095 14.2995Z" fill="white"/>
<path d="M39.9818 18.4026C40.4463 20.9573 38.6657 23.4345 36.111 23.8216C33.5563 24.2861 31.0791 22.5056 30.692 19.9509C30.3049 17.3962 32.008 14.9189 34.5627 14.5318C37.1174 14.1448 39.5947 15.8479 39.9818 18.4026Z" fill="white"/>
<path d="M62.6086 15.6037C63.4907 13.9907 62.8981 11.9679 61.285 11.0858C59.672 10.2037 57.6492 10.7963 56.7671 12.4094C55.885 14.0224 56.4776 16.0452 58.0907 16.9273C59.7037 17.8094 61.7265 17.2168 62.6086 15.6037Z" fill="#1A1A1A"/>
<path d="M38.2012 17.4738C38.5109 19.2544 37.2722 21.0349 35.4917 21.2671C33.7112 21.5768 31.9306 20.3381 31.6984 18.5576C31.3887 16.7771 32.6274 14.9965 34.4079 14.7643C36.1884 14.4546 37.8916 15.6933 38.2012 17.4738Z" fill="#1A1A1A"/>
<path d="M65.5284 38.1434C62.1995 40.8529 57.7095 42.9431 53.4517 43.8721C47.5681 45.1108 41.5298 44.5689 37.272 42.4787C39.5944 41.8593 44.0845 40.4659 45.4779 38.2982L57.9417 36.9048C58.0191 36.9048 61.8899 38.5305 65.5284 38.1434Z" fill="#D5473D"/>
<path d="M59.258 38.4532C58.4839 33.8084 55.9292 36.5953 51.6714 37.292C47.4136 37.9888 43.0009 36.363 43.7751 41.0079C44.5492 45.6528 48.1877 46.1947 52.4455 45.498C56.7807 44.8787 60.0322 43.0981 59.258 38.4532Z" fill="#E0504C"/>
<path opacity="0.2" d="M73.6572 26.1439C74.2766 29.2405 72.496 34.6596 69.7091 38.2206C56.626 35.1241 41.7624 41.085 34.9499 44.259C31.4662 42.1688 28.1374 38.5303 27.5955 35.666C26.9761 32.2597 30.3824 30.634 33.6338 27.6148C34.9499 26.3762 36.4982 25.2924 38.3561 24.286L64.7546 21.3442C67.2318 22.1958 69.322 23.4344 70.7929 24.9827C71.9541 26.2987 73.3476 24.5182 73.6572 26.1439Z" fill="black"/>
<path d="M58.716 18.1704C54.3033 18.8671 42.8459 20.8024 38.4333 21.4992C32.0853 22.583 26.5888 28.4665 27.0533 34.1178C27.4404 38.6853 34.8722 43.1753 41.2976 40.2336C45.091 38.453 48.8843 32.6469 50.3552 29.1633C52.3679 32.4147 56.9354 36.4402 61.4255 36.3628C70.1734 36.208 73.657 32.6469 73.5796 25.9118C73.4248 20.1831 65.064 17.164 58.716 18.1704Z" fill="#333333"/>
<path d="M54.3807 22.2733C54.7678 24.3635 52.6776 26.5311 49.8133 26.9956C46.9489 27.4601 44.3168 26.1441 44.0071 24.0539C43.6201 21.9637 45.7103 19.796 48.5746 19.3315C51.3615 18.867 53.9936 20.1831 54.3807 22.2733Z" fill="#1A1A1A"/>
<path d="M63.7479 2.99698C63.3609 3.53888 65.8381 -0.486705 69.0121 0.364857C73.657 1.52608 79.6179 1.99057 80.1599 4.62267C80.8566 8.10633 74.6634 17.3961 70.8701 13.6028C66.9993 9.73207 63.7479 2.99698 63.7479 2.99698Z" fill="#333333"/>
<path d="M27.9823 7.64183C28.5242 7.95149 24.4986 5.55164 22.0988 7.79667C18.5377 10.9707 13.5058 14.2221 14.2799 16.7768C15.3637 20.183 25.1954 25.4472 26.7437 20.2604C28.292 15.1511 27.9823 7.64183 27.9823 7.64183Z" fill="#333333"/>
<path d="M49.6587 26.144L50.3554 29.2406" stroke="#1A1A1A" stroke-width="0.7172" stroke-miterlimit="10"/>
<path d="M30.1499 13.3704C30.1499 13.3704 36.1882 5.39667 42.7685 12.5188" stroke="#B39A83" stroke-width="0.7172" stroke-miterlimit="10"/>
<path d="M63.2836 7.64197C63.2836 7.64197 55.0776 1.91327 50.9746 10.7386" stroke="#B39A83" stroke-width="0.7172" stroke-miterlimit="10"/>
<path d="M31.6211 9.34488C31.6211 9.34488 36.4208 4.9322 42.0721 7.17723C44.4719 8.10621 47.1814 7.64172 49.1942 6.01601C51.4393 4.23547 54.8455 2.68721 59.1033 3.92585" stroke="#B39A83" stroke-width="0.7172" stroke-miterlimit="10"/>
<path d="M44.6265 94.0369C44.6265 94.0369 69.0896 82.3473 64.0576 111.842C64.0576 111.842 71.7991 112.771 71.7991 116.874C71.7991 119.661 65.6833 119.661 65.6833 119.661C65.6833 119.661 37.6592 121.364 35.2593 117.726C32.9369 114.01 29.0661 100.153 44.6265 94.0369Z" fill="#C7B299" stroke="#B39A83" stroke-width="1.4344" stroke-miterlimit="10" stroke-linecap="round" stroke-linejoin="round"/>
<path d="M67.6188 62.1421C67.6188 62.1421 70.7928 67.5612 76.4441 70.89C82.0954 74.2962 92.6238 78.3218 91.7722 84.3601C90.9207 90.3985 85.7339 87.7664 85.7339 87.7664C85.7339 87.7664 69.5542 88.4631 64.9093 85.7536C60.2644 83.0441 50.8198 74.9155 50.8198 74.9155" fill="#C7B299"/>
<path d="M67.6188 62.1421C67.6188 62.1421 70.7928 67.5612 76.4441 70.89C82.0954 74.2962 92.6238 78.3218 91.7722 84.3601C90.9207 90.3985 85.7339 87.7664 85.7339 87.7664C85.7339 87.7664 69.5542 88.4631 64.9093 85.7536C60.2644 83.0441 50.8198 74.9155 50.8198 74.9155" stroke="#B39A83" stroke-width="1.4344" stroke-miterlimit="10" stroke-linecap="round" stroke-linejoin="round"/>
<path d="M25.1953 49.059C25.1953 49.059 38.3558 53.7039 50.2777 53.4717C62.5093 53.162 77.3729 48.5171 77.3729 48.5171" stroke="#F9AACA" stroke-width="3.5861" stroke-miterlimit="10"/>
<path d="M60.4965 52.6973C61.1932 55.8713 56.9354 59.5872 53.9162 60.2065C50.897 60.8258 50.3551 58.2712 49.6584 55.0198C48.9617 51.8458 48.4198 49.2136 51.4389 48.5943C54.3807 47.975 59.7997 49.5233 60.4965 52.6973Z" fill="#FAB5D0"/>
<path d="M60.4189 52.6974C61.1156 55.8714 66.5347 57.4197 69.4764 56.8004C72.4956 56.181 71.9537 53.5489 71.2569 50.3749C70.5602 47.2009 69.9409 44.5688 66.9991 45.1881C64.0574 45.8849 59.7221 49.5234 60.4189 52.6974Z" fill="#FAB5D0"/>
<path d="M60.3414 52.2328C60.3414 52.2328 52.9096 50.7619 53.0644 53.2392C53.2966 57.497 57.7867 55.7164 59.8769 53.2392" fill="#F9AACA"/>
<path d="M60.3418 52.2329C60.3418 52.2329 66.4575 47.8202 67.3865 50.1426C68.9348 54.1682 64.1351 54.4005 61.1933 53.007" fill="#F9AACA"/>
<path d="M63.5158 52.0779C63.9029 53.781 62.8191 55.4842 61.1159 55.8712C59.4128 56.2583 57.7097 55.1745 57.3226 53.4714C56.9355 51.7683 58.0193 50.0651 59.7225 49.6781C61.503 49.291 63.2061 50.3748 63.5158 52.0779Z" fill="#FBC4D9"/>
</svg>
